<svg width="24" height="24" viewBox="0 0 24 24" fill="none" xmlns="http://www.w3.org/2000/svg">
<path d="M16.67 20.8299C16.65 20.8299 16.64 20.8299 16.63 20.8299H5.54003C2.60003 20.6199 1.28003 18.3499 1.28003 16.3399C1.28003 14.5399 2.33003 12.5399 4.61003 11.9899C3.61003 8.14995 5.51003 5.45995 7.75003 4.18995C10.35 2.70995 14.22 2.69995 16.57 5.54995C16.59 5.57995 16.61 5.60995 16.63 5.63995C17.33 6.52995 17.82 7.59995 18.1 8.83995C19.33 9.10995 20.39 9.76995 21.22 10.7499C23.11 12.9799 23.47 16.8599 20.77 19.2399C19.65 20.2699 18.2 20.8299 16.67 20.8299ZM11.49 4.69995C10.43 4.69995 9.38003 4.98995 8.50003 5.48995C6.08003 6.86995 5.26003 9.42995 6.30003 12.3499C6.38003 12.5799 6.35003 12.8399 6.21003 13.0299C6.07003 13.2199 5.84003 13.3499 5.60003 13.3499C3.66003 13.4899 2.79003 14.9499 2.79003 16.3399C2.79003 17.7299 3.66003 19.1899 5.60003 19.3399H16.64C17.8 19.3499 18.92 18.9199 19.77 18.1399L19.78 18.1299C21.81 16.3499 21.51 13.4199 20.08 11.7299C19.38 10.8999 18.45 10.3899 17.38 10.2499C17.05 10.2099 16.79 9.95995 16.74 9.62995C16.53 8.38995 16.09 7.34995 15.43 6.52995C15.41 6.50995 15.4 6.47995 15.38 6.45995C14.32 5.21995 12.9 4.69995 11.49 4.69995Z" fill="#242424"/>
<path d="M7.26003 13.7598C7.15003 13.7598 7.03003 13.7298 6.93003 13.6798C6.51003 13.4698 6.05003 13.3598 5.58003 13.3498C5.17003 13.3398 4.84003 12.9998 4.84003 12.5898C4.85003 12.1798 5.24003 11.8398 5.60003 11.8498C6.29003 11.8598 6.98003 12.0298 7.59003 12.3398C7.96003 12.5198 8.11003 12.9798 7.93003 13.3498C7.80003 13.6098 7.54003 13.7598 7.26003 13.7598Z" fill="#242424"/>
<path d="M15.85 10.6702C15.57 10.6702 15.31 10.5202 15.18 10.2502C14.99 9.88022 15.15 9.43022 15.52 9.24022C16.14 8.93022 16.83 8.76022 17.51 8.75022C17.91 8.74022 18.27 9.07022 18.27 9.49022C18.28 9.90022 17.95 10.2502 17.53 10.2502C17.07 10.2602 16.6 10.3702 16.18 10.5802C16.07 10.6402 15.96 10.6702 15.85 10.6702Z" fill="#242424"/>
<path d="M20.65 11.98C20.44 11.98 20.22 11.89 20.07 11.71C19.38 10.88 18.44 10.37 17.37 10.23C17.04 10.19 16.78 9.94 16.73 9.61C16.52 8.37 16.08 7.33 15.42 6.51C15.31 6.38 15.25 6.21 15.25 6.04C15.25 5.84 15.33 5.64 15.47 5.5C16.27 4.69 17.33 4.25 18.47 4.25C20.81 4.25 22.72 6.16 22.72 8.5C22.72 9.8 22.14 11.01 21.12 11.82C20.98 11.93 20.82 11.98 20.65 11.98ZM18.11 8.84C19.07 9.05 19.94 9.5 20.66 10.16C21.02 9.69 21.22 9.11 21.22 8.5C21.22 6.98 19.99 5.75 18.47 5.75C17.95 5.75 17.45 5.89 17.02 6.17C17.53 6.94 17.89 7.84 18.11 8.84Z" fill="#242424"/>
</svg>
