<svg width="24" height="24" viewBox="0 0 24 24" fill="none" xmlns="http://www.w3.org/2000/svg">
<path d="M16.65 20.7498C16.64 20.7498 16.62 20.7498 16.61 20.7498C16.2 20.7498 15.86 20.4098 15.87 19.9898C15.87 19.5798 16.24 19.2098 16.63 19.2498C17.73 19.2498 18.89 18.8298 19.74 18.0498C21.29 16.6898 21.4 14.7498 20.98 13.3798C20.56 12.0098 19.39 10.4598 17.37 10.1998C17.04 10.1598 16.78 9.90977 16.72 9.57977C16.33 7.18977 15.03 5.53977 13.09 4.93977C11.07 4.31977 8.74001 4.92977 7.28001 6.45977C5.86001 7.94977 5.53001 10.0198 6.35001 12.3098C6.49001 12.6998 6.29001 13.1298 5.90001 13.2698C5.51001 13.4098 5.08001 13.2098 4.94001 12.8198C3.93001 10.0098 4.39001 7.31977 6.20001 5.42977C8.05001 3.49977 10.99 2.72977 13.54 3.51977C15.87 4.23977 17.52 6.15977 18.11 8.81977C20.15 9.27977 21.78 10.8198 22.43 12.9498C23.14 15.2698 22.5 17.6498 20.76 19.1698C19.61 20.1898 18.16 20.7498 16.65 20.7498Z" fill="#242424"/>
<path d="M5.56999 20.7501C5.54999 20.7501 5.52999 20.7501 5.51999 20.7501C2.63999 20.5501 1.32999 18.2901 1.32999 16.2801C1.32999 14.2701 2.63999 12.0201 5.51999 11.8101C6.27999 11.8201 6.98999 11.9701 7.62999 12.2901C7.99999 12.4801 8.13999 12.9301 7.95999 13.3001C7.76999 13.6701 7.31999 13.8101 6.94999 13.6301C6.52999 13.4101 6.05999 13.3101 5.58999 13.3101C3.69999 13.4501 2.83999 14.9001 2.83999 16.2801C2.83999 17.6601 3.69999 19.1101 5.62999 19.2501C6.03999 19.2801 6.34999 19.6401 6.32999 20.0501C6.28999 20.4501 5.95999 20.7501 5.56999 20.7501Z" fill="#242424"/>
<path d="M15.82 10.6402C15.54 10.6402 15.28 10.4902 15.15 10.2202C14.96 9.85021 15.11 9.40021 15.49 9.21021C16.1 8.90021 16.79 8.73021 17.47 8.72021H17.48C17.89 8.72021 18.22 9.05021 18.23 9.46021C18.24 9.87021 17.91 10.2202 17.49 10.2202C17.03 10.2302 16.57 10.3402 16.15 10.5502C16.04 10.6202 15.93 10.6402 15.82 10.6402Z" fill="#242424"/>
<path d="M12.98 19C12.42 19 11.98 18.55 11.98 18C11.98 17.45 12.43 17 12.98 17C13.53 17 13.98 17.45 13.98 18C13.98 18.55 13.53 19 12.98 19Z" fill="#242424"/>
<path d="M8.98001 19C8.42001 19 7.98001 18.55 7.98001 18C7.98001 17.45 8.43001 17 8.98001 17C9.53001 17 9.98001 17.45 9.98001 18C9.98001 18.55 9.53001 19 8.98001 19Z" fill="#242424"/>
<path d="M10.98 22C10.42 22 9.98001 21.55 9.98001 21C9.98001 20.45 10.43 20 10.98 20C11.53 20 11.98 20.45 11.98 21C11.98 21.55 11.53 22 10.98 22Z" fill="#242424"/>
</svg>
