<svg width="24" height="24" viewBox="0 0 24 24" fill="none" xmlns="http://www.w3.org/2000/svg">
<path d="M16.65 20.7498C16.64 20.7498 16.62 20.7498 16.61 20.7498C16.2 20.7498 15.86 20.4098 15.87 19.9898C15.87 19.5798 16.21 19.2498 16.62 19.2498C16.63 19.2498 16.65 19.2498 16.66 19.2498C17.8 19.2498 18.89 18.8298 19.73 18.0498C21.28 16.6898 21.39 14.7498 20.97 13.3798C20.55 12.0098 19.39 10.4598 17.36 10.1998C17.03 10.1598 16.77 9.90977 16.71 9.57977C16.31 7.18977 15.02 5.53977 13.08 4.93977C11.06 4.31977 8.73 4.92977 7.27 6.45977C5.85 7.94977 5.52 10.0198 6.34 12.3098C6.48 12.6998 6.28 13.1298 5.89 13.2698C5.5 13.4098 5.07 13.2098 4.93 12.8198C3.92 10.0098 4.38 7.31977 6.19 5.42977C8.04 3.49977 10.98 2.72977 13.53 3.51977C15.86 4.23977 17.51 6.15977 18.1 8.81977C20.14 9.27977 21.77 10.8198 22.42 12.9498C23.13 15.2698 22.48 17.6498 20.75 19.1698C19.61 20.1898 18.16 20.7498 16.65 20.7498Z" fill="#242424"/>
<path d="M5.56999 20.75C5.54999 20.75 5.52999 20.75 5.51999 20.75C2.63999 20.55 1.32999 18.29 1.32999 16.28C1.32999 14.27 2.63999 12.02 5.51999 11.81C6.25999 11.8 6.98999 11.97 7.62999 12.29C7.99999 12.48 8.13999 12.93 7.95999 13.3C7.76999 13.67 7.31999 13.81 6.94999 13.63C6.52999 13.41 6.04999 13.32 5.58999 13.31C3.69999 13.45 2.83999 14.9 2.83999 16.28C2.83999 17.66 3.69999 19.11 5.63999 19.25C6.04999 19.28 6.35999 19.64 6.32999 20.05C6.28999 20.45 5.95999 20.75 5.56999 20.75Z" fill="#242424"/>
<path d="M15.82 10.6402C15.55 10.6402 15.28 10.4902 15.15 10.2202C14.96 9.85021 15.11 9.40021 15.49 9.21021C16.1 8.90021 16.79 8.73021 17.47 8.72021C17.85 8.74021 18.23 9.04021 18.23 9.46021C18.24 9.87021 17.91 10.2202 17.49 10.2202C17.03 10.2302 16.57 10.3402 16.15 10.5502C16.05 10.6202 15.93 10.6402 15.82 10.6402Z" fill="#242424"/>
<path d="M7.97 22.7499C7.78 22.7499 7.59 22.6799 7.44 22.5299C7.15 22.2399 7.15 21.7599 7.44 21.4699L9.44 19.4699C9.73 19.1799 10.21 19.1799 10.5 19.4699C10.79 19.7599 10.79 20.2399 10.5 20.5299L8.5 22.5299C8.36 22.6799 8.17 22.7499 7.97 22.7499Z" fill="#242424"/>
<path d="M11.97 22.7499C11.78 22.7499 11.59 22.6799 11.44 22.5299C11.15 22.2399 11.15 21.7599 11.44 21.4699L13.44 19.4699C13.73 19.1799 14.21 19.1799 14.5 19.4699C14.79 19.7599 14.79 20.2399 14.5 20.5299L12.5 22.5299C12.36 22.6799 12.17 22.7499 11.97 22.7499Z" fill="#242424"/>
<path d="M11.97 18.7499C11.78 18.7499 11.59 18.6799 11.44 18.5299C11.15 18.2399 11.15 17.7599 11.44 17.4699L13.44 15.4699C13.73 15.1799 14.21 15.1799 14.5 15.4699C14.79 15.7599 14.79 16.2399 14.5 16.5299L12.5 18.5299C12.36 18.6799 12.17 18.7499 11.97 18.7499Z" fill="#242424"/>
<path d="M7.97 18.7499C7.78 18.7499 7.59 18.6799 7.44 18.5299C7.15 18.2399 7.15 17.7599 7.44 17.4699L9.44 15.4699C9.73 15.1799 10.21 15.1799 10.5 15.4699C10.79 15.7599 10.79 16.2399 10.5 16.5299L8.5 18.5299C8.36 18.6799 8.17 18.7499 7.97 18.7499Z" fill="#242424"/>
</svg>
