<svg width="24" height="24" viewBox="0 0 24 24" fill="none" xmlns="http://www.w3.org/2000/svg">
<path d="M12.97 20.75H8.96997C8.55997 20.75 8.21997 20.41 8.21997 20C8.21997 19.59 8.55997 19.25 8.96997 19.25H12.97C13.38 19.25 13.72 19.59 13.72 20C13.72 20.41 13.39 20.75 12.97 20.75Z" fill="#242424"/>
<path d="M16.65 20.7498C16.64 20.7498 16.62 20.7498 16.61 20.7498C16.2 20.7498 15.86 20.4098 15.87 19.9898C15.87 19.5798 16.21 19.2498 16.62 19.2498C16.63 19.2498 16.65 19.2498 16.66 19.2498C17.8 19.2498 18.89 18.8298 19.73 18.0498C21.28 16.6898 21.39 14.7498 20.97 13.3798C20.55 12.0098 19.39 10.4598 17.36 10.1998C17.03 10.1598 16.77 9.90977 16.71 9.57977C16.31 7.18977 15.02 5.53977 13.08 4.93977C11.06 4.31977 8.72997 4.92977 7.26997 6.45977C5.84997 7.94977 5.51997 10.0198 6.33997 12.3098C6.47997 12.6998 6.27997 13.1298 5.88997 13.2698C5.49997 13.4098 5.06997 13.2098 4.92997 12.8198C3.91997 10.0098 4.37997 7.31977 6.18997 5.42977C8.03997 3.49977 10.99 2.72977 13.53 3.51977C15.86 4.23977 17.51 6.15977 18.1 8.81977C20.14 9.27977 21.77 10.8198 22.42 12.9498C23.13 15.2698 22.48 17.6498 20.75 19.1698C19.61 20.1898 18.16 20.7498 16.65 20.7498Z" fill="#242424"/>
<path d="M5.57002 20.75C5.55002 20.75 5.53002 20.75 5.52002 20.75C2.64002 20.55 1.33002 18.29 1.33002 16.28C1.33002 14.27 2.64002 12.02 5.52002 11.81C6.26002 11.8 6.99002 11.97 7.63002 12.29C8.00002 12.48 8.14002 12.93 7.96002 13.3C7.77002 13.67 7.32002 13.81 6.95002 13.63C6.53002 13.41 6.05002 13.32 5.59002 13.31C3.70002 13.45 2.84002 14.9 2.84002 16.28C2.84002 17.66 3.70002 19.11 5.64002 19.25C6.05002 19.28 6.36002 19.64 6.33002 20.05C6.29002 20.45 5.96002 20.75 5.57002 20.75Z" fill="#242424"/>
<path d="M15.82 10.6402C15.55 10.6402 15.28 10.4902 15.15 10.2202C14.96 9.85021 15.11 9.40021 15.49 9.21021C16.1 8.90021 16.79 8.73021 17.47 8.72021C17.86 8.74021 18.23 9.04021 18.23 9.46021C18.24 9.87021 17.91 10.2202 17.49 10.2202C17.03 10.2302 16.57 10.3402 16.15 10.5502C16.05 10.6202 15.93 10.6402 15.82 10.6402Z" fill="#242424"/>
</svg>
