<svg width="24" height="24" viewBox="0 0 24 24" fill="none" xmlns="http://www.w3.org/2000/svg">
<path d="M16.68 20.8301C16.67 20.8301 16.65 20.8301 16.64 20.8301H5.54998C2.60998 20.6201 1.28998 18.3601 1.28998 16.3401C1.28998 14.5401 2.33998 12.5401 4.62998 11.9901C3.98998 9.49008 4.52998 7.14008 6.15998 5.44008C8.00998 3.50008 10.98 2.73008 13.53 3.52008C15.87 4.24008 17.52 6.17008 18.12 8.85008C20.17 9.31008 21.8 10.8601 22.46 13.0001C23.17 15.3301 22.53 17.7201 20.78 19.2501C19.66 20.2601 18.2 20.8301 16.68 20.8301ZM5.56998 13.3501C5.55998 13.3501 5.55998 13.3501 5.54998 13.3501C3.64998 13.4901 2.77998 14.9501 2.77998 16.3401C2.77998 17.7301 3.64998 19.1901 5.58998 19.3301H16.63C17.79 19.3101 18.9 18.9101 19.76 18.1301C21.32 16.7601 21.43 14.8101 21.01 13.4401C20.59 12.0601 19.42 10.5001 17.38 10.2401C17.05 10.2001 16.79 9.95008 16.73 9.62008C16.33 7.22008 15.03 5.56008 13.08 4.96008C11.05 4.34008 8.70998 4.95008 7.23998 6.48008C5.90998 7.87008 5.52998 9.79008 6.14998 11.9001C6.65998 11.9701 7.14998 12.1201 7.59998 12.3501C7.96998 12.5401 8.11998 12.9901 7.92998 13.3601C7.73998 13.7301 7.28998 13.8801 6.91998 13.6901C6.50998 13.4801 6.05998 13.3701 5.60998 13.3701C5.59998 13.3501 5.58998 13.3501 5.56998 13.3501Z" fill="#242424"/>
<path d="M15.85 10.6702C15.57 10.6702 15.31 10.5202 15.18 10.2502C14.99 9.88022 15.15 9.43022 15.52 9.24022C16.14 8.93022 16.83 8.76022 17.51 8.75022C17.91 8.74022 18.27 9.07022 18.27 9.49022C18.28 9.90022 17.95 10.2502 17.53 10.2502C17.07 10.2602 16.6 10.3702 16.18 10.5802C16.07 10.6402 15.96 10.6702 15.85 10.6702Z" fill="#242424"/>
</svg>
