<svg width="24" height="24" viewBox="0 0 24 24" fill="none" xmlns="http://www.w3.org/2000/svg">
<path d="M16.67 20.83C16.65 20.83 16.64 20.83 16.63 20.83H5.54C2.6 20.62 1.28 18.35 1.28 16.34C1.28 14.54 2.33 12.54 4.61 11.99C3.98 9.47001 4.53 7.11001 6.19 5.40001C8.07 3.46001 11.06 2.71001 13.61 3.54001C14 3.67001 14.22 4.09001 14.09 4.48001C13.96 4.87001 13.54 5.09001 13.15 4.96001C11.12 4.31001 8.75 4.90001 7.26 6.45001C5.81 7.95001 5.47 10.04 6.3 12.35C6.38 12.58 6.35 12.84 6.21 13.03C6.07 13.22 5.84 13.35 5.6 13.35C3.66 13.49 2.79 14.95 2.79 16.34C2.79 17.73 3.66 19.19 5.6 19.34H16.64C17.78 19.35 18.92 18.92 19.77 18.14C20.92 17.13 21.42 15.66 21.17 14.1C21.1 13.69 21.38 13.31 21.79 13.24C22.2 13.17 22.58 13.45 22.65 13.86C22.99 15.92 22.28 17.94 20.78 19.26C19.66 20.26 18.2 20.83 16.67 20.83Z" fill="#242424"/>
<path d="M7.26 13.7598C7.15 13.7598 7.03 13.7298 6.93 13.6798C6.51 13.4698 6.05 13.3598 5.58 13.3498C5.17 13.3398 4.84 12.9998 4.84 12.5898C4.85 12.1798 5.24 11.8398 5.6 11.8498C6.29 11.8598 6.98 12.0298 7.59 12.3398C7.96 12.5198 8.11 12.9798 7.93 13.3498C7.8 13.6098 7.54 13.7598 7.26 13.7598Z" fill="#242424"/>
<path d="M18.47 12.7498C16.13 12.7498 14.22 10.8398 14.22 8.49977C14.22 7.39977 14.64 6.35977 15.4 5.57977C15.42 5.54977 15.44 5.52977 15.46 5.50977C16.26 4.69977 17.32 4.25977 18.46 4.25977C20.8 4.25977 22.71 6.16977 22.71 8.50977C22.71 9.80977 22.13 11.0198 21.11 11.8298C20.38 12.4198 19.44 12.7498 18.47 12.7498ZM16.6 6.49977C16.58 6.52977 16.56 6.54977 16.53 6.57977C16.01 7.08977 15.72 7.77977 15.72 8.50977C15.72 10.0298 16.95 11.2598 18.47 11.2598C19.09 11.2598 19.7 11.0498 20.18 10.6598C20.85 10.1298 21.22 9.34977 21.22 8.50977C21.22 6.98977 19.99 5.75977 18.47 5.75977C17.76 5.74977 17.1 6.01977 16.6 6.49977Z" fill="#242424"/>
</svg>
