<svg width="24" height="24" viewBox="0 0 24 24" fill="none" xmlns="http://www.w3.org/2000/svg">
<path d="M12.46 22.7501C12.29 22.7501 12.12 22.7501 11.95 22.7401C6.35001 22.4901 1.67001 17.9801 1.28001 12.4801C0.940009 7.76011 3.67001 3.35011 8.07001 1.50011C9.32001 0.980114 9.98001 1.38011 10.26 1.67011C10.54 1.95011 10.93 2.60011 10.41 3.79011C9.95001 4.85011 9.72001 5.98011 9.73001 7.14011C9.75001 11.5701 13.43 15.3301 17.92 15.5101C18.57 15.5401 19.21 15.4901 19.83 15.3801C21.15 15.1401 21.7 15.6701 21.91 16.0101C22.12 16.3501 22.36 17.0801 21.56 18.1601C19.44 21.0601 16.07 22.7501 12.46 22.7501ZM2.77001 12.3701C3.11001 17.1301 7.17001 21.0301 12.01 21.2401C15.3 21.4001 18.42 19.9001 20.34 17.2801C20.49 17.0701 20.56 16.9201 20.59 16.8401C20.5 16.8301 20.34 16.8201 20.09 16.8701C19.36 17.0001 18.6 17.0501 17.85 17.0201C12.57 16.8101 8.25001 12.3801 8.22001 7.16011C8.22001 5.78011 8.49001 4.45011 9.04001 3.20011C9.14001 2.98011 9.16001 2.83011 9.17001 2.75011C9.08001 2.75011 8.92001 2.77011 8.66001 2.88011C4.85001 4.48011 2.49001 8.30011 2.77001 12.3701Z" fill="#242424"/>
</svg>
