<svg width="24" height="24" viewBox="0 0 24 24" fill="none" xmlns="http://www.w3.org/2000/svg">
<path d="M18.29 22.75H5.71001C2.31001 22.75 2.13001 20.88 1.98001 19.37L1.58001 14.36C1.49001 13.39 1.77001 12.42 2.39001 11.64C3.13001 10.74 4.18001 10.25 5.31001 10.25H18.69C19.8 10.25 20.85 10.74 21.56 11.59L21.73 11.82C22.27 12.56 22.51 13.46 22.42 14.37L22.02 19.36C21.87 20.88 21.69 22.75 18.29 22.75ZM5.31001 11.75C4.64001 11.75 4.00001 12.05 3.58001 12.57L3.51001 12.64C3.19001 13.05 3.02001 13.63 3.08001 14.23L3.48001 19.24C3.62001 20.7 3.68001 21.25 5.71001 21.25H18.29C20.33 21.25 20.38 20.7 20.52 19.23L20.92 14.22C20.98 13.63 20.81 13.04 20.42 12.58L20.32 12.46C19.87 11.99 19.3 11.75 18.68 11.75H5.31001Z" fill="#242424"/>
<path d="M20.5 12.2198C20.09 12.2198 19.75 11.8798 19.75 11.4698V9.67979C19.75 6.69979 19.23 6.17978 16.25 6.17978H13.7C12.57 6.17978 12.18 5.77979 11.75 5.20979L10.46 3.49979C10.02 2.91979 9.92 2.77979 9.02 2.77979H7.75C4.77 2.77979 4.25 3.29979 4.25 6.27979V11.4298C4.25 11.8398 3.91 12.1798 3.5 12.1798C3.09 12.1798 2.75 11.8398 2.75 11.4298V6.27979C2.75 2.44979 3.92 1.27979 7.75 1.27979H9.03C10.57 1.27979 11.05 1.77979 11.67 2.59979L12.95 4.29979C13.22 4.65979 13.24 4.67979 13.71 4.67979H16.26C20.09 4.67979 21.26 5.84979 21.26 9.67979V11.4698C21.25 11.8798 20.91 12.2198 20.5 12.2198Z" fill="#242424"/>
<path d="M14.57 17.75H9.42999C9.01999 17.75 8.67999 17.41 8.67999 17C8.67999 16.59 9.01999 16.25 9.42999 16.25H14.57C14.98 16.25 15.32 16.59 15.32 17C15.32 17.41 14.99 17.75 14.57 17.75Z" fill="#242424"/>
</svg>
