<svg width="24" height="24" viewBox="0 0 24 24" fill="none" xmlns="http://www.w3.org/2000/svg">
<path d="M15 22.75H9C3.57 22.75 1.25 20.43 1.25 15V9C1.25 3.57 3.57 1.25 9 1.25H15C20.43 1.25 22.75 3.57 22.75 9V15C22.75 20.43 20.43 22.75 15 22.75ZM9 2.75C4.39 2.75 2.75 4.39 2.75 9V15C2.75 19.61 4.39 21.25 9 21.25H15C19.61 21.25 21.25 19.61 21.25 15V9C21.25 4.39 19.61 2.75 15 2.75H9Z" fill="#242424"/>
<path d="M10.1801 17.8998C9.99008 17.8998 9.80008 17.8298 9.65008 17.6798L6.61008 14.6398C6.32008 14.3498 6.32008 13.8698 6.61008 13.5798C6.90008 13.2898 7.38008 13.2898 7.67008 13.5798L10.7101 16.6198C11.0001 16.9098 11.0001 17.3898 10.7101 17.6798C10.5701 17.8298 10.3801 17.8998 10.1801 17.8998Z" fill="#242424"/>
<path d="M10.1802 17.9001C9.77018 17.9001 9.43018 17.5601 9.43018 17.1501V6.8501C9.43018 6.4401 9.77018 6.1001 10.1802 6.1001C10.5902 6.1001 10.9302 6.4401 10.9302 6.8501V17.1601C10.9302 17.5701 10.6002 17.9001 10.1802 17.9001Z" fill="#242424"/>
<path d="M16.8598 10.64C16.6698 10.64 16.4798 10.57 16.3298 10.42L13.2898 7.38004C12.9998 7.09004 12.9998 6.61004 13.2898 6.32004C13.5798 6.03004 14.0598 6.03004 14.3498 6.32004L17.3898 9.36004C17.6798 9.65004 17.6798 10.13 17.3898 10.42C17.2398 10.56 17.0498 10.64 16.8598 10.64Z" fill="#242424"/>
<path d="M13.8198 17.9001C13.4098 17.9001 13.0698 17.5601 13.0698 17.1501V6.8501C13.0698 6.4401 13.4098 6.1001 13.8198 6.1001C14.2298 6.1001 14.5698 6.4401 14.5698 6.8501V17.1601C14.5698 17.5701 14.2298 17.9001 13.8198 17.9001Z" fill="#242424"/>
</svg>
