<svg width="24" height="24" viewBox="0 0 24 24" fill="none" xmlns="http://www.w3.org/2000/svg">
<path d="M12 22.75C6.07 22.75 1.25 17.93 1.25 12C1.25 6.07 6.07 1.25 12 1.25C17.93 1.25 22.75 6.07 22.75 12C22.75 17.93 17.93 22.75 12 22.75ZM12 2.75C6.9 2.75 2.75 6.9 2.75 12C2.75 17.1 6.9 21.25 12 21.25C17.1 21.25 21.25 17.1 21.25 12C21.25 6.9 17.1 2.75 12 2.75Z" fill="#242424"/>
<path d="M15.5 12.75H9.5C9.09 12.75 8.75 12.41 8.75 12C8.75 11.59 9.09 11.25 9.5 11.25H15.5C15.91 11.25 16.25 11.59 16.25 12C16.25 12.41 15.91 12.75 15.5 12.75Z" fill="#242424"/>
<path d="M11.5 15.7499C11.31 15.7499 11.12 15.6799 10.97 15.5299L7.97 12.5299C7.68 12.2399 7.68 11.7599 7.97 11.4699L10.97 8.46994C11.26 8.17994 11.74 8.17994 12.03 8.46994C12.32 8.75994 12.32 9.23994 12.03 9.52994L9.56 11.9999L12.03 14.4699C12.32 14.7599 12.32 15.2399 12.03 15.5299C11.88 15.6799 11.69 15.7499 11.5 15.7499Z" fill="#242424"/>
</svg>
