<svg width="24" height="24" viewBox="0 0 24 24" fill="none" xmlns="http://www.w3.org/2000/svg">
<path d="M8.91001 20.67C8.72001 20.67 8.53001 20.6 8.38001 20.45C8.09001 20.16 8.09001 19.68 8.38001 19.39L14.9 12.87C15.38 12.39 15.38 11.61 14.9 11.13L8.38001 4.61002C8.09001 4.32002 8.09001 3.84002 8.38001 3.55002C8.67001 3.26002 9.15001 3.26002 9.44001 3.55002L15.96 10.07C16.47 10.58 16.76 11.27 16.76 12C16.76 12.73 16.48 13.42 15.96 13.93L9.44001 20.45C9.29001 20.59 9.10001 20.67 8.91001 20.67Z" fill="#242424"/>
</svg>
