<svg width="24" height="24" viewBox="0 0 24 24" fill="none" xmlns="http://www.w3.org/2000/svg">
<path d="M9.01 21.2502C8.82 21.2502 8.63 21.1802 8.48 21.0302L3.47 16.0202C3.18 15.7302 3.18 15.2502 3.47 14.9602C3.76 14.6702 4.24 14.6702 4.53 14.9602L9.54 19.9702C9.83 20.2602 9.83 20.7402 9.54 21.0302C9.39 21.1702 9.2 21.2502 9.01 21.2502Z" fill="#242424"/>
<path d="M9.01001 21.25C8.60001 21.25 8.26001 20.91 8.26001 20.5V3.5C8.26001 3.09 8.60001 2.75 9.01001 2.75C9.42001 2.75 9.76001 3.09 9.76001 3.5V20.5C9.76001 20.91 9.42001 21.25 9.01001 21.25Z" fill="#242424"/>
<path d="M20.01 9.25994C19.82 9.25994 19.63 9.18994 19.48 9.03994L14.47 4.02994C14.18 3.73994 14.18 3.25994 14.47 2.96994C14.76 2.67994 15.24 2.67994 15.53 2.96994L20.54 7.97994C20.83 8.26994 20.83 8.74994 20.54 9.03994C20.39 9.18994 20.2 9.25994 20.01 9.25994Z" fill="#242424"/>
<path d="M14.99 21.25C14.58 21.25 14.24 20.91 14.24 20.5V3.5C14.24 3.09 14.58 2.75 14.99 2.75C15.4 2.75 15.74 3.09 15.74 3.5V20.5C15.74 20.91 15.41 21.25 14.99 21.25Z" fill="#242424"/>
</svg>
