<svg width="24" height="24" viewBox="0 0 24 24" fill="none" xmlns="http://www.w3.org/2000/svg">
<path d="M12 22.75C6.07 22.75 1.25 17.93 1.25 12C1.25 6.07 6.07 1.25 12 1.25C17.93 1.25 22.75 6.07 22.75 12C22.75 17.93 17.93 22.75 12 22.75ZM12 2.75C6.9 2.75 2.75 6.9 2.75 12C2.75 17.1 6.9 21.25 12 21.25C17.1 21.25 21.25 17.1 21.25 12C21.25 6.9 17.1 2.75 12 2.75Z" fill="#242424"/>
<path d="M12 15.0099C11.81 15.0099 11.62 14.9399 11.47 14.7899L7.93997 11.2599C7.64997 10.9699 7.64997 10.4899 7.93997 10.1999C8.22997 9.90992 8.70997 9.90992 8.99997 10.1999L12 13.1999L15 10.1999C15.29 9.90992 15.77 9.90992 16.06 10.1999C16.35 10.4899 16.35 10.9699 16.06 11.2599L12.53 14.7899C12.38 14.9399 12.19 15.0099 12 15.0099Z" fill="#242424"/>
</svg>
