<svg width="24" height="24" viewBox="0 0 24 24" fill="none" xmlns="http://www.w3.org/2000/svg">
<path d="M15 22.75H9C3.57 22.75 1.25 20.43 1.25 15V9C1.25 3.57 3.57 1.25 9 1.25H15C20.43 1.25 22.75 3.57 22.75 9V15C22.75 20.43 20.43 22.75 15 22.75ZM9 2.75C4.39 2.75 2.75 4.39 2.75 9V15C2.75 19.61 4.39 21.25 9 21.25H15C19.61 21.25 21.25 19.61 21.25 15V9C21.25 4.39 19.61 2.75 15 2.75H9Z" fill="#242424"/>
<path d="M13.26 16.2802C13.07 16.2802 12.88 16.2102 12.73 16.0602L9.20001 12.5302C8.91001 12.2402 8.91001 11.7602 9.20001 11.4702L12.73 7.94016C13.02 7.65016 13.5 7.65016 13.79 7.94016C14.08 8.23016 14.08 8.71016 13.79 9.00016L10.79 12.0002L13.79 15.0002C14.08 15.2902 14.08 15.7702 13.79 16.0602C13.65 16.2102 13.46 16.2802 13.26 16.2802Z" fill="#242424"/>
</svg>
