<svg width="24" height="24" viewBox="0 0 24 24" fill="none" xmlns="http://www.w3.org/2000/svg">
<path d="M15 22.75H9C3.57 22.75 1.25 20.43 1.25 15V9C1.25 3.57 3.57 1.25 9 1.25H15C20.43 1.25 22.75 3.57 22.75 9V15C22.75 20.43 20.43 22.75 15 22.75ZM9 2.75C4.39 2.75 2.75 4.39 2.75 9V15C2.75 19.61 4.39 21.25 9 21.25H15C19.61 21.25 21.25 19.61 21.25 15V9C21.25 4.39 19.61 2.75 15 2.75H9Z" fill="#242424"/>
<path d="M12 14.9098C11.81 14.9098 11.62 14.8398 11.47 14.6898L7.94 11.1598C7.65 10.8698 7.65 10.3898 7.94 10.0998C8.23 9.80982 8.71 9.80982 9 10.0998L12 13.0998L15 10.0998C15.29 9.80982 15.77 9.80982 16.06 10.0998C16.35 10.3898 16.35 10.8698 16.06 11.1598L12.53 14.6898C12.38 14.8398 12.19 14.9098 12 14.9098Z" fill="#242424"/>
</svg>
