<svg width="24" height="24" viewBox="0 0 24 24" fill="none" xmlns="http://www.w3.org/2000/svg">
<path d="M14.67 18.75H9.32998C7.44998 18.75 6.01998 18.07 5.30998 16.84C4.59998 15.61 4.72998 14.03 5.66998 12.4L8.33998 7.77C9.27998 6.15 10.58 5.25 12 5.25C13.42 5.25 14.72 6.15 15.66 7.78L18.33 12.41C19.27 14.04 19.4 15.62 18.69 16.85C17.98 18.07 16.55 18.75 14.67 18.75ZM12 6.75C11.14 6.75 10.3 7.38 9.63999 8.53L6.96998 13.16C6.30998 14.31 6.17998 15.35 6.60998 16.1C7.03998 16.85 8.00998 17.26 9.32998 17.26H14.67C15.99 17.26 16.96 16.85 17.39 16.1C17.82 15.35 17.69 14.31 17.03 13.16L14.36 8.53C13.7 7.38 12.86 6.75 12 6.75Z" fill="#242424"/>
</svg>
