<svg width="24" height="24" viewBox="0 0 24 24" fill="none" xmlns="http://www.w3.org/2000/svg">
<path d="M9.57 18.8201C9.38 18.8201 9.19 18.7501 9.04 18.6001L2.97 12.5301C2.68 12.2401 2.68 11.7601 2.97 11.4701L9.04 5.40012C9.33 5.11012 9.81 5.11012 10.1 5.40012C10.39 5.69012 10.39 6.17012 10.1 6.46012L4.56 12.0001L10.1 17.5401C10.39 17.8301 10.39 18.3101 10.1 18.6001C9.96 18.7501 9.76 18.8201 9.57 18.8201Z" fill="#242424"/>
<path d="M20.5 12.75H3.66998C3.25998 12.75 2.91998 12.41 2.91998 12C2.91998 11.59 3.25998 11.25 3.66998 11.25H20.5C20.91 11.25 21.25 11.59 21.25 12C21.25 12.41 20.91 12.75 20.5 12.75Z" fill="#242424"/>
</svg>
