<svg width="24" height="24" viewBox="0 0 24 24" fill="none" xmlns="http://www.w3.org/2000/svg">
<path d="M12 22.75C6.07 22.75 1.25 17.93 1.25 12C1.25 6.07 6.07 1.25 12 1.25C17.93 1.25 22.75 6.07 22.75 12C22.75 17.93 17.93 22.75 12 22.75ZM12 2.75C6.9 2.75 2.75 6.9 2.75 12C2.75 17.1 6.9 21.25 12 21.25C17.1 21.25 21.25 17.1 21.25 12C21.25 6.9 17.1 2.75 12 2.75Z" fill="#242424"/>
<path d="M14.5 12.75H8.5C8.09 12.75 7.75 12.41 7.75 12C7.75 11.59 8.09 11.25 8.5 11.25H14.5C14.91 11.25 15.25 11.59 15.25 12C15.25 12.41 14.91 12.75 14.5 12.75Z" fill="#242424"/>
<path d="M12.5 15.7499C12.31 15.7499 12.12 15.6799 11.97 15.5299C11.68 15.2399 11.68 14.7599 11.97 14.4699L14.44 11.9999L11.97 9.52994C11.68 9.23994 11.68 8.75994 11.97 8.46994C12.26 8.17994 12.74 8.17994 13.03 8.46994L16.03 11.4699C16.32 11.7599 16.32 12.2399 16.03 12.5299L13.03 15.5299C12.88 15.6799 12.69 15.7499 12.5 15.7499Z" fill="#242424"/>
</svg>
