<svg width="24" height="24" viewBox="0 0 24 24" fill="none" xmlns="http://www.w3.org/2000/svg">
<path d="M15.49 20.7599C15.3 20.7599 15.11 20.6899 14.96 20.5399C14.67 20.2499 14.67 19.7699 14.96 19.4799L19.97 14.4699C20.26 14.1799 20.74 14.1799 21.03 14.4699C21.32 14.7599 21.32 15.2399 21.03 15.5299L16.02 20.5399C15.87 20.6799 15.68 20.7599 15.49 20.7599Z" fill="#242424"/>
<path d="M20.5 15.7402H3.5C3.09 15.7402 2.75 15.4002 2.75 14.9902C2.75 14.5802 3.09 14.2402 3.5 14.2402H20.5C20.91 14.2402 21.25 14.5802 21.25 14.9902C21.25 15.4002 20.91 15.7402 20.5 15.7402Z" fill="#242424"/>
<path d="M3.5 9.75994C3.31 9.75994 3.12 9.68994 2.97 9.53994C2.68 9.24994 2.68 8.76994 2.97 8.47994L7.98 3.46994C8.27 3.17994 8.75 3.17994 9.04 3.46994C9.33 3.75994 9.33 4.23994 9.04 4.52994L4.03 9.53994C3.89 9.67994 3.69 9.75994 3.5 9.75994Z" fill="#242424"/>
<path d="M20.5 9.75977H3.5C3.09 9.75977 2.75 9.41977 2.75 9.00977C2.75 8.59977 3.09 8.25977 3.5 8.25977H20.5C20.91 8.25977 21.25 8.59977 21.25 9.00977C21.25 9.41977 20.91 9.75977 20.5 9.75977Z" fill="#242424"/>
</svg>
