<svg width="24" height="24" viewBox="0 0 24 24" fill="none" xmlns="http://www.w3.org/2000/svg">
<path d="M12 22.75C6.07 22.75 1.25 17.93 1.25 12C1.25 6.07 6.07 1.25 12 1.25C17.93 1.25 22.75 6.07 22.75 12C22.75 17.93 17.93 22.75 12 22.75ZM12 2.75C6.9 2.75 2.75 6.9 2.75 12C2.75 17.1 6.9 21.25 12 21.25C17.1 21.25 21.25 17.1 21.25 12C21.25 6.9 17.1 2.75 12 2.75Z" fill="#242424"/>
<path d="M12 16.25C11.59 16.25 11.25 15.91 11.25 15.5V9.5C11.25 9.09 11.59 8.75 12 8.75C12.41 8.75 12.75 9.09 12.75 9.5V15.5C12.75 15.91 12.41 16.25 12 16.25Z" fill="#242424"/>
<path d="M15 12.2499C14.81 12.2499 14.62 12.1799 14.47 12.0299L12 9.55994L9.53 12.0299C9.24 12.3199 8.76 12.3199 8.47 12.0299C8.18 11.7399 8.18 11.2599 8.47 10.9699L11.47 7.96994C11.76 7.67994 12.24 7.67994 12.53 7.96994L15.53 10.9699C15.82 11.2599 15.82 11.7399 15.53 12.0299C15.38 12.1799 15.19 12.2499 15 12.2499Z" fill="#242424"/>
</svg>
