<svg width="24" height="24" viewBox="0 0 24 24" fill="none" xmlns="http://www.w3.org/2000/svg">
<path d="M15 22.75H9C3.57 22.75 1.25 20.43 1.25 15V9C1.25 3.57 3.57 1.25 9 1.25H15C20.43 1.25 22.75 3.57 22.75 9V15C22.75 20.43 20.43 22.75 15 22.75ZM9 2.75C4.39 2.75 2.75 4.39 2.75 9V15C2.75 19.61 4.39 21.25 9 21.25H15C19.61 21.25 21.25 19.61 21.25 15V9C21.25 4.39 19.61 2.75 15 2.75H9Z" fill="#242424"/>
<path d="M13.9199 16.1297H8.9999C8.5899 16.1297 8.2499 15.7897 8.2499 15.3797C8.2499 14.9697 8.5899 14.6297 8.9999 14.6297H13.9199C15.1999 14.6297 16.2499 13.5897 16.2499 12.2997C16.2499 11.0097 15.2099 9.96973 13.9199 9.96973H7.1499C6.7399 9.96973 6.3999 9.62973 6.3999 9.21973C6.3999 8.80973 6.7399 8.46973 7.1499 8.46973H13.9199C16.0299 8.46973 17.7499 10.1897 17.7499 12.2997C17.7499 14.4097 16.0299 16.1297 13.9199 16.1297Z" fill="#242424"/>
<path d="M8.56994 11.5198C8.37994 11.5198 8.18994 11.4498 8.03994 11.2998L6.46994 9.72983C6.17994 9.43983 6.17994 8.95982 6.46994 8.66982L8.03994 7.09982C8.32994 6.80982 8.80994 6.80982 9.09994 7.09982C9.38994 7.38982 9.38994 7.86983 9.09994 8.15983L8.05994 9.19982L9.09994 10.2398C9.38994 10.5298 9.38994 11.0098 9.09994 11.2998C8.95994 11.4398 8.76994 11.5198 8.56994 11.5198Z" fill="#242424"/>
</svg>
