<svg width="24" height="24" viewBox="0 0 24 24" fill="none" xmlns="http://www.w3.org/2000/svg">
<path d="M12.005 22.7326C6.08732 22.7326 1.27734 17.9227 1.27734 12.005C1.27734 6.08732 6.08732 1.27734 12.005 1.27734C17.9227 1.27734 22.7326 6.08732 22.7326 12.005C22.7326 17.9227 17.9127 22.7326 12.005 22.7326ZM12.005 2.77423C6.9156 2.77423 2.77423 6.9156 2.77423 12.005C2.77423 17.0944 6.9156 21.2358 12.005 21.2358C17.0944 21.2358 21.2358 17.0944 21.2358 12.005C21.2358 6.9156 17.0944 2.77423 12.005 2.77423Z" fill="#242424"/>
<path d="M14.3002 12.9532C14.1006 12.9532 13.911 12.8734 13.7713 12.7337L5.60831 4.55072C5.31892 4.26133 5.31892 3.78232 5.60831 3.49293C5.89771 3.20353 6.37671 3.20353 6.66611 3.49293L13.5617 10.3985L13.5717 7.66424C13.5717 7.25509 13.911 6.9158 14.3202 6.9158C14.7293 6.88586 15.0686 7.25509 15.0686 7.66424L15.0586 12.2048C15.0586 12.5042 14.879 12.7836 14.5996 12.8933C14.4998 12.9333 14.4 12.9532 14.3002 12.9532Z" fill="#242424"/>
<path d="M17.8628 20.7267C17.6732 20.7267 17.4836 20.6568 17.3339 20.5072L10.4383 13.6015L10.4283 16.3358C10.4283 16.745 10.089 17.0843 9.67984 17.0843C9.27069 17.0843 8.9314 16.745 8.9314 16.3358L8.94138 11.7953C8.94138 11.4959 9.121 11.2165 9.40042 11.1067C9.67984 10.987 9.99917 11.0568 10.2187 11.2664L18.3817 19.4494C18.6711 19.7388 18.6711 20.2178 18.3817 20.5072C18.252 20.6568 18.0524 20.7267 17.8628 20.7267Z" fill="#242424"/>
</svg>
