<svg width="24" height="24" viewBox="0 0 24 24" fill="none" xmlns="http://www.w3.org/2000/svg">
<path d="M15.26 22.2498H8.73998C3.82998 22.2498 1.72998 20.1498 1.72998 15.2398V15.1098C1.72998 10.6698 3.47998 8.52978 7.39998 8.15978C7.79998 8.12978 8.17998 8.42978 8.21998 8.83978C8.25998 9.24978 7.95998 9.61978 7.53998 9.65978C4.39998 9.94978 3.22998 11.4298 3.22998 15.1198V15.2498C3.22998 19.3198 4.66998 20.7598 8.73998 20.7598H15.26C19.33 20.7598 20.77 19.3198 20.77 15.2498V15.1198C20.77 11.4098 19.58 9.92978 16.38 9.65978C15.97 9.61978 15.66 9.25978 15.7 8.84978C15.74 8.43978 16.09 8.12978 16.51 8.16978C20.49 8.50978 22.27 10.6598 22.27 15.1298V15.2598C22.27 20.1498 20.17 22.2498 15.26 22.2498Z" fill="#242424"/>
<path d="M12 15.7501C11.59 15.7501 11.25 15.4101 11.25 15.0001V3.62012C11.25 3.21012 11.59 2.87012 12 2.87012C12.41 2.87012 12.75 3.21012 12.75 3.62012V15.0001C12.75 15.4101 12.41 15.7501 12 15.7501Z" fill="#242424"/>
<path d="M15.35 6.59994C15.16 6.59994 14.97 6.52994 14.82 6.37994L12 3.55994L9.18003 6.37994C8.89003 6.66994 8.41003 6.66994 8.12003 6.37994C7.83003 6.08994 7.83003 5.60994 8.12003 5.31994L11.47 1.96994C11.76 1.67994 12.24 1.67994 12.53 1.96994L15.88 5.31994C16.17 5.60994 16.17 6.08994 15.88 6.37994C15.74 6.52994 15.54 6.59994 15.35 6.59994Z" fill="#242424"/>
</svg>
