<svg width="24" height="24" viewBox="0 0 24 24" fill="none" xmlns="http://www.w3.org/2000/svg">
<path d="M12 22.75C6.07 22.75 1.25 17.93 1.25 12C1.25 6.07 6.07 1.25 12 1.25C12.41 1.25 12.75 1.59 12.75 2C12.75 2.41 12.41 2.75 12 2.75C6.9 2.75 2.75 6.9 2.75 12C2.75 17.1 6.9 21.25 12 21.25C17.1 21.25 21.25 17.1 21.25 12C21.25 11.59 21.59 11.25 22 11.25C22.41 11.25 22.75 11.59 22.75 12C22.75 17.93 17.93 22.75 12 22.75Z" fill="#242424"/>
<path d="M13 11.7502C12.81 11.7502 12.62 11.6802 12.47 11.5302C12.18 11.2402 12.18 10.7602 12.47 10.4702L20.67 2.27023C20.96 1.98023 21.44 1.98023 21.73 2.27023C22.02 2.56023 22.02 3.04023 21.73 3.33023L13.53 11.5302C13.38 11.6802 13.19 11.7502 13 11.7502Z" fill="#242424"/>
<path d="M22 7.58C21.59 7.58 21.25 7.24 21.25 6.83V2.75H17.17C16.76 2.75 16.42 2.41 16.42 2C16.42 1.59 16.76 1.25 17.17 1.25H22C22.41 1.25 22.75 1.59 22.75 2V6.83C22.75 7.24 22.41 7.58 22 7.58Z" fill="#242424"/>
</svg>
