<svg width="24" height="24" viewBox="0 0 24 24" fill="none" xmlns="http://www.w3.org/2000/svg">
<path d="M14.44 7.24988C14.25 7.24988 14.06 7.17988 13.91 7.02988L11.88 4.99988L9.85001 7.02988C9.56001 7.31988 9.08001 7.31988 8.79001 7.02988C8.50001 6.73988 8.50001 6.25988 8.79001 5.96988L11.35 3.40988C11.64 3.11988 12.12 3.11988 12.41 3.40988L14.97 5.96988C15.26 6.25988 15.26 6.73988 14.97 7.02988C14.82 7.17988 14.63 7.24988 14.44 7.24988Z" fill="#242424"/>
<path d="M11.88 14.9298C11.47 14.9298 11.13 14.5898 11.13 14.1798V4.00977C11.13 3.59977 11.47 3.25977 11.88 3.25977C12.29 3.25977 12.63 3.59977 12.63 4.00977V14.1798C12.63 14.5998 12.29 14.9298 11.88 14.9298Z" fill="#242424"/>
<path d="M12 20.75C6.85 20.75 3.25 17.15 3.25 12C3.25 11.59 3.59 11.25 4 11.25C4.41 11.25 4.75 11.59 4.75 12C4.75 16.27 7.73 19.25 12 19.25C16.27 19.25 19.25 16.27 19.25 12C19.25 11.59 19.59 11.25 20 11.25C20.41 11.25 20.75 11.59 20.75 12C20.75 17.15 17.15 20.75 12 20.75Z" fill="#242424"/>
</svg>
