<svg width="24" height="24" viewBox="0 0 24 24" fill="none" xmlns="http://www.w3.org/2000/svg">
<path d="M13 11.7502C12.81 11.7502 12.62 11.6802 12.47 11.5302C12.18 11.2402 12.18 10.7602 12.47 10.4702L20.67 2.27023C20.96 1.98023 21.44 1.98023 21.73 2.27023C22.02 2.56023 22.02 3.04023 21.73 3.33023L13.53 11.5302C13.38 11.6802 13.19 11.7502 13 11.7502Z" fill="#242424"/>
<path d="M22 7.55C21.59 7.55 21.25 7.21 21.25 6.8V2.75H17.2C16.79 2.75 16.45 2.41 16.45 2C16.45 1.59 16.79 1.25 17.2 1.25H22C22.41 1.25 22.75 1.59 22.75 2V6.8C22.75 7.21 22.41 7.55 22 7.55Z" fill="#242424"/>
<path d="M15 22.75H9C3.57 22.75 1.25 20.43 1.25 15V9C1.25 3.57 3.57 1.25 9 1.25H11C11.41 1.25 11.75 1.59 11.75 2C11.75 2.41 11.41 2.75 11 2.75H9C4.39 2.75 2.75 4.39 2.75 9V15C2.75 19.61 4.39 21.25 9 21.25H15C19.61 21.25 21.25 19.61 21.25 15V13C21.25 12.59 21.59 12.25 22 12.25C22.41 12.25 22.75 12.59 22.75 13V15C22.75 20.43 20.43 22.75 15 22.75Z" fill="#242424"/>
</svg>
