<svg width="24" height="24" viewBox="0 0 24 24" fill="none" xmlns="http://www.w3.org/2000/svg">
<path d="M15.26 22.2498H8.73998C3.82998 22.2498 1.72998 20.1498 1.72998 15.2398V15.1098C1.72998 10.6698 3.47998 8.52978 7.39998 8.15978C7.79998 8.12978 8.17998 8.42978 8.21998 8.83978C8.25998 9.24978 7.95998 9.61978 7.53998 9.65978C4.39998 9.94978 3.22998 11.4298 3.22998 15.1198V15.2498C3.22998 19.3198 4.66998 20.7598 8.73998 20.7598H15.26C19.33 20.7598 20.77 19.3198 20.77 15.2498V15.1198C20.77 11.4098 19.58 9.92978 16.38 9.65978C15.97 9.61978 15.66 9.25978 15.7 8.84978C15.74 8.43978 16.09 8.12978 16.51 8.16978C20.49 8.50978 22.27 10.6598 22.27 15.1298V15.2598C22.27 20.1498 20.17 22.2498 15.26 22.2498Z" fill="#242424"/>
<path d="M12 15.63C11.59 15.63 11.25 15.29 11.25 14.88V2C11.25 1.59 11.59 1.25 12 1.25C12.41 1.25 12.75 1.59 12.75 2V14.88C12.75 15.3 12.41 15.63 12 15.63Z" fill="#242424"/>
<path d="M12 16.7498C11.81 16.7498 11.62 16.6798 11.47 16.5298L8.12003 13.1798C7.83003 12.8898 7.83003 12.4098 8.12003 12.1198C8.41003 11.8298 8.89003 11.8298 9.18003 12.1198L12 14.9398L14.82 12.1198C15.11 11.8298 15.59 11.8298 15.88 12.1198C16.17 12.4098 16.17 12.8898 15.88 13.1798L12.53 16.5298C12.38 16.6798 12.19 16.7498 12 16.7498Z" fill="#242424"/>
</svg>
