<svg width="24" height="24" viewBox="0 0 24 24" fill="none" xmlns="http://www.w3.org/2000/svg">
<path d="M11.88 14.9901C11.69 14.9901 11.5 14.9201 11.35 14.7701L8.79001 12.2101C8.50001 11.9201 8.50001 11.4401 8.79001 11.1501C9.08001 10.8601 9.56001 10.8601 9.85001 11.1501L11.88 13.1801L13.91 11.1501C14.2 10.8601 14.68 10.8601 14.97 11.1501C15.26 11.4401 15.26 11.9201 14.97 12.2101L12.41 14.7701C12.26 14.9201 12.07 14.9901 11.88 14.9901Z" fill="#242424"/>
<path d="M11.88 14.92C11.47 14.92 11.13 14.58 11.13 14.17V4C11.13 3.59 11.47 3.25 11.88 3.25C12.29 3.25 12.63 3.59 12.63 4V14.17C12.63 14.58 12.29 14.92 11.88 14.92Z" fill="#242424"/>
<path d="M12 20.9302C6.85 20.9302 3.25 17.3302 3.25 12.1802C3.25 11.7702 3.59 11.4302 4 11.4302C4.41 11.4302 4.75 11.7702 4.75 12.1802C4.75 16.4502 7.73 19.4302 12 19.4302C16.27 19.4302 19.25 16.4502 19.25 12.1802C19.25 11.7702 19.59 11.4302 20 11.4302C20.41 11.4302 20.75 11.7702 20.75 12.1802C20.75 17.3302 17.15 20.9302 12 20.9302Z" fill="#242424"/>
</svg>
