<svg width="24" height="24" viewBox="0 0 24 24" fill="none" xmlns="http://www.w3.org/2000/svg">
<path d="M11.68 15.3699C11.49 15.3699 11.3 15.2999 11.15 15.1499C10.86 14.8599 10.86 14.3799 11.15 14.0899L13.18 12.0599L11.15 10.0299C10.86 9.73994 10.86 9.25994 11.15 8.96994C11.44 8.67994 11.92 8.67994 12.21 8.96994L14.77 11.5299C15.06 11.8199 15.06 12.2999 14.77 12.5899L12.21 15.1499C12.07 15.2999 11.87 15.3699 11.68 15.3699Z" fill="#242424"/>
<path d="M14.17 12.8101H4C3.59 12.8101 3.25 12.4701 3.25 12.0601C3.25 11.6501 3.59 11.3101 4 11.3101H14.17C14.58 11.3101 14.92 11.6501 14.92 12.0601C14.92 12.4701 14.58 12.8101 14.17 12.8101Z" fill="#242424"/>
<path d="M12 20.75C11.59 20.75 11.25 20.41 11.25 20C11.25 19.59 11.59 19.25 12 19.25C16.27 19.25 19.25 16.27 19.25 12C19.25 7.73 16.27 4.75 12 4.75C11.59 4.75 11.25 4.41 11.25 4C11.25 3.59 11.59 3.25 12 3.25C17.15 3.25 20.75 6.85 20.75 12C20.75 17.15 17.15 20.75 12 20.75Z" fill="#242424"/>
</svg>
