<svg width="24" height="24" viewBox="0 0 24 24" fill="none" xmlns="http://www.w3.org/2000/svg">
<path d="M15.24 22.27H15.11C10.67 22.27 8.53002 20.52 8.16002 16.6C8.12002 16.19 8.42002 15.82 8.84002 15.78C9.24002 15.74 9.62002 16.05 9.66002 16.46C9.95002 19.6 11.43 20.77 15.12 20.77H15.25C19.32 20.77 20.76 19.33 20.76 15.26V8.73998C20.76 4.66998 19.32 3.22998 15.25 3.22998H15.12C11.41 3.22998 9.93002 4.41998 9.66002 7.61998C9.61002 8.02998 9.26002 8.33998 8.84002 8.29998C8.42002 8.26998 8.12001 7.89998 8.15001 7.48998C8.49001 3.50998 10.64 1.72998 15.11 1.72998H15.24C20.15 1.72998 22.25 3.82998 22.25 8.73998V15.26C22.25 20.17 20.15 22.27 15.24 22.27Z" fill="#242424"/>
<path d="M15 12.75H3.62C3.21 12.75 2.87 12.41 2.87 12C2.87 11.59 3.21 11.25 3.62 11.25H15C15.41 11.25 15.75 11.59 15.75 12C15.75 12.41 15.41 12.75 15 12.75Z" fill="#242424"/>
<path d="M5.85 16.0998C5.66 16.0998 5.47 16.0298 5.32 15.8798L1.97 12.5298C1.68 12.2398 1.68 11.7598 1.97 11.4698L5.32 8.11984C5.61 7.82984 6.09 7.82984 6.38 8.11984C6.67 8.40984 6.67 8.88984 6.38 9.17984L3.56 11.9998L6.38 14.8198C6.67 15.1098 6.67 15.5898 6.38 15.8798C6.24 16.0298 6.04 16.0998 5.85 16.0998Z" fill="#242424"/>
</svg>
