<svg width="24" height="24" viewBox="0 0 24 24" fill="none" xmlns="http://www.w3.org/2000/svg">
<path d="M12 22.7499C6.79999 22.7499 2.57999 18.5199 2.57999 13.3299C2.57999 8.1399 6.79999 3.8999 12 3.8999C13.07 3.8999 14.11 4.0499 15.11 4.3599C15.51 4.4799 15.73 4.8999 15.61 5.2999C15.49 5.6999 15.07 5.9199 14.67 5.7999C13.82 5.5399 12.92 5.3999 12 5.3999C7.62999 5.3999 4.07999 8.9499 4.07999 13.3199C4.07999 17.6899 7.62999 21.2399 12 21.2399C16.37 21.2399 19.92 17.6899 19.92 13.3199C19.92 11.7399 19.46 10.2199 18.59 8.9199C18.36 8.5799 18.45 8.1099 18.8 7.8799C19.14 7.6499 19.61 7.7399 19.84 8.0899C20.88 9.6399 21.43 11.4499 21.43 13.3299C21.42 18.5199 17.2 22.7499 12 22.7499Z" fill="#242424"/>
<path d="M16.13 6.07021C15.92 6.07021 15.71 5.98021 15.56 5.81021L12.67 2.49021C12.4 2.18021 12.43 1.70021 12.74 1.43021C13.05 1.16021 13.53 1.19021 13.8 1.50021L16.69 4.82021C16.96 5.13021 16.93 5.61021 16.62 5.88021C16.49 6.01021 16.31 6.07021 16.13 6.07021Z" fill="#242424"/>
<path d="M12.76 8.5302C12.53 8.5302 12.3 8.4202 12.15 8.2202C11.91 7.8902 11.98 7.4202 12.31 7.1702L15.68 4.7102C16.01 4.4602 16.48 4.5402 16.73 4.8702C16.98 5.2002 16.9 5.6702 16.57 5.9202L13.2 8.3902C13.07 8.4902 12.92 8.5302 12.76 8.5302Z" fill="#242424"/>
</svg>
