<svg width="24" height="24" viewBox="0 0 24 24" fill="none" xmlns="http://www.w3.org/2000/svg">
<path d="M15.13 19.0601H7.13C6.72 19.0601 6.38 18.7201 6.38 18.3101C6.38 17.9001 6.72 17.5601 7.13 17.5601H15.13C17.47 17.5601 19.38 15.6501 19.38 13.3101C19.38 10.9701 17.47 9.06006 15.13 9.06006H4.13C3.72 9.06006 3.38 8.72006 3.38 8.31006C3.38 7.90006 3.72 7.56006 4.13 7.56006H15.13C18.3 7.56006 20.88 10.1401 20.88 13.3101C20.88 16.4801 18.3 19.0601 15.13 19.0601Z" fill="#242424"/>
<path d="M6.43 11.5599C6.24 11.5599 6.05 11.4899 5.9 11.3399L3.34 8.77988C3.05 8.48988 3.05 8.00988 3.34 7.71988L5.9 5.15988C6.19 4.86988 6.67 4.86988 6.96 5.15988C7.25 5.44988 7.25 5.92988 6.96 6.21988L4.93 8.24988L6.96 10.2799C7.25 10.5699 7.25 11.0499 6.96 11.3399C6.82 11.4899 6.62 11.5599 6.43 11.5599Z" fill="#242424"/>
</svg>
