<svg width="24" height="24" viewBox="0 0 24 24" fill="none" xmlns="http://www.w3.org/2000/svg">
<path d="M12 22.7501C11.4 22.7501 10.81 22.6101 10.33 22.3401L5.60001 19.6101C3.64001 18.2901 3.51001 18.0501 3.51001 15.9801V11.0201C3.51001 8.95006 3.64001 8.71006 5.56001 7.42006L10.34 4.66006C11.29 4.11006 12.72 4.11006 13.67 4.66006L18.4 7.39006C20.36 8.71006 20.49 8.95006 20.49 11.0201V15.9801C20.49 18.0501 20.36 18.2901 18.44 19.5801L13.66 22.3401C13.19 22.6201 12.59 22.7501 12 22.7501ZM12 5.75006C11.66 5.75006 11.32 5.82006 11.08 5.96006L6.35001 8.69006C5.01001 9.60006 5.01001 9.60006 5.01001 11.0201V15.9801C5.01001 17.4001 5.01001 17.4001 6.40001 18.3401L11.09 21.0401C11.57 21.3201 12.44 21.3201 12.92 21.0401L17.65 18.3101C18.99 17.4001 18.99 17.4001 18.99 15.9801V11.0201C18.99 9.60006 18.99 9.60006 17.6 8.66006L12.91 5.96006C12.68 5.82006 12.34 5.75006 12 5.75006Z" fill="#242424"/>
<path d="M17.5 8.38C17.09 8.38 16.75 8.04 16.75 7.63V5C16.75 3.42 16.08 2.75 14.5 2.75H9.5C7.92 2.75 7.25 3.42 7.25 5V7.56C7.25 7.97 6.91 8.31 6.5 8.31C6.09 8.31 5.75 7.98 5.75 7.56V5C5.75 2.58 7.08 1.25 9.5 1.25H14.5C16.92 1.25 18.25 2.58 18.25 5V7.63C18.25 8.04 17.91 8.38 17.5 8.38Z" fill="#242424"/>
<path d="M13.63 17.6301C13.42 17.6301 13.2 17.5901 12.98 17.5001L12 17.1201L11.02 17.5101C10.49 17.7201 9.94999 17.6701 9.54999 17.3801C9.14999 17.0901 8.93999 16.5901 8.96999 16.0201L9.02999 14.9701L8.35999 14.1601C7.99999 13.7101 7.87999 13.1901 8.03999 12.7101C8.18999 12.2401 8.59999 11.8801 9.14999 11.7401L10.17 11.4801L10.74 10.5901C11.35 9.63012 12.66 9.63012 13.27 10.5901L13.84 11.4801L14.86 11.7401C15.41 11.8801 15.82 12.2401 15.97 12.7101C16.12 13.1801 16 13.7101 15.64 14.1501L14.97 14.9601L15.03 16.0101C15.06 16.5801 14.85 17.0701 14.45 17.3701C14.21 17.5401 13.93 17.6301 13.63 17.6301ZM9.51999 13.2001L10.19 14.0101C10.42 14.2801 10.55 14.7101 10.53 15.0601L10.47 16.1101L11.45 15.7201C11.78 15.5901 12.22 15.5901 12.55 15.7201L13.53 16.1101L13.47 15.0601C13.45 14.7101 13.58 14.2901 13.81 14.0101L14.48 13.2001L13.46 12.9401C13.12 12.8501 12.76 12.5901 12.57 12.3001L12.01 11.4201L11.44 12.3001C11.25 12.6001 10.89 12.8601 10.55 12.9501L9.51999 13.2001Z" fill="#242424"/>
</svg>
