<svg width="24" height="24" viewBox="0 0 24 24" fill="none" xmlns="http://www.w3.org/2000/svg">
<path d="M16 22.7498H7.99998C3.37998 22.7498 2.51998 20.5998 2.29998 18.5098L1.54998 10.4998C1.43998 9.44977 1.40998 7.89977 2.44998 6.73977C3.34998 5.73977 4.83998 5.25977 6.99998 5.25977H17C19.17 5.25977 20.66 5.74977 21.55 6.73977C22.59 7.89977 22.56 9.44977 22.45 10.5098L21.7 18.4998C21.48 20.5998 20.62 22.7498 16 22.7498ZM6.99998 6.74977C5.30998 6.74977 4.14998 7.07977 3.55998 7.73977C3.06998 8.27977 2.90998 9.10977 3.03998 10.3498L3.78998 18.3598C3.95998 19.9398 4.38998 21.2498 7.99998 21.2498H16C19.6 21.2498 20.04 19.9398 20.21 18.3498L20.96 10.3598C21.09 9.10977 20.93 8.27977 20.44 7.73977C19.85 7.07977 18.69 6.74977 17 6.74977H6.99998Z" fill="#242424"/>
<path d="M16 6.75C15.59 6.75 15.25 6.41 15.25 6V5.2C15.25 3.42 15.25 2.75 12.8 2.75H11.2C8.75 2.75 8.75 3.42 8.75 5.2V6C8.75 6.41 8.41 6.75 8 6.75C7.59 6.75 7.25 6.41 7.25 6V5.2C7.25 3.44 7.25 1.25 11.2 1.25H12.8C16.75 1.25 16.75 3.44 16.75 5.2V6C16.75 6.41 16.41 6.75 16 6.75Z" fill="#242424"/>
<path d="M12 16.75C9.25 16.75 9.25 15.05 9.25 14.03V13C9.25 11.59 9.59 11.25 11 11.25H13C14.41 11.25 14.75 11.59 14.75 13V14C14.75 15.04 14.75 16.75 12 16.75ZM10.75 12.75C10.75 12.83 10.75 12.92 10.75 13V14.03C10.75 15.06 10.75 15.25 12 15.25C13.25 15.25 13.25 15.09 13.25 14.02V13C13.25 12.92 13.25 12.83 13.25 12.75C13.17 12.75 13.08 12.75 13 12.75H11C10.92 12.75 10.83 12.75 10.75 12.75Z" fill="#242424"/>
<path d="M14 14.7702C13.63 14.7702 13.3 14.4902 13.26 14.1102C13.21 13.7002 13.5 13.3202 13.91 13.2702C16.55 12.9402 19.08 11.9402 21.21 10.3902C21.54 10.1402 22.01 10.2202 22.26 10.5602C22.5 10.8902 22.43 11.3602 22.09 11.6102C19.75 13.3102 16.99 14.4002 14.09 14.7702C14.06 14.7702 14.03 14.7702 14 14.7702Z" fill="#242424"/>
<path d="M9.99999 14.7799C9.96999 14.7799 9.93999 14.7799 9.90999 14.7799C7.16999 14.4699 4.49999 13.4699 2.18999 11.8899C1.84999 11.6599 1.75999 11.1899 1.98999 10.8499C2.21999 10.5099 2.68999 10.4199 3.02999 10.6499C5.13999 12.0899 7.56999 12.9999 10.07 13.2899C10.48 13.3399 10.78 13.7099 10.73 14.1199C10.7 14.4999 10.38 14.7799 9.99999 14.7799Z" fill="#242424"/>
</svg>
