<svg width="24" height="24" viewBox="0 0 24 24" fill="none" xmlns="http://www.w3.org/2000/svg">
<path d="M12 18.9502C9.38 18.9502 7.25 16.8202 7.25 14.2002C7.25 11.5802 9.38 9.4502 12 9.4502C14.62 9.4502 16.75 11.5802 16.75 14.2002C16.75 16.8202 14.62 18.9502 12 18.9502ZM12 10.9502C10.21 10.9502 8.75 12.4102 8.75 14.2002C8.75 15.9902 10.21 17.4502 12 17.4502C13.79 17.4502 15.25 15.9902 15.25 14.2002C15.25 12.4102 13.79 10.9502 12 10.9502Z" fill="#242424"/>
<path d="M11 15.95C10.75 15.95 10.5 15.82 10.36 15.59C10.15 15.23 10.26 14.77 10.62 14.56L11.38 14.1C11.46 14.06 11.5 13.97 11.5 13.89V12.96C11.5 12.55 11.84 12.21 12.25 12.21C12.66 12.21 13 12.54 13 12.95V13.88C13 14.49 12.67 15.07 12.15 15.38L11.39 15.84C11.27 15.92 11.13 15.95 11 15.95Z" fill="#242424"/>
<path d="M16 22.7498H7.99998C3.37998 22.7498 2.51998 20.5998 2.29998 18.5098L1.54998 10.4998C1.43998 9.44977 1.40998 7.89977 2.44998 6.73977C3.34998 5.73977 4.83998 5.25977 6.99998 5.25977H17C19.17 5.25977 20.66 5.74977 21.55 6.73977C22.59 7.89977 22.56 9.44977 22.45 10.5098L21.7 18.4998C21.48 20.5998 20.62 22.7498 16 22.7498ZM6.99998 6.74977C5.30998 6.74977 4.14998 7.07977 3.55998 7.73977C3.06998 8.27977 2.90998 9.10977 3.03998 10.3498L3.78998 18.3598C3.95998 19.9398 4.38998 21.2498 7.99998 21.2498H16C19.6 21.2498 20.04 19.9398 20.21 18.3498L20.96 10.3598C21.09 9.10977 20.93 8.27977 20.44 7.73977C19.85 7.07977 18.69 6.74977 17 6.74977H6.99998Z" fill="#242424"/>
<path d="M16 6.75C15.59 6.75 15.25 6.41 15.25 6V5.2C15.25 3.42 15.25 2.75 12.8 2.75H11.2C8.75 2.75 8.75 3.42 8.75 5.2V6C8.75 6.41 8.41 6.75 8 6.75C7.59 6.75 7.25 6.41 7.25 6V5.2C7.25 3.44 7.25 1.25 11.2 1.25H12.8C16.75 1.25 16.75 3.44 16.75 5.2V6C16.75 6.41 16.41 6.75 16 6.75Z" fill="#242424"/>
<path d="M16.01 14.3898C15.67 14.3898 15.37 14.1598 15.28 13.8198C15.18 13.4198 15.42 13.0098 15.82 12.9098C17.77 12.4198 19.58 11.5698 21.2 10.3898C21.53 10.1498 22 10.2198 22.25 10.5598C22.49 10.8898 22.42 11.3598 22.08 11.6098C20.3 12.8998 18.32 13.8298 16.18 14.3698C16.13 14.3798 16.07 14.3898 16.01 14.3898Z" fill="#242424"/>
<path d="M7.99999 14.4201C7.93999 14.4201 7.87999 14.4101 7.81999 14.4001C5.80999 13.9101 3.91999 13.0601 2.18999 11.8801C1.84999 11.6501 1.75999 11.1801 1.98999 10.8401C2.21999 10.5001 2.68999 10.4101 3.02999 10.6401C4.60999 11.7201 6.32999 12.4901 8.16999 12.9401C8.56999 13.0401 8.81999 13.4401 8.71999 13.8501C8.64999 14.1901 8.33999 14.4201 7.99999 14.4201Z" fill="#242424"/>
</svg>
