<svg width="24" height="24" viewBox="0 0 24 24" fill="none" xmlns="http://www.w3.org/2000/svg">
<path d="M14 22.75H10C4.57 22.75 2.25 20.43 2.25 15V9C2.25 3.57 4.57 1.25 10 1.25H14C19.43 1.25 21.75 3.57 21.75 9V15C21.75 20.43 19.43 22.75 14 22.75ZM10 2.75C5.39 2.75 3.75 4.39 3.75 9V15C3.75 19.61 5.39 21.25 10 21.25H14C18.61 21.25 20.25 19.61 20.25 15V9C20.25 4.39 18.61 2.75 14 2.75H10Z" fill="#242424"/>
<path d="M15 10.8301H9C7.76 10.8301 6.75 9.82008 6.75 8.58008V7.58008C6.75 6.34008 7.76 5.33008 9 5.33008H15C16.24 5.33008 17.25 6.34008 17.25 7.58008V8.58008C17.25 9.82008 16.24 10.8301 15 10.8301ZM9 6.83008C8.59 6.83008 8.25 7.17008 8.25 7.58008V8.58008C8.25 8.99008 8.59 9.33008 9 9.33008H15C15.41 9.33008 15.75 8.99008 15.75 8.58008V7.58008C15.75 7.17008 15.41 6.83008 15 6.83008H9Z" fill="#242424"/>
<path d="M8.15003 14.9198C8.02003 14.9198 7.89003 14.8898 7.77003 14.8398C7.65003 14.7898 7.54003 14.7198 7.45003 14.6298C7.26003 14.4398 7.16003 14.1898 7.16003 13.9198C7.16003 13.7898 7.18003 13.6598 7.23003 13.5398C7.28003 13.4098 7.35003 13.3098 7.45003 13.2098C7.49003 13.1698 7.54003 13.1198 7.60003 13.0898C7.65003 13.0498 7.71003 13.0198 7.77003 12.9998C7.83003 12.9698 7.90003 12.9498 7.96003 12.9398C8.28003 12.8698 8.63003 12.9798 8.86003 13.2098C8.95003 13.2998 9.03003 13.4098 9.08003 13.5398C9.13003 13.6598 9.16003 13.7898 9.16003 13.9198C9.16003 14.1898 9.05003 14.4398 8.86003 14.6298C8.67003 14.8198 8.42003 14.9198 8.15003 14.9198Z" fill="#242424"/>
<path d="M12.16 14.9199C11.89 14.9199 11.64 14.8199 11.45 14.6299C11.26 14.4399 11.16 14.1899 11.16 13.9199C11.16 13.7899 11.18 13.6599 11.23 13.5399C11.28 13.4099 11.35 13.3099 11.45 13.2099C11.49 13.1699 11.54 13.1199 11.6 13.0899C11.65 13.0499 11.71 13.0199 11.77 12.9999C11.83 12.9699 11.9 12.9499 11.96 12.9399C12.15 12.8999 12.35 12.9199 12.54 12.9999C12.66 13.0499 12.77 13.1199 12.86 13.2099C12.95 13.3099 13.03 13.4099 13.08 13.5399C13.13 13.6599 13.16 13.7899 13.16 13.9199C13.16 14.1899 13.05 14.4399 12.86 14.6299C12.67 14.8199 12.42 14.9199 12.16 14.9199Z" fill="#242424"/>
<path d="M16.15 14.9201C16.02 14.9201 15.89 14.8901 15.77 14.8401C15.65 14.7901 15.54 14.7201 15.45 14.6301C15.35 14.5301 15.28 14.4201 15.23 14.3001C15.18 14.1801 15.16 14.0501 15.16 13.9201C15.16 13.7901 15.18 13.6601 15.23 13.5401C15.28 13.4101 15.35 13.3101 15.45 13.2101C15.82 12.8401 16.49 12.8401 16.86 13.2101C17.05 13.4001 17.16 13.6601 17.16 13.9201C17.16 14.1901 17.05 14.4401 16.86 14.6301C16.68 14.8101 16.43 14.9201 16.15 14.9201Z" fill="#242424"/>
<path d="M8.16002 18.9199C7.89002 18.9199 7.64002 18.8199 7.45002 18.6299C7.26002 18.4399 7.15002 18.1899 7.15002 17.9199C7.15002 17.6599 7.26002 17.3999 7.45002 17.2099C7.49002 17.1699 7.55002 17.1199 7.60002 17.0899C7.65002 17.0499 7.71002 17.0199 7.77002 16.9999C7.83002 16.9699 7.90002 16.9499 7.96002 16.9399C8.29002 16.8799 8.63002 16.9799 8.86002 17.2099C8.91002 17.2599 8.95002 17.3099 8.99002 17.3599C9.02002 17.4199 9.05002 17.4799 9.08002 17.5399C9.10002 17.5999 9.12002 17.6599 9.14002 17.7199C9.15002 17.7899 9.16002 17.8499 9.16002 17.9199C9.16002 18.1899 9.05002 18.4399 8.86002 18.6299C8.67002 18.8199 8.42002 18.9199 8.16002 18.9199Z" fill="#242424"/>
<path d="M12.16 18.9199C11.89 18.9199 11.64 18.8199 11.45 18.6299C11.26 18.4399 11.15 18.1899 11.15 17.9199C11.15 17.6599 11.26 17.3999 11.45 17.2099C11.68 16.9799 12.03 16.8799 12.35 16.9399C12.41 16.9499 12.48 16.9699 12.54 16.9999C12.6 17.0199 12.66 17.0499 12.71 17.0899C12.76 17.1199 12.81 17.1699 12.86 17.2099C13.05 17.3999 13.15 17.6599 13.15 17.9199C13.15 18.1899 13.05 18.4399 12.86 18.6299C12.67 18.8199 12.42 18.9199 12.16 18.9199Z" fill="#242424"/>
<path d="M16.15 18.9202C15.89 18.9202 15.64 18.8202 15.45 18.6302C15.26 18.4402 15.16 18.1902 15.16 17.9202C15.16 17.6602 15.26 17.4002 15.45 17.2102C15.54 17.1202 15.65 17.0502 15.77 17.0002C16.14 16.8502 16.59 16.9302 16.86 17.2102C17.05 17.4002 17.15 17.6602 17.15 17.9202C17.15 18.1902 17.05 18.4402 16.86 18.6302C16.77 18.7202 16.66 18.7902 16.54 18.8402C16.42 18.8902 16.29 18.9202 16.15 18.9202Z" fill="#242424"/>
</svg>
