<svg width="24" height="24" viewBox="0 0 24 24" fill="none" xmlns="http://www.w3.org/2000/svg">
<path d="M13.05 19.4198C12.51 19.4198 11.94 19.3698 11.32 19.2698L6.62999 18.5298C5.14999 18.2998 4.00999 17.8898 3.15999 17.2898C0.969987 15.7698 1.09999 13.1598 1.37999 11.3298L2.11999 6.63981C2.79999 2.33981 5.01999 0.729807 9.31999 1.39981L14.01 2.13981C16.22 2.48981 19.19 3.37981 19.38 7.10981C19.42 7.74981 19.38 8.47981 19.24 9.33981L18.51 14.0298C17.93 17.6998 16.22 19.4198 13.05 19.4198ZM7.52999 2.74981C5.14999 2.74981 4.06999 3.95981 3.59999 6.87981L2.85999 11.5698C2.39999 14.5198 3.23999 15.5198 4.01999 16.0698C4.67999 16.5398 5.60999 16.8598 6.85999 17.0498L11.55 17.7898C15.04 18.3398 16.48 17.2898 17.03 13.7898L17.76 9.09981C17.88 8.34981 17.92 7.71981 17.88 7.18981V7.17981C17.77 5.07981 16.58 4.04981 13.77 3.60981L9.08999 2.87981C8.50999 2.78981 7.99999 2.74981 7.52999 2.74981Z" fill="#242424"/>
<path d="M14.68 22.75C13.83 22.75 12.87 22.57 11.76 22.2L7.25001 20.7C4.68001 19.8499 3.29001 18.6299 2.87001 16.8499C2.80001 16.5499 2.92001 16.2299 3.18001 16.0599C3.44001 15.8899 3.78001 15.8899 4.03001 16.0699C4.69001 16.5399 5.61001 16.8599 6.86001 17.0499L11.55 17.79C15.04 18.34 16.48 17.2899 17.03 13.7899L17.76 9.09995C17.88 8.34995 17.92 7.71995 17.88 7.18995C17.87 6.92995 18 6.66995 18.23 6.51995C18.46 6.36995 18.75 6.35995 18.99 6.48995C21.67 7.91995 22.38 10.2099 21.22 13.7099L19.72 18.2199C19.01 20.3399 18.08 21.64 16.78 22.29C16.15 22.6 15.46 22.75 14.68 22.75ZM5.73001 18.36C6.21001 18.6799 6.85001 18.99 7.72001 19.28L12.23 20.78C13.95 21.3499 15.18 21.4 16.1 20.95C17.02 20.49 17.72 19.4699 18.29 17.7499L19.79 13.2399C20.61 10.7599 20.29 9.43995 19.34 8.54995C19.32 8.79995 19.28 9.05995 19.24 9.33995L18.51 14.0299C17.83 18.33 15.61 19.9399 11.31 19.28L6.62001 18.54C6.31001 18.4799 6.01001 18.42 5.73001 18.36Z" fill="#242424"/>
<path d="M8.24 9.72023C6.87 9.72023 5.75 8.60023 5.75 7.23023C5.75 5.86023 6.87 4.74023 8.24 4.74023C9.61 4.74023 10.73 5.86023 10.73 7.23023C10.73 8.60023 9.61 9.72023 8.24 9.72023ZM8.24 6.25023C7.7 6.25023 7.25 6.69023 7.25 7.24023C7.25 7.79023 7.69 8.23023 8.24 8.23023C8.78 8.23023 9.23 7.79023 9.23 7.24023C9.23 6.69023 8.78 6.25023 8.24 6.25023Z" fill="#242424"/>
</svg>
