<svg width="24" height="24" viewBox="0 0 24 24" fill="none" xmlns="http://www.w3.org/2000/svg">
<path d="M12.0099 16.9998C11.1599 16.9998 10.2999 16.7798 9.62995 16.3498L3.60995 12.4198C2.48995 11.6898 1.81995 10.4598 1.81995 9.11979C1.81995 7.77979 2.48995 6.54979 3.60995 5.81979L9.63995 1.89979C10.9799 1.02979 13.0699 1.02979 14.3999 1.90979L20.3899 5.83979C21.4999 6.56979 22.1699 7.79979 22.1699 9.12979C22.1699 10.4598 21.4999 11.6898 20.3899 12.4198L14.3999 16.3498C13.7299 16.7898 12.8699 16.9998 12.0099 16.9998ZM12.0099 2.74979C11.4399 2.74979 10.8699 2.87979 10.4599 3.15979L4.43995 7.07979C3.73995 7.53979 3.32995 8.27979 3.32995 9.11979C3.32995 9.95979 3.72995 10.6998 4.43995 11.1598L10.4599 15.0898C11.2899 15.6298 12.7499 15.6298 13.5799 15.0898L19.5699 11.1598C20.2699 10.6998 20.6699 9.95979 20.6699 9.11979C20.6699 8.27979 20.2699 7.53979 19.5699 7.07979L13.5799 3.14979C13.1599 2.88979 12.5899 2.74979 12.0099 2.74979Z" fill="#242424"/>
<path d="M12.0001 22.7501C11.5601 22.7501 11.1101 22.6901 10.7501 22.5701L7.56006 21.5101C6.05006 21.0101 4.86006 19.3601 4.87006 17.7701L4.88006 13.0801C4.88006 12.6701 5.22006 12.3301 5.63006 12.3301C6.04006 12.3301 6.38006 12.6701 6.38006 13.0801L6.37006 17.7701C6.37006 18.7101 7.15006 19.7901 8.04006 20.0901L11.2301 21.1501C11.6301 21.2801 12.3701 21.2801 12.7701 21.1501L15.9601 20.0901C16.8501 19.7901 17.6301 18.7101 17.6301 17.7801V13.1401C17.6301 12.7301 17.9701 12.3901 18.3801 12.3901C18.7901 12.3901 19.1301 12.7301 19.1301 13.1401V17.7801C19.1301 19.3701 17.9501 21.0101 16.4401 21.5201L13.2501 22.5801C12.8901 22.6901 12.4401 22.7501 12.0001 22.7501Z" fill="#242424"/>
<path d="M21.4 15.75C20.99 15.75 20.65 15.41 20.65 15V9C20.65 8.59 20.99 8.25 21.4 8.25C21.81 8.25 22.15 8.59 22.15 9V15C22.15 15.41 21.81 15.75 21.4 15.75Z" fill="#242424"/>
</svg>
