<svg width="24" height="24" viewBox="0 0 24 24" fill="none" xmlns="http://www.w3.org/2000/svg">
<path d="M17.03 19.7501H15.99C13.98 19.7501 13.01 18.8201 13.01 16.9001V5.1001C13.01 4.6901 13.35 4.3501 13.76 4.3501C14.17 4.3501 14.51 4.6901 14.51 5.1001V16.9001C14.51 17.9101 14.72 18.2501 15.99 18.2501H17.03C18.3 18.2501 18.51 17.9101 18.51 16.9001V5.1001C18.51 4.6901 18.85 4.3501 19.26 4.3501C19.67 4.3501 20.01 4.6901 20.01 5.1001V16.9001C20.01 18.8201 19.04 19.7501 17.03 19.7501Z" fill="#242424"/>
<path d="M8.53001 14.7501H7.49001C5.48001 14.7501 4.51001 13.8201 4.51001 11.9001V5.1001C4.51001 4.6901 4.85001 4.3501 5.26001 4.3501C5.67001 4.3501 6.01001 4.6901 6.01001 5.1001V11.9001C6.01001 12.9101 6.22001 13.2501 7.49001 13.2501H8.53001C9.80001 13.2501 10.01 12.9101 10.01 11.9001V5.1001C10.01 4.6901 10.35 4.3501 10.76 4.3501C11.17 4.3501 11.51 4.6901 11.51 5.1001V11.9001C11.51 13.8201 10.54 14.7501 8.53001 14.7501Z" fill="#242424"/>
<path d="M22 5.75H2C1.58 5.75 1.25 5.41 1.25 5C1.25 4.59 1.58 4.25 2 4.25H22C22.41 4.25 22.75 4.59 22.75 5C22.75 5.41 22.42 5.75 22 5.75Z" fill="#242424"/>
</svg>
