<svg width="24" height="24" viewBox="0 0 24 24" fill="none" xmlns="http://www.w3.org/2000/svg">
<path d="M15 22.75H9C3.57 22.75 1.25 20.43 1.25 15V9C1.25 3.57 3.57 1.25 9 1.25H15C20.43 1.25 22.75 3.57 22.75 9V15C22.75 20.43 20.43 22.75 15 22.75ZM9 2.75C4.39 2.75 2.75 4.39 2.75 9V15C2.75 19.61 4.39 21.25 9 21.25H15C19.61 21.25 21.25 19.61 21.25 15V9C21.25 4.39 19.61 2.75 15 2.75H9Z" fill="#242424"/>
<path d="M22 9.25H2.03003C1.62003 9.25 1.28003 8.91 1.28003 8.5C1.28003 8.09 1.62003 7.75 2.03003 7.75H22C22.41 7.75 22.75 8.09 22.75 8.5C22.75 8.91 22.41 9.25 22 9.25Z" fill="#242424"/>
<path d="M22 16.25H2.03003C1.62003 16.25 1.28003 15.91 1.28003 15.5C1.28003 15.09 1.62003 14.75 2.03003 14.75H22C22.41 14.75 22.75 15.09 22.75 15.5C22.75 15.91 22.41 16.25 22 16.25Z" fill="#242424"/>
<path d="M8.51001 22.7398C8.10001 22.7398 7.76001 22.3998 7.76001 21.9898V2.00977C7.76001 1.59977 8.10001 1.25977 8.51001 1.25977C8.92001 1.25977 9.26001 1.59977 9.26001 2.00977V21.9798C9.26001 22.3998 8.93001 22.7398 8.51001 22.7398Z" fill="#242424"/>
<path d="M15.51 22.7398C15.1 22.7398 14.76 22.3998 14.76 21.9898V2.00977C14.76 1.59977 15.1 1.25977 15.51 1.25977C15.92 1.25977 16.26 1.59977 16.26 2.00977V21.9798C16.26 22.3998 15.93 22.7398 15.51 22.7398Z" fill="#242424"/>
</svg>
