<svg width="24" height="24" viewBox="0 0 24 24" fill="none" xmlns="http://www.w3.org/2000/svg">
<path d="M12.5002 22.7502H4.08021C2.51021 22.7502 1.22021 21.4902 1.22021 19.9302V5.09019C1.22021 3.56019 1.79021 2.37019 2.83021 1.72019C3.88021 1.06019 5.24022 1.08019 6.65022 1.78019L11.0902 3.96019C12.3002 4.56019 13.2502 6.07019 13.2502 7.41019V22.0002C13.2502 22.4102 12.9102 22.7502 12.5002 22.7502ZM4.56021 2.75019C4.21021 2.75019 3.89021 2.83019 3.62021 3.00019C3.04021 3.36019 2.72021 4.11019 2.72021 5.09019V19.9302C2.72021 20.6602 3.33021 21.2502 4.08021 21.2502H11.7502V7.41019C11.7502 6.64019 11.1302 5.65019 10.4202 5.31019L5.98022 3.13019C5.47021 2.88019 4.99021 2.75019 4.56021 2.75019Z" fill="#242424"/>
<path d="M18.81 22.7498H12.5C12.09 22.7498 11.75 22.4098 11.75 21.9998V10.4198C11.75 10.1898 11.85 9.97978 12.03 9.83978C12.21 9.69978 12.43 9.63978 12.66 9.68978L13.13 9.78978L19.67 11.2498C21.66 11.6898 22.66 12.8598 22.72 14.8498C22.73 14.8498 22.73 14.9498 22.73 15.0598V18.8398C22.72 21.3998 21.37 22.7498 18.81 22.7498ZM13.25 21.2498H18.81C20.57 21.2498 21.22 20.5998 21.22 18.8398V14.9798C21.17 13.6098 20.65 12.9998 19.34 12.7098L13.25 11.3498V21.2498Z" fill="#242424"/>
<path d="M8.97 9.75H5.5C5.09 9.75 4.75 9.41 4.75 9C4.75 8.59 5.09 8.25 5.5 8.25H8.97C9.38 8.25 9.72 8.59 9.72 9C9.72 9.41 9.39 9.75 8.97 9.75Z" fill="#242424"/>
<path d="M8.97 13.75H5.5C5.09 13.75 4.75 13.41 4.75 13C4.75 12.59 5.09 12.25 5.5 12.25H8.97C9.38 12.25 9.72 12.59 9.72 13C9.72 13.41 9.39 13.75 8.97 13.75Z" fill="#242424"/>
<path d="M15.2202 17.75C13.5702 17.75 12.2202 16.4 12.2202 14.75V10.52C12.2202 10.29 12.3202 10.08 12.5002 9.92998C12.6802 9.77998 12.9102 9.72998 13.1302 9.77998L17.6302 10.79C17.9702 10.87 18.2202 11.17 18.2202 11.52V14.74C18.2202 16.4 16.8802 17.75 15.2202 17.75ZM13.7202 11.46V14.75C13.7202 15.58 14.3902 16.25 15.2202 16.25C16.0502 16.25 16.7202 15.58 16.7202 14.75V12.13L13.7202 11.46Z" fill="#242424"/>
<path d="M19.7202 17.7501C18.0702 17.7501 16.7202 16.4001 16.7202 14.7501V11.5301C16.7202 11.3001 16.8202 11.0901 17.0002 10.9501C17.1802 10.8101 17.4102 10.7501 17.6302 10.8001L19.6602 11.2501C21.6502 11.6901 22.6502 12.8601 22.7102 14.8501C22.7102 14.8701 22.7102 14.8901 22.7102 14.9101C22.6302 16.5001 21.3202 17.7501 19.7202 17.7501ZM18.2202 12.4601V14.7501C18.2202 15.5801 18.8902 16.2501 19.7202 16.2501C20.5102 16.2501 21.1602 15.6401 21.2102 14.8601C21.1602 13.6001 20.6402 13.0001 19.3402 12.7101L18.2202 12.4601Z" fill="#242424"/>
</svg>
