<svg width="24" height="24" viewBox="0 0 24 24" fill="none" xmlns="http://www.w3.org/2000/svg">
<path d="M14.46 19.8301C14.23 19.8301 14 19.7801 13.79 19.6701C13.74 19.6401 13.69 19.6101 13.65 19.5701L11.98 18.1501L10.34 19.5701C10.29 19.6101 10.24 19.6401 10.19 19.6701C9.79999 19.8601 9.35999 19.8801 8.96999 19.7101C8.56999 19.5401 8.26999 19.2101 8.12999 18.8001L7.80999 17.8401C7.63999 17.3401 7.78999 16.7101 8.15999 16.3301L9.82999 14.6901L9.81999 13.2401L6.80999 14.5301C6.30999 14.7401 5.78999 14.7201 5.38999 14.4501C4.99999 14.2001 4.76999 13.7301 4.76999 13.1901V12.2601C4.76999 11.4801 5.30999 10.6501 6.02999 10.3401L9.81999 8.71012V6.80012C9.81999 5.82012 10.47 4.76012 11.34 4.34012C11.77 4.13012 12.26 4.13012 12.69 4.34012C13.56 4.79012 14.21 5.85012 14.21 6.80012V8.71012L18 10.3401C18.72 10.6401 19.26 11.4701 19.26 12.2601V13.1901C19.26 13.7301 19.03 14.2001 18.62 14.4601C18.21 14.7201 17.7 14.7501 17.2 14.5401L14.2 13.2501V14.7201L15.83 16.3501C16.2 16.7201 16.35 17.3601 16.18 17.8601L15.86 18.8101C15.72 19.2201 15.42 19.5501 15.02 19.7101C14.84 19.7901 14.65 19.8301 14.46 19.8301ZM12 16.6701C12.34 16.6701 12.67 16.7801 12.94 16.9901L14.49 18.3101L14.76 17.3801L13.13 15.7601C12.87 15.5101 12.7 15.0901 12.7 14.7201V12.8701C12.7 12.4201 12.89 12.0301 13.23 11.8001C13.57 11.5701 14.01 11.5401 14.43 11.7201L17.75 13.1401L17.76 12.2601C17.76 12.0701 17.58 11.7901 17.41 11.7201L13.46 10.0201C13.03 9.84012 12.71 9.36012 12.71 8.87012V6.80012C12.71 6.41012 12.37 5.86012 12.02 5.68012C11.66 5.86012 11.32 6.40012 11.32 6.80012V8.87012C11.32 9.34012 11.01 9.83012 10.57 10.0201L6.62999 11.7201C6.45999 11.7901 6.26999 12.0801 6.26999 12.2601V13.1401L9.57999 11.7301C9.98999 11.5501 10.42 11.5701 10.77 11.8001C11.12 12.0301 11.32 12.4201 11.32 12.8801V14.7301C11.32 15.0901 11.15 15.5101 10.89 15.7701L9.20999 17.4201L9.52999 18.3001L11.04 17.0201C11.32 16.7901 11.66 16.6701 12 16.6701ZM14.05 8.64012L14.06 8.65012C14.06 8.64012 14.05 8.64012 14.05 8.64012Z" fill="#242424"/>
<path d="M15 22.75H9C3.57 22.75 1.25 20.43 1.25 15V9C1.25 3.57 3.57 1.25 9 1.25H15C20.43 1.25 22.75 3.57 22.75 9V15C22.75 20.43 20.43 22.75 15 22.75ZM9 2.75C4.39 2.75 2.75 4.39 2.75 9V15C2.75 19.61 4.39 21.25 9 21.25H15C19.61 21.25 21.25 19.61 21.25 15V9C21.25 4.39 19.61 2.75 15 2.75H9Z" fill="#242424"/>
</svg>
