<svg width="24" height="24" viewBox="0 0 24 24" fill="none" xmlns="http://www.w3.org/2000/svg">
<path d="M8.58 22.5503C8.36 22.5503 8.13 22.5103 7.92 22.4203C7.45 22.2203 7.09 21.8303 6.93 21.3403L6.49 20.0203C6.29 19.4203 6.47 18.6703 6.91 18.2203L9.18 15.9403C9.21 15.9103 9.25 15.8003 9.25 15.7503V13.2803L4.69 15.2503C4.08 15.5103 3.46 15.4803 2.99 15.1703C2.52 14.8603 2.24 14.3003 2.24 13.6503V12.3603C2.24 11.3803 2.94 10.3303 3.83 9.98031L9.24 7.64031V4.80031C9.24 3.59031 10.09 2.20031 11.17 1.64031C11.69 1.38031 12.29 1.38031 12.8 1.64031C13.89 2.20031 14.74 3.58031 14.74 4.79031V7.63031L20.18 9.97031C21.07 10.3503 21.75 11.3703 21.75 12.3603V13.6503C21.75 14.3103 21.48 14.8603 21 15.1703C20.52 15.4803 19.91 15.5103 19.3 15.2603L14.74 13.2903V15.7603C14.74 15.8003 14.78 15.9003 14.81 15.9303L17.09 18.2203C17.53 18.6603 17.71 19.4303 17.51 20.0203L17.07 21.3403C16.9 21.8303 16.54 22.2203 16.06 22.4103C15.59 22.6003 15.07 22.5803 14.62 22.3603C14.57 22.3303 14.52 22.3003 14.47 22.2603L12.14 20.3003C12.06 20.2303 11.9 20.2403 11.83 20.3003L9.5 22.2603C9.46 22.3003 9.41 22.3303 9.36 22.3503C9.12 22.4903 8.85 22.5503 8.58 22.5503ZM9.56 11.6403C9.79 11.6403 10.01 11.7003 10.2 11.8303C10.55 12.0603 10.75 12.4503 10.75 12.9103V15.7603C10.75 16.1903 10.54 16.7003 10.24 17.0003L7.97 19.2803C7.93 19.3303 7.89 19.4803 7.91 19.5403L8.35 20.8703C8.38 20.9703 8.45 21.0103 8.49 21.0303C8.52 21.0403 8.57 21.0603 8.63 21.0403L10.87 19.1503C11.5 18.6103 12.49 18.6103 13.12 19.1503L15.35 21.0303C15.42 21.0403 15.47 21.0303 15.5 21.0203C15.54 21.0003 15.62 20.9603 15.65 20.8603L16.09 19.5403C16.11 19.4703 16.07 19.3203 16.03 19.2803L13.76 17.0003C13.46 16.7203 13.24 16.2003 13.24 15.7603V12.9103C13.24 12.4603 13.43 12.0703 13.77 11.8403C14.11 11.6103 14.55 11.5803 14.97 11.7603L19.89 13.8803C20.04 13.9403 20.14 13.9403 20.17 13.9203C20.2 13.9003 20.24 13.8103 20.24 13.6503V12.3603C20.24 11.9803 19.92 11.4903 19.58 11.3503L14 8.94031C13.56 8.75031 13.25 8.27031 13.25 7.79031V4.79031C13.25 4.13031 12.73 3.28031 12.13 2.98031C12.05 2.94031 11.95 2.94031 11.86 2.98031C11.28 3.28031 10.75 4.15031 10.75 4.80031V7.80031C10.75 8.27031 10.44 8.76031 10 8.95031L4.42 11.3603C4.07 11.5003 3.75 11.9903 3.75 12.3603V13.6503C3.75 13.8103 3.79 13.9003 3.82 13.9203C3.85 13.9403 3.95 13.9403 4.1 13.8803L9.01 11.7603C9.19 11.6803 9.38 11.6403 9.56 11.6403Z" fill="#242424"/>
</svg>
