<svg width="24" height="24" viewBox="0 0 24 24" fill="none" xmlns="http://www.w3.org/2000/svg">
<path d="M9.54004 16.6701C9.13004 16.6701 8.79004 16.3301 8.79004 15.9201V12.5301L8.60003 12.7401C8.32003 13.0501 7.85004 13.0701 7.54004 12.8001C7.23004 12.5201 7.21004 12.0501 7.48004 11.7401L8.98004 10.0701C9.19004 9.84008 9.52003 9.76007 9.81003 9.87007C10.1 9.98007 10.29 10.2601 10.29 10.5701V15.9201C10.29 16.3401 9.96004 16.6701 9.54004 16.6701Z" fill="#242424"/>
<path d="M10.02 5.21993C9.84997 5.21993 9.68997 5.16995 9.54997 5.04995C9.22997 4.78995 9.17998 4.31996 9.42998 3.99996L11.41 1.52999C11.67 1.20999 12.14 1.15993 12.46 1.40993C12.78 1.65993 12.83 2.13998 12.58 2.45998L10.6 4.92995C10.46 5.11995 10.24 5.21993 10.02 5.21993Z" fill="#242424"/>
<path d="M11.9999 22.7498C6.68988 22.7498 2.35986 18.4297 2.35986 13.1097C2.35986 11.0397 3.02988 9.04973 4.30988 7.34973C4.55988 7.01973 5.02986 6.94977 5.35986 7.19977C5.68986 7.44977 5.75989 7.91976 5.50989 8.24976C4.42989 9.68976 3.85986 11.3697 3.85986 13.1097C3.85986 17.5997 7.50988 21.2498 11.9999 21.2498C16.4899 21.2498 20.1399 17.5997 20.1399 13.1097C20.1399 8.61974 16.4899 4.96973 11.9999 4.96973C11.4199 4.96973 10.8299 5.03976 10.1899 5.18976C9.78988 5.27976 9.37989 5.02976 9.28989 4.62976C9.19989 4.22976 9.44988 3.81974 9.84988 3.72974C10.5999 3.55974 11.3099 3.46973 11.9999 3.46973C17.3099 3.46973 21.6399 7.78974 21.6399 13.1097C21.6399 18.4297 17.3099 22.7498 11.9999 22.7498Z" fill="#242424"/>
<path d="M14 16.6703C12.48 16.6703 11.25 15.4403 11.25 13.9203V12.5703C11.25 11.0503 12.48 9.82031 14 9.82031C15.52 9.82031 16.75 11.0503 16.75 12.5703V13.9203C16.75 15.4403 15.52 16.6703 14 16.6703ZM14 11.3303C13.31 11.3303 12.75 11.8903 12.75 12.5803V13.9303C12.75 14.6203 13.31 15.1803 14 15.1803C14.69 15.1803 15.25 14.6203 15.25 13.9303V12.5803C15.25 11.8903 14.69 11.3303 14 11.3303Z" fill="#242424"/>
</svg>
