<svg width="24" height="24" viewBox="0 0 24 24" fill="none" xmlns="http://www.w3.org/2000/svg">
<path d="M12.3801 16.9203H10.0901C9.68012 16.9203 9.34012 16.5803 9.34012 16.1703C9.34012 15.7603 9.68012 15.4203 10.0901 15.4203H12.3801C12.8101 15.4203 13.1601 15.0703 13.1601 14.6403C13.1601 14.2103 12.8101 13.8603 12.3801 13.8603H10.0901C9.85012 13.8603 9.62013 13.7403 9.48013 13.5503C9.34013 13.3603 9.30013 13.1003 9.38013 12.8703L10.1401 10.5803C10.2401 10.2703 10.5301 10.0703 10.8501 10.0703H13.9101C14.3201 10.0703 14.6601 10.4103 14.6601 10.8203C14.6601 11.2303 14.3201 11.5703 13.9101 11.5703H11.3901L11.1301 12.3603H12.3801C13.6401 12.3603 14.6601 13.3803 14.6601 14.6403C14.6601 15.9003 13.6401 16.9203 12.3801 16.9203Z" fill="#242424"/>
<path d="M10.02 5.21993C9.84997 5.21993 9.68997 5.16995 9.54997 5.04995C9.22997 4.78995 9.17998 4.31996 9.42998 3.99996L11.41 1.52999C11.67 1.20999 12.14 1.15993 12.46 1.40993C12.78 1.66993 12.83 2.13998 12.58 2.45998L10.6 4.92995C10.46 5.11995 10.24 5.21993 10.02 5.21993Z" fill="#242424"/>
<path d="M11.9999 22.7498C6.68988 22.7498 2.35986 18.4297 2.35986 13.1097C2.35986 11.0397 3.02988 9.04973 4.30988 7.34973C4.55988 7.01973 5.02986 6.94977 5.35986 7.19977C5.68986 7.44977 5.75989 7.91976 5.50989 8.24976C4.42989 9.68976 3.85986 11.3697 3.85986 13.1097C3.85986 17.5997 7.50988 21.2498 11.9999 21.2498C16.4899 21.2498 20.1399 17.5997 20.1399 13.1097C20.1399 8.61974 16.4899 4.96973 11.9999 4.96973C11.4199 4.96973 10.8299 5.03976 10.1899 5.18976C9.78988 5.27976 9.37989 5.02976 9.28989 4.62976C9.19989 4.22976 9.44988 3.81974 9.84988 3.72974C10.5999 3.55974 11.3099 3.46973 11.9999 3.46973C17.3099 3.46973 21.6399 7.78974 21.6399 13.1097C21.6399 18.4297 17.3099 22.7498 11.9999 22.7498Z" fill="#242424"/>
</svg>
