<svg width="24" height="24" viewBox="0 0 24 24" fill="none" xmlns="http://www.w3.org/2000/svg">
<path d="M14.4299 16.9203H12.1399C11.7299 16.9203 11.3899 16.5803 11.3899 16.1703C11.3899 15.7603 11.7299 15.4203 12.1399 15.4203H14.4299C14.8599 15.4203 15.21 15.0703 15.21 14.6403C15.21 14.2103 14.8599 13.8603 14.4299 13.8603H12.1399C11.8999 13.8603 11.67 13.7403 11.53 13.5503C11.39 13.3603 11.3499 13.1003 11.4299 12.8703L12.1899 10.5803C12.2899 10.2703 12.58 10.0703 12.9 10.0703H15.96C16.37 10.0703 16.71 10.4103 16.71 10.8203C16.71 11.2303 16.37 11.5703 15.96 11.5703H13.4399L13.1799 12.3603H14.4299C15.6899 12.3603 16.71 13.3803 16.71 14.6403C16.71 15.9003 15.6799 16.9203 14.4299 16.9203Z" fill="#242424"/>
<path d="M9.54004 16.9198C9.13004 16.9198 8.79004 16.5798 8.79004 16.1698V12.7799L8.60003 12.9998C8.32003 13.3098 7.85004 13.3298 7.54004 13.0598C7.23004 12.7798 7.21004 12.3098 7.48004 11.9998L8.98004 10.3298C9.19004 10.0998 9.52006 10.0198 9.81006 10.1298C10.1001 10.2398 10.29 10.5198 10.29 10.8298V16.1798C10.29 16.5898 9.96004 16.9198 9.54004 16.9198Z" fill="#242424"/>
<path d="M10.02 5.21993C9.85 5.21993 9.68997 5.16995 9.54997 5.04995C9.22997 4.78995 9.17998 4.31996 9.42998 3.99996L11.41 1.52999C11.67 1.20999 12.14 1.15993 12.46 1.40993C12.78 1.65993 12.83 2.13998 12.58 2.45998L10.6 4.92995C10.46 5.11995 10.24 5.21993 10.02 5.21993Z" fill="#242424"/>
<path d="M11.9999 22.7498C6.68988 22.7498 2.35986 18.4297 2.35986 13.1097C2.35986 11.0397 3.02988 9.04973 4.30988 7.34973C4.55988 7.01973 5.02986 6.94977 5.35986 7.19977C5.68986 7.44977 5.75989 7.91976 5.50989 8.24976C4.42989 9.68976 3.85986 11.3697 3.85986 13.1097C3.85986 17.5997 7.50988 21.2498 11.9999 21.2498C16.4899 21.2498 20.1399 17.5997 20.1399 13.1097C20.1399 8.61974 16.4899 4.96973 11.9999 4.96973C11.4199 4.96973 10.8299 5.03976 10.1899 5.18976C9.77988 5.27976 9.37986 5.02976 9.28986 4.62976C9.19986 4.22976 9.44985 3.81974 9.84985 3.72974C10.5999 3.55974 11.3099 3.46973 11.9999 3.46973C17.3099 3.46973 21.6399 7.78974 21.6399 13.1097C21.6399 18.4297 17.3099 22.7498 11.9999 22.7498Z" fill="#242424"/>
</svg>
