<svg width="24" height="24" viewBox="0 0 24 24" fill="none" xmlns="http://www.w3.org/2000/svg">
<path d="M9 10.75H6C5.59 10.75 5.25 10.41 5.25 10C5.25 9.59 5.59 9.25 6 9.25H9C9.41 9.25 9.75 9.59 9.75 10C9.75 10.41 9.41 10.75 9 10.75Z" fill="#242424"/>
<path d="M17.24 22.75H6.76001C6.35001 22.75 6.01001 22.41 6.01001 22C6.01001 21.59 6.35001 21.25 6.76001 21.25H17.24C19.26 21.25 20.35 20.22 20.48 18.2L21 9.94004C21.05 9.23004 20.84 8.53004 20.41 7.96004C20.16 7.63004 20.23 7.16004 20.56 6.91004C20.89 6.66004 21.36 6.73004 21.61 7.06004C22.25 7.92004 22.57 8.97004 22.5 10.04L21.98 18.3C21.8 21.13 20.07 22.75 17.24 22.75Z" fill="#242424"/>
<path d="M3.43999 21.21C3.19999 21.21 2.95999 21.09 2.80999 20.87C2.34999 20.17 2.07999 19.3 2.01999 18.29L1.49999 10.04C1.41999 8.79 1.84999 7.59 2.70999 6.68C3.55999 5.77 4.75999 5.25 5.99999 5.25C6.31999 5.25 6.62999 5.06 6.77999 4.76L7.49999 3.33C8.08999 2.16 9.56999 1.25 10.86 1.25H13.15C14.44 1.25 15.91 2.16 16.5 3.32L17.22 4.78C17.37 5.06 17.67 5.25 18 5.25C18.41 5.25 18.75 5.59 18.75 6C18.75 6.41 18.41 6.75 18 6.75C17.11 6.75 16.3 6.25 15.88 5.46L15.15 4C14.82 3.34 13.88 2.76 13.14 2.76H10.85C10.11 2.76 9.16999 3.34 8.82999 4.01L8.11999 5.44C7.69999 6.25 6.88999 6.75 5.99999 6.75C5.15999 6.75 4.37999 7.09 3.79999 7.7C3.22999 8.31 2.93999 9.11 2.99999 9.94L3.51999 18.2C3.55999 18.93 3.74999 19.57 4.06999 20.04C4.29999 20.39 4.19999 20.85 3.85999 21.08C3.72999 21.17 3.57999 21.21 3.43999 21.21Z" fill="#242424"/>
<path d="M12 18.7501C11.11 18.7501 10.24 18.4501 9.53999 17.9001C9.20999 17.6401 9.15999 17.1701 9.40999 16.8501C9.66999 16.5201 10.14 16.4701 10.46 16.7201C10.9 17.0601 11.44 17.2501 12 17.2501C13.38 17.2501 14.5 16.1301 14.5 14.7501C14.5 14.2701 14.37 13.8101 14.12 13.4201C13.9 13.0701 14 12.6101 14.35 12.3801C14.7 12.1601 15.16 12.2601 15.39 12.6101C15.79 13.2401 16.01 13.9801 16.01 14.7401C16 16.9601 14.21 18.7501 12 18.7501Z" fill="#242424"/>
<path d="M2 22.7499C1.81 22.7499 1.62 22.6799 1.47 22.5299C1.18 22.2399 1.18 21.7599 1.47 21.4699L21.47 1.46994C21.76 1.17994 22.24 1.17994 22.53 1.46994C22.82 1.75994 22.82 2.23994 22.53 2.52994L2.53 22.5299C2.38 22.6799 2.19 22.7499 2 22.7499Z" fill="#242424"/>
</svg>
