<svg width="24" height="24" viewBox="0 0 24 24" fill="none" xmlns="http://www.w3.org/2000/svg">
<path d="M11.9998 19.4201C10.4598 19.4201 8.9198 18.8301 7.7498 17.6601C5.3998 15.3101 5.3998 11.5001 7.7498 9.15015C8.8898 8.01015 10.3998 7.39014 11.9998 7.39014C13.5998 7.39014 15.1198 8.02015 16.2498 9.15015C18.5998 11.5001 18.5998 15.3101 16.2498 17.6601C15.0798 18.8301 13.5398 19.4201 11.9998 19.4201ZM11.9998 8.90015C10.7998 8.90015 9.6598 9.37009 8.8098 10.2201C7.0498 11.9801 7.0498 14.8401 8.8098 16.6001C10.5698 18.3601 13.4298 18.3501 15.1898 16.6001C16.9498 14.8401 16.9498 11.9801 15.1898 10.2201C14.3398 9.37009 13.1998 8.90015 11.9998 8.90015Z" fill="#242424"/>
<path d="M10.4101 15.7498C10.2201 15.7498 10.0201 15.6799 9.8801 15.5299C9.5901 15.2399 9.5901 14.7599 9.8801 14.4599L11.4701 12.8698C11.7601 12.5798 12.2401 12.5798 12.5401 12.8698C12.8301 13.1598 12.8301 13.6399 12.5401 13.9399L10.9501 15.5299C10.7901 15.6799 10.6001 15.7498 10.4101 15.7498Z" fill="#242424"/>
<path d="M18.79 7.51001C18.55 7.51001 18.33 7.42 18.16 7.25C17.81 6.9 17.81 6.32999 18.16 5.98999C18.33 5.81999 18.55 5.72998 18.79 5.72998C19.03 5.72998 19.25 5.81999 19.42 5.98999C19.59 6.15999 19.6799 6.38 19.6799 6.62C19.6799 6.86 19.59 7.08 19.42 7.25C19.26 7.42 19.03 7.51001 18.79 7.51001ZM18.72 6.53998V6.69C18.74 6.71 18.7699 6.71997 18.7999 6.71997C18.9199 6.64997 18.92 6.57998 18.87 6.53998H18.72Z" fill="#242424"/>
<path d="M18.7899 7.75977C18.4799 7.75977 18.1999 7.63974 17.9799 7.41974C17.5399 6.97974 17.5399 6.24974 17.9799 5.79974C18.1999 5.57974 18.4799 5.46973 18.7899 5.46973C19.0999 5.46973 19.3799 5.58975 19.5999 5.80975C19.8199 6.02975 19.9299 6.30975 19.9299 6.61975C19.9299 6.92975 19.8099 7.20975 19.5899 7.42975C19.3899 7.63975 19.0999 7.75977 18.7899 7.75977ZM18.5399 6.86975C18.6099 6.93975 18.6999 6.96973 18.7899 6.96973C18.8799 6.96973 18.9699 6.92975 19.0399 6.86975C19.1799 6.72975 19.1799 6.50975 19.0399 6.36975C18.9099 6.23975 18.6699 6.23975 18.5399 6.36975C18.4799 6.42975 18.4399 6.51975 18.4399 6.61975C18.4399 6.70975 18.4699 6.79975 18.5399 6.86975Z" fill="#242424"/>
<path d="M5.20981 21.0901C4.97981 21.0901 4.7498 21.0001 4.5798 20.8301C4.4098 20.6601 4.31982 20.4301 4.31982 20.2001C4.31982 19.9601 4.4098 19.7401 4.5798 19.5701C4.7498 19.4001 4.96981 19.3101 5.20981 19.3101C5.44981 19.3101 5.66981 19.4001 5.83981 19.5701C6.18981 19.9201 6.18981 20.4901 5.83981 20.8301C5.66981 21.0001 5.43981 21.0901 5.20981 21.0901ZM5.18982 20.1C5.16982 20.1 5.14982 20.1101 5.12982 20.1301C5.08982 20.1701 5.08982 20.2401 5.12982 20.2801C5.14982 20.3001 5.17983 20.3101 5.19983 20.3101L5.2998 20.2101C5.2698 20.1201 5.22982 20.1 5.18982 20.1Z" fill="#242424"/>
<path d="M5.21005 21.3401C4.92005 21.3401 4.62005 21.2301 4.40005 21.0101C4.18005 20.7901 4.06006 20.5001 4.06006 20.2001C4.06006 19.8901 4.18005 19.6101 4.40005 19.3901C4.61005 19.1801 4.90005 19.0601 5.21005 19.0601C5.52005 19.0601 5.80005 19.1801 6.02005 19.4001C6.47005 19.8501 6.47005 20.5701 6.02005 21.0201C5.80005 21.2301 5.50005 21.3401 5.21005 21.3401ZM5.21005 19.8401C5.12005 19.8401 5.03005 19.8701 4.96005 19.9401C4.82005 20.0801 4.82005 20.3001 4.96005 20.4401C5.03005 20.5101 5.12005 20.54 5.21005 20.54C5.30005 20.54 5.40005 20.5001 5.46005 20.4301C5.52005 20.3701 5.56006 20.2801 5.56006 20.1801C5.56006 20.0901 5.52005 19.9901 5.46005 19.9301C5.39005 19.8801 5.30005 19.8401 5.21005 19.8401Z" fill="#242424"/>
<path d="M21.6 14.2997C21.37 14.2997 21.14 14.2097 20.97 14.0397C20.62 13.6897 20.62 13.1198 20.97 12.7698C21.14 12.5998 21.37 12.5598 21.6 12.5098C21.84 12.5098 22.06 12.5998 22.23 12.7698C22.58 13.1198 22.58 13.6897 22.23 14.0397C22.06 14.2097 21.83 14.2997 21.6 14.2997ZM21.53 13.4797C21.55 13.4997 21.58 13.5098 21.61 13.5098C21.72 13.4398 21.72 13.3698 21.68 13.3298C21.64 13.2898 21.57 13.2898 21.53 13.3298C21.49 13.3698 21.49 13.4397 21.53 13.4797Z" fill="#242424"/>
<path d="M21.6001 14.5497C21.3101 14.5497 21.0101 14.4397 20.7901 14.2197C20.3401 13.7697 20.3401 13.0497 20.7901 12.5997C21.0101 12.3797 21.2901 12.2598 21.6001 12.2598C21.9101 12.2598 22.1901 12.3797 22.4101 12.5997C22.8601 13.0497 22.8601 13.7697 22.4101 14.2197C22.1901 14.4397 21.9001 14.5497 21.6001 14.5497ZM21.3501 13.6597C21.4201 13.7297 21.5101 13.7598 21.6001 13.7598C21.6901 13.7598 21.7801 13.7197 21.8501 13.6597C21.9901 13.5197 21.9901 13.2997 21.8501 13.1597C21.7101 13.0197 21.4901 13.0197 21.3501 13.1597C21.2201 13.2897 21.2101 13.5197 21.3501 13.6597Z" fill="#242424"/>
<path d="M2.39983 14.3003C2.16983 14.3003 1.93982 14.2103 1.76982 14.0403C1.41982 13.6903 1.41982 13.1203 1.76982 12.7703C2.11982 12.4203 2.68984 12.4203 3.03984 12.7703C3.38984 13.1203 3.38984 13.6903 3.03984 14.0403C2.84984 14.2103 2.61983 14.3003 2.39983 14.3003ZM2.31984 13.4803C2.35984 13.5203 2.42984 13.5203 2.46984 13.4803C2.50984 13.4403 2.50984 13.3703 2.46984 13.3303C2.42984 13.2903 2.35984 13.2903 2.31984 13.3303C2.27984 13.3703 2.27984 13.4403 2.31984 13.4803Z" fill="#242424"/>
<path d="M2.39994 14.5499C2.10994 14.5499 1.80994 14.4399 1.58994 14.2199C1.13994 13.7699 1.13994 13.0499 1.58994 12.5999C2.03994 12.1499 2.76994 12.1599 3.20994 12.5999C3.65994 13.0499 3.65994 13.7699 3.20994 14.2199C2.97994 14.4399 2.68994 14.5499 2.39994 14.5499ZM2.13996 13.6599C2.27996 13.7999 2.49996 13.7999 2.63996 13.6599C2.77996 13.5199 2.77996 13.2899 2.63996 13.1599C2.49996 13.0199 2.27996 13.0199 2.13996 13.1599C2.00996 13.2899 2.00996 13.5199 2.13996 13.6599Z" fill="#242424"/>
<path d="M18.79 21.0899C18.56 21.0899 18.33 20.9999 18.16 20.8299C17.81 20.4799 17.81 19.9099 18.16 19.5599C18.51 19.2099 19.0799 19.2099 19.4299 19.5599C19.5999 19.7299 19.69 19.9499 19.69 20.1899C19.69 20.4299 19.5999 20.6499 19.4299 20.8199C19.2499 20.9999 19.02 21.0899 18.79 21.0899ZM18.79 20.0899C18.76 20.0899 18.74 20.0999 18.72 20.1199V20.2699C18.76 20.3099 18.83 20.3099 18.87 20.2699C18.91 20.2299 18.91 20.1599 18.87 20.1199C18.84 20.0999 18.82 20.0899 18.79 20.0899Z" fill="#242424"/>
<path d="M18.7901 21.3402C18.5001 21.3402 18.2001 21.2302 17.9801 21.0102C17.5301 20.5602 17.5301 19.8402 17.9801 19.3902C18.4301 18.9402 19.1501 18.9402 19.6001 19.3902C19.8201 19.6102 19.9401 19.8902 19.9401 20.2002C19.9401 20.5102 19.8201 20.7902 19.6001 21.0102C19.3801 21.2302 19.0801 21.3402 18.7901 21.3402ZM18.5401 20.4502C18.6801 20.5902 18.9001 20.5902 19.0401 20.4502C19.1801 20.3102 19.1801 20.0902 19.0401 19.9502C18.9001 19.8102 18.6801 19.8102 18.5401 19.9502C18.4701 20.0202 18.4401 20.1102 18.4401 20.2002C18.4401 20.2902 18.4701 20.3802 18.5401 20.4502Z" fill="#242424"/>
<path d="M5.20981 7.51001C4.96981 7.51001 4.7498 7.42 4.5798 7.25C4.4098 7.08 4.31982 6.86 4.31982 6.62C4.31982 6.38 4.4098 6.15999 4.5798 5.98999C4.7498 5.81999 4.96981 5.72998 5.20981 5.72998C5.44981 5.72998 5.66981 5.81999 5.83981 5.98999C6.18981 6.33999 6.18981 6.91001 5.83981 7.26001C5.66981 7.42001 5.44981 7.51001 5.20981 7.51001ZM5.12982 6.69C5.14982 6.71 5.17983 6.71997 5.19983 6.71997L5.2998 6.62L5.19983 6.52002C5.08983 6.58002 5.08982 6.65 5.12982 6.69Z" fill="#242424"/>
<path d="M5.20981 7.75977C4.89981 7.75977 4.61981 7.63974 4.39981 7.41974C4.18981 7.20974 4.06982 6.91974 4.06982 6.60974C4.06982 6.29974 4.18982 6.01974 4.40982 5.79974C4.61982 5.58974 4.90982 5.46973 5.21982 5.46973C5.52982 5.46973 5.80982 5.58975 6.02982 5.80975C6.46982 6.25975 6.46982 6.97975 6.02982 7.42975C5.79982 7.63975 5.51981 7.75977 5.20981 7.75977ZM4.95981 6.86975C5.02981 6.93975 5.11981 6.97974 5.20981 6.97974C5.29981 6.97974 5.38981 6.93976 5.45981 6.87976C5.52981 6.81976 5.55981 6.71976 5.55981 6.62976C5.55981 6.53976 5.51983 6.43976 5.44983 6.37976C5.32983 6.24976 5.07983 6.24976 4.94983 6.37976C4.81983 6.49976 4.81981 6.72975 4.95981 6.86975Z" fill="#242424"/>
<path d="M11.9999 4.7C11.7599 4.7 11.5399 4.60999 11.3699 4.43999C11.1999 4.26999 11.1099 4.04999 11.1099 3.80999C11.1099 3.56999 11.1999 3.34998 11.3699 3.17998C11.7199 2.82998 12.2899 2.82998 12.6399 3.17998C12.9899 3.52998 12.9899 4.09999 12.6399 4.43999C12.4699 4.59999 12.2399 4.7 11.9999 4.7ZM12.0699 3.72997L11.9199 3.87999C11.9599 3.91999 12.0299 3.91999 12.0699 3.87999V3.72997ZM11.9299 3.72997C11.8899 3.76997 11.8899 3.83999 11.9299 3.87999L12.0799 3.72997H11.9299Z" fill="#242424"/>
<path d="M11.9999 4.94987C11.6899 4.94987 11.4099 4.82984 11.1899 4.60984C10.9799 4.39984 10.8599 4.10984 10.8599 3.79984C10.8599 3.48984 10.9799 3.20984 11.1999 2.98984C11.6499 2.53984 12.3699 2.53984 12.8199 2.98984C13.2599 3.43984 13.2599 4.15984 12.8199 4.60984C12.5999 4.82984 12.3099 4.94987 11.9999 4.94987ZM12.2499 3.54984L11.7499 4.04984C11.8899 4.18984 12.1099 4.18984 12.2499 4.04984C12.3199 3.97984 12.3499 3.88984 12.3499 3.79984C12.3499 3.70984 12.3199 3.61984 12.2499 3.54984ZM11.9999 3.44987C11.9099 3.44987 11.8099 3.48985 11.7499 3.55985C11.6099 3.69985 11.6099 3.91985 11.7499 4.05985L12.2499 3.55985C12.1899 3.48985 12.0999 3.44987 11.9999 3.44987Z" fill="#242424"/>
</svg>
