<svg width="24" height="24" viewBox="0 0 24 24" fill="none" xmlns="http://www.w3.org/2000/svg">
<path d="M14.4299 16.9203H12.1399C11.7299 16.9203 11.3899 16.5803 11.3899 16.1703C11.3899 15.7603 11.7299 15.4203 12.1399 15.4203H14.4299C14.8599 15.4203 15.21 15.0703 15.21 14.6403C15.21 14.2103 14.8599 13.8603 14.4299 13.8603H12.1399C11.8999 13.8603 11.67 13.7403 11.53 13.5503C11.39 13.3603 11.3499 13.1003 11.4299 12.8703L12.1899 10.5803C12.2899 10.2703 12.58 10.0703 12.9 10.0703H15.96C16.37 10.0703 16.71 10.4103 16.71 10.8203C16.71 11.2303 16.37 11.5703 15.96 11.5703H13.4399L13.1799 12.3603H14.4299C15.6899 12.3603 16.71 13.3803 16.71 14.6403C16.71 15.9003 15.6799 16.9203 14.4299 16.9203Z" fill="#242424"/>
<path d="M9.54004 16.9198C9.13004 16.9198 8.79004 16.5798 8.79004 16.1698V12.7799L8.60003 12.9998C8.32003 13.3098 7.85004 13.3298 7.54004 13.0598C7.23004 12.7798 7.21004 12.3098 7.48004 11.9998L8.98004 10.3298C9.19004 10.0998 9.52006 10.0198 9.81006 10.1298C10.1001 10.2398 10.29 10.5198 10.29 10.8298V16.1798C10.29 16.5898 9.96004 16.9198 9.54004 16.9198Z" fill="#242424"/>
<path d="M13.9797 5.21973C13.7597 5.21973 13.5398 5.11976 13.3998 4.93976L11.4197 2.46973C11.1597 2.14973 11.2097 1.66974 11.5397 1.41974C11.8597 1.15974 12.3298 1.20973 12.5898 1.53973L14.5698 4.00977C14.8298 4.32977 14.7798 4.80975 14.4498 5.05975C14.3098 5.15975 14.1397 5.21973 13.9797 5.21973Z" fill="#242424"/>
<path d="M11.9999 22.7498C6.68988 22.7498 2.35986 18.4297 2.35986 13.1097C2.35986 7.78974 6.67988 3.46973 11.9999 3.46973C12.6899 3.46973 13.3899 3.54974 14.1499 3.72974C14.5499 3.81974 14.8099 4.22976 14.7099 4.62976C14.6199 5.02976 14.2099 5.28976 13.8099 5.18976C13.1699 5.03976 12.5699 4.96973 11.9999 4.96973C7.50988 4.96973 3.85986 8.61974 3.85986 13.1097C3.85986 17.5997 7.50988 21.2498 11.9999 21.2498C16.4899 21.2498 20.1399 17.5997 20.1399 13.1097C20.1399 11.3697 19.5699 9.68976 18.4899 8.24976C18.2399 7.91976 18.3099 7.44977 18.6399 7.19977C18.9699 6.94977 19.4399 7.01973 19.6899 7.34973C20.9699 9.04973 21.6399 11.0397 21.6399 13.1097C21.6399 18.4297 17.3099 22.7498 11.9999 22.7498Z" fill="#242424"/>
</svg>
