<svg width="24" height="24" viewBox="0 0 24 24" fill="none" xmlns="http://www.w3.org/2000/svg">
<path d="M13.9797 5.21993C13.7597 5.21993 13.5398 5.11996 13.3998 4.93996L11.4197 2.46993C11.1597 2.14993 11.2097 1.66994 11.5397 1.41994C11.8697 1.16994 12.3298 1.20994 12.5898 1.53994L14.5698 4.00997C14.8298 4.32997 14.7798 4.80996 14.4498 5.05996C14.3098 5.15996 14.1397 5.21993 13.9797 5.21993Z" fill="#242424"/>
<path d="M11.9999 22.7498C6.68988 22.7498 2.35986 18.4297 2.35986 13.1097C2.35986 7.78974 6.67988 3.46973 11.9999 3.46973C12.6899 3.46973 13.3899 3.54974 14.1499 3.72974C14.5499 3.81974 14.8099 4.22976 14.7099 4.62976C14.6199 5.02976 14.2199 5.28976 13.8099 5.18976C13.1699 5.03976 12.5699 4.96973 11.9999 4.96973C7.50988 4.96973 3.85986 8.61974 3.85986 13.1097C3.85986 17.5997 7.50988 21.2498 11.9999 21.2498C16.4899 21.2498 20.1399 17.5997 20.1399 13.1097C20.1399 11.3697 19.5699 9.68976 18.4899 8.24976C18.2399 7.91976 18.3099 7.44977 18.6399 7.19977C18.9699 6.94977 19.4399 7.01973 19.6899 7.34973C20.9699 9.04973 21.6399 11.0397 21.6399 13.1097C21.6399 18.4297 17.3099 22.7498 11.9999 22.7498Z" fill="#242424"/>
<path d="M12.3801 16.9203H10.0902C9.68016 16.9203 9.34016 16.5803 9.34016 16.1703C9.34016 15.7603 9.68016 15.4203 10.0902 15.4203H12.3801C12.8101 15.4203 13.1601 15.0703 13.1601 14.6403C13.1601 14.2103 12.8101 13.8603 12.3801 13.8603H10.0902C9.85016 13.8603 9.62011 13.7403 9.48011 13.5503C9.34011 13.3603 9.30014 13.1003 9.38014 12.8703L10.1401 10.5803C10.2401 10.2703 10.5301 10.0703 10.8501 10.0703H13.9101C14.3201 10.0703 14.6601 10.4103 14.6601 10.8203C14.6601 11.2303 14.3201 11.5703 13.9101 11.5703H11.3901L11.1301 12.3603H12.3801C13.6401 12.3603 14.6601 13.3803 14.6601 14.6403C14.6601 15.9003 13.6401 16.9203 12.3801 16.9203Z" fill="#242424"/>
</svg>
