<svg width="24" height="24" viewBox="0 0 24 24" fill="none" xmlns="http://www.w3.org/2000/svg">
<path d="M13.9797 5.21973C13.7597 5.21973 13.5397 5.11976 13.3997 4.93976L11.4197 2.46973C11.1597 2.14973 11.2097 1.66974 11.5397 1.41974C11.8597 1.15974 12.3297 1.20973 12.5897 1.53973L14.5697 4.00977C14.8297 4.32977 14.7797 4.80975 14.4497 5.05975C14.3097 5.15975 14.1397 5.21973 13.9797 5.21973Z" fill="#242424"/>
<path d="M11.9999 22.7498C6.68988 22.7498 2.35986 18.4297 2.35986 13.1097C2.35986 7.78974 6.67988 3.46973 11.9999 3.46973C12.6899 3.46973 13.3899 3.54974 14.1499 3.72974C14.5499 3.81974 14.8099 4.22976 14.7099 4.62976C14.6199 5.02976 14.2199 5.28976 13.8099 5.18976C13.1699 5.03976 12.5699 4.96973 11.9999 4.96973C7.50988 4.96973 3.85986 8.61974 3.85986 13.1097C3.85986 17.5997 7.50988 21.2498 11.9999 21.2498C16.4899 21.2498 20.1399 17.5997 20.1399 13.1097C20.1399 11.3697 19.5699 9.68976 18.4899 8.24976C18.2399 7.91976 18.3099 7.44977 18.6399 7.19977C18.9699 6.94977 19.4399 7.01973 19.6899 7.34973C20.9699 9.04973 21.6399 11.0397 21.6399 13.1097C21.6399 18.4297 17.3099 22.7498 11.9999 22.7498Z" fill="#242424"/>
<path d="M9.54004 16.6701C9.13004 16.6701 8.79004 16.3301 8.79004 15.9201V12.5301L8.60003 12.7401C8.32003 13.0501 7.85004 13.0701 7.54004 12.8001C7.23004 12.5201 7.21004 12.0501 7.48004 11.7401L8.98004 10.0701C9.19004 9.84008 9.52003 9.76007 9.81003 9.87007C10.1 9.98007 10.29 10.2601 10.29 10.5701V15.9201C10.29 16.3401 9.96004 16.6701 9.54004 16.6701Z" fill="#242424"/>
<path d="M14 16.6703C12.48 16.6703 11.25 15.4403 11.25 13.9203V12.5703C11.25 11.0503 12.48 9.82031 14 9.82031C15.52 9.82031 16.75 11.0503 16.75 12.5703V13.9203C16.75 15.4403 15.52 16.6703 14 16.6703ZM14 11.3303C13.31 11.3303 12.75 11.8903 12.75 12.5803V13.9303C12.75 14.6203 13.31 15.1803 14 15.1803C14.69 15.1803 15.25 14.6203 15.25 13.9303V12.5803C15.25 11.8903 14.69 11.3303 14 11.3303Z" fill="#242424"/>
</svg>
