<svg width="24" height="24" viewBox="0 0 24 24" fill="none" xmlns="http://www.w3.org/2000/svg">
<path d="M9 10.75C7.48 10.75 6.25 9.52 6.25 8C6.25 6.48 7.48 5.25 9 5.25C10.52 5.25 11.75 6.48 11.75 8C11.75 9.52 10.52 10.75 9 10.75ZM9 6.75C8.31 6.75 7.75 7.31 7.75 8C7.75 8.69 8.31 9.25 9 9.25C9.69 9.25 10.25 8.69 10.25 8C10.25 7.31 9.69 6.75 9 6.75Z" fill="#242424"/>
<path d="M15 22.75H9C3.57 22.75 1.25 20.43 1.25 15V9C1.25 3.57 3.57 1.25 9 1.25H13C13.41 1.25 13.75 1.59 13.75 2C13.75 2.41 13.41 2.75 13 2.75H9C4.39 2.75 2.75 4.39 2.75 9V15C2.75 19.61 4.39 21.25 9 21.25H15C19.61 21.25 21.25 19.61 21.25 15V10C21.25 9.59 21.59 9.25 22 9.25C22.41 9.25 22.75 9.59 22.75 10V15C22.75 20.43 20.43 22.75 15 22.75Z" fill="#242424"/>
<path d="M15.67 9.74994C15.28 9.74994 14.92 9.60994 14.66 9.33994C14.35 9.02994 14.2 8.56994 14.27 8.09994L14.47 6.70994C14.52 6.35994 14.73 5.92994 14.99 5.67994L18.62 2.04994C20.07 0.599939 21.33 1.42994 21.95 2.04994C22.54 2.63994 22.81 3.25994 22.75 3.89994C22.7 4.40994 22.44 4.89994 21.95 5.37994L18.32 9.00994C18.07 9.25994 17.64 9.46994 17.29 9.52994L15.9 9.72994C15.82 9.74994 15.74 9.74994 15.67 9.74994ZM19.67 3.11994L16.04 6.74994C16.01 6.77994 15.96 6.88994 15.95 6.93994L15.76 8.23994L17.07 8.05994C17.11 8.04994 17.22 7.99994 17.26 7.95994L20.89 4.32994C21.11 4.10994 21.24 3.90994 21.25 3.75994C21.27 3.54994 21.06 3.28994 20.89 3.11994C20.37 2.59994 20.13 2.65994 19.67 3.11994Z" fill="#242424"/>
<path d="M20.9 6.12976C20.83 6.12976 20.76 6.11976 20.7 6.09976C19.36 5.71976 18.29 4.64976 17.91 3.30976C17.8 2.90976 18.03 2.49976 18.43 2.38976C18.83 2.27976 19.24 2.50976 19.35 2.90976C19.59 3.74976 20.26 4.42976 21.11 4.66976C21.51 4.77976 21.74 5.19976 21.63 5.58976C21.52 5.90976 21.22 6.12976 20.9 6.12976Z" fill="#242424"/>
<path d="M2.67 19.7001C2.43 19.7001 2.19 19.5801 2.05 19.3701C1.82 19.0301 1.91 18.5601 2.25 18.3301L7.18 15.0201C8.26 14.3001 9.75 14.3801 10.73 15.2101L11.06 15.5001C11.56 15.9301 12.41 15.9301 12.9 15.5001L17.06 11.9301C18.12 11.0201 19.79 11.0201 20.86 11.9301L22.49 13.3301C22.8 13.6001 22.84 14.0701 22.57 14.3901C22.3 14.7001 21.83 14.7401 21.51 14.4701L19.88 13.0701C19.38 12.6401 18.53 12.6401 18.04 13.0701L13.88 16.6401C12.82 17.5501 11.15 17.5501 10.08 16.6401L9.75 16.3501C9.29 15.9601 8.53 15.9201 8.02 16.2701L3.1 19.5801C2.96 19.6601 2.81 19.7001 2.67 19.7001Z" fill="#242424"/>
</svg>
