<svg width="24" height="24" viewBox="0 0 24 24" fill="none" xmlns="http://www.w3.org/2000/svg">
<path d="M9 10.75C7.48 10.75 6.25 9.52 6.25 8C6.25 6.48 7.48 5.25 9 5.25C10.52 5.25 11.75 6.48 11.75 8C11.75 9.52 10.52 10.75 9 10.75ZM9 6.75C8.31 6.75 7.75 7.31 7.75 8C7.75 8.69 8.31 9.25 9 9.25C9.69 9.25 10.25 8.69 10.25 8C10.25 7.31 9.69 6.75 9 6.75Z" fill="#242424"/>
<path d="M15 22.75H9C3.57 22.75 1.25 20.43 1.25 15V9C1.25 3.57 3.57 1.25 9 1.25H13C13.41 1.25 13.75 1.59 13.75 2C13.75 2.41 13.41 2.75 13 2.75H9C4.39 2.75 2.75 4.39 2.75 9V15C2.75 19.61 4.39 21.25 9 21.25H15C19.61 21.25 21.25 19.61 21.25 15V10C21.25 9.59 21.59 9.25 22 9.25C22.41 9.25 22.75 9.59 22.75 10V15C22.75 20.43 20.43 22.75 15 22.75Z" fill="#242424"/>
<path d="M16.56 7.69023C16.37 7.69023 16.18 7.62023 16.03 7.47023C15.74 7.18023 15.74 6.70023 16.03 6.41023L19.92 2.52023C20.21 2.23023 20.69 2.23023 20.98 2.52023C21.27 2.81023 21.27 3.29023 20.98 3.58023L17.09 7.47023C16.94 7.62023 16.75 7.69023 16.56 7.69023Z" fill="#242424"/>
<path d="M20.44 7.69023C20.25 7.69023 20.06 7.62023 19.91 7.47023L16.02 3.58023C15.73 3.29023 15.73 2.81023 16.02 2.52023C16.31 2.23023 16.79 2.23023 17.08 2.52023L20.97 6.41023C21.26 6.70023 21.26 7.18023 20.97 7.47023C20.83 7.62023 20.64 7.69023 20.44 7.69023Z" fill="#242424"/>
<path d="M2.67 19.7001C2.43 19.7001 2.19 19.5801 2.05 19.3701C1.82 19.0301 1.91 18.5601 2.25 18.3301L7.18 15.0201C8.26 14.3001 9.75 14.3801 10.73 15.2101L11.06 15.5001C11.56 15.9301 12.41 15.9301 12.9 15.5001L17.06 11.9301C18.12 11.0201 19.79 11.0201 20.86 11.9301L22.49 13.3301C22.8 13.6001 22.84 14.0701 22.57 14.3901C22.3 14.7001 21.83 14.7401 21.51 14.4701L19.88 13.0701C19.38 12.6401 18.53 12.6401 18.04 13.0701L13.88 16.6401C12.82 17.5501 11.15 17.5501 10.08 16.6401L9.75 16.3501C9.29 15.9601 8.53 15.9201 8.02 16.2701L3.1 19.5801C2.96 19.6601 2.81 19.7001 2.67 19.7001Z" fill="#242424"/>
</svg>
