<svg width="24" height="24" viewBox="0 0 24 24" fill="none" xmlns="http://www.w3.org/2000/svg">
<path d="M18.36 22.7499H5.59C4.07 22.7499 2.68 21.9799 1.88 20.6799C1.08 19.3799 1.01 17.7999 1.69 16.4299L3.41 12.9799C3.97 11.8599 4.87 11.1599 5.88 11.0499C6.89 10.9399 7.92 11.4399 8.7 12.4099L8.92 12.6899C9.36 13.2299 9.87 13.5199 10.37 13.4699C10.87 13.4299 11.33 13.0699 11.67 12.4599L13.56 9.04993C14.34 7.63993 15.38 6.90993 16.51 6.95993C17.63 7.01993 18.59 7.85993 19.23 9.33993L22.36 16.6499C22.94 17.9999 22.8 19.5399 21.99 20.7699C21.19 22.0199 19.83 22.7499 18.36 22.7499ZM6.16 12.5499C6.12 12.5499 6.08 12.5499 6.04 12.5599C5.54 12.6099 5.08 13.0099 4.75 13.6599L3.03 17.1099C2.58 17.9999 2.63 19.0499 3.15 19.8999C3.67 20.7499 4.59 21.2599 5.59 21.2599H18.35C19.33 21.2599 20.2 20.7899 20.74 19.9699C21.28 19.1499 21.37 18.1699 20.98 17.2699L17.85 9.95993C17.47 9.05993 16.94 8.50993 16.43 8.48993C15.96 8.45993 15.35 8.95993 14.87 9.80993L12.98 13.2199C12.4 14.2599 11.49 14.9099 10.5 14.9999C9.51 15.0799 8.5 14.5999 7.75 13.6599L7.53 13.3799C7.11 12.8299 6.63 12.5499 6.16 12.5499Z" fill="#242424"/>
<path d="M6.97 8.75C4.91 8.75 3.22 7.07 3.22 5C3.22 2.93 4.9 1.25 6.97 1.25C9.04 1.25 10.72 2.93 10.72 5C10.72 7.07 9.04 8.75 6.97 8.75ZM6.97 2.75C5.73 2.75 4.72 3.76 4.72 5C4.72 6.24 5.73 7.25 6.97 7.25C8.21 7.25 9.22 6.24 9.22 5C9.22 3.76 8.21 2.75 6.97 2.75Z" fill="#242424"/>
</svg>
