<svg width="24" height="24" viewBox="0 0 24 24" fill="none" xmlns="http://www.w3.org/2000/svg">
<path d="M21 7.75C20.59 7.75 20.25 7.41 20.25 7V3.75H17C16.59 3.75 16.25 3.41 16.25 3C16.25 2.59 16.59 2.25 17 2.25H21C21.41 2.25 21.75 2.59 21.75 3V7C21.75 7.41 21.41 7.75 21 7.75Z" fill="#242424"/>
<path d="M15 9.74997C14.81 9.74997 14.6199 9.68 14.4699 9.53C14.1799 9.24 14.1799 8.75994 14.4699 8.46994L20.4699 2.46994C20.7599 2.17994 21.24 2.17994 21.53 2.46994C21.82 2.75994 21.82 3.24 21.53 3.53L15.53 9.53C15.38 9.68 15.19 9.74997 15 9.74997Z" fill="#242424"/>
<path d="M7 21.75H3C2.59 21.75 2.25 21.41 2.25 21V17C2.25 16.59 2.59 16.25 3 16.25C3.41 16.25 3.75 16.59 3.75 17V20.25H7C7.41 20.25 7.75 20.59 7.75 21C7.75 21.41 7.41 21.75 7 21.75Z" fill="#242424"/>
<path d="M2.99997 21.75C2.80997 21.75 2.61994 21.68 2.46994 21.53C2.17994 21.24 2.17994 20.7599 2.46994 20.4699L8.46994 14.4699C8.75994 14.1799 9.24 14.1799 9.53 14.4699C9.82 14.7599 9.82 15.24 9.53 15.53L3.53 21.53C3.38 21.68 3.18997 21.75 2.99997 21.75Z" fill="#242424"/>
<path d="M2.20001 14.75C1.85001 14.75 1.53997 14.5 1.46997 14.15C1.32997 13.45 1.25 12.72 1.25 12C1.25 6.07 6.07 1.25 12 1.25C12.73 1.25 13.46 1.31997 14.17 1.46997C14.58 1.54997 14.84 1.94998 14.76 2.34998C14.68 2.75998 14.27 3.01 13.88 2.94C13.27 2.82 12.64 2.75 12.01 2.75C6.91001 2.75 2.76001 6.9 2.76001 12C2.76001 12.62 2.82001 13.25 2.95001 13.85C3.03001 14.26 2.76999 14.65 2.35999 14.73C2.29999 14.75 2.25001 14.75 2.20001 14.75Z" fill="#242424"/>
<path d="M12 22.7503C11.27 22.7503 10.5401 22.6803 9.83006 22.5303C9.42006 22.4503 9.16003 22.0503 9.24003 21.6503C9.32003 21.2403 9.73003 20.9903 10.12 21.0603C10.73 21.1803 11.36 21.2503 11.99 21.2503C17.09 21.2503 21.24 17.1003 21.24 12.0003C21.24 11.3803 21.18 10.7603 21.06 10.1503C20.98 9.74031 21.2401 9.3503 21.6501 9.2703C22.0501 9.1903 22.4501 9.45027 22.5301 9.86027C22.6701 10.5603 22.74 11.2803 22.74 12.0003C22.75 17.9303 17.93 22.7503 12 22.7503Z" fill="#242424"/>
</svg>
