<svg width="24" height="24" viewBox="0 0 24 24" fill="none" xmlns="http://www.w3.org/2000/svg">
<path d="M12 16.25C9.38 16.25 7.25 14.12 7.25 11.5V6C7.25 3.38 9.38 1.25 12 1.25C14.62 1.25 16.75 3.38 16.75 6V11.5C16.75 14.12 14.62 16.25 12 16.25ZM12 2.75C10.21 2.75 8.75 4.21 8.75 6V11.5C8.75 13.29 10.21 14.75 12 14.75C13.79 14.75 15.25 13.29 15.25 11.5V6C15.25 4.21 13.79 2.75 12 2.75Z" fill="#242424"/>
<path d="M12 19.7499C7.37001 19.7499 3.60001 15.9799 3.60001 11.3499V9.6499C3.60001 9.2399 3.94001 8.8999 4.35001 8.8999C4.76001 8.8999 5.10001 9.2399 5.10001 9.6499V11.3499C5.10001 15.1499 8.20001 18.2499 12 18.2499C15.8 18.2499 18.9 15.1499 18.9 11.3499V9.6499C18.9 9.2399 19.24 8.8999 19.65 8.8999C20.06 8.8999 20.4 9.2399 20.4 9.6499V11.3499C20.4 15.9799 16.63 19.7499 12 19.7499Z" fill="#242424"/>
<path d="M13.39 7.17982C13.31 7.17982 13.22 7.16982 13.13 7.13982C12.4 6.86982 11.6 6.86982 10.87 7.13982C10.48 7.27982 10.05 7.07982 9.91 6.68982C9.77 6.29982 9.97 5.86982 10.36 5.72982C11.42 5.34982 12.59 5.34982 13.65 5.72982C14.04 5.86982 14.24 6.29982 14.1 6.68982C13.98 6.98982 13.69 7.17982 13.39 7.17982Z" fill="#242424"/>
<path d="M12.8 9.29982C12.73 9.29982 12.67 9.28982 12.6 9.26982C12.2 9.15982 11.79 9.15982 11.39 9.26982C10.99 9.37982 10.58 9.13982 10.47 8.73982C10.36 8.34982 10.6 7.93982 11 7.82982C11.65 7.64982 12.35 7.64982 13 7.82982C13.4 7.93982 13.64 8.34982 13.53 8.74982C13.44 9.07982 13.13 9.29982 12.8 9.29982Z" fill="#242424"/>
<path d="M12 22.75C11.59 22.75 11.25 22.41 11.25 22V19C11.25 18.59 11.59 18.25 12 18.25C12.41 18.25 12.75 18.59 12.75 19V22C12.75 22.41 12.41 22.75 12 22.75Z" fill="#242424"/>
</svg>
