<svg width="24" height="24" viewBox="0 0 24 24" fill="none" xmlns="http://www.w3.org/2000/svg">
<path d="M7.39 17.59C7.18 17.59 6.96 17.5 6.81 17.32C5.8 16.11 5.25 14.58 5.25 13V8C5.25 4.28 8.28 1.25 12 1.25C15.1 1.25 17.79 3.35 18.55 6.35C18.65 6.75 18.41 7.16 18.01 7.26C17.62 7.36 17.2 7.12 17.1 6.72C16.5 4.38 14.41 2.75 12 2.75C9.11 2.75 6.75 5.1 6.75 8V13C6.75 14.23 7.18 15.42 7.96 16.36C8.23 16.68 8.18 17.15 7.86 17.42C7.73 17.53 7.56 17.59 7.39 17.59Z" fill="#242424"/>
<path d="M12 19.75C11.19 19.75 10.4 19.61 9.66001 19.33C9.27001 19.19 9.07001 18.75 9.22001 18.37C9.36001 17.98 9.80001 17.78 10.18 17.93C10.76 18.15 11.38 18.26 12 18.26C14.89 18.26 17.25 15.91 17.25 13.01V9.97998C17.25 9.56998 17.59 9.22998 18 9.22998C18.41 9.22998 18.75 9.56998 18.75 9.97998V13C18.75 16.72 15.72 19.75 12 19.75Z" fill="#242424"/>
<path d="M12 22.7502C9.52 22.7502 7.16 21.8202 5.35 20.1302C5.05 19.8502 5.03 19.3702 5.31 19.0702C5.59 18.7702 6.07 18.7502 6.37 19.0302C7.9 20.4602 9.9 21.2402 11.99 21.2402C16.54 21.2402 20.24 17.5402 20.24 12.9902V10.9902C20.24 10.5802 20.58 10.2402 20.99 10.2402C21.4 10.2402 21.74 10.5802 21.74 10.9902V12.9902C21.75 18.3802 17.38 22.7502 12 22.7502Z" fill="#242424"/>
<path d="M2.5 22.7402C2.31 22.7402 2.12 22.6702 1.97 22.5202C1.68 22.2302 1.68 21.7502 1.97 21.4602L20.97 2.46018C21.26 2.17018 21.74 2.17018 22.03 2.46018C22.32 2.75018 22.32 3.23018 22.03 3.52018L3.03 22.5202C2.88 22.6702 2.69 22.7402 2.5 22.7402Z" fill="#242424"/>
<path d="M11.55 6.24977C11.14 6.24977 10.8 5.90977 10.8 5.49977V2.25977C10.8 1.84977 11.14 1.50977 11.55 1.50977C11.96 1.50977 12.3 1.84977 12.3 2.25977V5.49977C12.3 5.91977 11.96 6.24977 11.55 6.24977Z" fill="#242424"/>
<path d="M8.5 8.25C8.09 8.25 7.75 7.91 7.75 7.5V3.5C7.75 3.09 8.09 2.75 8.5 2.75C8.91 2.75 9.25 3.09 9.25 3.5V7.5C9.25 7.91 8.91 8.25 8.5 8.25Z" fill="#242424"/>
</svg>
