<svg width="24" height="24" viewBox="0 0 24 24" fill="none" xmlns="http://www.w3.org/2000/svg">
<path d="M12 19.75C8.28 19.75 5.25 16.72 5.25 13V8C5.25 4.28 8.28 1.25 12 1.25C15.72 1.25 18.75 4.28 18.75 8V13C18.75 16.72 15.72 19.75 12 19.75ZM12 2.75C9.11 2.75 6.75 5.1 6.75 8V13C6.75 15.9 9.11 18.25 12 18.25C14.89 18.25 17.25 15.9 17.25 13V8C17.25 5.1 14.89 2.75 12 2.75Z" fill="#242424"/>
<path d="M12 22.75C6.62 22.75 2.25 18.38 2.25 13V11C2.25 10.59 2.59 10.25 3 10.25C3.41 10.25 3.75 10.59 3.75 11V13C3.75 17.55 7.45 21.25 12 21.25C16.55 21.25 20.25 17.55 20.25 13V11C20.25 10.59 20.59 10.25 21 10.25C21.41 10.25 21.75 10.59 21.75 11V13C21.75 18.38 17.38 22.75 12 22.75Z" fill="#242424"/>
<path d="M14.61 8.22988C14.53 8.22988 14.44 8.21988 14.35 8.18988C12.74 7.60988 10.97 7.60988 9.36 8.18988C8.98 8.32988 8.55 8.12988 8.41 7.73988C8.27 7.34988 8.47 6.91988 8.86 6.77988C10.8 6.07988 12.93 6.07988 14.87 6.77988C15.26 6.91988 15.46 7.34988 15.32 7.73988C15.21 8.04988 14.92 8.22988 14.61 8.22988Z" fill="#242424"/>
<path d="M13.7 11.23C13.64 11.23 13.57 11.22 13.5 11.2C12.43 10.91 11.3 10.91 10.23 11.2C9.82 11.31 9.42 11.07 9.31 10.67C9.2 10.27 9.44 9.85998 9.84 9.74998C11.17 9.38998 12.57 9.38998 13.9 9.74998C14.3 9.85998 14.54 10.27 14.43 10.67C14.33 11.02 14.03 11.23 13.7 11.23Z" fill="#242424"/>
</svg>
