<svg width="24" height="24" viewBox="0 0 24 24" fill="none" xmlns="http://www.w3.org/2000/svg">
<path d="M11 22.75H9C3.57 22.75 1.25 20.43 1.25 15V9C1.25 3.57 3.57 1.25 9 1.25H15C20.43 1.25 22.75 3.57 22.75 9V10C22.75 10.41 22.41 10.75 22 10.75C21.59 10.75 21.25 10.41 21.25 10V9C21.25 4.39 19.61 2.75 15 2.75H9C4.39 2.75 2.75 4.39 2.75 9V15C2.75 19.61 4.39 21.25 9 21.25H11C11.41 21.25 11.75 21.59 11.75 22C11.75 22.41 11.41 22.75 11 22.75Z" fill="#242424"/>
<path d="M15.2701 22.7501C14.0601 22.7501 13.0801 21.7701 13.0801 20.5601C13.0801 19.3501 14.0601 18.3701 15.2701 18.3701C16.4801 18.3701 17.4601 19.3501 17.4601 20.5601C17.4601 21.7701 16.4801 22.7501 15.2701 22.7501ZM15.2701 19.8601C14.8901 19.8601 14.5801 20.1701 14.5801 20.5501C14.5801 20.9301 14.8901 21.2401 15.2701 21.2401C15.6501 21.2401 15.9601 20.9301 15.9601 20.5501C15.9601 20.1701 15.6501 19.8601 15.2701 19.8601Z" fill="#242424"/>
<path d="M16.71 21.3098C16.3 21.3098 15.96 20.9698 15.96 20.5598V14.7398C15.96 13.8298 16.52 13.0898 17.4 12.8598L20.29 12.0698C21.19 11.8198 21.75 12.0598 22.07 12.2998C22.38 12.5398 22.75 13.0198 22.75 13.9498V19.5898C22.75 19.9998 22.41 20.3398 22 20.3398C21.59 20.3398 21.25 19.9998 21.25 19.5898V13.9498C21.25 13.6298 21.18 13.5098 21.15 13.4898C21.12 13.4698 20.98 13.4298 20.67 13.5098L17.78 14.2998C17.48 14.3798 17.45 14.5898 17.45 14.7398V20.5598C17.46 20.9698 17.12 21.3098 16.71 21.3098Z" fill="#242424"/>
<path d="M20.5601 21.7902C19.3501 21.7902 18.3701 20.8102 18.3701 19.6002C18.3701 18.3902 19.3501 17.4102 20.5601 17.4102C21.7701 17.4102 22.7501 18.3902 22.7501 19.6002C22.7501 20.8102 21.7701 21.7902 20.5601 21.7902ZM20.5601 18.9002C20.1801 18.9002 19.8701 19.2102 19.8701 19.5902C19.8701 19.9702 20.1801 20.2802 20.5601 20.2802C20.9401 20.2802 21.2501 19.9702 21.2501 19.5902C21.2501 19.2102 20.9401 18.9002 20.5601 18.9002Z" fill="#242424"/>
<path d="M16.7101 17.1799C16.3801 17.1799 16.0801 16.9599 15.9901 16.6299C15.8801 16.2299 16.1201 15.8199 16.5201 15.7099L21.8101 14.2699C22.2101 14.1599 22.6201 14.3999 22.7301 14.7999C22.8401 15.1999 22.6001 15.6098 22.2001 15.7198L16.9101 17.1598C16.8401 17.1698 16.7701 17.1799 16.7101 17.1799Z" fill="#242424"/>
</svg>
