<svg width="24" height="24" viewBox="0 0 24 24" fill="none" xmlns="http://www.w3.org/2000/svg">
<path d="M7.96997 22.75C5.34997 22.75 3.21997 20.62 3.21997 18C3.21997 15.38 5.34997 13.25 7.96997 13.25C10.59 13.25 12.72 15.38 12.72 18C12.72 20.62 10.59 22.75 7.96997 22.75ZM7.96997 14.75C6.17997 14.75 4.71997 16.21 4.71997 18C4.71997 19.79 6.17997 21.25 7.96997 21.25C9.75997 21.25 11.22 19.79 11.22 18C11.22 16.21 9.76997 14.75 7.96997 14.75Z" fill="#242424"/>
<path d="M11.97 18.75C11.56 18.75 11.22 18.41 11.22 18V4C11.22 3.59 11.56 3.25 11.97 3.25C12.38 3.25 12.72 3.59 12.72 4V18C12.72 18.41 12.39 18.75 11.97 18.75Z" fill="#242424"/>
<path d="M19.13 10.2299C18.8 10.2299 18.45 10.1699 18.11 10.0599L13.69 8.58994C12.31 8.12994 11.23 6.62994 11.23 5.17994V3.99994C11.23 3.02994 11.63 2.18994 12.31 1.68994C13 1.18994 13.92 1.08994 14.84 1.38994L19.26 2.85994C20.64 3.31994 21.72 4.81994 21.72 6.26994V7.43994C21.72 8.40994 21.32 9.24994 20.64 9.74994C20.21 10.0799 19.68 10.2299 19.13 10.2299ZM13.82 2.71994C13.58 2.71994 13.36 2.77994 13.19 2.90994C12.89 3.11994 12.73 3.50994 12.73 3.99994V5.16994C12.73 5.96994 13.4 6.89994 14.16 7.15994L18.58 8.62994C19.04 8.78994 19.47 8.74994 19.76 8.53994C20.06 8.32994 20.22 7.93994 20.22 7.44994V6.27994C20.22 5.47994 19.55 4.54994 18.79 4.28994L14.37 2.81994C14.18 2.74994 13.99 2.71994 13.82 2.71994Z" fill="#242424"/>
</svg>
