<svg width="24" height="24" viewBox="0 0 24 24" fill="none" xmlns="http://www.w3.org/2000/svg">
<path d="M6.27997 22.7498C4.14997 22.7498 2.40997 21.0098 2.40997 18.8798C2.40997 16.7498 4.14997 15.0098 6.27997 15.0098C8.40997 15.0098 10.15 16.7498 10.15 18.8798C10.15 21.0098 8.40997 22.7498 6.27997 22.7498ZM6.27997 16.5098C4.96997 16.5098 3.90997 17.5698 3.90997 18.8798C3.90997 20.1898 4.96997 21.2498 6.27997 21.2498C7.58997 21.2498 8.64997 20.1898 8.64997 18.8798C8.64997 17.5698 7.58997 16.5098 6.27997 16.5098Z" fill="#242424"/>
<path d="M9.40002 19.6301C8.99002 19.6301 8.65002 19.2901 8.65002 18.8801V6.30013C8.65002 4.72013 9.60002 3.48013 11.12 3.07013L17.36 1.37013C18.63 1.02013 19.7 1.15013 20.45 1.73013C21.21 2.31013 21.59 3.28013 21.59 4.61013V16.8101C21.59 17.2201 21.25 17.5601 20.84 17.5601C20.43 17.5601 20.09 17.2201 20.09 16.8101V4.60013C20.09 4.02013 19.99 3.26013 19.54 2.92013C19.05 2.54013 18.21 2.69013 17.75 2.82013L11.51 4.52013C10.64 4.76013 10.15 5.41013 10.15 6.31013V18.8901C10.15 19.2901 9.81002 19.6301 9.40002 19.6301Z" fill="#242424"/>
<path d="M17.72 20.6702C15.59 20.6702 13.85 18.9302 13.85 16.8002C13.85 14.6702 15.59 12.9302 17.72 12.9302C19.85 12.9302 21.59 14.6702 21.59 16.8002C21.59 18.9302 19.85 20.6702 17.72 20.6702ZM17.72 14.4302C16.41 14.4302 15.35 15.4902 15.35 16.8002C15.35 18.1102 16.41 19.1702 17.72 19.1702C19.03 19.1702 20.09 18.1102 20.09 16.8002C20.09 15.4902 19.03 14.4302 17.72 14.4302Z" fill="#242424"/>
<path d="M9.39998 10.2698C9.06998 10.2698 8.76999 10.0498 8.67999 9.71978C8.56999 9.31978 8.79998 8.89978 9.19998 8.78978L20.64 5.66978C21.04 5.55978 21.45 5.79978 21.56 6.19978C21.67 6.59978 21.43 7.00978 21.03 7.11978L9.59999 10.2398C9.52999 10.2598 9.45998 10.2698 9.39998 10.2698Z" fill="#242424"/>
</svg>
