<svg width="24" height="24" viewBox="0 0 24 24" fill="none" xmlns="http://www.w3.org/2000/svg">
<path d="M17 22.75H7C3.35 22.75 1.25 20.65 1.25 17V13C1.25 9.4 3.17003 8.06 4.78003 7.56C5.43003 7.35 6.18 7.25 7 7.25H17C17.82 7.25 18.57 7.36001 19.23 7.57001C20.83 8.06001 22.75 9.41 22.75 13V17C22.75 20.65 20.65 22.75 17 22.75ZM7 8.75C6.34 8.75 5.73998 8.83 5.22998 9C3.55998 9.51 2.75 10.82 2.75 13V17C2.75 19.86 4.14 21.25 7 21.25H17C19.86 21.25 21.25 19.86 21.25 17V13C21.25 10.82 20.44 9.51 18.78 9C18.26 8.83 17.66 8.75 17 8.75H7Z" fill="#242424"/>
<path d="M19 9.03003C18.92 9.03003 18.85 9.01999 18.77 8.98999C18.26 8.82999 17.66 8.73999 17 8.73999H7C6.34 8.73999 5.73998 8.81999 5.22998 8.98999C4.99998 9.05999 4.75 9.02 4.56 8.88C4.37 8.74001 4.25 8.51002 4.25 8.27002V7C4.25 5.48 5.48 4.25 7 4.25H17C18.52 4.25 19.75 5.48 19.75 7V8.28003C19.75 8.52003 19.64 8.74001 19.44 8.89001C19.31 8.98001 19.16 9.03003 19 9.03003ZM7 5.75C6.31 5.75 5.75 6.31 5.75 7V7.34003C6.14 7.28003 6.56 7.25 7 7.25H17C17.44 7.25 17.86 7.28003 18.25 7.34003V7C18.25 6.31 17.69 5.75 17 5.75H7Z" fill="#242424"/>
<path d="M16 5.75H8C7.59 5.75 7.25 5.41 7.25 5V3.51001C7.25 2.26001 8.26001 1.25 9.51001 1.25H14.49C15.74 1.25 16.75 2.26001 16.75 3.51001V5C16.75 5.41 16.41 5.75 16 5.75ZM8.75 4.25H15.25V3.51001C15.25 3.09001 14.91 2.75 14.49 2.75H9.51001C9.09001 2.75 8.75 3.09001 8.75 3.51001V4.25Z" fill="#242424"/>
<path d="M9.07001 20.2103C7.93001 20.2103 7 19.2803 7 18.1403C7 17.0003 7.93001 16.0703 9.07001 16.0703C10.21 16.0703 11.14 17.0003 11.14 18.1403C11.14 19.2803 10.22 20.2103 9.07001 20.2103ZM9.07001 17.5603C8.75001 17.5603 8.5 17.8203 8.5 18.1303C8.5 18.4403 8.76001 18.7003 9.07001 18.7003C9.38001 18.7003 9.64001 18.4403 9.64001 18.1303C9.64001 17.8203 9.39001 17.5603 9.07001 17.5603Z" fill="#242424"/>
<path d="M10.3999 18.8798C9.9899 18.8798 9.6499 18.5398 9.6499 18.1298V12.7998C9.6499 11.9398 10.1899 11.2398 11.0199 11.0098L13.6699 10.2898C14.5199 10.0598 15.0599 10.2798 15.3599 10.5098C15.6599 10.7398 16.0099 11.1898 16.0099 12.0698V17.2398C16.0099 17.6498 15.6699 17.9898 15.2599 17.9898C14.8499 17.9898 14.5099 17.6498 14.5099 17.2398V12.0698C14.5099 11.8198 14.4599 11.7198 14.4399 11.6998C14.4199 11.6898 14.2999 11.6698 14.0599 11.7298L11.4099 12.4498C11.1799 12.5098 11.1499 12.6598 11.1499 12.7898V18.1198C11.1499 18.5498 10.8099 18.8798 10.3999 18.8798Z" fill="#242424"/>
<path d="M13.9299 19.3197C12.7899 19.3197 11.8599 18.3897 11.8599 17.2497C11.8599 16.1097 12.7899 15.1797 13.9299 15.1797C15.0699 15.1797 15.9999 16.1097 15.9999 17.2497C15.9999 18.3897 15.0699 19.3197 13.9299 19.3197ZM13.9299 16.6797C13.6099 16.6797 13.3599 16.9397 13.3599 17.2497C13.3599 17.5597 13.6199 17.8197 13.9299 17.8197C14.2399 17.8197 14.4999 17.5597 14.4999 17.2497C14.4999 16.9397 14.2399 16.6797 13.9299 16.6797Z" fill="#242424"/>
<path d="M10.4001 15.0999C10.0701 15.0999 9.77004 14.8799 9.68004 14.5499C9.57004 14.1499 9.81007 13.7399 10.2101 13.6299L15.06 12.3099C15.46 12.1999 15.87 12.4399 15.98 12.8399C16.09 13.2399 15.8501 13.6499 15.4501 13.7599L10.6 15.0799C10.53 15.0899 10.4601 15.0999 10.4001 15.0999Z" fill="#242424"/>
</svg>
