<svg width="24" height="24" viewBox="0 0 24 24" fill="none" xmlns="http://www.w3.org/2000/svg">
<path d="M12.35 21.75H8.64999C3.45999 21.75 1.25 19.54 1.25 14.35V8.65002C1.25 3.46002 3.45999 1.25 8.64999 1.25H14.35C19.54 1.25 21.75 3.46002 21.75 8.65002V12.35C21.75 12.76 21.41 13.1 21 13.1C20.59 13.1 20.25 12.76 20.25 12.35V8.65002C20.25 4.29002 18.71 2.75 14.35 2.75H8.64999C4.28999 2.75 2.75 4.29002 2.75 8.65002V14.35C2.75 18.71 4.28999 20.25 8.64999 20.25H12.35C12.76 20.25 13.1 20.59 13.1 21C13.1 21.41 12.76 21.75 12.35 21.75Z" fill="#242424"/>
<path d="M6.72002 15.17C5.51002 15.17 4.52002 14.18 4.52002 12.97C4.52002 11.76 5.51002 10.77 6.72002 10.77C7.93002 10.77 8.92001 11.76 8.92001 12.97C8.92001 14.18 7.93002 15.17 6.72002 15.17ZM6.72002 12.27C6.34002 12.27 6.02002 12.58 6.02002 12.97C6.02002 13.35 6.33002 13.67 6.72002 13.67C7.11002 13.67 7.42001 13.36 7.42001 12.97C7.42001 12.58 7.11002 12.27 6.72002 12.27Z" fill="#242424"/>
<path d="M8.16992 13.7199C7.75992 13.7199 7.41992 13.3799 7.41992 12.9699V7.13993C7.41992 6.22993 7.98992 5.48992 8.85992 5.24992L11.7599 4.45994C12.6599 4.20994 13.2299 4.44992 13.5399 4.68992C13.8499 4.92992 14.2299 5.40994 14.2299 6.33994V11.9999C14.2299 12.4099 13.8899 12.7499 13.4799 12.7499C13.0699 12.7499 12.7299 12.4099 12.7299 11.9999V6.33994C12.7299 6.01994 12.6599 5.89992 12.6299 5.87992C12.5999 5.85992 12.4599 5.81994 12.1499 5.89994L9.25992 6.68992C8.95992 6.76992 8.91992 6.97992 8.91992 7.12992V12.9599C8.91992 13.3799 8.57992 13.7199 8.16992 13.7199Z" fill="#242424"/>
<path d="M12.0301 14.1998C10.8201 14.1998 9.83008 13.2098 9.83008 11.9998C9.83008 10.7898 10.8201 9.7998 12.0301 9.7998C13.2401 9.7998 14.2301 10.7898 14.2301 11.9998C14.2301 13.2198 13.2401 14.1998 12.0301 14.1998ZM12.0301 11.3098C11.6501 11.3098 11.3301 11.6198 11.3301 12.0098C11.3301 12.3898 11.6401 12.7098 12.0301 12.7098C12.4201 12.7098 12.7301 12.3998 12.7301 12.0098C12.7301 11.6198 12.4101 11.3098 12.0301 11.3098Z" fill="#242424"/>
<path d="M8.17006 9.58008C7.84006 9.58008 7.54006 9.36009 7.45006 9.03009C7.34006 8.63009 7.58006 8.22005 7.98006 8.11005L13.2901 6.66003C13.6901 6.56003 14.1001 6.79006 14.2101 7.19006C14.3201 7.59006 14.0801 8.00005 13.6801 8.11005L8.37006 9.56006C8.30006 9.57006 8.23006 9.58008 8.17006 9.58008Z" fill="#242424"/>
<path d="M17.9402 22.0299C15.7602 22.0299 13.9902 20.2599 13.9902 18.0799C13.9902 15.8999 15.7602 14.1299 17.9402 14.1299C20.1202 14.1299 21.8902 15.8999 21.8902 18.0799C21.8902 20.2599 20.1202 22.0299 17.9402 22.0299ZM17.9402 15.6299C16.5902 15.6299 15.4902 16.7299 15.4902 18.0799C15.4902 19.4299 16.5902 20.5299 17.9402 20.5299C19.2902 20.5299 20.3902 19.4299 20.3902 18.0799C20.3902 16.7299 19.2902 15.6299 17.9402 15.6299Z" fill="#242424"/>
<path d="M21.7402 22.6299C21.5502 22.6299 21.3602 22.5598 21.2102 22.4098L20.2102 21.4098C19.9202 21.1198 19.9202 20.6398 20.2102 20.3498C20.5002 20.0598 20.9802 20.0598 21.2702 20.3498L22.2702 21.3498C22.5602 21.6398 22.5602 22.1198 22.2702 22.4098C22.1202 22.5498 21.9302 22.6299 21.7402 22.6299Z" fill="#242424"/>
</svg>
