<svg width="24" height="24" viewBox="0 0 24 24" fill="none" xmlns="http://www.w3.org/2000/svg">
<path d="M11.97 22.75C6.04997 22.75 1.21997 17.93 1.21997 12C1.21997 6.07 6.04997 1.25 11.97 1.25C17.89 1.25 22.72 6.07 22.72 12C22.72 17.93 17.9 22.75 11.97 22.75ZM11.97 2.75C6.86997 2.75 2.71997 6.9 2.71997 12C2.71997 17.1 6.86997 21.25 11.97 21.25C17.07 21.25 21.22 17.1 21.22 12C21.22 6.9 17.07 2.75 11.97 2.75Z" fill="#242424"/>
<path d="M10.01 15.9498H8.71C7.79 15.9498 7.25 15.4198 7.25 14.5298V9.4698C7.25 8.5798 7.8 8.0498 8.71 8.0498H10C10.92 8.0498 11.46 8.5798 11.46 9.4698V14.5298C11.47 15.4198 10.92 15.9498 10.01 15.9498ZM8.75 14.4498H9.97V9.5498H8.76L8.75 14.4498Z" fill="#242424"/>
<path d="M15.29 15.9498H14C13.08 15.9498 12.54 15.4198 12.54 14.5298V9.4698C12.54 8.5798 13.09 8.0498 14 8.0498H15.29C16.21 8.0498 16.75 8.5798 16.75 9.4698V14.5298C16.75 15.4198 16.2 15.9498 15.29 15.9498ZM14.03 14.4498H15.25V9.5498H14.04L14.03 14.4498Z" fill="#242424"/>
</svg>
