<svg width="24" height="24" viewBox="0 0 24 24" fill="none" xmlns="http://www.w3.org/2000/svg">
<path d="M17.6901 20.0902C17.1201 20.0902 16.5601 19.9402 16.0401 19.6402L7.75009 14.8602C6.72009 14.2602 6.1001 13.1902 6.1001 12.0002C6.1001 10.8102 6.72009 9.74019 7.75009 9.14019L16.0401 4.36016C17.0701 3.76016 18.3001 3.76016 19.3401 4.36016C20.3801 4.96016 20.9901 6.02017 20.9901 7.22017V16.7902C20.9901 17.9802 20.3701 19.0502 19.3401 19.6502C18.8201 19.9402 18.2601 20.0902 17.6901 20.0902ZM17.6901 5.41017C17.3801 5.41017 17.0701 5.49016 16.7901 5.65016L8.50009 10.4302C7.94009 10.7602 7.6001 11.3402 7.6001 11.9902C7.6001 12.6402 7.94009 13.2202 8.50009 13.5502L16.7901 18.3302C17.3501 18.6602 18.0301 18.6602 18.5901 18.3302C19.1501 18.0002 19.4901 17.4202 19.4901 16.7702V7.20018C19.4901 6.55018 19.1501 5.97019 18.5901 5.64019C18.3101 5.50019 18.0001 5.41017 17.6901 5.41017Z" fill="#242424"/>
<path d="M3.75977 18.9298C3.34977 18.9298 3.00977 18.5898 3.00977 18.1798V5.81982C3.00977 5.40982 3.34977 5.06982 3.75977 5.06982C4.16977 5.06982 4.50977 5.40982 4.50977 5.81982V18.1798C4.50977 18.5898 4.16977 18.9298 3.75977 18.9298Z" fill="#242424"/>
</svg>
