<svg width="24" height="24" viewBox="0 0 24 24" fill="none" xmlns="http://www.w3.org/2000/svg">
<path d="M11.97 22.75C6.05 22.75 1.22 17.93 1.22 12C1.22 6.07 6.05 1.25 11.97 1.25C17.89 1.25 22.72 6.07 22.72 12C22.72 17.93 17.9 22.75 11.97 22.75ZM11.97 2.75C6.87 2.75 2.72 6.9 2.72 12C2.72 17.1 6.87 21.25 11.97 21.25C17.07 21.25 21.22 17.1 21.22 12C21.22 6.9 17.07 2.75 11.97 2.75Z" fill="#242424"/>
<path d="M13.27 16.98H10.73C8.19999 16.98 7.01999 15.8 7.01999 13.27V10.73C7.01999 8.20002 8.19999 7.02002 10.73 7.02002H13.27C15.8 7.02002 16.98 8.20002 16.98 10.73V13.27C16.98 15.8 15.8 16.98 13.27 16.98ZM10.73 8.52002C9.03999 8.52002 8.51999 9.04002 8.51999 10.73V13.27C8.51999 14.96 9.03999 15.48 10.73 15.48H13.27C14.96 15.48 15.48 14.96 15.48 13.27V10.73C15.48 9.04002 14.96 8.52002 13.27 8.52002H10.73Z" fill="#242424"/>
</svg>
