<svg width="24" height="24" viewBox="0 0 24 24" fill="none" xmlns="http://www.w3.org/2000/svg">
<path d="M15 22.75H9C3.57 22.75 1.25 20.43 1.25 15V9C1.25 3.57 3.57 1.25 9 1.25H15C20.43 1.25 22.75 3.57 22.75 9V15C22.75 20.43 20.43 22.75 15 22.75ZM9 2.75C4.39 2.75 2.75 4.39 2.75 9V15C2.75 19.61 4.39 21.25 9 21.25H15C19.61 21.25 21.25 19.61 21.25 15V9C21.25 4.39 19.61 2.75 15 2.75H9Z" fill="#242424"/>
<path d="M17.5 17.8301H15.65C15.24 17.8301 14.9 17.4901 14.9 17.0801C14.9 16.6701 15.24 16.3301 15.65 16.3301H17.5C17.91 16.3301 18.25 16.6701 18.25 17.0801C18.25 17.4901 17.91 17.8301 17.5 17.8301Z" fill="#242424"/>
<path d="M12.97 17.8301H6.5C6.09 17.8301 5.75 17.4901 5.75 17.0801C5.75 16.6701 6.09 16.3301 6.5 16.3301H12.97C13.38 16.3301 13.72 16.6701 13.72 17.0801C13.72 17.4901 13.39 17.8301 12.97 17.8301Z" fill="#242424"/>
<path d="M17.5 14.0698H11.97C11.56 14.0698 11.22 13.7298 11.22 13.3198C11.22 12.9098 11.56 12.5698 11.97 12.5698H17.5C17.91 12.5698 18.25 12.9098 18.25 13.3198C18.25 13.7298 17.91 14.0698 17.5 14.0698Z" fill="#242424"/>
<path d="M9.27 14.0698H6.5C6.09 14.0698 5.75 13.7298 5.75 13.3198C5.75 12.9098 6.09 12.5698 6.5 12.5698H9.27C9.68 12.5698 10.02 12.9098 10.02 13.3198C10.02 13.7298 9.68 14.0698 9.27 14.0698Z" fill="#242424"/>
</svg>
