<svg width="24" height="24" viewBox="0 0 24 24" fill="none" xmlns="http://www.w3.org/2000/svg">
<path d="M15 22.75H9C3.57 22.75 1.25 20.43 1.25 15V9C1.25 3.57 3.57 1.25 9 1.25H15C20.43 1.25 22.75 3.57 22.75 9V15C22.75 20.43 20.43 22.75 15 22.75ZM9 2.75C4.39 2.75 2.75 4.39 2.75 9V15C2.75 19.61 4.39 21.25 9 21.25H15C19.61 21.25 21.25 19.61 21.25 15V9C21.25 4.39 19.61 2.75 15 2.75H9Z" fill="#242424"/>
<path d="M6.89 22.23C6.48 22.23 6.14 21.89 6.14 21.48V2.52002C6.14 2.11002 6.48 1.77002 6.89 1.77002C7.3 1.77002 7.64 2.10002 7.64 2.52002V21.48C7.64 21.9 7.3 22.23 6.89 22.23Z" fill="#242424"/>
<path d="M16.89 22.23C16.48 22.23 16.14 21.89 16.14 21.48V2.52002C16.14 2.11002 16.48 1.77002 16.89 1.77002C17.3 1.77002 17.64 2.11002 17.64 2.52002V21.48C17.64 21.9 17.3 22.23 16.89 22.23Z" fill="#242424"/>
<path d="M6.89 7.72021H2.54C2.13 7.72021 1.79 7.38021 1.79 6.97021C1.79 6.56021 2.13 6.22021 2.54 6.22021H6.89C7.3 6.22021 7.64 6.56021 7.64 6.97021C7.64 7.38021 7.3 7.72021 6.89 7.72021Z" fill="#242424"/>
<path d="M6.89 12.75H2.03C1.62 12.75 1.28 12.41 1.28 12C1.28 11.59 1.62 11.25 2.03 11.25H6.89C7.3 11.25 7.64 11.59 7.64 12C7.64 12.41 7.3 12.75 6.89 12.75Z" fill="#242424"/>
<path d="M6.89 17.7202H2.48C2.07 17.7202 1.73 17.3802 1.73 16.9702C1.73 16.5602 2.07 16.2202 2.48 16.2202H6.89C7.3 16.2202 7.64 16.5602 7.64 16.9702C7.64 17.3802 7.3 17.7202 6.89 17.7202Z" fill="#242424"/>
<path d="M21.89 7.72021H17.54C17.13 7.72021 16.79 7.38021 16.79 6.97021C16.79 6.56021 17.13 6.22021 17.54 6.22021H21.89C22.3 6.22021 22.64 6.56021 22.64 6.97021C22.64 7.38021 22.3 7.72021 21.89 7.72021Z" fill="#242424"/>
<path d="M21.89 12.75H17.03C16.62 12.75 16.28 12.41 16.28 12C16.28 11.59 16.62 11.25 17.03 11.25H21.89C22.3 11.25 22.64 11.59 22.64 12C22.64 12.41 22.3 12.75 21.89 12.75Z" fill="#242424"/>
<path d="M16.97 12.75H5.97C5.56 12.75 5.22 12.41 5.22 12C5.22 11.59 5.56 11.25 5.97 11.25H16.97C17.38 11.25 17.72 11.59 17.72 12C17.72 12.41 17.39 12.75 16.97 12.75Z" fill="#242424"/>
<path d="M21.89 17.7202H17.48C17.07 17.7202 16.73 17.3802 16.73 16.9702C16.73 16.5602 17.07 16.2202 17.48 16.2202H21.89C22.3 16.2202 22.64 16.5602 22.64 16.9702C22.64 17.3802 22.3 17.7202 21.89 17.7202Z" fill="#242424"/>
</svg>
