<svg width="24" height="24" viewBox="0 0 24 24" fill="none" xmlns="http://www.w3.org/2000/svg">
<path d="M10.76 16.3698C10.34 16.3698 9.95 16.2698 9.6 16.0698C8.8 15.6098 8.34 14.6698 8.34 13.4798V10.5198C8.34 9.33981 8.8 8.3898 9.6 7.9298C10.4 7.4698 11.44 7.53981 12.47 8.13981L15.04 9.6198C16.06 10.2098 16.65 11.0798 16.65 11.9998C16.65 12.9198 16.06 13.7898 15.04 14.3798L12.47 15.8598C11.89 16.1998 11.3 16.3698 10.76 16.3698ZM10.77 9.12981C10.61 9.12981 10.47 9.1598 10.36 9.2298C10.04 9.4198 9.85 9.88981 9.85 10.5198V13.4798C9.85 14.1098 10.03 14.5798 10.36 14.7698C10.68 14.9598 11.18 14.8798 11.73 14.5598L14.3 13.0798C14.85 12.7598 15.16 12.3698 15.16 11.9998C15.16 11.6298 14.85 11.2298 14.3 10.9198L11.73 9.4398C11.37 9.2298 11.04 9.12981 10.77 9.12981Z" fill="#242424"/>
<path d="M12 22.75C6.07 22.75 1.25 17.93 1.25 12C1.25 6.07 6.07 1.25 12 1.25C17.93 1.25 22.75 6.07 22.75 12C22.75 17.93 17.93 22.75 12 22.75ZM12 2.75C6.9 2.75 2.75 6.9 2.75 12C2.75 17.1 6.9 21.25 12 21.25C17.1 21.25 21.25 17.1 21.25 12C21.25 6.9 17.1 2.75 12 2.75Z" fill="#242424"/>
</svg>
