<svg width="24" height="24" viewBox="0 0 24 24" fill="none" xmlns="http://www.w3.org/2000/svg">
<path d="M7 17.7499H5C2.58 17.7499 1.25 16.4199 1.25 13.9999V9.99987C1.25 7.57987 2.58 6.24987 5 6.24987H6.43C6.66 6.24987 6.89 6.17987 7.09 6.05987L10.01 4.22987C11.47 3.31987 12.89 3.14987 14.01 3.76987C15.13 4.38987 15.74 5.67987 15.74 7.40987V8.36987C15.74 8.77987 15.4 9.11987 14.99 9.11987C14.58 9.11987 14.24 8.77987 14.24 8.36987V7.40987C14.24 6.26987 13.89 5.41987 13.28 5.08987C12.67 4.74987 11.77 4.89987 10.8 5.50987L7.88 7.32987C7.45 7.60987 6.94 7.74987 6.43 7.74987H5C3.42 7.74987 2.75 8.41987 2.75 9.99987V13.9999C2.75 15.5799 3.42 16.2499 5 16.2499H7C7.41 16.2499 7.75 16.5899 7.75 16.9999C7.75 17.4099 7.41 17.7499 7 17.7499Z" fill="#242424"/>
<path d="M12.55 20.5902C11.76 20.5902 10.89 20.3102 10.02 19.7602C9.67 19.5402 9.56 19.0802 9.78 18.7302C10 18.3802 10.46 18.2702 10.81 18.4902C11.78 19.0902 12.68 19.2502 13.29 18.9102C13.9 18.5702 14.25 17.7202 14.25 16.5902V12.9502C14.25 12.5402 14.59 12.2002 15 12.2002C15.41 12.2002 15.75 12.5402 15.75 12.9502V16.5902C15.75 18.3102 15.13 19.6102 14.02 20.2302C13.57 20.4702 13.07 20.5902 12.55 20.5902Z" fill="#242424"/>
<path d="M18 16.7498C17.84 16.7498 17.69 16.6998 17.55 16.5998C17.22 16.3498 17.15 15.8798 17.4 15.5498C18.66 13.8698 18.93 11.6398 18.12 9.70983C17.96 9.32983 18.14 8.88983 18.52 8.72983C18.9 8.56983 19.34 8.74983 19.5 9.12983C20.52 11.5498 20.17 14.3598 18.6 16.4598C18.45 16.6498 18.23 16.7498 18 16.7498Z" fill="#242424"/>
<path d="M19.83 19.2502C19.67 19.2502 19.52 19.2002 19.38 19.1002C19.05 18.8502 18.98 18.3802 19.23 18.0502C21.37 15.2002 21.84 11.3802 20.46 8.0902C20.3 7.7102 20.48 7.2702 20.86 7.1102C21.25 6.9502 21.68 7.1302 21.84 7.5102C23.43 11.2902 22.89 15.6702 20.43 18.9502C20.29 19.1502 20.06 19.2502 19.83 19.2502Z" fill="#242424"/>
<path d="M2 22.7499C1.81 22.7499 1.62 22.6799 1.47 22.5299C1.18 22.2399 1.18 21.7599 1.47 21.4699L21.47 1.46994C21.76 1.17994 22.24 1.17994 22.53 1.46994C22.82 1.75994 22.82 2.23994 22.53 2.52994L2.53 22.5299C2.38 22.6799 2.19 22.7499 2 22.7499Z" fill="#242424"/>
</svg>
