<svg width="24" height="24" viewBox="0 0 24 24" fill="none" xmlns="http://www.w3.org/2000/svg">
<path d="M10.8 22.0999C10.51 22.0999 10.22 22.0499 9.95004 21.9499C8.70004 21.5399 7.90004 20.1599 8.18004 18.8799L8.67004 15.7299C8.68004 15.6599 8.68004 15.5599 8.61004 15.4799C8.56004 15.4299 8.49004 15.3999 8.41004 15.3999H4.41004C3.43004 15.3999 2.58004 14.9899 2.08004 14.2799C1.59004 13.5899 1.49004 12.6799 1.81004 11.7999L4.20004 4.5199C4.57004 3.0699 6.12004 1.8999 7.72004 1.8999H11.52C12.08 1.8999 13.3 2.0699 13.95 2.7199L16.98 5.0599L16.06 6.2499L12.96 3.8499C12.71 3.5999 12.08 3.3999 11.52 3.3999H7.72004C6.82004 3.3999 5.85004 4.1199 5.65004 4.9299L3.23004 12.2799C3.07004 12.7199 3.10004 13.1199 3.31004 13.4099C3.53004 13.7199 3.93004 13.8999 4.42004 13.8999H8.42004C8.94004 13.8999 9.42004 14.1199 9.75004 14.4999C10.09 14.8899 10.24 15.4099 10.16 15.9499L9.66004 19.1599C9.54004 19.7199 9.92004 20.3499 10.46 20.5299C10.94 20.7099 11.58 20.4499 11.8 20.1299L15.9 14.0299L17.14 14.8699L13.04 20.9699C12.57 21.6699 11.68 22.0999 10.8 22.0999Z" fill="#242424"/>
<path d="M19.6201 18.1H18.6201C16.7701 18.1 15.8701 17.23 15.8701 15.45V5.65C15.8701 3.87 16.7701 3 18.6201 3H19.6201C21.4701 3 22.3701 3.87 22.3701 5.65V15.45C22.3701 17.23 21.4701 18.1 19.6201 18.1ZM18.6201 4.5C17.5301 4.5 17.3701 4.76 17.3701 5.65V15.45C17.3701 16.34 17.5301 16.6 18.6201 16.6H19.6201C20.7101 16.6 20.8701 16.34 20.8701 15.45V5.65C20.8701 4.76 20.7101 4.5 19.6201 4.5H18.6201Z" fill="#242424"/>
</svg>
