<svg width="24" height="24" viewBox="0 0 24 24" fill="none" xmlns="http://www.w3.org/2000/svg">
<path d="M12 22.75C6.07 22.75 1.25 17.93 1.25 12C1.25 6.07 6.07 1.25 12 1.25C17.93 1.25 22.75 6.07 22.75 12C22.75 17.93 17.93 22.75 12 22.75ZM12 2.75C6.9 2.75 2.75 6.9 2.75 12C2.75 17.1 6.9 21.25 12 21.25C17.1 21.25 21.25 17.1 21.25 12C21.25 6.9 17.1 2.75 12 2.75Z" fill="#242424"/>
<path d="M11.9999 18.2501C11.7899 18.2501 11.5899 18.2201 11.4199 18.1601C9.26986 17.4301 5.85986 14.8101 5.85986 10.9101C5.85986 8.83013 7.53986 7.14014 9.60986 7.14014C10.5099 7.14014 11.3399 7.45013 12.0099 8.01013C12.6799 7.45013 13.5199 7.14014 14.3999 7.14014C16.4699 7.14014 18.1499 8.83013 18.1499 10.9101C18.1499 14.8001 14.7399 17.4201 12.5799 18.1601C12.4099 18.2201 12.1999 18.2501 11.9999 18.2501ZM9.59987 8.65012C8.35987 8.65012 7.34987 9.67014 7.34987 10.9201C7.34987 14.4101 10.7199 16.3501 11.8999 16.7501C11.9399 16.7601 12.0399 16.7601 12.0799 16.7501C13.2599 16.3501 16.6299 14.4101 16.6299 10.9201C16.6299 9.67014 15.6199 8.65012 14.3799 8.65012C13.6799 8.65012 13.0099 8.99012 12.5899 9.56012C12.3099 9.94012 11.6699 9.94012 11.3899 9.56012C10.9699 8.98012 10.3199 8.65012 9.59987 8.65012Z" fill="#242424"/>
</svg>
