<svg width="24" height="24" viewBox="0 0 24 24" fill="none" xmlns="http://www.w3.org/2000/svg">
<path d="M6.10999 18.2501C5.92999 18.2501 5.73998 18.1801 5.59998 18.0501C3.61998 16.1901 1.25 13.0601 1.25 8.69012C1.25 5.19012 4.08 2.3501 7.56 2.3501C9.25 2.3501 10.83 3.01012 12 4.19012C13.17 3.01012 14.75 2.3501 16.44 2.3501C17.7 2.3501 18.92 2.73011 19.97 3.43011C20.31 3.66011 20.4 4.13009 20.17 4.47009C19.94 4.81009 19.47 4.9001 19.13 4.6701C18.34 4.13011 17.41 3.84015 16.45 3.84015C14.93 3.84015 13.52 4.55015 12.61 5.78015C12.33 6.16015 11.69 6.16015 11.41 5.78015C10.49 4.55015 9.09001 3.84015 7.57001 3.84015C4.92001 3.84015 2.76001 6.01011 2.76001 8.68011C2.76001 12.5201 4.87001 15.2901 6.64001 16.9501C6.94001 17.2301 6.95999 17.7101 6.67999 18.0101C6.50999 18.1701 6.30999 18.2501 6.10999 18.2501Z" fill="#242424"/>
<path d="M11.9999 21.6498C11.6899 21.6498 11.3899 21.6098 11.1399 21.5198C10.3899 21.2598 9.49991 20.8398 8.63991 20.3298C8.27991 20.1198 8.1699 19.6598 8.3799 19.2998C8.5899 18.9498 9.04987 18.8298 9.40987 19.0398C10.1899 19.4998 10.9799 19.8798 11.6299 20.0998C11.8099 20.1598 12.1999 20.1598 12.3799 20.0998C14.6799 19.3098 21.2599 15.5198 21.2599 8.6798C21.2599 8.1798 21.1799 7.68978 21.0399 7.21978C20.9199 6.81978 21.1299 6.39984 21.5299 6.27984C21.9299 6.15984 22.3499 6.37983 22.4699 6.76983C22.6599 7.38983 22.7599 8.0298 22.7599 8.6798C22.7599 15.5598 16.6899 20.1998 12.8699 21.5098C12.6099 21.6098 12.3099 21.6498 11.9999 21.6498Z" fill="#242424"/>
<path d="M1.99997 22.75C1.80997 22.75 1.61994 22.68 1.46994 22.53C1.17994 22.24 1.17994 21.7599 1.46994 21.4699L21.4699 1.46994C21.7599 1.17994 22.24 1.17994 22.53 1.46994C22.82 1.75994 22.82 2.24 22.53 2.53L2.53 22.53C2.38 22.68 2.18997 22.75 1.99997 22.75Z" fill="#242424"/>
</svg>
