<svg width="24" height="24" viewBox="0 0 24 24" fill="none" xmlns="http://www.w3.org/2000/svg">
<path d="M12 21.6501C11.78 21.6501 11.45 21.6301 11.14 21.5201C7.32 20.2101 1.25 15.5701 1.25 8.69012C1.25 5.19012 4.08 2.3501 7.56 2.3501C9.25 2.3501 10.83 3.01012 12 4.19012C13.17 3.01012 14.75 2.3501 16.44 2.3501C19.92 2.3501 22.75 5.19012 22.75 8.69012C22.75 9.90012 22.57 11.0901 22.21 12.2301C22.09 12.6201 21.66 12.8501 21.27 12.7201C20.87 12.6001 20.66 12.1702 20.78 11.7802C21.09 10.7902 21.25 9.75013 21.25 8.70013C21.25 6.03013 19.09 3.86011 16.44 3.86011C14.92 3.86011 13.51 4.5701 12.6 5.7901C12.32 6.1701 11.68 6.1701 11.4 5.7901C10.48 4.5601 9.08 3.86011 7.56 3.86011C4.91 3.86011 2.75 6.03013 2.75 8.70013C2.75 15.5401 9.32 19.3301 11.63 20.1201C11.69 20.1401 11.83 20.1701 12 20.1701C12.41 20.1701 12.75 20.5101 12.75 20.9201C12.75 21.3301 12.41 21.6501 12 21.6501Z" fill="#242424"/>
<path d="M15.8201 22.7503C15.4401 22.7503 15.0801 22.6103 14.8201 22.3503C14.5101 22.0403 14.3701 21.5903 14.4401 21.1203L14.6301 19.7703C14.6801 19.4203 14.8901 19.0003 15.1401 18.7503L18.6801 15.2103C19.1601 14.7303 19.6301 14.4803 20.1401 14.4303C20.7701 14.3703 21.3801 14.6303 21.9601 15.2103C22.5401 15.7903 22.8001 16.4003 22.7401 17.0303C22.6901 17.5303 22.4301 18.0103 21.9601 18.4903L18.4201 22.0303C18.1701 22.2803 17.7601 22.4903 17.4101 22.5403L16.0601 22.7303C15.9701 22.7403 15.9001 22.7503 15.8201 22.7503ZM20.3101 15.9203C20.3001 15.9203 20.2901 15.9203 20.2801 15.9203C20.1401 15.9303 19.9501 16.0503 19.7401 16.2703L16.2001 19.8103C16.1701 19.8403 16.1201 19.9403 16.1201 19.9803L15.9401 21.2303L17.1901 21.0503C17.2301 21.0403 17.3301 20.9903 17.3601 20.9603L20.9001 17.4203C21.1101 17.2103 21.2401 17.0203 21.2501 16.8803C21.2701 16.6803 21.0701 16.4403 20.9001 16.2703C20.7401 16.1103 20.5101 15.9203 20.3101 15.9203Z" fill="#242424"/>
<path d="M20.9201 19.2203C20.8501 19.2203 20.7801 19.2104 20.7201 19.1904C19.4001 18.8204 18.3501 17.7704 17.9801 16.4504C17.8701 16.0504 18.1001 15.6404 18.5001 15.5304C18.9001 15.4204 19.3101 15.6503 19.4301 16.0503C19.6601 16.8703 20.3101 17.5204 21.1301 17.7504C21.5301 17.8604 21.7601 18.2803 21.6501 18.6703C21.5501 19.0003 21.2501 19.2203 20.9201 19.2203Z" fill="#242424"/>
</svg>
