<svg width="24" height="24" viewBox="0 0 24 24" fill="none" xmlns="http://www.w3.org/2000/svg">
<path d="M12 21.6501C11.78 21.6501 11.45 21.6301 11.14 21.5201C7.32 20.2101 1.25 15.5701 1.25 8.69012C1.25 5.19012 4.08 2.3501 7.56 2.3501C9.25 2.3501 10.83 3.01012 12 4.19012C13.17 3.01012 14.75 2.3501 16.44 2.3501C19.92 2.3501 22.75 5.19012 22.75 8.69012C22.75 9.90012 22.57 11.0901 22.21 12.2301C22.09 12.6201 21.66 12.8501 21.27 12.7201C20.87 12.6001 20.66 12.1702 20.78 11.7802C21.09 10.7902 21.25 9.75013 21.25 8.70013C21.25 6.03013 19.09 3.86011 16.44 3.86011C14.92 3.86011 13.51 4.5701 12.6 5.7901C12.32 6.1701 11.68 6.1701 11.4 5.7901C10.48 4.5601 9.08 3.86011 7.56 3.86011C4.91 3.86011 2.75 6.03013 2.75 8.70013C2.75 15.5401 9.32 19.3301 11.63 20.1201C11.69 20.1401 11.83 20.1701 12 20.1701C12.41 20.1701 12.75 20.5101 12.75 20.9201C12.75 21.3301 12.41 21.6501 12 21.6501Z" fill="#242424"/>
<path d="M17.74 21.7501C15.56 21.7501 13.79 19.9801 13.79 17.8001C13.79 15.6201 15.56 13.8501 17.74 13.8501C19.92 13.8501 21.69 15.6201 21.69 17.8001C21.69 19.9801 19.92 21.7501 17.74 21.7501ZM17.74 15.3501C16.39 15.3501 15.29 16.4501 15.29 17.8001C15.29 19.1501 16.39 20.2501 17.74 20.2501C19.09 20.2501 20.19 19.1501 20.19 17.8001C20.19 16.4501 19.09 15.3501 17.74 15.3501Z" fill="#242424"/>
<path d="M21.54 22.35C21.35 22.35 21.16 22.28 21.01 22.13L20.01 21.13C19.72 20.84 19.72 20.36 20.01 20.07C20.3 19.78 20.78 19.78 21.07 20.07L22.07 21.07C22.36 21.36 22.36 21.84 22.07 22.13C21.92 22.27 21.73 22.35 21.54 22.35Z" fill="#242424"/>
</svg>
