<svg width="24" height="24" viewBox="0 0 24 24" fill="none" xmlns="http://www.w3.org/2000/svg">
<path d="M10 14.75H6.2C2.78 14.75 1.25 13.22 1.25 9.80005V6.19995C1.25 2.77995 2.78 1.25 6.2 1.25H9.8C13.22 1.25 14.75 2.77995 14.75 6.19995V10C14.75 10.41 14.42 10.74 14.01 10.75C11.61 10.79 10.79 11.62 10.75 14.01C10.74 14.42 10.41 14.75 10 14.75ZM6.2 2.75C3.62 2.75 2.75 3.61995 2.75 6.19995V9.80005C2.75 12.38 3.62 13.25 6.2 13.25H9.29C9.53 10.81 10.81 9.54004 13.25 9.29004V6.19995C13.25 3.61995 12.38 2.75 9.8 2.75H6.2Z" fill="#242424"/>
<path d="M5.2 6.63014C4.97 6.63014 4.73 6.52019 4.59 6.31019C4.35 5.97019 4.43 5.50015 4.77 5.26015C5.55 4.71015 6.6 4.70013 7.39 5.24013C7.73 5.47013 7.82 5.94017 7.59 6.28017C7.36 6.62017 6.89 6.71012 6.55 6.48012C6.28 6.30012 5.92001 6.30013 5.65001 6.49013C5.50001 6.59013 5.35 6.63014 5.2 6.63014Z" fill="#242424"/>
<path d="M9.2 6.63014C8.97 6.63014 8.73 6.52019 8.59 6.31019C8.35 5.97019 8.43 5.50015 8.77 5.26015C9.55 4.71015 10.6 4.70013 11.39 5.24013C11.73 5.47013 11.82 5.94017 11.59 6.28017C11.36 6.62017 10.89 6.71012 10.55 6.48012C10.28 6.30012 9.92001 6.30013 9.65001 6.49013C9.50001 6.59013 9.35 6.63014 9.2 6.63014Z" fill="#242424"/>
<path d="M8.15981 12.1702H5.83981C5.12981 12.1702 4.5498 11.5901 4.5498 10.8801C4.5498 8.98013 6.09981 7.43018 7.99981 7.43018C8.77981 7.43018 9.54981 7.70006 10.1598 8.19006C10.4798 8.45006 10.5398 8.92011 10.2798 9.24011C10.0198 9.56011 9.54981 9.61011 9.2298 9.36011C8.87981 9.08011 8.4598 8.93018 8.0098 8.93018C7.0098 8.93018 6.17981 9.69017 6.06981 10.6702H8.1698C8.5798 10.6702 8.9198 11.0102 8.9198 11.4202C8.9198 11.8302 8.56981 12.1702 8.15981 12.1702Z" fill="#242424"/>
<path d="M17.8 22.75H14.2C10.78 22.75 9.25 21.22 9.25 17.8V14C9.31 10.81 10.81 9.31 13.99 9.25H17.8C21.22 9.25 22.75 10.78 22.75 14.2V17.8C22.75 21.22 21.22 22.75 17.8 22.75ZM14 10.75C11.62 10.79 10.79 11.62 10.75 14.01V17.8C10.75 20.38 11.62 21.25 14.2 21.25H17.8C20.38 21.25 21.25 20.38 21.25 17.8V14.2C21.25 11.62 20.38 10.75 17.8 10.75H14Z" fill="#242424"/>
<path d="M14.09 14.6301C13.62 14.6301 13.16 14.4901 12.77 14.2101C12.43 13.9701 12.35 13.5002 12.59 13.1602C12.83 12.8202 13.3 12.7401 13.64 12.9801C13.91 13.1701 14.27 13.1701 14.54 12.9901C14.88 12.7601 15.35 12.8401 15.58 13.1901C15.81 13.5301 15.73 14.0001 15.38 14.2301C14.99 14.5001 14.54 14.6301 14.09 14.6301Z" fill="#242424"/>
<path d="M18.09 14.6301C17.62 14.6301 17.16 14.4901 16.77 14.2101C16.43 13.9701 16.35 13.5002 16.59 13.1602C16.83 12.8202 17.3 12.7401 17.64 12.9801C17.91 13.1701 18.27 13.1701 18.54 12.9901C18.88 12.7601 19.35 12.8401 19.58 13.1901C19.81 13.5301 19.73 14.0001 19.38 14.2301C18.99 14.5001 18.54 14.6301 18.09 14.6301Z" fill="#242424"/>
<path d="M15.9998 20.1702C14.0998 20.1702 12.5498 18.6201 12.5498 16.7201C12.5498 16.0101 13.1298 15.4302 13.8398 15.4302H18.1598C18.8698 15.4302 19.4498 16.0101 19.4498 16.7201C19.4498 18.6201 17.8998 20.1702 15.9998 20.1702ZM14.0598 16.9302C14.1598 17.9102 14.9898 18.6702 15.9998 18.6702C17.0098 18.6702 17.8298 17.9102 17.9398 16.9302H14.0598Z" fill="#242424"/>
</svg>
