<svg width="24" height="24" viewBox="0 0 24 24" fill="none" xmlns="http://www.w3.org/2000/svg">
<path d="M9.16001 11.62C9.13001 11.62 9.11001 11.62 9.08001 11.62C9.03001 11.61 8.96001 11.61 8.90001 11.62C6.00001 11.53 3.81001 9.25 3.81001 6.44C3.81001 3.58 6.14001 1.25 9.00001 1.25C11.86 1.25 14.19 3.58 14.19 6.44C14.18 9.25 11.98 11.53 9.19001 11.62C9.18001 11.62 9.17001 11.62 9.16001 11.62ZM9.00001 2.75C6.97001 2.75 5.31001 4.41 5.31001 6.44C5.31001 8.44 6.87001 10.05 8.86001 10.12C8.92001 10.11 9.05001 10.11 9.18001 10.12C11.14 10.03 12.68 8.42 12.69 6.44C12.69 4.41 11.03 2.75 9.00001 2.75Z" fill="#242424"/>
<path d="M16.54 11.75C16.51 11.75 16.48 11.75 16.45 11.74C16.04 11.78 15.62 11.49 15.58 11.08C15.54 10.67 15.79 10.3 16.2 10.25C16.32 10.24 16.45 10.24 16.56 10.24C18.02 10.16 19.16 8.96 19.16 7.49C19.16 5.97 17.93 4.74 16.41 4.74C16 4.75 15.66 4.41 15.66 4C15.66 3.59 16 3.25 16.41 3.25C18.75 3.25 20.66 5.16 20.66 7.5C20.66 9.8 18.86 11.66 16.57 11.75C16.56 11.75 16.55 11.75 16.54 11.75Z" fill="#242424"/>
<path d="M9.17001 22.55C7.21001 22.55 5.24001 22.05 3.75001 21.05C2.36001 20.13 1.60001 18.87 1.60001 17.5C1.60001 16.13 2.36001 14.86 3.75001 13.93C6.75001 11.94 11.61 11.94 14.59 13.93C15.97 14.85 16.74 16.11 16.74 17.48C16.74 18.85 15.98 20.12 14.59 21.05C13.09 22.05 11.13 22.55 9.17001 22.55ZM4.58001 15.19C3.62001 15.83 3.10001 16.65 3.10001 17.51C3.10001 18.36 3.63001 19.18 4.58001 19.81C7.07001 21.48 11.27 21.48 13.76 19.81C14.72 19.17 15.24 18.35 15.24 17.49C15.24 16.64 14.71 15.82 13.76 15.19C11.27 13.53 7.07001 13.53 4.58001 15.19Z" fill="#242424"/>
<path d="M18.34 20.75C17.99 20.75 17.68 20.51 17.61 20.15C17.53 19.74 17.79 19.35 18.19 19.26C18.82 19.13 19.4 18.88 19.85 18.53C20.42 18.1 20.73 17.56 20.73 16.99C20.73 16.42 20.42 15.88 19.86 15.46C19.42 15.12 18.87 14.88 18.22 14.73C17.82 14.64 17.56 14.24 17.65 13.83C17.74 13.43 18.14 13.17 18.55 13.26C19.41 13.45 20.16 13.79 20.77 14.26C21.7 14.96 22.23 15.95 22.23 16.99C22.23 18.03 21.69 19.02 20.76 19.73C20.14 20.21 19.36 20.56 18.5 20.73C18.44 20.75 18.39 20.75 18.34 20.75Z" fill="#242424"/>
</svg>
