<svg width="24" height="24" viewBox="0 0 24 24" fill="none" xmlns="http://www.w3.org/2000/svg">
<path d="M15.2401 22.75H8.76007C6.87007 22.75 5.49007 21.96 4.96007 20.6C4.41007 19.18 4.92007 17.42 6.24007 16.23L10.8801 12L6.24007 7.77C4.92007 6.58 4.41007 4.82 4.96007 3.4C5.49007 2.03 6.87007 1.25 8.76007 1.25H15.2401C17.1301 1.25 18.5101 2.04 19.0401 3.4C19.5901 4.82 19.0801 6.58 17.7601 7.77L13.1201 12L17.7701 16.23C19.0801 17.42 19.6001 19.18 19.0501 20.6C18.5101 21.96 17.1301 22.75 15.2401 22.75ZM12.0001 13.01L7.25007 17.33C6.41007 18.1 6.04007 19.22 6.36007 20.05C6.66007 20.82 7.51007 21.25 8.76007 21.25H15.2401C16.4901 21.25 17.3401 20.83 17.6401 20.05C17.9601 19.22 17.6001 18.1 16.7501 17.33L12.0001 13.01ZM8.76007 2.75C7.51007 2.75 6.66007 3.17 6.36007 3.95C6.04007 4.78 6.40007 5.9 7.25007 6.67L12.0001 10.99L16.7501 6.67C17.5901 5.9 17.9601 4.78 17.6401 3.95C17.3401 3.18 16.4901 2.75 15.2401 2.75H8.76007Z" fill="#242424"/>
</svg>
