<svg width="24" height="24" viewBox="0 0 24 24" fill="none" xmlns="http://www.w3.org/2000/svg">
<path d="M15 22.75H9C3.57 22.75 1.25 20.43 1.25 15V9C1.25 3.57 3.57 1.25 9 1.25H15C20.43 1.25 22.75 3.57 22.75 9V15C22.75 20.43 20.43 22.75 15 22.75ZM9 2.75C4.39 2.75 2.75 4.39 2.75 9V15C2.75 19.61 4.39 21.25 9 21.25H15C19.61 21.25 21.25 19.61 21.25 15V9C21.25 4.39 19.61 2.75 15 2.75H9Z" fill="#242424"/>
<path d="M13.76 17.75H10.23C9.12999 17.75 8.25999 17.21 7.76999 16.23L6.87999 14.44C6.66999 14.01 6.23999 13.75 5.75999 13.75H1.98999C1.57999 13.75 1.23999 13.41 1.23999 13C1.23999 12.59 1.58999 12.25 1.99999 12.25H5.75999C6.80999 12.25 7.74999 12.83 8.21999 13.77L9.10999 15.56C9.33999 16.02 9.70999 16.25 10.23 16.25H13.76C14.24 16.25 14.67 15.99 14.88 15.56L15.77 13.77C16.24 12.83 17.18 12.25 18.23 12.25H21.97C22.38 12.25 22.72 12.59 22.72 13C22.72 13.41 22.38 13.75 21.97 13.75H18.23C17.75 13.75 17.32 14.01 17.11 14.44L16.22 16.23C15.75 17.17 14.81 17.75 13.76 17.75Z" fill="#242424"/>
</svg>
