<svg width="24" height="24" viewBox="0 0 24 24" fill="none" xmlns="http://www.w3.org/2000/svg">
<path d="M11.1201 18.25C10.9301 18.25 10.7401 18.18 10.5901 18.03L9.09006 16.53C8.80006 16.24 8.80006 15.76 9.09006 15.47C9.38006 15.18 9.86006 15.18 10.1501 15.47L11.1401 16.46L13.8601 13.95C14.1601 13.67 14.6401 13.69 14.9201 13.99C15.2001 14.29 15.1801 14.77 14.8801 15.05L11.6301 18.05C11.4901 18.18 11.3101 18.25 11.1201 18.25Z" fill="#242424"/>
<path d="M5.18988 6.37994C4.99988 6.37994 4.79988 6.29994 4.65988 6.15994C4.36988 5.86994 4.36988 5.38994 4.65988 5.09994L8.28988 1.46994C8.57988 1.17994 9.05988 1.17994 9.34988 1.46994C9.63988 1.75994 9.63988 2.23994 9.34988 2.52994L5.71988 6.15994C5.56988 6.29994 5.37988 6.37994 5.18988 6.37994Z" fill="#242424"/>
<path d="M18.8101 6.37994C18.6201 6.37994 18.4301 6.30994 18.2801 6.15994L14.6501 2.52994C14.3601 2.23994 14.3601 1.75994 14.6501 1.46994C14.9401 1.17994 15.4201 1.17994 15.7101 1.46994L19.3401 5.09994C19.6301 5.38994 19.6301 5.86994 19.3401 6.15994C19.2001 6.29994 19.0001 6.37994 18.8101 6.37994Z" fill="#242424"/>
<path d="M20.21 10.6001C20.14 10.6001 20.07 10.6001 20 10.6001H19.77H4C3.3 10.6101 2.5 10.6101 1.92 10.0301C1.46 9.5801 1.25 8.8801 1.25 7.8501C1.25 5.1001 3.26 5.1001 4.22 5.1001H19.78C20.74 5.1001 22.75 5.1001 22.75 7.8501C22.75 8.8901 22.54 9.5801 22.08 10.0301C21.56 10.5501 20.86 10.6001 20.21 10.6001ZM4.22 9.1001H20.01C20.46 9.1101 20.88 9.1101 21.02 8.9701C21.09 8.9001 21.24 8.6601 21.24 7.8501C21.24 6.7201 20.96 6.6001 19.77 6.6001H4.22C3.03 6.6001 2.75 6.7201 2.75 7.8501C2.75 8.6601 2.91 8.9001 2.97 8.9701C3.11 9.1001 3.54 9.1001 3.98 9.1001H4.22Z" fill="#242424"/>
<path d="M14.89 22.7502H8.86C5.28 22.7502 4.48 20.6202 4.17 18.7702L2.76 10.1202C2.69 9.71024 2.97 9.33024 3.38 9.26024C3.78 9.19024 4.17 9.47024 4.24 9.88024L5.65 18.5202C5.94 20.2902 6.54 21.2502 8.86 21.2502H14.89C17.46 21.2502 17.75 20.3502 18.08 18.6102L19.76 9.86024C19.84 9.45024 20.23 9.18024 20.64 9.27024C21.05 9.35024 21.31 9.74024 21.23 10.1502L19.55 18.9002C19.16 20.9302 18.51 22.7502 14.89 22.7502Z" fill="#242424"/>
</svg>
