<svg width="24" height="24" viewBox="0 0 24 24" fill="none" xmlns="http://www.w3.org/2000/svg">
<path d="M12 19.75C9.38 19.75 7.25 17.62 7.25 15C7.25 12.38 9.38 10.25 12 10.25C14.62 10.25 16.75 12.38 16.75 15C16.75 17.62 14.62 19.75 12 19.75ZM12 11.75C10.21 11.75 8.75 13.21 8.75 15C8.75 16.79 10.21 18.25 12 18.25C13.79 18.25 15.25 16.79 15.25 15C15.25 13.21 13.79 11.75 12 11.75Z" fill="#242424"/>
<path d="M10.9999 16.7498C10.7499 16.7498 10.4999 16.6198 10.3599 16.3898C10.1499 16.0298 10.2599 15.5698 10.6199 15.3598L11.3799 14.8998C11.4599 14.8498 11.4999 14.7698 11.4999 14.6898V13.7598C11.4999 13.3498 11.8399 13.0098 12.2499 13.0098C12.6599 13.0098 12.9999 13.3398 12.9999 13.7498V14.6798C12.9999 15.2898 12.6699 15.8698 12.1499 16.1798L11.3799 16.6398C11.2699 16.7198 11.1299 16.7498 10.9999 16.7498Z" fill="#242424"/>
<path d="M15.0001 22.75H9.00006C4.38006 22.75 3.52006 20.6 3.30006 18.51L2.55006 12.52C2.44006 11.44 2.40006 9.89 3.45006 8.73C4.35006 7.73 5.84006 7.25 8.00006 7.25H16.0001C18.1701 7.25 19.6601 7.74 20.5501 8.73C21.5901 9.89 21.5601 11.44 21.4501 12.5L20.7001 18.51C20.4801 20.6 19.6201 22.75 15.0001 22.75ZM8.00006 8.75C6.31006 8.75 5.15006 9.08 4.56006 9.74C4.07006 10.28 3.91006 11.11 4.04006 12.35L4.79006 18.34C4.96006 19.94 5.40006 21.26 9.00006 21.26H15.0001C18.6001 21.26 19.0401 19.95 19.2101 18.36L19.9601 12.35C20.0901 11.13 19.9301 10.3 19.4401 9.75C18.8501 9.08 17.6901 8.75 16.0001 8.75H8.00006Z" fill="#242424"/>
<path d="M16.5 8.62981C16.09 8.62981 15.75 8.28981 15.75 7.87981V6.49981C15.75 5.44981 15.3 4.42981 14.52 3.71981C13.73 2.99981 12.7 2.66981 11.63 2.76981C9.83 2.93981 8.25 4.77981 8.25 6.69981V7.66981C8.25 8.07981 7.91 8.41981 7.5 8.41981C7.09 8.41981 6.75 8.07981 6.75 7.66981V6.68981C6.75 3.99981 8.92 1.51981 11.49 1.26981C12.99 1.12981 14.43 1.59981 15.53 2.60981C16.62 3.59981 17.25 5.01981 17.25 6.49981V7.87981C17.25 8.28981 16.91 8.62981 16.5 8.62981Z" fill="#242424"/>
</svg>
