<svg width="24" height="24" viewBox="0 0 24 24" fill="none" xmlns="http://www.w3.org/2000/svg">
<path d="M11.9999 13.7397C11.2199 13.7397 10.4799 13.4398 9.90995 12.8798C9.17995 12.1498 8.88995 11.0998 9.12995 10.0698C9.37995 9.01976 10.2199 8.17975 11.2699 7.92975C12.2899 7.67975 13.3399 7.96978 14.0799 8.70978C14.8199 9.44978 15.0999 10.4898 14.8599 11.5198C14.6099 12.5698 13.7699 13.4097 12.7199 13.6597C12.4799 13.7097 12.2399 13.7397 11.9999 13.7397ZM11.9999 9.33978C11.8799 9.33978 11.7499 9.35977 11.6299 9.38977C11.1299 9.50977 10.72 9.91974 10.6 10.4197C10.47 10.9397 10.6099 11.4498 10.9799 11.8098C11.3499 12.1798 11.8499 12.3098 12.3799 12.1898C12.8799 12.0698 13.2899 11.6597 13.4099 11.1597C13.5399 10.6397 13.3999 10.1298 13.0299 9.76978C12.7499 9.48978 12.3899 9.33978 11.9999 9.33978Z" fill="#242424"/>
<path d="M6.01996 17.97C5.83996 17.97 5.64995 17.9 5.50995 17.77C3.56995 15.97 2.45996 13.43 2.45996 10.79C2.45996 5.52998 6.73995 1.25 12 1.25C17.26 1.25 21.5399 5.52998 21.5399 10.79C21.5399 13.45 20.47 15.91 18.53 17.74C18.23 18.02 17.75 18.01 17.47 17.71C17.19 17.41 17.2 16.93 17.5 16.65C19.14 15.11 20.0399 13.04 20.0399 10.8C20.0399 6.36999 16.43 2.76001 12 2.76001C7.56995 2.76001 3.95996 6.36999 3.95996 10.8C3.95996 13.06 4.86995 15.14 6.52995 16.68C6.82995 16.96 6.84996 17.44 6.56996 17.74C6.41996 17.89 6.21996 17.97 6.01996 17.97Z" fill="#242424"/>
<path d="M16 15.3C15.82 15.3 15.63 15.23 15.49 15.1C15.19 14.82 15.17 14.34 15.46 14.04C16.29 13.16 16.75 12 16.75 10.8C16.75 8.18005 14.62 6.06006 12.01 6.06006C9.40001 6.06006 7.27002 8.19005 7.27002 10.8C7.27002 12.01 7.73001 13.16 8.56001 14.04C8.84001 14.34 8.83001 14.82 8.53001 15.1C8.23001 15.38 7.75002 15.3701 7.47002 15.0701C6.38002 13.9101 5.77002 12.39 5.77002 10.8C5.77002 7.36005 8.57001 4.56006 12.01 4.56006C15.45 4.56006 18.25 7.36005 18.25 10.8C18.25 12.39 17.65 13.9101 16.55 15.0701C16.4 15.2201 16.2 15.3 16 15.3Z" fill="#242424"/>
<path d="M13.4402 22.7501H10.5702C9.43018 22.7501 8.42017 22.1101 7.93017 21.0901C7.44017 20.0701 7.57017 18.8801 8.28017 17.9901L9.72017 16.2001C10.2802 15.5001 11.1102 15.1001 12.0102 15.1001C12.9102 15.1001 13.7402 15.5001 14.3002 16.2001L15.7402 17.9901C16.4502 18.8801 16.5902 20.0701 16.0902 21.0901C15.5802 22.1101 14.5702 22.7501 13.4402 22.7501ZM10.8802 17.1301L9.44017 18.9201C9.09017 19.3601 9.02018 19.9301 9.27018 20.4301C9.51018 20.9401 10.0002 21.2401 10.5602 21.2401H13.4302C13.9902 21.2401 14.4802 20.9401 14.7202 20.4301C14.9602 19.9201 14.9002 19.3601 14.5502 18.9201L13.1102 17.1301C12.5702 16.4501 11.4302 16.4501 10.8802 17.1301Z" fill="#242424"/>
</svg>
