<svg width="24" height="24" viewBox="0 0 24 24" fill="none" xmlns="http://www.w3.org/2000/svg">
<path d="M13.4 14.6002C13.21 14.6002 13.02 14.5302 12.87 14.3802L11.47 12.9802C11.33 12.8402 11.25 12.6502 11.25 12.4502V9.66016C11.25 9.25016 11.59 8.91016 12 8.91016C12.41 8.91016 12.75 9.25016 12.75 9.66016V12.1402L13.93 13.3202C14.22 13.6102 14.22 14.0902 13.93 14.3802C13.78 14.5302 13.59 14.6002 13.4 14.6002Z" fill="#242424"/>
<path d="M12 19.25C10.41 19.25 8.91 18.75 7.65 17.8C7.62 17.78 7.6 17.77 7.57 17.75C5.78 16.36 4.75 14.26 4.75 12C4.75 8 8 4.75 12 4.75C16 4.75 19.25 8 19.25 12C19.25 14.25 18.23 16.33 16.46 17.72C16.43 17.74 16.41 17.76 16.38 17.78C15.11 18.74 13.6 19.25 12 19.25ZM8.43 16.51C8.46 16.53 8.48 16.54 8.5 16.56C10.53 18.13 13.51 18.12 15.53 16.54C15.55 16.52 15.58 16.5 15.6 16.49C16.97 15.39 17.75 13.76 17.75 12C17.75 8.83 15.17 6.25 12 6.25C8.83 6.25 6.25 8.83 6.25 12C6.25 13.77 7.04 15.41 8.43 16.51Z" fill="#242424"/>
<path d="M12.5501 22.7501H11.4601C9.50008 22.7501 8.30008 21.7801 7.79008 19.7701L7.29008 17.3001C7.25008 17.0801 7.30008 16.8501 7.45008 16.6801C7.60008 16.5101 7.81008 16.4101 8.03008 16.4101H8.04008C8.21008 16.4101 8.37008 16.4601 8.50008 16.5701C10.5301 18.1401 13.5101 18.1301 15.5301 16.5501C15.8401 16.3101 16.3301 16.3601 16.5801 16.6701C16.7201 16.8401 16.7801 17.0701 16.7401 17.2901L16.2301 19.7601C15.7001 21.7801 14.5001 22.7501 12.5501 22.7501ZM9.09008 18.6401L9.25008 19.4401C9.63008 20.9401 10.4101 21.2501 11.4601 21.2501H12.5501C13.5901 21.2501 14.3701 20.9401 14.7601 19.4201L14.9201 18.6401C13.1101 19.4401 10.9101 19.4501 9.09008 18.6401Z" fill="#242424"/>
<path d="M15.9998 7.62C15.8298 7.62 15.6598 7.56 15.5298 7.46C13.5098 5.88 10.5298 5.87 8.49976 7.44C8.18976 7.68 7.69976 7.63 7.45976 7.33C7.31976 7.16 7.25976 6.93 7.29976 6.71L7.78976 4.27C8.29976 2.22 9.49976 1.25 11.4598 1.25H12.5498C14.4998 1.25 15.6998 2.22 16.2098 4.21L16.7298 6.72C16.7798 6.94 16.7198 7.17 16.5798 7.34C16.4398 7.52 16.2298 7.62 15.9998 7.62ZM11.9998 4.75C13.0298 4.75 14.0098 4.96 14.9198 5.36L14.7498 4.55C14.3598 3.07 13.5898 2.75 12.5498 2.75H11.4598C10.4098 2.75 9.62976 3.06 9.24976 4.6L9.08976 5.36C9.99976 4.96 10.9798 4.75 11.9998 4.75Z" fill="#242424"/>
</svg>
