<svg width="24" height="24" viewBox="0 0 24 24" fill="none" xmlns="http://www.w3.org/2000/svg">
<path d="M17.0099 13.4798C16.0099 13.4798 15.1899 12.6598 15.1899 11.6598C15.1899 10.6598 16.0099 9.83984 17.0099 9.83984C18.0099 9.83984 18.8299 10.6598 18.8299 11.6598C18.8299 12.6598 18.0099 13.4798 17.0099 13.4798ZM17.0099 11.3398C16.8299 11.3398 16.6899 11.4798 16.6899 11.6598C16.6899 11.8398 16.8299 11.9798 17.0099 11.9798C17.1899 11.9798 17.3299 11.8398 17.3299 11.6598C17.3299 11.4798 17.1899 11.3398 17.0099 11.3398Z" fill="#242424"/>
<path d="M12.02 16.45H6C2.4 16.45 1.25 15.3 1.25 11.7V6C1.25 2.4 2.4 1.25 6 1.25H16C19.6 1.25 20.75 2.4 20.75 6V7.78998C20.75 7.99998 20.66 8.20998 20.5 8.34998C20.34 8.48998 20.13 8.56003 19.91 8.53003C19.69 8.50003 19.43 8.48999 19.15 8.48999H14.87C13.14 8.48999 12.77 8.86003 12.77 10.59V15.7C12.77 16.11 12.43 16.45 12.02 16.45ZM6 2.75C3.21 2.75 2.75 3.21 2.75 6V11.7C2.75 14.49 3.21 14.95 6 14.95H11.27V10.59C11.27 8.03003 12.31 6.98999 14.87 6.98999H19.15C19.18 6.98999 19.22 6.98999 19.25 6.98999V6C19.25 3.21 18.79 2.75 16 2.75H6Z" fill="#242424"/>
<path d="M9 20.7502C8.59 20.7502 8.25 20.4102 8.25 20.0002V15.7002C8.25 15.2902 8.59 14.9502 9 14.9502C9.41 14.9502 9.75 15.2902 9.75 15.7002V20.0002C9.75 20.4102 9.41 20.7502 9 20.7502Z" fill="#242424"/>
<path d="M12 12.6499H2C1.59 12.6499 1.25 12.3099 1.25 11.8999C1.25 11.4899 1.59 11.1499 2 11.1499H12C12.41 11.1499 12.75 11.4899 12.75 11.8999C12.75 12.3099 12.41 12.6499 12 12.6499Z" fill="#242424"/>
<path d="M12.0002 20.75H5.9502C5.5402 20.75 5.2002 20.41 5.2002 20C5.2002 19.59 5.5402 19.25 5.9502 19.25H12.0002C12.4102 19.25 12.7502 19.59 12.7502 20C12.7502 20.41 12.4102 20.75 12.0002 20.75Z" fill="#242424"/>
<path d="M17.0099 13.4798C16.0099 13.4798 15.1899 12.6598 15.1899 11.6598C15.1899 10.6598 16.0099 9.83984 17.0099 9.83984C18.0099 9.83984 18.8299 10.6598 18.8299 11.6598C18.8299 12.6598 18.0099 13.4798 17.0099 13.4798ZM17.0099 11.3398C16.8299 11.3398 16.6899 11.4798 16.6899 11.6598C16.6899 11.8398 16.8299 11.9798 17.0099 11.9798C17.1899 11.9798 17.3299 11.8398 17.3299 11.6598C17.3299 11.4798 17.1899 11.3398 17.0099 11.3398Z" fill="#242424"/>
<path d="M20 7.79022C19.75 7.76022 19.46 7.74023 19.15 7.74023H14.87C12.73 7.74023 12.02 8.45027 12.02 10.5903V19.1503C12.02 21.2903 12.73 22.0002 14.87 22.0002H19.15C21.29 22.0002 22 21.2903 22 19.1503V10.5903C22 8.76027 21.48 7.98022 20 7.79022ZM17.01 10.5903C17.6 10.5903 18.08 11.0702 18.08 11.6602C18.08 12.2502 17.6 12.7302 17.01 12.7302C16.42 12.7302 15.94 12.2502 15.94 11.6602C15.94 11.0702 16.42 10.5903 17.01 10.5903ZM17.01 19.1503C15.83 19.1503 14.87 18.1903 14.87 17.0103C14.87 16.5203 15.04 16.0603 15.32 15.7003C15.71 15.2003 16.32 14.8702 17.01 14.8702C17.55 14.8702 18.04 15.0703 18.41 15.3903C18.86 15.7903 19.15 16.3703 19.15 17.0103C19.15 18.1903 18.19 19.1503 17.01 19.1503Z" stroke="#242424" stroke-width="1.5" stroke-miterlimit="10" stroke-linecap="round" stroke-linejoin="round"/>
<path d="M17.0101 19.9001C15.4201 19.9001 14.1201 18.6001 14.1201 17.0101C14.1201 16.3701 14.3401 15.7401 14.7301 15.2401C15.2801 14.5301 16.1201 14.1201 17.0101 14.1201C17.7001 14.1201 18.3801 14.3701 18.9001 14.8201C19.5401 15.3901 19.9001 16.1801 19.9001 17.0101C19.9001 18.6001 18.6001 19.9001 17.0101 19.9001ZM17.0101 15.6201C16.5801 15.6201 16.1801 15.8201 15.9101 16.1601C15.7201 16.4001 15.6201 16.7001 15.6201 17.0101C15.6201 17.7801 16.2401 18.4001 17.0101 18.4001C17.7801 18.4001 18.4001 17.7801 18.4001 17.0101C18.4001 16.6101 18.2201 16.2301 17.9101 15.9501C17.6701 15.7401 17.3401 15.6201 17.0101 15.6201Z" fill="#242424"/>
<path d="M17.0099 13.4798C16.0099 13.4798 15.1899 12.6598 15.1899 11.6598C15.1899 10.6598 16.0099 9.83984 17.0099 9.83984C18.0099 9.83984 18.8299 10.6598 18.8299 11.6598C18.8299 12.6598 18.0099 13.4798 17.0099 13.4798ZM17.0099 11.3398C16.8299 11.3398 16.6899 11.4798 16.6899 11.6598C16.6899 11.8398 16.8299 11.9798 17.0099 11.9798C17.1899 11.9798 17.3299 11.8398 17.3299 11.6598C17.3299 11.4798 17.1899 11.3398 17.0099 11.3398Z" fill="#242424"/>
</svg>
