<svg width="24" height="24" viewBox="0 0 24 24" fill="none" xmlns="http://www.w3.org/2000/svg">
<path d="M6.51996 16.2599C6.32996 16.2599 6.13996 16.1899 5.98996 16.0399C5.69996 15.7499 5.69996 15.2699 5.98996 14.9799L9.03996 11.9299C9.32996 11.6399 9.80996 11.6399 10.1 11.9299C10.39 12.2199 10.39 12.6999 10.1 12.9899L7.04996 16.0399C6.89996 16.1799 6.70996 16.2599 6.51996 16.2599Z" fill="#242424"/>
<path d="M9.59999 16.2902C9.40999 16.2902 9.21999 16.2202 9.06999 16.0702L6.01999 13.0202C5.72999 12.7302 5.72999 12.2502 6.01999 11.9602C6.30999 11.6702 6.78999 11.6702 7.07999 11.9602L10.13 15.0102C10.42 15.3002 10.42 15.7802 10.13 16.0702C9.97999 16.2202 9.78999 16.2902 9.59999 16.2902Z" fill="#242424"/>
<path d="M13.54 15C12.99 15 12.53 14.55 12.53 14C12.53 13.45 12.97 13 13.52 13H13.54C14.09 13 14.54 13.45 14.54 14C14.54 14.55 14.1 15 13.54 15Z" fill="#242424"/>
<path d="M17.48 15C16.93 15 16.47 14.55 16.47 14C16.47 13.45 16.91 13 17.46 13H17.48C18.03 13 18.48 13.45 18.48 14C18.48 14.55 18.03 15 17.48 15Z" fill="#242424"/>
<path d="M15.5 16.97C14.95 16.97 14.5 16.53 14.5 15.98V15.96C14.5 15.41 14.95 14.96 15.5 14.96C16.05 14.96 16.5 15.41 16.5 15.96C16.5 16.51 16.06 16.97 15.5 16.97Z" fill="#242424"/>
<path d="M15.5 13.03C14.95 13.03 14.5 12.59 14.5 12.04V12.02C14.5 11.47 14.95 11.02 15.5 11.02C16.05 11.02 16.5 11.47 16.5 12.02C16.5 12.57 16.06 13.03 15.5 13.03Z" fill="#242424"/>
<path d="M15 22.75H9C3.57 22.75 1.25 20.43 1.25 15V13C1.25 7.57 3.57 5.25 9 5.25H15C20.43 5.25 22.75 7.57 22.75 13V15C22.75 20.43 20.43 22.75 15 22.75ZM9 6.75C4.39 6.75 2.75 8.39 2.75 13V15C2.75 19.61 4.39 21.25 9 21.25H15C19.61 21.25 21.25 19.61 21.25 15V13C21.25 8.39 19.61 6.75 15 6.75H9Z" fill="#242424"/>
<path d="M12.99 6.75H11.99C11.03 6.75 10.24 5.96 10.24 5C10.24 4.04 11.02 3.25 11.98 3.25C12.14 3.25 12.25 3.14 12.26 3L12.27 1.99C12.28 1.58 12.61 1.25 13.02 1.25H13.03C13.44 1.26 13.78 1.6 13.77 2.01L13.76 3.02C13.75 3.97 12.96 4.75 12.01 4.75C11.85 4.75 11.75 4.86 11.75 5C11.75 5.14 11.86 5.25 12 5.25H13C13.41 5.25 13.75 5.59 13.75 6C13.75 6.41 13.4 6.75 12.99 6.75Z" fill="#242424"/>
</svg>
