<svg width="24" height="24" viewBox="0 0 24 24" fill="none" xmlns="http://www.w3.org/2000/svg">
<path d="M15.0301 11.5202C14.7901 11.5202 14.5501 11.4002 14.4101 11.1902L11.2101 6.41018C11.1001 6.24018 11.0601 6.04018 11.1001 5.85018C11.1401 5.66018 11.2501 5.48017 11.4201 5.37017L17.0801 1.58017C17.5201 1.28017 18.0501 1.18018 18.5701 1.28018C19.0901 1.38018 19.5401 1.68017 19.8401 2.12017L21.6601 4.83017C22.2701 5.74017 22.0301 6.98018 21.1101 7.59018L15.4601 11.3802C15.3201 11.4802 15.1801 11.5202 15.0301 11.5202ZM12.8801 6.20019L15.2401 9.73019L20.2701 6.36016C20.5001 6.21016 20.5601 5.90017 20.4001 5.68017L18.5801 2.97018C18.5101 2.86018 18.4001 2.79019 18.2701 2.76019C18.1401 2.73019 18.0101 2.76017 17.9001 2.83017L12.8801 6.20019Z" fill="#242424"/>
<path d="M9.94022 14.2398C9.70022 14.2398 9.46022 14.1198 9.32022 13.9098L6.76022 10.0898C6.53022 9.74977 6.62022 9.27976 6.97022 9.04976L11.7502 5.84978C11.9202 5.73978 12.1202 5.69977 12.3102 5.73977C12.5102 5.77977 12.6802 5.88977 12.7902 6.05977L15.3502 9.87978C15.5802 10.2198 15.4902 10.6898 15.1402 10.9198L10.3602 14.1198C10.2302 14.1998 10.0802 14.2398 9.94022 14.2398ZM8.42022 9.87978L10.1402 12.4498L13.6702 10.0898L11.9502 7.50979L8.42022 9.87978Z" fill="#242424"/>
<path d="M5.2799 16.8198C4.7199 16.8198 4.1599 16.5498 3.8199 16.0398L2.68991 14.3598C2.42991 13.9698 2.3399 13.5098 2.4299 13.0498C2.5199 12.5898 2.7799 12.1998 3.1699 11.9398L7.11991 9.29976C7.45991 9.06976 7.92991 9.15979 8.15991 9.50979L10.3999 12.8498C10.6299 13.1898 10.5399 13.6598 10.1899 13.8898L6.2399 16.5298C5.9499 16.7198 5.6099 16.8198 5.2799 16.8198ZM7.32991 10.9498L4.00991 13.1698C3.89991 13.2498 3.85991 13.3998 3.93991 13.5198L5.0699 15.1998C5.1499 15.3098 5.2999 15.3498 5.4199 15.2698L8.7399 13.0498L7.32991 10.9498Z" fill="#242424"/>
<path d="M7.56019 22.7498C7.46019 22.7498 7.3502 22.7298 7.2502 22.6798C6.8702 22.5098 6.71019 22.0599 6.88019 21.6899L11.3702 11.8899C11.5402 11.5099 11.9902 11.3498 12.3602 11.5198C12.7402 11.6898 12.9002 12.1399 12.7302 12.5099L8.24019 22.3098C8.11019 22.5898 7.84019 22.7498 7.56019 22.7498Z" fill="#242424"/>
<path d="M16.44 22.7502C16.15 22.7502 15.88 22.5902 15.76 22.3102L11.32 12.5102C11.15 12.1302 11.32 11.6902 11.69 11.5202C12.06 11.3502 12.51 11.5202 12.68 11.8902L17.12 21.6902C17.29 22.0702 17.12 22.5102 16.75 22.6802C16.65 22.7302 16.55 22.7502 16.44 22.7502Z" fill="#242424"/>
</svg>
