<svg width="24" height="24" viewBox="0 0 24 24" fill="none" xmlns="http://www.w3.org/2000/svg">
<path d="M14 22.75H10C4.57 22.75 2.25 20.43 2.25 15V9C2.25 3.57 4.57 1.25 10 1.25H14C19.43 1.25 21.75 3.57 21.75 9V15C21.75 20.43 19.43 22.75 14 22.75ZM10 2.75C5.39 2.75 3.75 4.39 3.75 9V15C3.75 19.61 5.39 21.25 10 21.25H14C18.61 21.25 20.25 19.61 20.25 15V9C20.25 4.39 18.61 2.75 14 2.75H10Z" fill="#242424"/>
<path d="M15.0701 12.5401C14.8901 12.5401 14.7101 12.4701 14.5701 12.3501C13.1101 11.0501 10.8901 11.0501 9.43011 12.3501C9.27011 12.5001 9.05011 12.5601 8.82011 12.5301C8.60011 12.5001 8.41011 12.3701 8.29011 12.1801L6.11011 8.6801C5.92011 8.3701 5.98011 7.9701 6.25011 7.7201C9.53011 4.8101 14.4701 4.8101 17.7501 7.7201C18.0201 7.9601 18.0801 8.3701 17.8901 8.6801L15.7101 12.1801C15.5901 12.3701 15.4001 12.4901 15.1801 12.5301C15.1401 12.5301 15.1001 12.5401 15.0701 12.5401ZM12.0001 9.8701C13.0001 9.8701 13.9901 10.1501 14.8601 10.7001L16.2601 8.4501C13.7301 6.5701 10.2601 6.5701 7.73011 8.4501L9.13011 10.7001C10.0101 10.1401 11.0001 9.8701 12.0001 9.8701Z" fill="#242424"/>
</svg>
