<svg width="24" height="24" viewBox="0 0 24 24" fill="none" xmlns="http://www.w3.org/2000/svg">
<path d="M12 22.75C11.59 22.75 11.25 22.41 11.25 22V20C11.25 19.59 11.59 19.25 12 19.25C12.41 19.25 12.75 19.59 12.75 20V22C12.75 22.41 12.41 22.75 12 22.75Z" fill="#242424"/>
<path d="M12 18.75C11.59 18.75 11.25 18.41 11.25 18V16C11.25 15.59 11.59 15.25 12 15.25C12.41 15.25 12.75 15.59 12.75 16V18C12.75 18.41 12.41 18.75 12 18.75Z" fill="#242424"/>
<path d="M12 14.75C11.59 14.75 11.25 14.41 11.25 14V11C11.25 6.73 14.73 3.25 19 3.25H22C22.41 3.25 22.75 3.59 22.75 4C22.75 4.41 22.41 4.75 22 4.75H19C15.55 4.75 12.75 7.55 12.75 11V14C12.75 14.41 12.41 14.75 12 14.75Z" fill="#242424"/>
<path d="M12 14.75C11.59 14.75 11.25 14.41 11.25 14V11C11.25 7.55 8.45 4.75 5 4.75H2C1.59 4.75 1.25 4.41 1.25 4C1.25 3.59 1.59 3.25 2 3.25H5C9.27 3.25 12.75 6.73 12.75 11V14C12.75 14.41 12.41 14.75 12 14.75Z" fill="#242424"/>
<path d="M3.99997 6.74994C3.80997 6.74994 3.61994 6.67994 3.46994 6.52994L1.46994 4.52994C1.17994 4.23994 1.17994 3.75994 1.46994 3.46994L3.46994 1.46994C3.75994 1.17994 4.24 1.17994 4.53 1.46994C4.82 1.75994 4.82 2.23994 4.53 2.52994L3.05997 3.99994L4.53 5.46994C4.82 5.75994 4.82 6.23994 4.53 6.52994C4.38 6.67994 4.18997 6.74994 3.99997 6.74994Z" fill="#242424"/>
<path d="M20 6.74994C19.81 6.74994 19.6199 6.67994 19.4699 6.52994C19.1799 6.23994 19.1799 5.75994 19.4699 5.46994L20.94 3.99994L19.4699 2.52994C19.1799 2.23994 19.1799 1.75994 19.4699 1.46994C19.7599 1.17994 20.24 1.17994 20.53 1.46994L22.53 3.46994C22.82 3.75994 22.82 4.23994 22.53 4.52994L20.53 6.52994C20.38 6.67994 20.19 6.74994 20 6.74994Z" fill="#242424"/>
</svg>
