<svg width="24" height="24" viewBox="0 0 24 24" fill="none" xmlns="http://www.w3.org/2000/svg">
<path d="M12 21.7498C10.53 21.7498 9.18997 20.9398 8.50997 19.6398L2.40997 8.04981C1.58997 6.49981 1.85997 4.69981 3.07997 3.44981C4.29997 2.19981 6.09997 1.89981 7.65997 2.67981L10.9 4.29981C11.58 4.63981 12.4 4.63981 13.09 4.29981L16.33 2.67981C17.9 1.89981 19.7 2.19981 20.92 3.44981C22.14 4.69981 22.41 6.49981 21.59 8.04981L15.49 19.6398C14.81 20.9398 13.47 21.7498 12 21.7498ZM5.87997 3.74981C5.16997 3.74981 4.54997 4.08981 4.14997 4.49981C3.54997 5.11981 3.11997 6.18981 3.72997 7.34981L9.82997 18.9398C10.26 19.7598 11.07 20.2498 11.99 20.2498C12.91 20.2498 13.72 19.7598 14.15 18.9398L20.25 7.34981C20.86 6.18981 20.44 5.10981 19.83 4.49981C19.23 3.88981 18.17 3.43981 16.99 4.01981L13.75 5.63981C12.64 6.18981 11.33 6.18981 10.22 5.63981L6.98997 4.01981C6.60997 3.82981 6.22997 3.74981 5.87997 3.74981Z" fill="#242424"/>
</svg>
