<svg width="24" height="24" viewBox="0 0 24 24" fill="none" xmlns="http://www.w3.org/2000/svg">
<path d="M6.19005 22.0598C5.19005 22.0598 4.22005 21.6698 3.45005 20.9198C2.20005 19.6998 1.90005 17.8998 2.68005 16.3398L4.30005 13.0998C4.64005 12.4198 4.64005 11.5998 4.30005 10.9098L2.68005 7.65985C1.90005 6.09985 2.20005 4.29985 3.45005 3.07985C4.70005 1.85985 6.50005 1.58985 8.05005 2.40985L19.6401 8.50985C20.9401 9.18985 21.7501 10.5298 21.7501 11.9998C21.7501 13.4698 20.9401 14.8098 19.6401 15.4898L8.05005 21.5898C7.45005 21.9098 6.82005 22.0598 6.19005 22.0598ZM6.20005 3.43985C5.51005 3.43985 4.91005 3.75985 4.50005 4.15985C3.88005 4.75985 3.44005 5.82985 4.02005 6.99985L5.64005 10.2398C6.19005 11.3498 6.19005 12.6598 5.64005 13.7698L4.02005 17.0098C3.43005 18.1798 3.88005 19.2498 4.50005 19.8498C5.12005 20.4498 6.19005 20.8798 7.35005 20.2698L18.9401 14.1698C19.7601 13.7398 20.2501 12.9298 20.2501 12.0098C20.2501 11.0898 19.7601 10.2798 18.9401 9.84985L7.35005 3.72985C6.95005 3.51985 6.56005 3.43985 6.20005 3.43985Z" fill="#242424"/>
</svg>
