<svg width="24" height="24" viewBox="0 0 24 24" fill="none" xmlns="http://www.w3.org/2000/svg">
<path d="M18.12 21.75C17.52 21.75 16.91 21.61 16.33 21.32L13.09 19.7C12.41 19.36 11.59 19.36 10.9 19.7L7.65997 21.32C6.09997 22.1 4.29997 21.8 3.07997 20.55C1.85997 19.3 1.58997 17.5 2.40997 15.95L8.50997 4.36C9.18997 3.06 10.53 2.25 12 2.25C13.47 2.25 14.81 3.06 15.49 4.36L21.59 15.95C22.4 17.5 22.14 19.3 20.92 20.55C20.15 21.34 19.15 21.75 18.12 21.75ZM12 17.94C12.61 17.94 13.21 18.08 13.76 18.35L17 19.97C18.17 20.56 19.24 20.11 19.84 19.49C20.44 18.87 20.87 17.8 20.26 16.64L14.16 5.05C13.73 4.24 12.92 3.75 12 3.75C11.08 3.75 10.27 4.24 9.83997 5.06L3.73997 16.65C3.12997 17.81 3.54997 18.89 4.15997 19.5C4.76997 20.11 5.82997 20.56 6.99997 19.98L10.24 18.36C10.79 18.08 11.39 17.94 12 17.94Z" fill="#242424"/>
</svg>
