<svg width="24" height="24" viewBox="0 0 24 24" fill="none" xmlns="http://www.w3.org/2000/svg">
<path d="M10.42 13.7502C10.29 13.7502 10.16 13.7202 10.04 13.6502C8.86 12.9602 8.13 11.6802 8.13 10.3202C8.13 8.1902 9.86 6.4502 12 6.4502C13.37 6.4502 14.65 7.1802 15.34 8.3702C15.55 8.7302 15.43 9.1902 15.07 9.4002C14.71 9.6102 14.25 9.4902 14.04 9.1302C13.62 8.3902 12.84 7.9402 12 7.9402C10.7 7.9402 9.63 9.0002 9.63 10.3102C9.63 11.1502 10.08 11.9302 10.8 12.3502C11.16 12.5602 11.28 13.0202 11.07 13.3802C10.93 13.6102 10.68 13.7502 10.42 13.7502Z" fill="#242424"/>
<path d="M5.98999 18.5601C5.75999 18.5601 5.52999 18.4501 5.37999 18.2501C2.97999 14.9601 2.13999 11.6201 2.88999 8.32007C3.66999 4.89007 6.18999 2.35007 9.62999 1.52007C13.23 0.650071 17.01 1.82007 19.24 4.49007C19.51 4.81007 19.46 5.28007 19.15 5.55007C18.83 5.82007 18.36 5.77007 18.09 5.45007C16.22 3.21007 13.04 2.24007 9.97999 2.97007C7.05999 3.67007 5.00999 5.74007 4.34999 8.64007C3.69999 11.5001 4.44999 14.4301 6.58999 17.3501C6.82999 17.6801 6.75999 18.1501 6.42999 18.4001C6.29999 18.5101 6.13999 18.5601 5.98999 18.5601Z" fill="#242424"/>
<path d="M11.9999 22.7598C10.5199 22.7598 9.02994 22.1998 7.86994 21.0898C7.56994 20.7998 7.55994 20.3298 7.84994 20.0298C8.13994 19.7298 8.60994 19.7198 8.90994 20.0098C10.6399 21.6798 13.3499 21.6798 15.0799 20.0098C17.7499 17.4398 20.7099 13.3798 19.6499 8.66977C19.5599 8.26977 19.8099 7.85977 20.2199 7.76977C20.6199 7.67977 21.0299 7.92977 21.1199 8.33977C22.3399 13.7298 19.0799 18.2498 16.1299 21.0898C14.9699 22.1998 13.4799 22.7598 11.9999 22.7598Z" fill="#242424"/>
<path d="M1.99994 22.7499C1.80994 22.7499 1.61994 22.6799 1.46994 22.5299C1.17994 22.2399 1.17994 21.7599 1.46994 21.4699L21.4699 1.46994C21.7599 1.17994 22.2399 1.17994 22.5299 1.46994C22.8199 1.75994 22.8199 2.23994 22.5299 2.52994L2.52994 22.5299C2.37994 22.6799 2.18994 22.7499 1.99994 22.7499Z" fill="#242424"/>
</svg>
