<svg width="24" height="24" viewBox="0 0 24 24" fill="none" xmlns="http://www.w3.org/2000/svg">
<path d="M12.0001 22.76C10.5201 22.76 9.03005 22.2 7.87005 21.09C4.92005 18.25 1.66005 13.72 2.89005 8.33C4.00005 3.44 8.27005 1.25 12.0001 1.25C12.0001 1.25 12.0001 1.25 12.0101 1.25C15.7401 1.25 20.0101 3.44 21.1201 8.34C22.3401 13.73 19.0801 18.25 16.1301 21.09C14.9701 22.2 13.4801 22.76 12.0001 22.76ZM12.0001 2.75C9.09005 2.75 5.35005 4.3 4.36005 8.66C3.28005 13.37 6.24005 17.43 8.92005 20C10.6501 21.67 13.3601 21.67 15.0901 20C17.7601 17.43 20.7201 13.37 19.6601 8.66C18.6601 4.3 14.9101 2.75 12.0001 2.75Z" fill="#242424"/>
<path d="M14 13.7099C13.81 13.7099 13.62 13.6399 13.47 13.4899L9.50998 9.52994C9.21998 9.23994 9.21998 8.75994 9.50998 8.46994C9.79998 8.17994 10.28 8.17994 10.57 8.46994L14.53 12.4299C14.82 12.7199 14.82 13.1999 14.53 13.4899C14.38 13.6299 14.19 13.7099 14 13.7099Z" fill="#242424"/>
<path d="M9.99994 13.75C9.80994 13.75 9.61994 13.68 9.46994 13.53C9.17994 13.24 9.17994 12.76 9.46994 12.47L13.4299 8.50998C13.7199 8.21998 14.1999 8.21998 14.4899 8.50998C14.7799 8.79998 14.7799 9.27998 14.4899 9.56998L10.5299 13.53C10.3799 13.68 10.1899 13.75 9.99994 13.75Z" fill="#242424"/>
</svg>
