<svg width="24" height="24" viewBox="0 0 24 24" fill="none" xmlns="http://www.w3.org/2000/svg">
<path d="M12.0001 22.76C10.5201 22.76 9.03005 22.2 7.87005 21.09C4.92005 18.25 1.66005 13.72 2.89005 8.33C4.00005 3.44 8.27005 1.25 12.0001 1.25C12.0001 1.25 12.0001 1.25 12.0101 1.25C15.7401 1.25 20.0101 3.44 21.1201 8.34C22.3401 13.73 19.0801 18.25 16.1301 21.09C14.9701 22.2 13.4801 22.76 12.0001 22.76ZM12.0001 2.75C9.09005 2.75 5.35005 4.3 4.36005 8.66C3.28005 13.37 6.24005 17.43 8.92005 20C10.6501 21.67 13.3601 21.67 15.0901 20C17.7601 17.43 20.7201 13.37 19.6601 8.66C18.6601 4.3 14.9101 2.75 12.0001 2.75Z" fill="#242424"/>
<path d="M10.7499 13.7499C10.5599 13.7499 10.3699 13.6799 10.2199 13.5299L8.71994 12.0299C8.42994 11.7399 8.42994 11.2599 8.71994 10.9699C9.00994 10.6799 9.48994 10.6799 9.77994 10.9699L10.7499 11.9399L14.2199 8.46994C14.5099 8.17994 14.9899 8.17994 15.2799 8.46994C15.5699 8.75994 15.5699 9.23994 15.2799 9.52994L11.2799 13.5299C11.1299 13.6799 10.9399 13.7499 10.7499 13.7499Z" fill="#242424"/>
</svg>
