<svg width="24" height="24" viewBox="0 0 24 24" fill="none" xmlns="http://www.w3.org/2000/svg">
<path d="M5.47003 10.75C4.76003 10.75 4.04003 10.49 3.49003 9.96C1.65003 8.21 0.910033 6.3 1.34003 4.43C1.85003 2.23 3.78003 1.25 5.47003 1.25C7.16003 1.25 9.10003 2.24 9.60003 4.43C10.03 6.3 9.28003 8.21 7.45003 9.96C6.90003 10.49 6.19003 10.75 5.47003 10.75ZM2.80003 4.77C2.42003 6.44 3.53003 7.92 4.53003 8.87C5.06003 9.38 5.89003 9.37 6.42003 8.87C7.42003 7.92 8.53003 6.44 8.14003 4.76C7.80003 3.28 6.49003 2.75 5.48003 2.75C4.46003 2.75 3.15003 3.28 2.80003 4.77Z" fill="#242424"/>
<path d="M5.51001 6.2002C4.96001 6.2002 4.51001 5.7502 4.51001 5.2002C4.51001 4.6502 4.95001 4.2002 5.51001 4.2002H5.52001C6.07001 4.2002 6.52001 4.6502 6.52001 5.2002C6.52001 5.7502 6.07001 6.2002 5.51001 6.2002Z" fill="#242424"/>
<path d="M18.49 22.7502C17.78 22.7502 17.06 22.4902 16.5 21.9602C14.65 20.2102 13.9 18.3002 14.34 16.4202C14.85 14.2302 16.79 13.2402 18.49 13.2402C20.19 13.2402 22.13 14.2302 22.64 16.4202C23.07 18.2902 22.32 20.2102 20.47 21.9502C19.92 22.4902 19.21 22.7502 18.49 22.7502ZM18.49 14.7502C17.47 14.7502 16.15 15.2802 15.8 16.7702C15.41 18.4402 16.53 19.9302 17.53 20.8802C18.06 21.3902 18.9 21.3902 19.44 20.8802C20.44 19.9302 21.56 18.4502 21.17 16.7802C20.84 15.2802 19.52 14.7502 18.49 14.7502Z" fill="#242424"/>
<path d="M18.53 18.2002C17.98 18.2002 17.53 17.7502 17.53 17.2002C17.53 16.6502 17.97 16.2002 18.53 16.2002H18.54C19.09 16.2002 19.54 16.6502 19.54 17.2002C19.54 17.7502 19.08 18.2002 18.53 18.2002Z" fill="#242424"/>
<path d="M11.9999 19.75H9.31994C8.15994 19.75 7.14994 19.05 6.74994 17.97C6.33994 16.89 6.63994 15.7 7.50994 14.93L15.4999 7.94C15.9799 7.52 15.9899 6.95 15.8499 6.56C15.6999 6.17 15.3199 5.75 14.6799 5.75H11.9999C11.5899 5.75 11.2499 5.41 11.2499 5C11.2499 4.59 11.5899 4.25 11.9999 4.25H14.6799C15.8399 4.25 16.8499 4.95 17.2499 6.03C17.6599 7.11 17.3599 8.3 16.4899 9.07L8.49994 16.06C8.01994 16.48 8.00994 17.05 8.14994 17.44C8.29994 17.83 8.67994 18.25 9.31994 18.25H11.9999C12.4099 18.25 12.7499 18.59 12.7499 19C12.7499 19.41 12.4099 19.75 11.9999 19.75Z" fill="#242424"/>
<path d="M11.9999 19.75H9.31994C8.15994 19.75 7.14994 19.05 6.74994 17.97C6.33994 16.89 6.63994 15.7 7.50994 14.93L15.4999 7.94C15.9799 7.52 15.9899 6.95 15.8499 6.56C15.6999 6.17 15.3199 5.75 14.6799 5.75H11.9999C11.5899 5.75 11.2499 5.41 11.2499 5C11.2499 4.59 11.5899 4.25 11.9999 4.25H14.6799C15.8399 4.25 16.8499 4.95 17.2499 6.03C17.6599 7.11 17.3599 8.3 16.4899 9.07L8.49994 16.06C8.01994 16.48 8.00994 17.05 8.14994 17.44C8.29994 17.83 8.67994 18.25 9.31994 18.25H11.9999C12.4099 18.25 12.7499 18.59 12.7499 19C12.7499 19.41 12.4099 19.75 11.9999 19.75Z" fill="#242424"/>
</svg>
