<svg width="24" height="24" viewBox="0 0 24 24" fill="none" xmlns="http://www.w3.org/2000/svg">
<path d="M20.5 15.25C20.09 15.25 19.75 14.91 19.75 14.5C19.75 14.09 20.09 13.75 20.5 13.75C21.09 13.75 21.22 13.66 21.23 13.66C21.25 13.6 21.25 13.25 21.25 13V11C21.25 10.75 21.25 10.41 21.21 10.32C21.2 10.33 21.05 10.25 20.5 10.25C20.09 10.25 19.75 9.91 19.75 9.5C19.75 9.09 20.09 8.75 20.5 8.75C22.58 8.75 22.75 9.77 22.75 11V13C22.75 14.23 22.58 15.25 20.5 15.25Z" fill="#242424"/>
<path d="M6.38007 14.7501C6.32007 14.7501 6.26007 14.7401 6.20007 14.7301C5.80007 14.6301 5.55007 14.2201 5.65007 13.8201C5.95007 12.6301 5.95007 11.3701 5.65007 10.1801C5.55007 9.7801 5.79007 9.3701 6.20007 9.2701C6.60007 9.1701 7.00007 9.4201 7.10007 9.8201C7.46007 11.2501 7.46007 12.7601 7.10007 14.1801C7.02007 14.5201 6.71007 14.7501 6.38007 14.7501Z" fill="#242424"/>
<path d="M9.88007 14.7502C9.82007 14.7502 9.76007 14.7402 9.70007 14.7302C9.30007 14.6302 9.05007 14.2202 9.15007 13.8202C9.45007 12.6302 9.45007 11.3702 9.15007 10.1802C9.05007 9.78019 9.29007 9.37019 9.70007 9.27019C10.1001 9.17019 10.5101 9.41019 10.6101 9.82019C10.9701 11.2502 10.9701 12.7602 10.6101 14.1802C10.5201 14.5202 10.2101 14.7502 9.88007 14.7502Z" fill="#242424"/>
<path d="M13.3801 14.7502C13.3201 14.7502 13.2601 14.7402 13.2001 14.7302C12.8001 14.6302 12.5501 14.2202 12.6501 13.8202C12.9501 12.6302 12.9501 11.3702 12.6501 10.1802C12.5501 9.78019 12.7901 9.37019 13.2001 9.27019C13.6001 9.17019 14.0101 9.41019 14.1101 9.82019C14.4701 11.2502 14.4701 12.7602 14.1101 14.1802C14.0201 14.5202 13.7101 14.7502 13.3801 14.7502Z" fill="#242424"/>
<path d="M13 19.75H7C2.59 19.75 1.25 18.41 1.25 14V10C1.25 5.59 2.59 4.25 7 4.25H13C17.41 4.25 18.75 5.59 18.75 10V14C18.75 18.41 17.41 19.75 13 19.75ZM7 5.75C3.43 5.75 2.75 6.43 2.75 10V14C2.75 17.57 3.43 18.25 7 18.25H13C16.57 18.25 17.25 17.57 17.25 14V10C17.25 6.43 16.57 5.75 13 5.75H7Z" fill="#242424"/>
</svg>
