<svg width="24" height="24" viewBox="0 0 24 24" fill="none" xmlns="http://www.w3.org/2000/svg">
<path d="M20.5 15.25C20.09 15.25 19.75 14.91 19.75 14.5C19.75 14.09 20.09 13.75 20.5 13.75C21.09 13.75 21.22 13.66 21.23 13.66C21.25 13.6 21.25 13.25 21.25 13V11C21.25 10.75 21.25 10.41 21.21 10.32C21.2 10.33 21.05 10.25 20.5 10.25C20.09 10.25 19.75 9.91 19.75 9.5C19.75 9.09 20.09 8.75 20.5 8.75C22.58 8.75 22.75 9.77 22.75 11V13C22.75 14.23 22.58 15.25 20.5 15.25Z" fill="#242424"/>
<path d="M3.99991 22.2499C3.85991 22.2499 3.71991 22.2099 3.59991 22.1299C3.24991 21.9099 3.13991 21.4499 3.36991 21.0999L15.3699 2.09987C15.5899 1.74987 16.0599 1.64987 16.3999 1.86987C16.7499 2.08987 16.8599 2.54987 16.6299 2.89987L4.62991 21.8999C4.48991 22.1299 4.24991 22.2499 3.99991 22.2499Z" fill="#242424"/>
<path d="M5.39 19.67C5.36 19.67 5.33 19.67 5.31 19.67C1.91 19.29 1.25 17.31 1.25 14V10C1.25 5.59 2.59 4.25 7 4.25C7.41 4.25 7.75 4.59 7.75 5C7.75 5.41 7.41 5.75 7 5.75C3.43 5.75 2.75 6.43 2.75 10V14C2.75 17.32 3.43 17.95 5.47 18.18C5.88 18.23 6.18 18.6 6.13 19.01C6.09 19.39 5.76 19.67 5.39 19.67Z" fill="#242424"/>
<path d="M13 19.7502C12.59 19.7502 12.25 19.4102 12.25 19.0002C12.25 18.5902 12.59 18.2502 13 18.2502C16.57 18.2502 17.25 17.5702 17.25 14.0002V10.0002C17.25 6.6902 16.57 6.0502 14.54 5.8202C14.13 5.7702 13.83 5.4002 13.88 4.9902C13.93 4.5802 14.29 4.2702 14.71 4.3302C18.09 4.7102 18.75 6.7002 18.75 10.0002V14.0002C18.75 18.4102 17.41 19.7502 13 19.7502Z" fill="#242424"/>
</svg>
