<svg width="24" height="24" viewBox="0 0 24 24" fill="none" xmlns="http://www.w3.org/2000/svg">
<path d="M12 22.75C6.07 22.75 1.25 17.93 1.25 12C1.25 6.07 6.07 1.25 12 1.25C17.93 1.25 22.75 6.07 22.75 12C22.75 17.93 17.93 22.75 12 22.75ZM12 2.75C6.9 2.75 2.75 6.9 2.75 12C2.75 17.1 6.9 21.25 12 21.25C17.1 21.25 21.25 17.1 21.25 12C21.25 6.9 17.1 2.75 12 2.75Z" fill="#242424"/>
<path d="M12 16.75C9.38 16.75 7.25 14.62 7.25 12C7.25 9.38 9.38 7.25 12 7.25C14.62 7.25 16.75 9.38 16.75 12C16.75 14.62 14.62 16.75 12 16.75ZM12 8.75C10.21 8.75 8.75 10.21 8.75 12C8.75 13.79 10.21 15.25 12 15.25C13.79 15.25 15.25 13.79 15.25 12C15.25 10.21 13.79 8.75 12 8.75Z" fill="#242424"/>
<path d="M21.17 8.74994C21.12 8.74994 21.06 8.73994 21.01 8.72994C18.07 8.08994 15.1 8.08994 12.16 8.72994C11.75 8.81994 11.36 8.55994 11.27 8.15994C11.18 7.74994 11.44 7.35994 11.84 7.26994C14.99 6.57994 18.18 6.57994 21.33 7.26994C21.73 7.35994 21.99 7.75994 21.9 8.15994C21.83 8.50994 21.52 8.74994 21.17 8.74994Z" fill="#242424"/>
<path d="M8.54001 14.7498C8.33001 14.7498 8.12001 14.6598 7.97001 14.4898C5.89001 12.0998 4.31001 9.36982 3.26001 6.36982L3.95001 6.05982L4.66001 5.81982L4.68001 5.87982C5.66001 8.68982 7.15001 11.2598 9.11001 13.5098C9.38001 13.8198 9.35001 14.2998 9.04001 14.5698C8.89001 14.6898 8.71001 14.7498 8.54001 14.7498Z" fill="#242424"/>
<path d="M10.8801 22.69C10.7001 22.69 10.5201 22.63 10.3801 22.5C10.0701 22.22 10.0501 21.75 10.3301 21.44C12.3301 19.24 13.8101 16.69 14.7301 13.86C14.8601 13.47 15.3001 13.21 15.6901 13.34C16.0801 13.47 16.3101 13.85 16.1901 14.24C15.1801 17.36 13.5901 20.1 11.4501 22.46C11.2901 22.61 11.0801 22.69 10.8801 22.69Z" fill="#242424"/>
</svg>
