<svg width="24" height="24" viewBox="0 0 24 24" fill="none" xmlns="http://www.w3.org/2000/svg">
<path d="M12.1499 19.35C11.7399 19.35 11.3999 19.01 11.3999 18.6V16.5C11.3999 16.09 11.7399 15.75 12.1499 15.75C12.5599 15.75 12.8999 16.09 12.8999 16.5V18.6C12.8999 19.01 12.5599 19.35 12.1499 19.35Z" fill="#242424"/>
<path d="M17.8999 22.75H6.3999V21C6.3999 19.48 7.6299 18.25 9.1499 18.25H15.1499C16.6699 18.25 17.8999 19.48 17.8999 21V22.75ZM7.8999 21.25H16.3999V21C16.3999 20.31 15.8399 19.75 15.1499 19.75H9.1499C8.4599 19.75 7.8999 20.31 7.8999 21V21.25Z" fill="#242424"/>
<path d="M18.1499 22.75H6.1499C5.7399 22.75 5.3999 22.41 5.3999 22C5.3999 21.59 5.7399 21.25 6.1499 21.25H18.1499C18.5599 21.25 18.8999 21.59 18.8999 22C18.8999 22.41 18.5599 22.75 18.1499 22.75Z" fill="#242424"/>
<path d="M18.43 12.4401C18.22 12.4401 18.01 12.3501 17.86 12.1801C17.67 11.9601 17.62 11.6501 17.74 11.3901C18.08 10.6101 18.25 9.78006 18.25 8.91006V5.91006C18.25 5.56006 18.19 5.22006 18.07 4.86006C18.06 4.83006 18.05 4.79006 18.04 4.75006C18.01 4.60006 18 4.45006 18 4.31006C18 3.90006 18.34 3.56006 18.75 3.56006H19.35C21.14 3.56006 22.6 5.06006 22.6 6.91006C22.6 8.44006 21.97 9.95006 20.88 11.0401C20.86 11.0601 20.8 11.1101 20.79 11.1201C20.2 11.6101 19.53 12.1601 18.63 12.4101C18.56 12.4301 18.5 12.4401 18.43 12.4401ZM19.68 5.09006C19.73 5.36006 19.75 5.64006 19.75 5.91006V8.91006C19.75 9.32006 19.72 9.71006 19.66 10.1101C19.72 10.0601 19.77 10.0201 19.83 9.97006C20.63 9.17006 21.1 8.05006 21.1 6.91006C21.1 6.01006 20.49 5.25006 19.68 5.09006Z" fill="#242424"/>
<path d="M5.5799 12.4001C5.4999 12.4001 5.4299 12.3901 5.3499 12.3601C4.5299 12.1001 3.7599 11.6201 3.1199 10.9801C1.9699 9.7101 1.3999 8.3201 1.3999 6.8501C1.3999 5.0301 2.8299 3.6001 4.6499 3.6001H5.2999C5.5499 3.6001 5.7899 3.7301 5.9299 3.9401C6.0699 4.1501 6.0899 4.4201 5.9899 4.6501C5.8299 5.0101 5.7499 5.4201 5.7499 5.8501V8.8501C5.7499 9.7101 5.9199 10.5501 6.2699 11.3501C6.3899 11.6201 6.3299 11.9301 6.1399 12.1501C5.9899 12.3101 5.7899 12.4001 5.5799 12.4001ZM4.2999 5.1301C3.4899 5.2901 2.8999 5.9901 2.8999 6.8501C2.8999 7.9401 3.3399 8.9901 4.2099 9.9501C4.2499 10.0001 4.2999 10.0401 4.3499 10.0801C4.2799 9.6701 4.2499 9.2601 4.2499 8.8501V5.8501C4.2499 5.6101 4.2699 5.3701 4.2999 5.1301Z" fill="#242424"/>
<path d="M12 16.75C7.73 16.75 4.25 13.27 4.25 9V6C4.25 3.38 6.38 1.25 9 1.25H15C17.62 1.25 19.75 3.38 19.75 6V9C19.75 13.27 16.27 16.75 12 16.75ZM9 2.75C7.21 2.75 5.75 4.21 5.75 6V9C5.75 12.45 8.55 15.25 12 15.25C15.45 15.25 18.25 12.45 18.25 9V6C18.25 4.21 16.79 2.75 15 2.75H9Z" fill="#242424"/>
</svg>
