<svg width="24" height="24" viewBox="0 0 24 24" fill="none" xmlns="http://www.w3.org/2000/svg">
<path d="M12 14.75C11.59 14.75 11.25 14.41 11.25 14V9C11.25 8.59 11.59 8.25 12 8.25C12.41 8.25 12.75 8.59 12.75 9V14C12.75 14.41 12.41 14.75 12 14.75Z" fill="#242424"/>
<path d="M12 18.0001C11.94 18.0001 11.87 17.9901 11.8 17.9801C11.74 17.9701 11.68 17.9501 11.62 17.9201C11.56 17.9001 11.5 17.8701 11.44 17.8301C11.39 17.7901 11.34 17.7501 11.29 17.7101C11.11 17.5201 11 17.2601 11 17.0001C11 16.7401 11.11 16.4801 11.29 16.2901C11.34 16.2501 11.39 16.2101 11.44 16.1701C11.5 16.1301 11.56 16.1001 11.62 16.0801C11.68 16.0501 11.74 16.0301 11.8 16.0201C11.93 15.9901 12.07 15.9901 12.19 16.0201C12.26 16.0301 12.32 16.0501 12.38 16.0801C12.44 16.1001 12.5 16.1301 12.56 16.1701C12.61 16.2101 12.66 16.2501 12.71 16.2901C12.89 16.4801 13 16.7401 13 17.0001C13 17.2601 12.89 17.5201 12.71 17.7101C12.66 17.7501 12.61 17.7901 12.56 17.8301C12.5 17.8701 12.44 17.9001 12.38 17.9201C12.32 17.9501 12.26 17.9701 12.19 17.9801C12.13 17.9901 12.06 18.0001 12 18.0001Z" fill="#242424"/>
<path d="M18.06 22.1598H5.93998C3.98998 22.1598 2.49998 21.4498 1.73998 20.1698C0.989976 18.8898 1.08998 17.2398 2.03998 15.5298L8.09998 4.62984C9.09998 2.82984 10.48 1.83984 12 1.83984C13.52 1.83984 14.9 2.82984 15.9 4.62984L21.96 15.5398C22.91 17.2498 23.02 18.8898 22.26 20.1798C21.5 21.4498 20.01 22.1598 18.06 22.1598ZM12 3.33984C11.06 3.33984 10.14 4.05984 9.40998 5.35984L3.35998 16.2698C2.67998 17.4898 2.56998 18.6098 3.03998 19.4198C3.50998 20.2298 4.54998 20.6698 5.94998 20.6698H18.07C19.47 20.6698 20.5 20.2298 20.98 19.4198C21.46 18.6098 21.34 17.4998 20.66 16.2698L14.59 5.35984C13.86 4.05984 12.94 3.33984 12 3.33984Z" fill="#242424"/>
</svg>
