<svg width="24" height="24" viewBox="0 0 24 24" fill="none" xmlns="http://www.w3.org/2000/svg">
<path d="M11.9998 22.6002C10.8898 22.6002 9.85982 22.1302 9.08982 21.2902L2.22982 13.7502C1.25982 12.6902 0.959818 10.8202 1.53982 9.51015L4.09983 3.75016C4.79983 2.18016 5.96983 1.41016 7.68983 1.41016H16.2798V2.16016V1.41016C17.9998 1.41016 19.1698 2.17016 19.8698 3.74016L22.4298 9.50016C23.0098 10.8102 22.7198 12.6802 21.7498 13.7402L14.8998 21.2902C14.1498 22.1302 13.1098 22.6002 11.9998 22.6002ZM16.2898 2.90016H7.69982C6.38982 2.90016 5.85982 3.48015 5.47982 4.35015L2.91982 10.1102C2.57982 10.8802 2.77982 12.1102 3.33982 12.7302L10.1998 20.2702C10.6798 20.8002 11.3198 21.0902 11.9998 21.0902C12.6798 21.0902 13.3198 20.8002 13.7998 20.2702L20.6498 12.7202C21.2198 12.0902 21.4198 10.8702 21.0698 10.1002L18.5098 4.34016C18.1298 3.48016 17.5998 2.90016 16.2898 2.90016Z" fill="#242424"/>
<path d="M3.5 8.75023C3.09 8.75023 2.75 8.41023 2.75 8.00023C2.75 7.59023 3.09 7.25023 3.5 7.25023L20.5 7.24023C20.91 7.24023 21.25 7.58023 21.25 7.99023C21.25 8.40023 20.91 8.74023 20.5 8.74023L3.5 8.75023Z" fill="#242424"/>
</svg>
