<svg width="24" height="24" viewBox="0 0 24 24" fill="none" xmlns="http://www.w3.org/2000/svg">
<path d="M4.90999 22.8198C3.81999 22.8198 2.88999 22.4698 2.20999 21.7898C1.23999 20.8198 0.939994 19.3398 1.36999 17.6198L3.84999 7.68977C4.27999 5.96977 5.95999 4.29977 7.66999 3.86977L17.6 1.38977C19.32 0.959769 20.8 1.25977 21.77 2.22977C22.74 3.19977 23.04 4.67977 22.61 6.39977L20.13 16.3298C19.7 18.0498 18.02 19.7198 16.31 20.1498L6.37999 22.6298C5.86999 22.7498 5.37999 22.8198 4.90999 22.8198ZM17.98 2.82977L8.04999 5.31977C6.87999 5.60977 5.60999 6.87977 5.30999 8.04977L2.82999 17.9798C2.52999 19.1698 2.68999 20.1398 3.26999 20.7298C3.84999 21.3098 4.82999 21.4698 6.01999 21.1698L15.95 18.6898C17.12 18.3998 18.39 17.1198 18.68 15.9598L21.16 6.02977C21.46 4.83977 21.3 3.86977 20.72 3.27977C20.14 2.68977 19.17 2.53977 17.98 2.82977Z" fill="#242424"/>
<path d="M12 16.25C9.66 16.25 7.75 14.34 7.75 12C7.75 9.66 9.66 7.75 12 7.75C14.34 7.75 16.25 9.66 16.25 12C16.25 14.34 14.34 16.25 12 16.25ZM12 9.25C10.48 9.25 9.25 10.48 9.25 12C9.25 13.52 10.48 14.75 12 14.75C13.52 14.75 14.75 13.52 14.75 12C14.75 10.48 13.52 9.25 12 9.25Z" fill="#242424"/>
</svg>
