<svg width="24" height="24" viewBox="0 0 24 24" fill="none" xmlns="http://www.w3.org/2000/svg">
<path d="M10.9298 22.75C10.4498 22.75 9.96985 22.63 9.52985 22.39C8.63985 21.89 8.1098 21 8.1098 19.99V14.64C8.1098 14.13 7.77979 13.38 7.46979 12.99L3.6698 9.00003C3.0398 8.37003 2.5498 7.27002 2.5498 6.46002V4.14005C2.5498 2.53005 3.76982 1.27002 5.31982 1.27002H18.6598C20.1898 1.27002 21.4298 2.51004 21.4298 4.04004V6.26004C21.4298 7.31004 20.7998 8.52002 20.1998 9.11002C19.9098 9.40002 19.4298 9.40002 19.1398 9.11002C18.8498 8.82002 18.8498 8.34002 19.1398 8.05002C19.5098 7.68002 19.9298 6.85004 19.9298 6.26004V4.04004C19.9298 3.34004 19.3598 2.77002 18.6598 2.77002H5.31982C4.60982 2.77002 4.0498 3.37005 4.0498 4.14005V6.46002C4.0498 6.83002 4.34981 7.56004 4.73981 7.95004L8.58984 12C9.09984 12.63 9.59979 13.69 9.59979 14.64V19.99C9.59979 20.65 10.0498 20.97 10.2498 21.08C10.6798 21.32 11.1898 21.31 11.5898 21.07L12.9898 20.17C13.3398 19.95 13.7998 20.05 14.0298 20.4C14.2498 20.75 14.1498 21.21 13.8098 21.44L12.3998 22.35C11.9498 22.61 11.4398 22.75 10.9298 22.75Z" fill="#242424"/>
<path d="M13.6902 18.8898C13.3102 18.8898 12.9502 18.7497 12.6902 18.4897C12.3802 18.1797 12.2402 17.7297 12.3102 17.2597L12.5002 15.9097C12.5502 15.5597 12.7602 15.1497 13.0102 14.8997L16.5502 11.3597C17.0302 10.8797 17.5002 10.6297 18.0102 10.5797C18.6302 10.5197 19.2502 10.7797 19.8302 11.3597C20.4102 11.9397 20.6702 12.5497 20.6102 13.1797C20.5602 13.6797 20.3002 14.1598 19.8302 14.6398L16.2902 18.1797C16.0402 18.4297 15.6202 18.6397 15.2702 18.6897L13.9202 18.8797C13.8402 18.8897 13.7702 18.8898 13.6902 18.8898ZM18.1802 12.0597C18.1702 12.0597 18.1602 12.0597 18.1502 12.0597C18.0102 12.0697 17.8202 12.1897 17.6102 12.4097L14.0702 15.9498C14.0402 15.9798 13.9902 16.0797 13.9902 16.1197L13.8102 17.3697L15.0602 17.1897C15.1002 17.1797 15.2002 17.1297 15.2302 17.0997L18.7702 13.5597C18.9802 13.3497 19.1102 13.1597 19.1202 13.0197C19.1402 12.8197 18.9402 12.5797 18.7702 12.4097C18.6102 12.2497 18.3802 12.0597 18.1802 12.0597Z" fill="#242424"/>
<path d="M18.7897 15.3598C18.7197 15.3598 18.6498 15.3498 18.5898 15.3298C17.2698 14.9598 16.2197 13.9098 15.8497 12.5898C15.7397 12.1898 15.9697 11.7798 16.3697 11.6598C16.7697 11.5498 17.1797 11.7798 17.2897 12.1798C17.5197 12.9998 18.1697 13.6498 18.9897 13.8798C19.3897 13.9898 19.6198 14.4098 19.5098 14.8098C19.4198 15.1498 19.1197 15.3598 18.7897 15.3598Z" fill="#242424"/>
</svg>
