<svg width="24" height="24" viewBox="0 0 24 24" fill="none" xmlns="http://www.w3.org/2000/svg">
<path d="M10.9298 22.7498C10.4498 22.7498 9.9698 22.6298 9.5298 22.3798C8.6398 21.8798 8.1098 20.9897 8.1098 19.9797V14.6298C8.1098 14.1198 7.7798 13.3697 7.4698 12.9797L3.6698 8.98975C3.0398 8.35975 2.5498 7.25977 2.5498 6.44977V4.12976C2.5498 2.51976 3.7698 1.25977 5.3198 1.25977H18.6498C20.1798 1.25977 21.4198 2.49979 21.4198 4.02979V6.24976C21.4198 7.29976 20.7898 8.50973 20.1898 9.09973C19.8998 9.38973 19.4198 9.38973 19.1298 9.09973C18.8398 8.80973 18.8398 8.32973 19.1298 8.03973C19.4998 7.66973 19.9198 6.83976 19.9198 6.24976V4.02979C19.9198 3.32979 19.3498 2.75977 18.6498 2.75977H5.3298C4.6198 2.75977 4.0598 3.35976 4.0598 4.12976V6.44977C4.0598 6.81977 4.3598 7.54976 4.7498 7.93976L8.5998 11.9897C9.10981 12.6197 9.6098 13.6798 9.6098 14.6298V19.9797C9.6098 20.6397 10.0598 20.9598 10.2598 21.0698C10.6898 21.3098 11.1998 21.2998 11.5998 21.0598L12.9998 20.1597C13.3498 19.9397 13.8098 20.0398 14.0398 20.3898C14.2598 20.7398 14.1598 21.1997 13.8098 21.4297L12.3998 22.3398C11.9498 22.6098 11.4398 22.7498 10.9298 22.7498Z" fill="#242424"/>
<path d="M16.8799 20.25C14.9599 20.25 13.1499 19.23 12.1699 17.58C11.6499 16.74 11.3799 15.76 11.3799 14.75C11.3799 11.72 13.8499 9.25 16.8799 9.25C19.9099 9.25 22.3799 11.72 22.3799 14.75C22.3799 15.76 22.0999 16.74 21.5799 17.59C20.6099 19.23 18.8099 20.25 16.8799 20.25ZM16.8799 10.75C14.6699 10.75 12.8799 12.54 12.8799 14.75C12.8799 15.48 13.0799 16.19 13.4599 16.8C14.1799 18.01 15.4899 18.75 16.8799 18.75C18.2999 18.75 19.5799 18.03 20.2999 16.81C20.6799 16.19 20.8799 15.48 20.8799 14.75C20.8799 12.54 19.0899 10.75 16.8799 10.75Z" fill="#242424"/>
<path d="M18.1501 16.7399C17.9601 16.7399 17.7701 16.6699 17.6201 16.5199L15.1101 14.0099C14.8201 13.7199 14.8201 13.2399 15.1101 12.9499C15.4001 12.6599 15.8801 12.6599 16.1701 12.9499L18.6801 15.4599C18.9701 15.7499 18.9701 16.2299 18.6801 16.5199C18.5401 16.6699 18.3501 16.7399 18.1501 16.7399Z" fill="#242424"/>
<path d="M15.6201 16.7702C15.4301 16.7702 15.2401 16.7002 15.0901 16.5502C14.8001 16.2602 14.8001 15.7802 15.0901 15.4902L17.6001 12.9802C17.8901 12.6902 18.3701 12.6902 18.6601 12.9802C18.9501 13.2702 18.9501 13.7502 18.6601 14.0402L16.1501 16.5502C16.0001 16.7002 15.8101 16.7702 15.6201 16.7702Z" fill="#242424"/>
<path d="M10.9298 22.75C10.4498 22.75 9.9698 22.63 9.5398 22.39C8.6498 21.89 8.1198 20.99 8.1198 19.98V14.63C8.1198 14.13 7.7898 13.37 7.4698 12.98L3.6698 8.98999C3.0398 8.33999 2.5498 7.25001 2.5498 6.45001V4.12C2.5498 2.51 3.7698 1.25 5.3198 1.25H18.6598C20.1898 1.25 21.4298 2.49002 21.4298 4.02002V6.23999C21.4298 7.28999 20.8098 8.47003 20.2098 9.09003L18.4098 10.68C18.2298 10.84 17.9698 10.9 17.7398 10.85C17.4698 10.78 17.1798 10.75 16.8798 10.75C14.6698 10.75 12.8798 12.54 12.8798 14.75C12.8798 15.48 13.0798 16.19 13.4598 16.81C13.7798 17.34 14.2098 17.78 14.7098 18.09C14.9298 18.23 15.0698 18.47 15.0698 18.73V19.07C15.0698 19.86 14.5898 20.97 13.7898 21.44L12.4098 22.33C11.9598 22.61 11.4398 22.75 10.9298 22.75ZM5.3298 2.75C4.6198 2.75 4.0598 3.35 4.0598 4.12V6.45001C4.0598 6.81001 4.3598 7.55001 4.7598 7.95001L8.6098 12C9.1198 12.63 9.6298 13.7 9.6298 14.64V19.99C9.6298 20.65 10.0898 20.98 10.2798 21.09C10.7098 21.33 11.2198 21.32 11.6098 21.08L13.0098 20.18C13.2798 20.02 13.5498 19.51 13.5698 19.15C13.0198 18.74 12.5398 18.21 12.1798 17.61C11.6598 16.76 11.3798 15.78 11.3798 14.78C11.3798 11.75 13.8498 9.28003 16.8798 9.28003C17.1598 9.28003 17.4398 9.30003 17.6998 9.34003L19.1798 8.03003C19.5198 7.68003 19.9398 6.85001 19.9398 6.26001V4.03998C19.9398 3.33998 19.3698 2.77002 18.6698 2.77002H5.3298V2.75Z" fill="#242424"/>
</svg>
