<svg width="24" height="24" viewBox="0 0 24 24" fill="none" xmlns="http://www.w3.org/2000/svg">
<path d="M6.44995 22.75C6.03995 22.75 5.69995 22.41 5.69995 22V2C5.69995 1.59 6.03995 1.25 6.44995 1.25C6.85995 1.25 7.19995 1.59 7.19995 2V22C7.19995 22.41 6.85995 22.75 6.44995 22.75Z" fill="#242424"/>
<path d="M6.95005 17.7499C6.67005 17.7499 6.41005 17.5999 6.28005 17.3299C6.10005 16.9599 6.25005 16.5099 6.62005 16.3299L14.92 12.2299C16.14 11.5999 16.83 10.8399 16.8 10.1299C16.77 9.43987 16.03 8.72987 14.76 8.18987L6.66005 4.68987C6.27005 4.51987 6.10005 4.07987 6.26005 3.69987C6.42005 3.31987 6.87005 3.13987 7.25005 3.30987L15.35 6.80987C17.85 7.86987 18.27 9.30987 18.3 10.0699C18.35 11.3999 17.39 12.6399 15.6 13.5599L7.29005 17.6699C7.18005 17.7299 7.06005 17.7499 6.95005 17.7499Z" fill="#242424"/>
</svg>
