<svg width="24" height="24" viewBox="0 0 24 24" fill="none" xmlns="http://www.w3.org/2000/svg">
<path d="M9.98993 22.75C9.78993 22.75 9.62993 22.71 9.50993 22.66C9.10993 22.51 8.42993 22.02 8.42993 20.47V18.03C8.42993 17.62 8.76993 17.28 9.17993 17.28C9.58993 17.28 9.92993 17.62 9.92993 18.03V20.47C9.92993 20.97 10.0199 21.19 10.0599 21.25C10.0899 21.21 10.2999 21.11 10.6299 20.73L18.1999 12.13C18.4799 11.81 18.5199 11.61 18.5199 11.57C18.4999 11.56 18.3199 11.46 17.8999 11.46H16.9699C16.5599 11.46 16.2199 11.12 16.2199 10.71C16.2199 10.3 16.5599 9.95996 16.9699 9.95996H17.8999C19.2399 9.95996 19.7199 10.59 19.8899 10.96C20.0599 11.34 20.2099 12.11 19.3299 13.12L11.7599 21.72C11.0499 22.54 10.4299 22.75 9.98993 22.75Z" fill="#242424"/>
<path d="M9.18008 15.2201C8.77008 15.2201 8.43008 14.8801 8.43008 14.4701V14.0401H6.09008C4.75008 14.0401 4.27008 13.4101 4.10008 13.0401C3.93008 12.6601 3.78008 11.8901 4.66008 10.8801L12.2301 2.28015C13.2501 1.12015 14.0801 1.20015 14.4801 1.35015C14.8801 1.50015 15.5601 1.99015 15.5601 3.54015V8.85015C15.5601 9.26015 15.2201 9.60015 14.8101 9.60015C14.4001 9.60015 14.0601 9.26015 14.0601 8.85015V3.52015C14.0601 3.02015 13.9701 2.80015 13.9301 2.74015C13.9001 2.78015 13.6901 2.88015 13.3601 3.26015L5.79008 11.8601C5.51008 12.1801 5.47008 12.3801 5.47008 12.4201C5.49008 12.4301 5.67008 12.5301 6.09008 12.5301H9.18008C9.59008 12.5301 9.93008 12.8701 9.93008 13.2801V14.4601C9.93008 14.8801 9.59008 15.2201 9.18008 15.2201Z" fill="#242424"/>
<path d="M1.99994 22.7499C1.80994 22.7499 1.61994 22.6799 1.46994 22.5299C1.17994 22.2399 1.17994 21.7599 1.46994 21.4699L21.4699 1.46994C21.7599 1.17994 22.2399 1.17994 22.5299 1.46994C22.8199 1.75994 22.8199 2.23994 22.5299 2.52994L2.52994 22.5299C2.37994 22.6799 2.18994 22.7499 1.99994 22.7499Z" fill="#242424"/>
</svg>
