<svg width="24" height="24" viewBox="0 0 24 24" fill="none" xmlns="http://www.w3.org/2000/svg">
<path d="M11.0701 18.1701C10.9001 18.1701 10.7401 18.1401 10.5701 18.0801C10.0201 17.8701 9.66008 17.3601 9.66008 16.7701V13.4701H8.68008C8.12008 13.4701 7.63008 13.1501 7.40008 12.6501C7.17008 12.1401 7.26008 11.5701 7.63008 11.1501L11.8901 6.31012C12.2801 5.87012 12.8801 5.72012 13.4301 5.93012C13.9801 6.14012 14.3401 6.65012 14.3401 7.24012V10.5401H15.3301C15.8901 10.5401 16.3801 10.8601 16.6101 11.3601C16.8401 11.8701 16.7501 12.4401 16.3801 12.8601L12.1201 17.7001C11.8401 18.0001 11.4601 18.1701 11.0701 18.1701ZM8.90008 11.9701H10.4101C10.8201 11.9701 11.1601 12.3101 11.1601 12.7201V16.5001L15.1001 12.0301H13.5901C13.1801 12.0301 12.8401 11.6901 12.8401 11.2801V7.50012L8.90008 11.9701Z" fill="#242424"/>
<path d="M11.97 22.75C6.04997 22.75 1.21997 17.93 1.21997 12C1.21997 6.07 6.04997 1.25 11.97 1.25C17.89 1.25 22.72 6.07 22.72 12C22.72 17.93 17.9 22.75 11.97 22.75ZM11.97 2.75C6.86997 2.75 2.71997 6.9 2.71997 12C2.71997 17.1 6.86997 21.25 11.97 21.25C17.07 21.25 21.22 17.1 21.22 12C21.22 6.9 17.07 2.75 11.97 2.75Z" fill="#242424"/>
</svg>
