<svg width="24" height="24" viewBox="0 0 24 24" fill="none" xmlns="http://www.w3.org/2000/svg">
<path d="M12.0001 22.7198C9.33006 22.7198 6.65005 21.7599 4.62005 19.8299C2.49005 17.8099 1.29006 15.0898 1.25006 12.1698C1.21006 9.23984 2.33005 6.48984 4.40005 4.41984C8.59005 0.229844 15.4101 0.229844 19.6001 4.41984C21.6701 6.48984 22.7901 9.23984 22.7501 12.1698C22.7101 15.0998 21.5101 17.8199 19.3801 19.8299C17.3501 21.7599 14.6701 22.7198 12.0001 22.7198ZM12.0001 2.77989C9.63006 2.77989 7.26005 3.67984 5.46005 5.47984C3.68005 7.25984 2.72006 9.62988 2.75006 12.1499C2.78006 14.6699 3.81005 17.0099 5.65005 18.7399C9.15005 22.0599 14.8501 22.0499 18.3501 18.7399C20.1801 17.0099 21.2101 14.6599 21.2501 12.1499C21.2901 9.63988 20.3201 7.25984 18.5401 5.47984C16.7401 3.67984 14.3701 2.77989 12.0001 2.77989Z" fill="#242424"/>
<path d="M11.9998 18.3199C10.4198 18.3199 8.84975 17.7499 7.64975 16.6199C7.34975 16.3299 7.33975 15.8599 7.61975 15.5599C7.90975 15.2599 8.37975 15.2499 8.67975 15.5299C10.5097 17.2599 13.4898 17.2599 15.3198 15.5299C15.6198 15.2499 16.0998 15.2599 16.3798 15.5599C16.6598 15.8599 16.6498 16.3399 16.3498 16.6199C15.1498 17.7499 13.5798 18.3199 11.9998 18.3199Z" fill="#242424"/>
</svg>
