<svg width="24" height="24" viewBox="0 0 24 24" fill="none" xmlns="http://www.w3.org/2000/svg">
<path d="M11.97 22.75C6.04997 22.75 1.21997 17.93 1.21997 12C1.21997 6.07 6.04997 1.25 11.97 1.25C17.89 1.25 22.72 6.07 22.72 12C22.72 17.93 17.9 22.75 11.97 22.75ZM11.97 2.75C6.86997 2.75 2.71997 6.9 2.71997 12C2.71997 17.1 6.86997 21.25 11.97 21.25C17.07 21.25 21.22 17.1 21.22 12C21.22 6.9 17.07 2.75 11.97 2.75Z" fill="#242424"/>
<path d="M11.9999 19.2499C9.84988 19.2499 7.82988 18.1999 6.59988 16.4299C6.35988 16.0899 6.44988 15.6199 6.78988 15.3899C7.12988 15.1499 7.59988 15.2399 7.82988 15.5799C8.77988 16.9399 10.3399 17.7599 11.9999 17.7599C13.6599 17.7599 15.2199 16.9499 16.1699 15.5799C16.4099 15.2399 16.8699 15.1599 17.2099 15.3899C17.5499 15.6299 17.6299 16.0899 17.3999 16.4299C16.1699 18.1999 14.1499 19.2499 11.9999 19.2499Z" fill="#242424"/>
</svg>
