<svg width="24" height="24" viewBox="0 0 24 24" fill="none" xmlns="http://www.w3.org/2000/svg">
<path d="M12.0101 22.7398C11.3801 22.7398 10.7601 22.5298 10.2701 22.1098L8.69012 20.7598C8.53012 20.6198 8.13012 20.4798 7.92012 20.4798H6.17012C4.69012 20.4798 3.49012 19.2798 3.49012 17.7998V16.0898C3.49012 15.8798 3.35012 15.4798 3.22012 15.3298L1.86012 13.7298C1.04012 12.7598 1.04012 11.2398 1.86012 10.2598L3.22012 8.65982C3.35012 8.50982 3.49012 8.10982 3.49012 7.89982V6.19982C3.49012 4.71982 4.69012 3.51982 6.17012 3.51982H7.90012C8.11012 3.51982 8.50012 3.36982 8.67012 3.22982L10.2501 1.87982C11.2301 1.04982 12.7601 1.04982 13.7401 1.87982L15.3201 3.22982C15.4801 3.36982 15.8901 3.50982 16.1001 3.50982H17.8001C19.2801 3.50982 20.4801 4.70982 20.4801 6.18982V7.88982C20.4801 8.09982 20.6301 8.48982 20.7701 8.65982L22.1201 10.2398C22.9601 11.2298 22.9501 12.7598 22.1201 13.7298L20.7701 15.3098C20.6301 15.4798 20.4901 15.8698 20.4901 16.0798V17.7798C20.4901 19.2598 19.2901 20.4598 17.8101 20.4598H16.1101C15.9001 20.4598 15.5101 20.6098 15.3301 20.7498L13.7501 22.0998C13.2601 22.5298 12.6301 22.7398 12.0101 22.7398ZM6.17012 5.01982C5.52012 5.01982 4.99012 5.54982 4.99012 6.19982V7.89982C4.99012 8.46982 4.73012 9.18982 4.36012 9.62982L3.00012 11.2298C2.66012 11.6398 2.66012 12.3598 3.00012 12.7598L4.35012 14.3498C4.71012 14.7598 4.98012 15.5098 4.98012 16.0798V17.7898C4.98012 18.4398 5.51012 18.9698 6.16012 18.9698H7.90012C8.46012 18.9698 9.20012 19.2398 9.64012 19.6098L11.2301 20.9698C11.6401 21.3198 12.3601 21.3198 12.7701 20.9698L14.3501 19.6198C14.8001 19.2398 15.5301 18.9798 16.0901 18.9798H17.7901C18.4401 18.9798 18.9701 18.4498 18.9701 17.7998V16.0998C18.9701 15.5398 19.2401 14.8098 19.6101 14.3598L20.9701 12.7698C21.3201 12.3598 21.3201 11.6398 20.9701 11.2298L19.6201 9.64982C19.2401 9.19982 18.9801 8.46982 18.9801 7.90982V6.19982C18.9801 5.54982 18.4501 5.01982 17.8001 5.01982H16.1001C15.5301 5.01982 14.7901 4.74982 14.3501 4.37982L12.7601 3.01982C12.3501 2.66982 11.6401 2.66982 11.2201 3.01982L9.65012 4.37982C9.20012 4.74982 8.47012 5.01982 7.90012 5.01982H6.17012Z" fill="#242424"/>
<path d="M12 16.8701C11.45 16.8701 11 16.4201 11 15.8701C11 15.3201 11.44 14.8701 12 14.8701C12.55 14.8701 13 15.3201 13 15.8701C13 16.4201 12.56 16.8701 12 16.8701Z" fill="#242424"/>
<path d="M12 13.7199C11.59 13.7199 11.25 13.3799 11.25 12.9699V8.12988C11.25 7.71988 11.59 7.37988 12 7.37988C12.41 7.37988 12.75 7.71988 12.75 8.12988V12.9599C12.75 13.3799 12.42 13.7199 12 13.7199Z" fill="#242424"/>
</svg>
