<svg width="24" height="24" viewBox="0 0 24 24" fill="none" xmlns="http://www.w3.org/2000/svg">
<path d="M20.01 19.26C19.82 19.26 19.63 19.19 19.48 19.04L14.53 14.09C14.24 13.8 14.24 13.32 14.53 13.03C14.82 12.74 15.3 12.74 15.59 13.03L20.54 17.98C20.83 18.27 20.83 18.75 20.54 19.04C20.39 19.19 20.2 19.26 20.01 19.26Z" fill="#242424"/>
<path d="M10.1099 18.4302C9.37995 18.4302 8.67995 18.1402 8.16995 17.6202L3.92994 13.3802C2.85994 12.3102 2.85994 10.5602 3.92994 9.49015L10.9999 2.42018C12.0699 1.35018 13.8199 1.35018 14.8899 2.42018L19.13 6.66017C19.65 7.18017 19.94 7.87017 19.94 8.60017C19.94 9.33017 19.65 10.0302 19.13 10.5402L12.0599 17.6101C11.5399 18.1501 10.8499 18.4302 10.1099 18.4302ZM12.94 3.12016C12.62 3.12016 12.2999 3.24015 12.0599 3.49015L4.98995 10.5602C4.49995 11.0502 4.49995 11.8401 4.98995 12.3301L9.22994 16.5702C9.69994 17.0402 10.5199 17.0402 10.9999 16.5702L18.07 9.50016C18.31 9.26016 18.44 8.95016 18.44 8.62016C18.44 8.29016 18.31 7.97015 18.07 7.74015L13.83 3.50016C13.58 3.24016 13.26 3.12016 12.94 3.12016Z" fill="#242424"/>
<path d="M8 21.75H2C1.59 21.75 1.25 21.41 1.25 21C1.25 20.59 1.59 20.25 2 20.25H8C8.41 20.25 8.75 20.59 8.75 21C8.75 21.41 8.41 21.75 8 21.75Z" fill="#242424"/>
<path d="M13.63 15.7398C13.44 15.7398 13.25 15.6698 13.1 15.5198L6.03 8.44986C5.74 8.15986 5.74 7.67986 6.03 7.38986C6.32 7.09986 6.8 7.09986 7.09 7.38986L14.16 14.4598C14.45 14.7498 14.45 15.2298 14.16 15.5198C14.02 15.6698 13.82 15.7398 13.63 15.7398Z" fill="#242424"/>
</svg>
