<svg width="24" height="24" viewBox="0 0 24 24" fill="none" xmlns="http://www.w3.org/2000/svg">
<path d="M12 22.75H9C3.57 22.75 1.25 20.43 1.25 15V9C1.25 3.57 3.57 1.25 9 1.25H15C20.43 1.25 22.75 3.57 22.75 9V12C22.75 12.41 22.41 12.75 22 12.75C21.59 12.75 21.25 12.41 21.25 12V9C21.25 4.39 19.61 2.75 15 2.75H9C4.39 2.75 2.75 4.39 2.75 9V15C2.75 19.61 4.39 21.25 9 21.25H12C12.41 21.25 12.75 21.59 12.75 22C12.75 22.41 12.41 22.75 12 22.75Z" fill="#242424"/>
<path d="M16.3702 22.7702C16.3602 22.7702 16.3602 22.7702 16.3502 22.7702C15.3402 22.7602 14.5002 22.1403 14.2002 21.1703L12.3502 15.2203C12.1002 14.4003 12.3102 13.5203 12.9202 12.9303C13.5202 12.3403 14.3902 12.1203 15.1902 12.3703L21.1502 14.2203C22.1102 14.5203 22.7402 15.3603 22.7502 16.3703C22.7602 17.3703 22.1502 18.2203 21.1902 18.5403L19.5602 19.0903C19.3302 19.1703 19.1502 19.3403 19.0802 19.5703L18.5202 21.2103C18.2102 22.1603 17.3702 22.7702 16.3702 22.7702ZM14.5102 13.7702C14.2402 13.7702 14.0602 13.9203 13.9802 13.9903C13.7702 14.2003 13.7002 14.4903 13.7902 14.7803L15.6402 20.7303C15.8002 21.2403 16.2202 21.2602 16.3802 21.2702C16.5202 21.2702 16.9502 21.2303 17.1102 20.7403L17.6702 19.1003C17.8902 18.4303 18.4302 17.9003 19.1002 17.6703L20.7302 17.1203C21.2302 16.9603 21.2602 16.5203 21.2602 16.3903C21.2602 16.2603 21.2202 15.8203 20.7202 15.6603L14.7602 13.8103C14.6602 13.7803 14.5802 13.7702 14.5102 13.7702Z" fill="#242424"/>
</svg>
