<svg width="24" height="24" viewBox="0 0 24 24" fill="none" xmlns="http://www.w3.org/2000/svg">
<path d="M18.5298 23.75C18.3798 23.75 18.2398 23.73 18.1098 23.7C16.7898 23.34 15.5998 22.55 14.7498 21.47C13.8398 20.34 13.3398 18.96 13.3398 17.57V15.38C13.3398 14.66 13.8198 13.93 14.4898 13.65L17.2798 12.51C18.0998 12.19 18.9898 12.19 19.7998 12.51L22.5999 13.65C23.2699 13.93 23.7599 14.66 23.7599 15.38V17.57C23.7599 20.36 21.7599 22.94 19.0099 23.7C18.8399 23.73 18.6798 23.75 18.5298 23.75ZM18.5399 13.75C18.2999 13.75 18.0598 13.79 17.8298 13.89L15.0598 15.03C14.9598 15.07 14.8398 15.26 14.8398 15.38V17.57C14.8398 18.62 15.2199 19.67 15.9199 20.54C16.5799 21.38 17.4899 21.99 18.4799 22.26C18.5099 22.27 18.5698 22.27 18.6198 22.25C20.6698 21.68 22.2398 19.67 22.2398 17.57V15.38C22.2398 15.26 22.1199 15.08 22.0099 15.03L19.2299 13.89C19.0099 13.8 18.7799 13.75 18.5399 13.75Z" fill="#242424"/>
<path d="M15.34 21.75H6.17997C4.43997 21.75 2.83996 20.3999 2.54996 18.6899L1.28998 11.14C1.07998 9.95 1.66996 8.42002 2.60996 7.66002L9.18998 2.40001C10.48 1.36001 12.5 1.37002 13.79 2.41002L20.37 7.66002C21.32 8.42002 21.9 9.95 21.69 11.14L21.26 13.73C21.22 13.95 21.08 14.15 20.88 14.26C20.68 14.37 20.44 14.39 20.23 14.3L19.23 13.89C18.79 13.71 18.29 13.71 17.83 13.89L15.06 15.03C14.96 15.07 14.84 15.26 14.84 15.38V17.5699C14.84 18.6199 15.22 19.67 15.92 20.54C16.1 20.76 16.14 21.0699 16.01 21.3299C15.89 21.5799 15.63 21.75 15.34 21.75ZM11.48 3.11998C10.99 3.11998 10.49 3.27005 10.13 3.56005L3.54996 8.81993C3.02996 9.23993 2.65996 10.22 2.76996 10.88L4.02997 18.43C4.19997 19.41 5.17997 20.24 6.17997 20.24H13.98C13.56 19.39 13.34 18.47 13.34 17.55V15.36C13.34 14.64 13.82 13.91 14.49 13.63L17.28 12.49C18.1 12.17 18.99 12.17 19.8 12.49L19.94 12.55L20.22 10.89C20.33 10.23 19.96 9.24994 19.44 8.82994L12.86 3.57994C12.48 3.26994 11.98 3.11998 11.48 3.11998Z" fill="#242424"/>
</svg>
