<svg width="24" height="24" viewBox="0 0 24 24" fill="none" xmlns="http://www.w3.org/2000/svg">
<path d="M20.6199 13.0699C20.2399 13.0699 19.9199 12.7799 19.8699 12.3999C19.6299 10.1399 18.4099 8.08986 16.5299 6.78986C16.1899 6.54986 16.1099 6.08986 16.3399 5.74986C16.5799 5.40986 17.0499 5.32986 17.3799 5.55986C19.6199 7.10986 21.0599 9.54986 21.3499 12.2399C21.3899 12.6499 21.0999 13.0199 20.6799 13.0699C20.6699 13.0699 20.6399 13.0699 20.6199 13.0699Z" fill="#242424"/>
<path d="M3.48991 13.1198C3.45991 13.1198 3.43991 13.1198 3.40991 13.1198C2.99991 13.0698 2.69991 12.6998 2.73991 12.2898C3.00991 9.59977 4.43991 7.16977 6.64991 5.59977C6.98991 5.35977 7.45991 5.43977 7.69991 5.77977C7.93991 6.11977 7.85991 6.58977 7.51991 6.82977C5.65991 8.13977 4.45991 10.1898 4.22991 12.4498C4.19991 12.8298 3.86991 13.1198 3.48991 13.1198Z" fill="#242424"/>
<path d="M12.06 22.61C10.58 22.61 9.16997 22.27 7.84997 21.61C7.47997 21.42 7.32997 20.97 7.51997 20.6C7.70997 20.23 8.15997 20.08 8.52997 20.27C10.69 21.36 13.29 21.38 15.47 20.33C15.84 20.15 16.29 20.31 16.47 20.68C16.65 21.05 16.49 21.5 16.12 21.68C14.84 22.3 13.48 22.61 12.06 22.61Z" fill="#242424"/>
<path d="M12.06 8.43988C10.11 8.43988 8.53003 6.85988 8.53003 4.90988C8.53003 2.95988 10.11 1.37988 12.06 1.37988C14.01 1.37988 15.59 2.95988 15.59 4.90988C15.59 6.85988 14 8.43988 12.06 8.43988ZM12.06 2.88988C10.94 2.88988 10.03 3.79988 10.03 4.91988C10.03 6.03988 10.94 6.94988 12.06 6.94988C13.18 6.94988 14.09 6.03988 14.09 4.91988C14.09 3.79988 13.17 2.88988 12.06 2.88988Z" fill="#242424"/>
<path d="M4.83005 20.6699C2.88005 20.6699 1.30005 19.0899 1.30005 17.1399C1.30005 15.1999 2.88005 13.6099 4.83005 13.6099C6.78005 13.6099 8.36005 15.1899 8.36005 17.1399C8.36005 19.0799 6.78005 20.6699 4.83005 20.6699ZM4.83005 15.1099C3.71005 15.1099 2.80005 16.0199 2.80005 17.1399C2.80005 18.2599 3.71005 19.1699 4.83005 19.1699C5.95005 19.1699 6.86005 18.2599 6.86005 17.1399C6.86005 16.0199 5.95005 15.1099 4.83005 15.1099Z" fill="#242424"/>
<path d="M19.1699 20.6699C17.2199 20.6699 15.6399 19.0899 15.6399 17.1399C15.6399 15.1999 17.2199 13.6099 19.1699 13.6099C21.1199 13.6099 22.6999 15.1899 22.6999 17.1399C22.6899 19.0799 21.1099 20.6699 19.1699 20.6699ZM19.1699 15.1099C18.0499 15.1099 17.1399 16.0199 17.1399 17.1399C17.1399 18.2599 18.0499 19.1699 19.1699 19.1699C20.2899 19.1699 21.1999 18.2599 21.1999 17.1399C21.1899 16.0199 20.2899 15.1099 19.1699 15.1099Z" fill="#242424"/>
</svg>
