<svg width="24" height="24" viewBox="0 0 24 24" fill="none" xmlns="http://www.w3.org/2000/svg">
<path d="M12 22.75C6.07 22.75 1.25 17.93 1.25 12C1.25 6.07 6.07 1.25 12 1.25C17.93 1.25 22.75 6.07 22.75 12C22.75 17.93 17.93 22.75 12 22.75ZM12 2.75C6.9 2.75 2.75 6.9 2.75 12C2.75 17.1 6.9 21.25 12 21.25C17.1 21.25 21.25 17.1 21.25 12C21.25 6.9 17.1 2.75 12 2.75Z" fill="#242424"/>
<path d="M4.90009 19.7499C4.71009 19.7499 4.52009 19.6799 4.37009 19.5299C4.08009 19.2399 4.08009 18.7599 4.37009 18.4699L18.3701 4.46994C18.6601 4.17994 19.1401 4.17994 19.4301 4.46994C19.7201 4.75994 19.7201 5.23994 19.4301 5.52994L5.43009 19.5299C5.28009 19.6799 5.09009 19.7499 4.90009 19.7499Z" fill="#242424"/>
</svg>
