<svg width="24" height="24" viewBox="0 0 24 24" fill="none" xmlns="http://www.w3.org/2000/svg">
<path d="M11.9701 22.7502C11.3601 22.7502 10.7301 22.7002 10.0901 22.5902C5.69005 21.8402 2.10005 18.2402 1.37005 13.8202C0.790052 10.3102 1.88005 6.88015 4.37005 4.39015C6.86005 1.90015 10.2901 0.820153 13.7901 1.39015C18.2001 2.12015 21.8101 5.70015 22.5601 10.1002C22.7201 11.0702 22.7601 12.0202 22.6801 12.9202V12.9302C22.6601 13.1602 22.6201 13.3802 22.5601 13.6002C22.4901 13.8502 22.3001 14.0402 22.0601 14.1202C21.8201 14.2002 21.5501 14.1402 21.3501 13.9802C20.4101 13.1902 19.2101 12.7502 17.9701 12.7502C15.0701 12.7502 12.7201 15.1102 12.7201 18.0002C12.7201 19.2402 13.1601 20.4402 13.9501 21.3802C14.1201 21.5802 14.1701 21.8402 14.0901 22.0902C14.0101 22.3402 13.8201 22.5202 13.5701 22.5902C13.3501 22.6502 13.1301 22.6902 12.9001 22.7102C12.6001 22.7402 12.2901 22.7502 11.9701 22.7502ZM11.9701 2.75015C9.52005 2.75015 7.20005 3.70015 5.44005 5.46015C3.30005 7.60015 2.36005 10.5602 2.86005 13.5802C3.49005 17.3702 6.56005 20.4702 10.3501 21.1102C10.9501 21.2102 11.5201 21.2702 12.0701 21.2502C11.5301 20.2602 11.2401 19.1402 11.2401 18.0002C11.2401 14.2802 14.2701 11.2502 17.9901 11.2502C19.1301 11.2502 20.2501 11.5402 21.2401 12.0802C21.2501 11.5302 21.2001 10.9602 21.1001 10.3602C20.4601 6.58015 17.3601 3.50015 13.5701 2.88015C13.0201 2.79015 12.4901 2.75015 11.9701 2.75015Z" fill="#242424"/>
<path d="M13.38 22.61C13.16 22.61 12.95 22.52 12.81 22.34C11.79 21.13 11.22 19.59 11.22 18C11.22 14.28 14.25 11.25 17.97 11.25C19.56 11.25 21.1 11.81 22.31 12.84C22.54 13.03 22.63 13.34 22.55 13.62C22.37 14.24 22.05 14.78 21.59 15.24L15.21 21.62C14.75 22.08 14.2 22.4 13.59 22.58C13.52 22.6 13.45 22.61 13.38 22.61ZM17.97 12.75C15.07 12.75 12.72 15.11 12.72 18C12.72 19.06 13.04 20.09 13.63 20.95C13.82 20.85 13.99 20.72 14.15 20.56L20.53 14.18C20.69 14.02 20.82 13.85 20.92 13.66C20.06 13.07 19.03 12.75 17.97 12.75Z" fill="#242424"/>
</svg>
