<svg width="24" height="24" viewBox="0 0 24 24" fill="none" xmlns="http://www.w3.org/2000/svg">
<path d="M14.6699 21.6501H4.21992C3.11992 21.6501 2.14994 21.0801 1.61994 20.1201C1.08994 19.1601 1.11996 18.0301 1.69996 17.1001L4.46992 12.6701C4.68992 12.3201 4.68992 11.6701 4.46992 11.3301L1.69996 6.9001C1.11996 5.9701 1.08994 4.8401 1.61994 3.8801C2.14994 2.9201 3.12992 2.3501 4.21992 2.3501H15.6599C16.5999 2.3501 17.6899 2.9501 18.1799 3.7501L22.3599 10.4301C22.9199 11.3301 22.8699 12.7101 22.2299 13.5601L17.0499 20.4601C16.5399 21.1401 15.5199 21.6501 14.6699 21.6501ZM4.21992 3.8501C3.67992 3.8501 3.18994 4.1301 2.92994 4.6101C2.66994 5.0901 2.67992 5.6501 2.96992 6.1101L5.73993 10.5401C6.25993 11.3801 6.25993 12.6401 5.73993 13.4801L2.96992 17.9101C2.67992 18.3701 2.66994 18.9301 2.92994 19.4101C3.18994 19.8901 3.67992 20.1701 4.21992 20.1701H14.6699C15.0499 20.1701 15.6199 19.8801 15.8499 19.5801L21.03 12.6801C21.3 12.3201 21.33 11.6301 21.09 11.2501L16.9099 4.5701C16.6899 4.2101 16.0799 3.8801 15.6599 3.8801H4.21992V3.8501Z" fill="#242424"/>
</svg>
