<svg width="24" height="24" viewBox="0 0 24 24" fill="none" xmlns="http://www.w3.org/2000/svg">
<path d="M18.06 22.1598H5.93998C3.98998 22.1598 2.49998 21.4498 1.73998 20.1698C0.989976 18.8898 1.08998 17.2398 2.03998 15.5398L8.09998 4.62984C9.09998 2.82984 10.48 1.83984 12 1.83984C13.52 1.83984 14.9 2.82984 15.9 4.62984L21.96 15.5398C22.91 17.2498 23.02 18.8898 22.26 20.1698C21.5 21.4498 20.01 22.1598 18.06 22.1598ZM12 3.33984C11.06 3.33984 10.14 4.05984 9.40998 5.35984L3.35998 16.2698C2.67998 17.4898 2.56998 18.6098 3.03998 19.4198C3.50998 20.2198 4.54998 20.6698 5.94998 20.6698H18.07C19.47 20.6698 20.5 20.2298 20.98 19.4198C21.45 18.6098 21.34 17.4998 20.66 16.2698L14.59 5.35984C13.86 4.05984 12.94 3.33984 12 3.33984Z" fill="#242424"/>
<path d="M21.4401 20.75C21.2901 20.75 21.1401 20.71 21.0101 20.61L12.0001 14.3L2.99011 20.61C2.65011 20.85 2.18011 20.77 1.95011 20.43C1.71011 20.09 1.79011 19.62 2.13011 19.39L11.5701 12.78C11.8301 12.6 12.1701 12.6 12.4301 12.78L21.8701 19.39C22.2101 19.63 22.2901 20.1 22.0501 20.43C21.9101 20.64 21.6801 20.75 21.4401 20.75Z" fill="#242424"/>
<path d="M12 14.14C11.59 14.14 11.25 13.8 11.25 13.39V3C11.25 2.59 11.59 2.25 12 2.25C12.41 2.25 12.75 2.59 12.75 3V13.39C12.75 13.8 12.41 14.14 12 14.14Z" fill="#242424"/>
</svg>
