<svg width="24" height="24" viewBox="0 0 24 24" fill="none" xmlns="http://www.w3.org/2000/svg">
<path d="M17.1799 18.75C15.4699 18.75 13.4299 18.1 13.4299 15V9C13.4299 5.9 15.4699 5.25 17.1799 5.25C18.8899 5.25 20.9299 5.9 20.9299 9V15C20.9299 18.1 18.8899 18.75 17.1799 18.75ZM17.1799 6.75C15.5599 6.75 14.9299 7.38 14.9299 9V15C14.9299 16.62 15.5599 17.25 17.1799 17.25C18.7999 17.25 19.4299 16.62 19.4299 15V9C19.4299 7.38 18.7999 6.75 17.1799 6.75Z" fill="#242424"/>
<path d="M6.82007 18.75C5.11007 18.75 3.07007 18.1 3.07007 15V9C3.07007 5.9 5.11007 5.25 6.82007 5.25C8.53007 5.25 10.5701 5.9 10.5701 9V15C10.5701 18.1 8.53007 18.75 6.82007 18.75ZM6.82007 6.75C5.20007 6.75 4.57007 7.38 4.57007 9V15C4.57007 16.62 5.20007 17.25 6.82007 17.25C8.44007 17.25 9.07007 16.62 9.07007 15V9C9.07007 7.38 8.44007 6.75 6.82007 6.75Z" fill="#242424"/>
<path d="M14.1801 12.75H9.82007C9.41007 12.75 9.07007 12.41 9.07007 12C9.07007 11.59 9.41007 11.25 9.82007 11.25H14.1801C14.5901 11.25 14.9301 11.59 14.9301 12C14.9301 12.41 14.6001 12.75 14.1801 12.75Z" fill="#242424"/>
<path d="M22.5 15.25C22.09 15.25 21.75 14.91 21.75 14.5V9.5C21.75 9.09 22.09 8.75 22.5 8.75C22.91 8.75 23.25 9.09 23.25 9.5V14.5C23.25 14.91 22.91 15.25 22.5 15.25Z" fill="#242424"/>
<path d="M1.5 15.25C1.09 15.25 0.75 14.91 0.75 14.5V9.5C0.75 9.09 1.09 8.75 1.5 8.75C1.91 8.75 2.25 9.09 2.25 9.5V14.5C2.25 14.91 1.91 15.25 1.5 15.25Z" fill="#242424"/>
</svg>
