<svg width="24" height="24" viewBox="0 0 24 24" fill="none" xmlns="http://www.w3.org/2000/svg">
<path d="M19.0899 12.5899C18.9299 12.5899 18.7699 12.5399 18.6299 12.4299C14.5999 9.3199 9.38993 9.3199 5.35993 12.4299C5.02993 12.6799 4.55993 12.6199 4.30993 12.2999C4.05993 11.9699 4.11994 11.4999 4.43994 11.2499C9.02994 7.6999 14.9599 7.6999 19.5399 11.2499C19.8699 11.4999 19.9299 11.9699 19.6699 12.2999C19.5399 12.4899 19.3199 12.5899 19.0899 12.5899Z" fill="#242424"/>
<path d="M22 9.1099C21.84 9.1099 21.68 9.05993 21.54 8.94993C15.74 4.46993 8.25004 4.46993 2.46004 8.94993C2.13004 9.19993 1.66003 9.13992 1.41003 8.81992C1.16003 8.48992 1.22002 8.0199 1.54002 7.7699C7.89002 2.8599 16.1 2.8599 22.46 7.7699C22.79 8.0199 22.85 8.48992 22.59 8.81992C22.45 9.00992 22.22 9.1099 22 9.1099Z" fill="#242424"/>
<path d="M17.2101 16.2403C17.0501 16.2403 16.8901 16.1903 16.7501 16.0803C13.8701 13.8503 10.1401 13.8503 7.25007 16.0803C6.92007 16.3303 6.45007 16.2703 6.20007 15.9503C5.95007 15.6203 6.01007 15.1503 6.33007 14.9003C9.77007 12.2403 14.2201 12.2403 17.6601 14.9003C17.9901 15.1503 18.0501 15.6203 17.7901 15.9503C17.6501 16.1403 17.4301 16.2403 17.2101 16.2403Z" fill="#242424"/>
<path d="M14.6002 19.9C14.4402 19.9 14.2802 19.85 14.1402 19.74C12.8402 18.73 11.1502 18.73 9.85017 19.74C9.52017 19.99 9.05017 19.93 8.80017 19.61C8.55017 19.28 8.61016 18.81 8.93016 18.56C10.7902 17.12 13.1902 17.12 15.0502 18.56C15.3802 18.81 15.4402 19.28 15.1802 19.61C15.0502 19.79 14.8302 19.9 14.6002 19.9Z" fill="#242424"/>
</svg>
