<svg width="24" height="24" viewBox="0 0 24 24" fill="none" xmlns="http://www.w3.org/2000/svg">
<path d="M12 22.7599C10.91 22.7599 9.83002 22.4399 8.98002 21.8099L4.68002 18.5999C3.54002 17.7499 2.65002 15.9799 2.65002 14.5599V7.11994C2.65002 5.57994 3.78002 3.93994 5.23002 3.39994L10.22 1.52994C11.21 1.15994 12.77 1.15994 13.76 1.52994L18.76 3.39994C20.21 3.93994 21.34 5.57994 21.34 7.11994V14.5499C21.34 15.9699 20.45 17.7399 19.31 18.5899L15.01 21.7999C14.17 22.4399 13.09 22.7599 12 22.7599ZM10.75 2.93994L5.76002 4.80994C4.90002 5.12994 4.15002 6.20994 4.15002 7.12994V14.5599C4.15002 15.5099 4.82002 16.8399 5.57002 17.3999L9.87002 20.6099C11.02 21.4699 12.97 21.4699 14.12 20.6099L18.42 17.3999C19.18 16.8299 19.84 15.4999 19.84 14.5599V7.11994C19.84 6.20994 19.09 5.12994 18.23 4.79994L13.24 2.92994C12.58 2.68994 11.42 2.68994 10.75 2.93994Z" fill="#242424"/>
<path d="M12 13.25C10.48 13.25 9.25 12.02 9.25 10.5C9.25 8.98 10.48 7.75 12 7.75C13.52 7.75 14.75 8.98 14.75 10.5C14.75 12.02 13.52 13.25 12 13.25ZM12 9.25C11.31 9.25 10.75 9.81 10.75 10.5C10.75 11.19 11.31 11.75 12 11.75C12.69 11.75 13.25 11.19 13.25 10.5C13.25 9.81 12.69 9.25 12 9.25Z" fill="#242424"/>
<path d="M12 16.25C11.59 16.25 11.25 15.91 11.25 15.5V12.5C11.25 12.09 11.59 11.75 12 11.75C12.41 11.75 12.75 12.09 12.75 12.5V15.5C12.75 15.91 12.41 16.25 12 16.25Z" fill="#242424"/>
</svg>
