<svg width="24" height="24" viewBox="0 0 24 24" fill="none" xmlns="http://www.w3.org/2000/svg">
<path d="M15 22.75H9C3.57 22.75 1.25 20.43 1.25 15V9C1.25 3.57 3.57 1.25 9 1.25H15C20.43 1.25 22.75 3.57 22.75 9V15C22.75 20.43 20.43 22.75 15 22.75ZM9 2.75C4.39 2.75 2.75 4.39 2.75 9V15C2.75 19.61 4.39 21.25 9 21.25H15C19.61 21.25 21.25 19.61 21.25 15V9C21.25 4.39 19.61 2.75 15 2.75H9Z" fill="#242424"/>
<path d="M8.80999 18.2498C8.73999 18.2498 8.65999 18.2498 8.58999 18.2298L7.39999 18.0698C6.67999 17.9698 6.04999 17.3498 5.93999 16.6098L5.76999 15.3998C5.69999 14.9198 5.89999 14.3098 6.24999 13.9498L8.52999 11.6698C8.18999 10.0498 8.67999 8.36982 9.86999 7.18982C11.78 5.27982 14.9 5.27982 16.81 7.18982C17.74 8.11982 18.25 9.34982 18.25 10.6598C18.25 11.9698 17.74 13.2098 16.81 14.1298C15.62 15.3098 13.94 15.7998 12.33 15.4598L10.04 17.7398C9.74999 18.0498 9.25999 18.2498 8.80999 18.2498ZM13.34 7.24982C12.47 7.24982 11.59 7.57982 10.93 8.24982C10.03 9.14982 9.70999 10.4598 10.08 11.6798C10.16 11.9498 10.09 12.2298 9.88999 12.4298L7.30999 15.0098C7.28999 15.0398 7.24999 15.1498 7.24999 15.1898L7.41999 16.3898C7.42999 16.4498 7.53999 16.5598 7.59999 16.5698L8.79999 16.7398C8.84999 16.7298 8.94999 16.7098 8.97999 16.6798L11.57 14.0898C11.77 13.8898 12.06 13.8298 12.32 13.9098C13.53 14.2898 14.84 13.9698 15.74 13.0698C16.38 12.4298 16.74 11.5698 16.74 10.6598C16.74 9.74982 16.39 8.88982 15.74 8.24982C15.09 7.58982 14.21 7.24982 13.34 7.24982Z" fill="#242424"/>
<path d="M10.45 17.0299C10.26 17.0299 10.07 16.9599 9.92003 16.8099L9.06003 15.9499C8.77003 15.6599 8.77003 15.1799 9.06003 14.8899C9.35003 14.5999 9.83003 14.5999 10.12 14.8899L10.98 15.7499C11.27 16.0399 11.27 16.5199 10.98 16.8099C10.84 16.9599 10.65 17.0299 10.45 17.0299Z" fill="#242424"/>
<path d="M13.38 11.8001C13.24 11.8001 13.11 11.7801 12.99 11.7301C12.87 11.6801 12.76 11.6001 12.67 11.5101C12.48 11.3201 12.37 11.0701 12.37 10.8001C12.37 10.5401 12.48 10.2801 12.67 10.1001C12.9 9.86012 13.25 9.75012 13.57 9.82012C13.63 9.84012 13.7 9.85012 13.76 9.88012C13.82 9.91012 13.88 9.94012 13.93 9.97012C13.98 10.0101 14.04 10.0501 14.08 10.1001C14.27 10.2801 14.38 10.5401 14.38 10.8001C14.38 10.9401 14.35 11.0601 14.3 11.1901C14.25 11.3101 14.18 11.4201 14.08 11.5101C13.89 11.7001 13.64 11.8001 13.38 11.8001Z" fill="#242424"/>
</svg>
