<svg width="24" height="24" viewBox="0 0 24 24" fill="none" xmlns="http://www.w3.org/2000/svg">
<path d="M11.02 20.25H7.5C6.75 20.25 6.2 20.22 5.73 20.15C2.4 19.78 1.75 17.8 1.75 14.5V9.5C1.75 6.2 2.41 4.21 5.76 3.84C6.2 3.78 6.75 3.75 7.5 3.75H10.96C11.37 3.75 11.71 4.09 11.71 4.5C11.71 4.91 11.37 5.25 10.96 5.25H7.5C6.82 5.25 6.34 5.28 5.95 5.33C3.92 5.55 3.25 6.19 3.25 9.5V14.5C3.25 17.81 3.92 18.44 5.92 18.67C6.34 18.73 6.82 18.75 7.5 18.75H11.02C11.43 18.75 11.77 19.09 11.77 19.5C11.77 19.91 11.43 20.25 11.02 20.25Z" fill="#242424"/>
<path d="M16.5 20.25H15.02C14.61 20.25 14.27 19.91 14.27 19.5C14.27 19.09 14.61 18.75 15.02 18.75H16.5C17.18 18.75 17.66 18.72 18.05 18.67C20.08 18.45 20.75 17.81 20.75 14.5V9.5C20.75 6.19 20.08 5.56 18.08 5.33C17.66 5.27 17.18 5.25 16.5 5.25H15.02C14.61 5.25 14.27 4.91 14.27 4.5C14.27 4.09 14.61 3.75 15.02 3.75H16.5C17.25 3.75 17.8 3.78 18.27 3.85C21.6 4.22 22.25 6.2 22.25 9.5V14.5C22.25 17.8 21.59 19.79 18.24 20.16C17.8 20.22 17.25 20.25 16.5 20.25Z" fill="#242424"/>
<path d="M15 22.75C14.59 22.75 14.25 22.41 14.25 22V2C14.25 1.59 14.59 1.25 15 1.25C15.41 1.25 15.75 1.59 15.75 2V22C15.75 22.41 15.41 22.75 15 22.75Z" fill="#242424"/>
<path d="M6.69995 13.0002C6.56995 13.0002 6.43995 12.9702 6.31995 12.9202C6.19995 12.8702 6.08995 12.8002 5.98995 12.7102C5.89995 12.6102 5.81995 12.5002 5.76995 12.3802C5.71995 12.2602 5.69995 12.1302 5.69995 12.0002C5.69995 11.7402 5.80995 11.4802 5.98995 11.2902C6.35995 10.9202 7.02995 10.9202 7.40995 11.2902C7.58995 11.4802 7.69995 11.7402 7.69995 12.0002C7.69995 12.1302 7.66995 12.2602 7.61995 12.3802C7.56995 12.5002 7.49995 12.6102 7.40995 12.7102C7.30995 12.8002 7.19995 12.8702 7.07995 12.9202C6.95995 12.9702 6.82995 13.0002 6.69995 13.0002Z" fill="#242424"/>
<path d="M10.7 13.0002C10.57 13.0002 10.44 12.9702 10.32 12.9202C10.2 12.8702 10.09 12.8002 9.98995 12.7102C9.89995 12.6102 9.82995 12.5002 9.76995 12.3802C9.72995 12.2602 9.69995 12.1302 9.69995 12.0002C9.69995 11.7402 9.80995 11.4802 9.98995 11.2902C10.36 10.9202 11.04 10.9202 11.41 11.2902C11.59 11.4802 11.7 11.7402 11.7 12.0002C11.7 12.1302 11.67 12.2602 11.62 12.3802C11.57 12.5002 11.5 12.6102 11.41 12.7102C11.31 12.8002 11.2 12.8702 11.08 12.9202C10.96 12.9702 10.83 13.0002 10.7 13.0002Z" fill="#242424"/>
</svg>
