<svg width="24" height="24" viewBox="0 0 24 24" fill="none" xmlns="http://www.w3.org/2000/svg">
<path d="M12 22.7499C10.87 22.7499 9.79002 22.4199 8.98002 21.8099L4.68002 18.5999C3.54002 17.7499 2.65002 15.9799 2.65002 14.5599V7.11994C2.65002 5.57994 3.78002 3.93994 5.23002 3.39994L10.22 1.52994C11.21 1.15994 12.77 1.15994 13.76 1.52994L18.76 3.39994C20.21 3.93994 21.34 5.57994 21.34 7.11994V10.5499C21.34 10.9599 21 11.2999 20.59 11.2999C20.18 11.2999 19.84 10.9599 19.84 10.5499V7.11994C19.84 6.20994 19.09 5.12994 18.23 4.79994L13.24 2.92994C12.58 2.67994 11.41 2.67994 10.75 2.92994L5.76002 4.80994C4.90002 5.12994 4.15002 6.20994 4.15002 7.12994V14.5599C4.15002 15.5099 4.82002 16.8399 5.57002 17.3999L9.87002 20.6099C10.42 21.0199 11.19 21.2499 11.99 21.2499C12.4 21.2499 12.74 21.5899 12.74 21.9999C12.74 22.4099 12.41 22.7499 12 22.7499Z" fill="#242424"/>
<path d="M16 20.75C13.38 20.75 11.25 18.62 11.25 16C11.25 13.38 13.38 11.25 16 11.25C18.62 11.25 20.75 13.38 20.75 16C20.75 18.62 18.62 20.75 16 20.75ZM16 12.76C14.21 12.76 12.75 14.22 12.75 16.01C12.75 17.8 14.21 19.26 16 19.26C17.79 19.26 19.25 17.8 19.25 16.01C19.25 14.22 17.79 12.76 16 12.76Z" fill="#242424"/>
<path d="M21 22.0002C20.93 22.0002 20.87 21.9902 20.8 21.9802C20.74 21.9702 20.68 21.9502 20.62 21.9202C20.56 21.9002 20.5 21.8702 20.44 21.8302C20.39 21.7902 20.34 21.7502 20.29 21.7102C20.11 21.5202 20 21.2602 20 21.0002C20 20.8702 20.03 20.7402 20.08 20.6202C20.13 20.5002 20.2 20.3902 20.29 20.2902C20.66 19.9202 21.34 19.9202 21.71 20.2902C21.8 20.3902 21.87 20.5002 21.92 20.6202C21.97 20.7402 22 20.8702 22 21.0002C22 21.2602 21.89 21.5202 21.71 21.7102C21.52 21.8902 21.26 22.0002 21 22.0002Z" fill="#242424"/>
</svg>
