<svg width="24" height="24" viewBox="0 0 24 24" fill="none" xmlns="http://www.w3.org/2000/svg">
<path d="M12 22.7601C10.91 22.7601 9.82999 22.4401 8.97999 21.8101L7.38999 20.6201C7.05999 20.3701 6.98999 19.9001 7.23999 19.5701C7.48999 19.2401 7.95999 19.1701 8.28999 19.4201L9.87999 20.6101C11.03 21.4701 12.98 21.4701 14.13 20.6101L18.43 17.4001C19.19 16.8301 19.85 15.5001 19.85 14.5601V7.12012C19.85 6.71012 20.19 6.37012 20.6 6.37012C21.01 6.37012 21.35 6.71012 21.35 7.12012V14.5501C21.35 15.9701 20.46 17.7401 19.32 18.5901L15.02 21.8001C14.17 22.4401 13.09 22.7601 12 22.7601Z" fill="#242424"/>
<path d="M5.33002 18.8999C5.17002 18.8999 5.02002 18.8499 4.88002 18.7499L4.68002 18.5999C3.54002 17.7499 2.65002 15.9699 2.65002 14.5599V7.11994C2.65002 5.57994 3.78002 3.93994 5.23002 3.39994L10.22 1.52994C11.21 1.15994 12.77 1.15994 13.76 1.52994L18.76 3.39994C18.97 3.47994 19.17 3.57994 19.37 3.69994C19.72 3.91994 19.83 4.37994 19.61 4.72994C19.39 5.07994 18.93 5.18994 18.58 4.96994C18.47 4.89994 18.36 4.83994 18.24 4.79994L13.24 2.92994C12.58 2.67994 11.41 2.67994 10.75 2.92994L5.76002 4.80994C4.90002 5.12994 4.15002 6.20994 4.15002 7.12994V14.5599C4.15002 15.5099 4.82002 16.8399 5.57002 17.3999L5.77002 17.5499C6.10002 17.7999 6.17002 18.2699 5.92002 18.5999C5.79002 18.7899 5.56002 18.8999 5.33002 18.8999Z" fill="#242424"/>
<path d="M1.99994 22.7499C1.80994 22.7499 1.61994 22.6799 1.46994 22.5299C1.17994 22.2399 1.17994 21.7599 1.46994 21.4699L21.4699 1.46994C21.7599 1.17994 22.2399 1.17994 22.5299 1.46994C22.8199 1.75994 22.8199 2.23994 22.5299 2.52994L2.52994 22.5299C2.37994 22.6799 2.18994 22.7499 1.99994 22.7499Z" fill="#242424"/>
</svg>
