<svg width="24" height="24" viewBox="0 0 24 24" fill="none" xmlns="http://www.w3.org/2000/svg">
<path d="M1.99994 22.7499C1.80994 22.7499 1.61994 22.6799 1.46994 22.5299C1.17994 22.2399 1.17994 21.7599 1.46994 21.4699L21.4699 1.46994C21.7599 1.17994 22.2399 1.17994 22.5299 1.46994C22.8199 1.75994 22.8199 2.23994 22.5299 2.52994L2.52994 22.5299C2.37994 22.6799 2.18994 22.7499 1.99994 22.7499Z" fill="#242424"/>
<path d="M18.8802 22.75C18.3202 22.75 17.7202 22.58 17.1202 22.25L10.6002 18.18C10.2502 17.96 10.1402 17.5 10.3602 17.15C10.5802 16.8 11.0402 16.69 11.3902 16.91L17.8802 20.96C18.4402 21.27 19.0002 21.34 19.3602 21.13C19.7202 20.92 19.9302 20.4 19.9302 19.71V8.70996C19.9302 8.29996 20.2702 7.95996 20.6802 7.95996C21.0902 7.95996 21.4302 8.29996 21.4302 8.70996V19.71C21.4302 20.94 20.9502 21.93 20.1202 22.42C19.7502 22.64 19.3302 22.75 18.8802 22.75Z" fill="#242424"/>
<path d="M3.31982 20.7C2.90982 20.7 2.56982 20.36 2.56982 19.95V5.86C2.56982 3.32 4.63982 1.25 7.17982 1.25H16.8298C18.2198 1.25 19.5298 1.87 20.4098 2.96C20.6698 3.28 20.6198 3.75 20.2998 4.02C19.9798 4.28 19.5098 4.23 19.2498 3.91C18.6498 3.17 17.7698 2.75 16.8298 2.75H7.17982C5.46982 2.75 4.06982 4.15 4.06982 5.86V19.95C4.06982 20.36 3.72982 20.7 3.31982 20.7Z" fill="#242424"/>
</svg>
