<svg width="24" height="24" viewBox="0 0 24 24" fill="none" xmlns="http://www.w3.org/2000/svg">
<path d="M8.99996 17.7499C8.88996 17.7499 8.76996 17.7199 8.66996 17.6699C7.89996 17.2799 7.23996 16.6999 6.75996 15.9799C6.35996 15.3799 6.35996 14.6099 6.75996 14.0099C7.23996 13.2899 7.89996 12.7099 8.66996 12.3299C9.03996 12.1399 9.48996 12.2999 9.67996 12.6699C9.86996 13.0399 9.71996 13.4899 9.33996 13.6799C8.79996 13.9499 8.33996 14.3599 8.00996 14.8599C7.94996 14.9499 7.94996 15.0699 8.00996 15.1699C8.33996 15.6699 8.79996 16.0799 9.33996 16.3499C9.70996 16.5399 9.85996 16.9899 9.67996 17.3599C9.53996 17.5999 9.26996 17.7499 8.99996 17.7499Z" fill="#242424"/>
<path d="M15.21 17.7499C14.93 17.7499 14.67 17.5999 14.54 17.3399C14.35 16.9699 14.5 16.5199 14.88 16.3299C15.42 16.0599 15.88 15.6499 16.21 15.1499C16.27 15.0599 16.27 14.9399 16.21 14.8399C15.88 14.3399 15.42 13.9299 14.88 13.6599C14.51 13.4699 14.36 13.0199 14.54 12.6499C14.73 12.2799 15.18 12.1299 15.55 12.3099C16.32 12.6999 16.98 13.2799 17.46 13.9999C17.86 14.5999 17.86 15.3699 17.46 15.9699C16.98 16.6899 16.32 17.2699 15.55 17.6499C15.43 17.7199 15.32 17.7499 15.21 17.7499Z" fill="#242424"/>
<path d="M15 22.75H9C3.57 22.75 1.25 20.43 1.25 15V9C1.25 3.57 3.57 1.25 9 1.25H15C20.43 1.25 22.75 3.57 22.75 9V15C22.75 20.43 20.43 22.75 15 22.75ZM9 2.75C4.39 2.75 2.75 4.39 2.75 9V15C2.75 19.61 4.39 21.25 9 21.25H15C19.61 21.25 21.25 19.61 21.25 15V9C21.25 4.39 19.61 2.75 15 2.75H9Z" fill="#242424"/>
<path d="M2.22998 8.76C1.81998 8.76 1.47998 8.42 1.47998 8.01C1.47998 7.6 1.80998 7.26 2.22998 7.26L21.45 7.25C21.86 7.25 22.2 7.59 22.2 8C22.2 8.41 21.87 8.75 21.45 8.75L2.22998 8.76Z" fill="#242424"/>
</svg>
