<svg width="24" height="24" viewBox="0 0 24 24" fill="none" xmlns="http://www.w3.org/2000/svg">
<path d="M7.99994 14.75C7.80994 14.75 7.61994 14.68 7.46994 14.53L5.46994 12.53C5.17994 12.24 5.17994 11.7599 5.46994 11.4699L7.46994 9.46994C7.75994 9.17994 8.23994 9.17994 8.52994 9.46994C8.81994 9.75994 8.81994 10.24 8.52994 10.53L7.05994 12L8.52994 13.4699C8.81994 13.7599 8.81994 14.24 8.52994 14.53C8.37994 14.68 8.18994 14.75 7.99994 14.75Z" fill="#242424"/>
<path d="M15.9999 14.75C15.8099 14.75 15.6199 14.68 15.4699 14.53C15.1799 14.24 15.1799 13.7599 15.4699 13.4699L16.9399 12L15.4699 10.53C15.1799 10.24 15.1799 9.75994 15.4699 9.46994C15.7599 9.17994 16.2399 9.17994 16.5299 9.46994L18.5299 11.4699C18.8199 11.7599 18.8199 12.24 18.5299 12.53L16.5299 14.53C16.3799 14.68 16.1899 14.75 15.9999 14.75Z" fill="#242424"/>
<path d="M12 22.75C6.07 22.75 1.25 17.93 1.25 12C1.25 6.07 6.07 1.25 12 1.25C17.93 1.25 22.75 6.07 22.75 12C22.75 17.93 17.93 22.75 12 22.75ZM12 2.75C6.9 2.75 2.75 6.9 2.75 12C2.75 17.1 6.9 21.25 12 21.25C17.1 21.25 21.25 17.1 21.25 12C21.25 6.9 17.1 2.75 12 2.75Z" fill="#242424"/>
<path d="M11.0001 15.0801C10.9001 15.0801 10.8001 15.0601 10.7101 15.0201C10.3301 14.8601 10.1501 14.4201 10.3201 14.0301L12.3201 9.36004C12.4801 8.98004 12.9201 8.80002 13.3001 8.97002C13.6801 9.13002 13.8601 9.57008 13.6901 9.96008L11.6901 14.6301C11.5701 14.9101 11.2901 15.0801 11.0001 15.0801Z" fill="#242424"/>
</svg>
