<svg width="24" height="24" viewBox="0 0 24 24" fill="none" xmlns="http://www.w3.org/2000/svg">
<path d="M8.00009 21.75C7.97009 21.75 7.94009 21.75 7.92009 21.75C7.51009 21.7 7.21009 21.33 7.26009 20.92L9.26009 2.92003C9.31009 2.51003 9.68009 2.22003 10.0901 2.26003C10.5001 2.31003 10.8001 2.68003 10.7501 3.09003L8.75009 21.09C8.70009 21.47 8.38009 21.75 8.00009 21.75Z" fill="#242424"/>
<path d="M14.0001 21.75C13.9701 21.75 13.9401 21.75 13.9201 21.75C13.5101 21.7 13.2101 21.33 13.2601 20.92L15.2601 2.92003C15.3101 2.51003 15.6701 2.22003 16.0901 2.26003C16.5001 2.31003 16.8001 2.68003 16.7501 3.09003L14.7501 21.09C14.7001 21.47 14.3801 21.75 14.0001 21.75Z" fill="#242424"/>
<path d="M21.5 9.75H3.5C3.09 9.75 2.75 9.41 2.75 9C2.75 8.59 3.09 8.25 3.5 8.25H21.5C21.91 8.25 22.25 8.59 22.25 9C22.25 9.41 21.91 9.75 21.5 9.75Z" fill="#242424"/>
<path d="M20.5 15.75H2.5C2.09 15.75 1.75 15.41 1.75 15C1.75 14.59 2.09 14.25 2.5 14.25H20.5C20.91 14.25 21.25 14.59 21.25 15C21.25 15.41 20.91 15.75 20.5 15.75Z" fill="#242424"/>
</svg>
