<svg width="24" height="24" viewBox="0 0 24 24" fill="none" xmlns="http://www.w3.org/2000/svg">
<path d="M14 22.75H9C3.57 22.75 1.25 20.43 1.25 15V9C1.25 3.57 3.57 1.25 9 1.25H15C20.43 1.25 22.75 3.57 22.75 9V13C22.75 13.41 22.41 13.75 22 13.75C21.59 13.75 21.25 13.41 21.25 13V9C21.25 4.39 19.61 2.75 15 2.75H9C4.39 2.75 2.75 4.39 2.75 9V15C2.75 19.61 4.39 21.25 9 21.25H14C14.41 21.25 14.75 21.59 14.75 22C14.75 22.41 14.41 22.75 14 22.75Z" fill="#242424"/>
<path d="M19 22.75C18.9 22.75 18.81 22.73 18.71 22.69C18.43 22.57 18.25 22.3 18.25 22V16C18.25 15.59 18.59 15.25 19 15.25C19.41 15.25 19.75 15.59 19.75 16V20.19L20.47 19.47C20.76 19.18 21.24 19.18 21.53 19.47C21.82 19.76 21.82 20.24 21.53 20.53L19.53 22.53C19.39 22.67 19.19 22.75 19 22.75Z" fill="#242424"/>
<path d="M18.9999 22.7499C18.8099 22.7499 18.6199 22.6799 18.4699 22.5299L16.4699 20.5299C16.1799 20.2399 16.1799 19.7599 16.4699 19.4699C16.7599 19.1799 17.2399 19.1799 17.5299 19.4699L19.5299 21.4699C19.8199 21.7599 19.8199 22.2399 19.5299 22.5299C19.3799 22.6799 19.1899 22.7499 18.9999 22.7499Z" fill="#242424"/>
<path d="M8.89999 16.4901C8.86999 16.4901 8.83999 16.4901 8.81999 16.4901C8.40999 16.4401 8.10999 16.0701 8.15999 15.6601L9.19999 6.1801C9.24999 5.7701 9.60999 5.4701 10.03 5.5201C10.44 5.5701 10.74 5.9401 10.69 6.3501L9.63999 15.8201C9.59999 16.2001 9.26999 16.4901 8.89999 16.4901Z" fill="#242424"/>
<path d="M12.0499 16.4899C12.0199 16.4899 11.9899 16.4899 11.9699 16.4899C11.5599 16.4399 11.2599 16.0699 11.3099 15.6599L12.3599 6.18986C12.4099 5.77986 12.7799 5.47986 13.1899 5.52986C13.5999 5.57986 13.8999 5.94986 13.8499 6.35986L12.7999 15.8299C12.7599 16.1999 12.4299 16.4899 12.0499 16.4899Z" fill="#242424"/>
<path d="M16 10.1699H6.53003C6.12003 10.1699 5.78003 9.82992 5.78003 9.41992C5.78003 9.00992 6.12003 8.66992 6.53003 8.66992H16C16.41 8.66992 16.75 9.00992 16.75 9.41992C16.75 9.82992 16.41 10.1699 16 10.1699Z" fill="#242424"/>
<path d="M15.47 13.3301H6C5.59 13.3301 5.25 12.9901 5.25 12.5801C5.25 12.1701 5.59 11.8301 6 11.8301H15.47C15.88 11.8301 16.22 12.1701 16.22 12.5801C16.22 12.9901 15.89 13.3301 15.47 13.3301Z" fill="#242424"/>
</svg>
