<svg width="24" height="24" viewBox="0 0 24 24" fill="none" xmlns="http://www.w3.org/2000/svg">
<path d="M15 22.75H9C3.57 22.75 1.25 20.43 1.25 15V9C1.25 3.57 3.57 1.25 9 1.25H15C20.43 1.25 22.75 3.57 22.75 9V13C22.75 13.41 22.41 13.75 22 13.75C21.59 13.75 21.25 13.41 21.25 13V9C21.25 4.39 19.61 2.75 15 2.75H9C4.39 2.75 2.75 4.39 2.75 9V15C2.75 19.61 4.39 21.25 9 21.25H15C15.41 21.25 15.75 21.59 15.75 22C15.75 22.41 15.41 22.75 15 22.75Z" fill="#242424"/>
<path d="M18.9999 22.75C18.5899 22.75 18.2499 22.41 18.2499 22V17.81L17.5299 18.53C17.2399 18.82 16.7599 18.82 16.4699 18.53C16.1799 18.24 16.1799 17.76 16.4699 17.47L18.4699 15.47C18.6799 15.26 19.0099 15.19 19.2899 15.31C19.5699 15.43 19.7499 15.7 19.7499 16V22C19.7499 22.41 19.4099 22.75 18.9999 22.75Z" fill="#242424"/>
<path d="M20.9999 18.7499C20.8099 18.7499 20.6199 18.6799 20.4699 18.5299L18.4699 16.5299C18.1799 16.2399 18.1799 15.7599 18.4699 15.4699C18.7599 15.1799 19.2399 15.1799 19.5299 15.4699L21.5299 17.4699C21.8199 17.7599 21.8199 18.2399 21.5299 18.5299C21.3799 18.6799 21.1899 18.7499 20.9999 18.7499Z" fill="#242424"/>
<path d="M8.89999 16.4901C8.86999 16.4901 8.83999 16.4901 8.81999 16.4901C8.40999 16.4401 8.10999 16.0701 8.15999 15.6601L9.19999 6.1801C9.24999 5.7701 9.61999 5.4701 10.03 5.5201C10.44 5.5701 10.74 5.9401 10.69 6.3501L9.63999 15.8201C9.59999 16.2001 9.26999 16.4901 8.89999 16.4901Z" fill="#242424"/>
<path d="M12.0499 16.4899C12.0199 16.4899 11.9899 16.4899 11.9699 16.4899C11.5599 16.4399 11.2599 16.0699 11.3099 15.6599L12.3599 6.18986C12.4099 5.77986 12.7799 5.47986 13.1899 5.52986C13.5999 5.57986 13.8999 5.94986 13.8499 6.35986L12.7999 15.8299C12.7599 16.1999 12.4299 16.4899 12.0499 16.4899Z" fill="#242424"/>
<path d="M16 10.1699H6.53003C6.12003 10.1699 5.78003 9.82992 5.78003 9.41992C5.78003 9.00992 6.12003 8.66992 6.53003 8.66992H16C16.41 8.66992 16.75 9.00992 16.75 9.41992C16.75 9.82992 16.41 10.1699 16 10.1699Z" fill="#242424"/>
<path d="M15.47 13.3301H6C5.59 13.3301 5.25 12.9901 5.25 12.5801C5.25 12.1701 5.59 11.8301 6 11.8301H15.47C15.88 11.8301 16.22 12.1701 16.22 12.5801C16.22 12.9901 15.89 13.3301 15.47 13.3301Z" fill="#242424"/>
</svg>
