<svg width="24" height="24" viewBox="0 0 24 24" fill="none" xmlns="http://www.w3.org/2000/svg">
<path d="M7.7998 15.1502C7.3898 15.1502 7.0498 14.8102 7.0498 14.4002V10.2002C7.0498 9.7902 7.3898 9.4502 7.7998 9.4502C8.2098 9.4502 8.5498 9.7902 8.5498 10.2002V14.4002C8.5498 14.8102 8.2098 15.1502 7.7998 15.1502Z" fill="#242424"/>
<path d="M7.95001 10.65C6.46001 10.65 5.25 9.44001 5.25 7.95001C5.25 6.46001 6.46001 5.25 7.95001 5.25C9.44001 5.25 10.65 6.46001 10.65 7.95001C10.65 9.44001 9.44001 10.65 7.95001 10.65ZM7.95001 6.75C7.29001 6.75 6.75 7.29001 6.75 7.95001C6.75 8.61001 7.29001 9.14999 7.95001 9.14999C8.61001 9.14999 9.15002 8.61001 9.15002 7.95001C9.15002 7.29001 8.61001 6.75 7.95001 6.75Z" fill="#242424"/>
<path d="M7.79999 18.7499C6.38999 18.7499 5.25 17.6099 5.25 16.1999C5.25 14.7899 6.38999 13.6499 7.79999 13.6499C9.20999 13.6499 10.35 14.7899 10.35 16.1999C10.35 17.6099 9.20999 18.7499 7.79999 18.7499ZM7.79999 15.1499C7.21999 15.1499 6.75 15.6199 6.75 16.1999C6.75 16.7799 7.21999 17.2499 7.79999 17.2499C8.37999 17.2499 8.84998 16.7799 8.84998 16.1999C8.84998 15.6199 8.37999 15.1499 7.79999 15.1499Z" fill="#242424"/>
<path d="M16.1999 18.7499C14.7899 18.7499 13.6499 17.6099 13.6499 16.1999C13.6499 14.7899 14.7899 13.6499 16.1999 13.6499C17.6099 13.6499 18.7499 14.7899 18.7499 16.1999C18.7499 17.6099 17.6099 18.7499 16.1999 18.7499ZM16.1999 15.1499C15.6199 15.1499 15.1499 15.6199 15.1499 16.1999C15.1499 16.7799 15.6199 17.2499 16.1999 17.2499C16.7799 17.2499 17.2499 16.7799 17.2499 16.1999C17.2499 15.6199 16.7799 15.1499 16.1999 15.1499Z" fill="#242424"/>
<path d="M15.7001 15.17C15.3901 15.17 15.1001 14.98 14.9901 14.67C14.5901 13.53 13.5201 12.77 12.3101 12.77H12.3001L10.2401 12.78H10.2301C8.78007 12.78 7.51011 11.8 7.15011 10.4C7.05011 9.99996 7.29009 9.58995 7.69009 9.48995C8.08009 9.38995 8.50006 9.62996 8.60006 10.03C8.79006 10.77 9.46007 11.29 10.2301 11.29C10.2301 11.29 10.2301 11.29 10.2401 11.29L12.3001 11.28C12.3101 11.28 12.3101 11.28 12.3201 11.28C14.1601 11.28 15.8101 12.45 16.4201 14.19C16.5601 14.58 16.3501 15.01 15.9601 15.15C15.8701 15.16 15.7801 15.17 15.7001 15.17Z" fill="#242424"/>
<path d="M15 22.75H9C3.57 22.75 1.25 20.43 1.25 15V9C1.25 3.57 3.57 1.25 9 1.25H15C20.43 1.25 22.75 3.57 22.75 9V15C22.75 20.43 20.43 22.75 15 22.75ZM9 2.75C4.39 2.75 2.75 4.39 2.75 9V15C2.75 19.61 4.39 21.25 9 21.25H15C19.61 21.25 21.25 19.61 21.25 15V9C21.25 4.39 19.61 2.75 15 2.75H9Z" fill="#242424"/>
</svg>
