<svg width="24" height="24" viewBox="0 0 24 24" fill="none" xmlns="http://www.w3.org/2000/svg">
<path d="M16.4498 15.15C16.0398 15.15 15.6998 14.81 15.6998 14.4V8.5C15.6998 8.36 15.5898 8.25 15.4498 8.25H12.5498C12.1398 8.25 11.7998 7.91 11.7998 7.5C11.7998 7.09 12.1398 6.75 12.5498 6.75H15.4498C16.4098 6.75 17.1998 7.54 17.1998 8.5V14.4C17.1998 14.81 16.8598 15.15 16.4498 15.15Z" fill="#242424"/>
<path d="M14.05 9.75017C13.88 9.75017 13.71 9.69016 13.57 9.58016L11.77 8.08016C11.6 7.94016 11.5 7.73017 11.5 7.50017C11.5 7.27017 11.6 7.07019 11.77 6.92019L13.57 5.42019C13.89 5.16019 14.36 5.20016 14.63 5.52016C14.9 5.84016 14.85 6.31016 14.53 6.58016L13.42 7.50017L14.53 8.42019C14.85 8.69019 14.89 9.16018 14.63 9.48018C14.48 9.66018 14.26 9.75017 14.05 9.75017Z" fill="#242424"/>
<path d="M7.5498 15.1502C7.1398 15.1502 6.7998 14.8102 6.7998 14.4002V10.2002C6.7998 9.7902 7.1398 9.4502 7.5498 9.4502C7.9598 9.4502 8.2998 9.7902 8.2998 10.2002V14.4002C8.2998 14.8102 7.9598 15.1502 7.5498 15.1502Z" fill="#242424"/>
<path d="M7.70001 10.65C6.21001 10.65 5 9.44001 5 7.95001C5 6.46001 6.21001 5.25 7.70001 5.25C9.19001 5.25 10.4 6.46001 10.4 7.95001C10.4 9.44001 9.19001 10.65 7.70001 10.65ZM7.70001 6.75C7.04001 6.75 6.5 7.29001 6.5 7.95001C6.5 8.61001 7.04001 9.14999 7.70001 9.14999C8.36001 9.14999 8.90002 8.61001 8.90002 7.95001C8.90002 7.29001 8.36001 6.75 7.70001 6.75Z" fill="#242424"/>
<path d="M7.54999 18.7499C6.13999 18.7499 5 17.6099 5 16.1999C5 14.7899 6.13999 13.6499 7.54999 13.6499C8.95999 13.6499 10.1 14.7899 10.1 16.1999C10.1 17.6099 8.95999 18.7499 7.54999 18.7499ZM7.54999 15.1499C6.96999 15.1499 6.5 15.6199 6.5 16.1999C6.5 16.7799 6.96999 17.2499 7.54999 17.2499C8.12999 17.2499 8.59998 16.7799 8.59998 16.1999C8.59998 15.6199 8.12999 15.1499 7.54999 15.1499Z" fill="#242424"/>
<path d="M16.4499 18.7499C15.0399 18.7499 13.8999 17.6099 13.8999 16.1999C13.8999 14.7899 15.0399 13.6499 16.4499 13.6499C17.8599 13.6499 18.9999 14.7899 18.9999 16.1999C18.9999 17.6099 17.8599 18.7499 16.4499 18.7499ZM16.4499 15.1499C15.8699 15.1499 15.3999 15.6199 15.3999 16.1999C15.3999 16.7799 15.8699 17.2499 16.4499 17.2499C17.0299 17.2499 17.4999 16.7799 17.4999 16.1999C17.4999 15.6199 17.0299 15.1499 16.4499 15.1499Z" fill="#242424"/>
<path d="M15 22.75H9C3.57 22.75 1.25 20.43 1.25 15V9C1.25 3.57 3.57 1.25 9 1.25H15C20.43 1.25 22.75 3.57 22.75 9V15C22.75 20.43 20.43 22.75 15 22.75ZM9 2.75C4.39 2.75 2.75 4.39 2.75 9V15C2.75 19.61 4.39 21.25 9 21.25H15C19.61 21.25 21.25 19.61 21.25 15V9C21.25 4.39 19.61 2.75 15 2.75H9Z" fill="#242424"/>
</svg>
