<svg width="24" height="24" viewBox="0 0 24 24" fill="none" xmlns="http://www.w3.org/2000/svg">
<path d="M7.7998 14.5501C7.3898 14.5501 7.0498 14.2101 7.0498 13.8001V9.6001C7.0498 9.1901 7.3898 8.8501 7.7998 8.8501C8.2098 8.8501 8.5498 9.1901 8.5498 9.6001V13.8001C8.5498 14.2101 8.2098 14.5501 7.7998 14.5501Z" fill="#242424"/>
<path d="M7.95001 18.7501C6.46001 18.7501 5.25 17.5401 5.25 16.0501C5.25 14.5601 6.46001 13.3501 7.95001 13.3501C9.44001 13.3501 10.65 14.5601 10.65 16.0501C10.65 17.5401 9.44001 18.7501 7.95001 18.7501ZM7.95001 14.8501C7.29001 14.8501 6.75 15.3901 6.75 16.0501C6.75 16.7101 7.29001 17.2501 7.95001 17.2501C8.61001 17.2501 9.15002 16.7101 9.15002 16.0501C9.15002 15.3901 8.61001 14.8501 7.95001 14.8501Z" fill="#242424"/>
<path d="M7.79999 10.35C6.38999 10.35 5.25 9.20999 5.25 7.79999C5.25 6.38999 6.38999 5.25 7.79999 5.25C9.20999 5.25 10.35 6.38999 10.35 7.79999C10.35 9.20999 9.20999 10.35 7.79999 10.35ZM7.79999 6.75C7.21999 6.75 6.75 7.21999 6.75 7.79999C6.75 8.37999 7.21999 8.85001 7.79999 8.85001C8.37999 8.85001 8.84998 8.37999 8.84998 7.79999C8.84998 7.21999 8.37999 6.75 7.79999 6.75Z" fill="#242424"/>
<path d="M16.1999 10.35C14.7899 10.35 13.6499 9.20999 13.6499 7.79999C13.6499 6.38999 14.7899 5.25 16.1999 5.25C17.6099 5.25 18.7499 6.38999 18.7499 7.79999C18.7499 9.20999 17.6099 10.35 16.1999 10.35ZM16.1999 6.75C15.6199 6.75 15.1499 7.21999 15.1499 7.79999C15.1499 8.37999 15.6199 8.85001 16.1999 8.85001C16.7799 8.85001 17.2499 8.37999 17.2499 7.79999C17.2499 7.21999 16.7799 6.75 16.1999 6.75Z" fill="#242424"/>
<path d="M7.88009 14.5501C7.82009 14.5501 7.75009 14.5401 7.69009 14.5301C7.29009 14.4301 7.05011 14.0201 7.15011 13.6201C7.51011 12.2101 8.78007 11.2401 10.2301 11.2401H10.2401L12.3001 11.2501H12.3101C13.5201 11.2501 14.5901 10.4901 14.9901 9.35014C15.1301 8.96014 15.5601 8.75015 15.9401 8.89015C16.3301 9.03015 16.5401 9.45014 16.4001 9.85014C15.7901 11.6001 14.1501 12.7701 12.2901 12.7601L10.2301 12.7501C10.2301 12.7501 10.2301 12.7501 10.2201 12.7501C9.45006 12.7501 8.78011 13.2701 8.59011 14.0101C8.52011 14.3301 8.21009 14.5501 7.88009 14.5501Z" fill="#242424"/>
<path d="M15 22.75H9C3.57 22.75 1.25 20.43 1.25 15V9C1.25 3.57 3.57 1.25 9 1.25H15C20.43 1.25 22.75 3.57 22.75 9V15C22.75 20.43 20.43 22.75 15 22.75ZM9 2.75C4.39 2.75 2.75 4.39 2.75 9V15C2.75 19.61 4.39 21.25 9 21.25H15C19.61 21.25 21.25 19.61 21.25 15V9C21.25 4.39 19.61 2.75 15 2.75H9Z" fill="#242424"/>
</svg>
