<svg width="24" height="24" viewBox="0 0 24 24" fill="none" xmlns="http://www.w3.org/2000/svg">
<path d="M13.4999 5.75024H10.4799C9.25993 5.75024 8.24993 4.76022 8.22993 3.54022L8.19993 2.01025C8.18993 1.60025 8.51991 1.25023 8.92991 1.24023C8.93991 1.24023 8.93993 1.24023 8.94993 1.24023C9.35993 1.24023 9.68993 1.57021 9.69993 1.97021L9.72993 3.50024C9.73993 3.90024 10.0799 4.24023 10.4799 4.24023H13.4999C13.9199 4.24023 14.2499 3.90023 14.2499 3.49023V2.00024C14.2499 1.59024 14.5899 1.25024 14.9999 1.25024C15.4099 1.25024 15.7499 1.59024 15.7499 2.00024V3.50024C15.7499 4.74024 14.7399 5.75024 13.4999 5.75024Z" fill="#242424"/>
<path d="M16.9999 21.75C16.8099 21.75 16.6199 21.68 16.4699 21.53L14.4699 19.53C14.1799 19.24 14.1799 18.7599 14.4699 18.4699L16.4699 16.4699C16.7599 16.1799 17.2399 16.1799 17.5299 16.4699C17.8199 16.7599 17.8199 17.24 17.5299 17.53L16.0599 19L17.5299 20.4699C17.8199 20.7599 17.8199 21.24 17.5299 21.53C17.3799 21.68 17.1899 21.75 16.9999 21.75Z" fill="#242424"/>
<path d="M19.9999 21.75C19.8099 21.75 19.6199 21.68 19.4699 21.53C19.1799 21.24 19.1799 20.7599 19.4699 20.4699L20.9399 19L19.4699 17.53C19.1799 17.24 19.1799 16.7599 19.4699 16.4699C19.7599 16.1799 20.2399 16.1799 20.5299 16.4699L22.5299 18.4699C22.8199 18.7599 22.8199 19.24 22.5299 19.53L20.5299 21.53C20.3799 21.68 20.1899 21.75 19.9999 21.75Z" fill="#242424"/>
<path d="M13 22.75H8C4.35 22.75 2.25 20.65 2.25 17V7C2.25 3.35 4.35 1.25 8 1.25H16C19.65 1.25 21.75 3.35 21.75 7V14C21.75 14.41 21.41 14.75 21 14.75C20.59 14.75 20.25 14.41 20.25 14V7C20.25 4.14 18.86 2.75 16 2.75H8C5.14 2.75 3.75 4.14 3.75 7V17C3.75 19.86 5.14 21.25 8 21.25H13C13.41 21.25 13.75 21.59 13.75 22C13.75 22.41 13.41 22.75 13 22.75Z" fill="#242424"/>
</svg>
