<svg width="24" height="24" viewBox="0 0 24 24" fill="none" xmlns="http://www.w3.org/2000/svg">
<path d="M15 22.75H9C3.57 22.75 1.25 20.43 1.25 15V9C1.25 3.57 3.57 1.25 9 1.25H15C20.43 1.25 22.75 3.57 22.75 9V15C22.75 20.43 20.43 22.75 15 22.75ZM9 2.75C4.39 2.75 2.75 4.39 2.75 9V15C2.75 19.61 4.39 21.25 9 21.25H15C19.61 21.25 21.25 19.61 21.25 15V9C21.25 4.39 19.61 2.75 15 2.75H9Z" fill="#242424"/>
<path d="M9.59995 15.7799C9.40995 15.7799 9.21995 15.7099 9.06995 15.5599L6.57995 13.0699C5.98995 12.4799 5.98995 11.5299 6.57995 10.9399L9.06995 8.44992C9.35995 8.15992 9.83995 8.15992 10.13 8.44992C10.42 8.73992 10.42 9.21992 10.13 9.50992L7.63995 11.9999L10.13 14.4999C10.42 14.7899 10.42 15.2699 10.13 15.5599C9.97995 15.6999 9.78995 15.7799 9.59995 15.7799Z" fill="#242424"/>
<path d="M14.4001 15.7802C14.2101 15.7802 14.0201 15.7102 13.8701 15.5602C13.5801 15.2702 13.5801 14.7902 13.8701 14.5002L16.3601 12.0002L13.8701 9.50016C13.5801 9.21016 13.5801 8.73016 13.8701 8.44016C14.1601 8.15016 14.6401 8.15016 14.9301 8.44016L17.4201 10.9302C18.0101 11.5202 18.0101 12.4702 17.4201 13.0602L14.9301 15.5502C14.7901 15.7002 14.5901 15.7802 14.4001 15.7802Z" fill="#242424"/>
</svg>
