<svg width="24" height="24" viewBox="0 0 24 24" fill="none" xmlns="http://www.w3.org/2000/svg">
<path d="M14.97 22.75H8.96997C3.53997 22.75 1.21997 20.43 1.21997 15V9C1.21997 3.57 3.53997 1.25 8.96997 1.25H14.97C20.4 1.25 22.72 3.57 22.72 9V15C22.72 20.43 20.41 22.75 14.97 22.75ZM8.96997 2.75C4.35997 2.75 2.71997 4.39 2.71997 9V15C2.71997 19.61 4.35997 21.25 8.96997 21.25H14.97C19.58 21.25 21.22 19.61 21.22 15V9C21.22 4.39 19.58 2.75 14.97 2.75H8.96997Z" fill="#242424"/>
<path d="M22 16.25H2C1.59 16.25 1.25 15.91 1.25 15.5C1.25 15.09 1.59 14.75 2 14.75H22C22.41 14.75 22.75 15.09 22.75 15.5C22.75 15.91 22.41 16.25 22 16.25Z" fill="#242424"/>
<path d="M11.9999 11.8099C11.8099 11.8099 11.6199 11.7399 11.4699 11.5899L8.90988 9.02994C8.61988 8.73994 8.61988 8.25994 8.90988 7.96994C9.19988 7.67994 9.67988 7.67994 9.96988 7.96994L11.9999 9.99994L14.0299 7.96994C14.3199 7.67994 14.7999 7.67994 15.0899 7.96994C15.3799 8.25994 15.3799 8.73994 15.0899 9.02994L12.5299 11.5899C12.3799 11.7399 12.1899 11.8099 11.9999 11.8099Z" fill="#242424"/>
</svg>
