<svg width="24" height="24" viewBox="0 0 24 24" fill="none" xmlns="http://www.w3.org/2000/svg">
<path d="M14.97 22.75H8.96997C3.53997 22.75 1.21997 20.43 1.21997 15V9C1.21997 3.57 3.53997 1.25 8.96997 1.25H14.97C20.4 1.25 22.72 3.57 22.72 9V15C22.72 20.43 20.41 22.75 14.97 22.75ZM8.96997 2.75C4.35997 2.75 2.71997 4.39 2.71997 9V15C2.71997 19.61 4.35997 21.25 8.96997 21.25H14.97C19.58 21.25 21.22 19.61 21.22 15V9C21.22 4.39 19.58 2.75 14.97 2.75H8.96997Z" fill="#242424"/>
<path d="M7.96997 22.75C7.55997 22.75 7.21997 22.41 7.21997 22V2C7.21997 1.59 7.55997 1.25 7.96997 1.25C8.37997 1.25 8.71997 1.59 8.71997 2V22C8.71997 22.41 8.38997 22.75 7.96997 22.75Z" fill="#242424"/>
<path d="M14.9701 15.3099C14.7801 15.3099 14.5901 15.2399 14.4401 15.0899L11.8801 12.5299C11.5901 12.2399 11.5901 11.7599 11.8801 11.4699L14.4401 8.90988C14.7301 8.61988 15.2101 8.61988 15.5001 8.90988C15.7901 9.19988 15.7901 9.67988 15.5001 9.96988L13.4801 11.9999L15.5101 14.0299C15.8001 14.3199 15.8001 14.7999 15.5101 15.0899C15.3601 15.2399 15.1701 15.3099 14.9701 15.3099Z" fill="#242424"/>
</svg>
