<svg width="24" height="24" viewBox="0 0 24 24" fill="none" xmlns="http://www.w3.org/2000/svg">
<path d="M11.9998 13.2999C11.8698 13.2999 11.7398 13.2699 11.6198 13.1999L2.78985 8.0899C2.42985 7.8799 2.30983 7.41987 2.51983 7.05987C2.72983 6.69987 3.17983 6.57985 3.54983 6.78985L11.9998 11.6799L20.3998 6.81988C20.7598 6.60988 21.2198 6.7399 21.4298 7.0899C21.6398 7.4499 21.5098 7.90987 21.1598 8.11987L12.3899 13.1999C12.2599 13.2599 12.1298 13.2999 11.9998 13.2999Z" fill="#242424"/>
<path d="M12 22.36C11.59 22.36 11.25 22.02 11.25 21.61V12.54C11.25 12.13 11.59 11.79 12 11.79C12.41 11.79 12.75 12.13 12.75 12.54V21.61C12.75 22.02 12.41 22.36 12 22.36Z" fill="#242424"/>
<path d="M11.9999 22.7502C11.0899 22.7502 10.2199 22.5402 9.55988 22.1702L4.21988 19.2103C2.76988 18.4103 1.62988 16.4802 1.62988 14.8202V9.16021C1.62988 7.50021 2.76988 5.58026 4.21988 4.77026L9.55988 1.81023C10.9199 1.05023 13.0599 1.05023 14.4299 1.81023L19.7699 4.77026C21.2199 5.57026 22.3599 7.50021 22.3599 9.16021V12.8202C22.3599 13.2302 22.0199 13.5702 21.6099 13.5702C21.1999 13.5702 20.8599 13.2302 20.8599 12.8202V9.16021C20.8599 8.06021 20.0099 6.62026 19.0499 6.09026L13.7099 3.13024C12.7999 2.62024 11.2099 2.62024 10.2999 3.13024L4.95987 6.09026C3.98987 6.63026 3.14987 8.06021 3.14987 9.16021V14.8202C3.14987 15.9202 3.99987 17.3603 4.95987 17.8903L10.2999 20.8502C11.1799 21.3402 12.8399 21.3402 13.7099 20.8502C14.0699 20.6502 14.5299 20.7803 14.7299 21.1403C14.9299 21.5003 14.7999 21.9602 14.4399 22.1602C13.7799 22.5402 12.9099 22.7502 11.9999 22.7502Z" fill="#242424"/>
<path d="M19.2 22.15C17.02 22.15 15.25 20.38 15.25 18.2C15.25 16.02 17.02 14.25 19.2 14.25C21.38 14.25 23.15 16.02 23.15 18.2C23.15 20.38 21.38 22.15 19.2 22.15ZM19.2 15.75C17.85 15.75 16.75 16.85 16.75 18.2C16.75 19.55 17.85 20.65 19.2 20.65C20.55 20.65 21.65 19.55 21.65 18.2C21.65 16.85 20.55 15.75 19.2 15.75Z" fill="#242424"/>
<path d="M22.9999 22.75C22.8099 22.75 22.6199 22.68 22.4699 22.53L21.4699 21.53C21.1799 21.24 21.1799 20.7599 21.4699 20.4699C21.7599 20.1799 22.2399 20.1799 22.5299 20.4699L23.5299 21.4699C23.8199 21.7599 23.8199 22.24 23.5299 22.53C23.3799 22.68 23.1899 22.75 22.9999 22.75Z" fill="#242424"/>
</svg>
