<svg width="24" height="24" viewBox="0 0 24 24" fill="none" xmlns="http://www.w3.org/2000/svg">
<path d="M19.0001 22.7502C17.3801 22.7502 15.8501 21.9102 14.9901 20.5302C14.5301 19.8202 14.2701 18.9701 14.2501 18.1001C14.2201 16.6401 14.8401 15.2801 15.9501 14.3601C16.7801 13.6701 17.8201 13.2802 18.8901 13.2502C20.1901 13.2402 21.3601 13.6902 22.2801 14.5702C23.2001 15.4502 23.7201 16.6302 23.7401 17.9002C23.7601 18.7702 23.5401 19.6202 23.1001 20.3702C22.8601 20.7902 22.5501 21.1802 22.1801 21.5102C21.3601 22.2802 20.2601 22.7302 19.0901 22.7502C19.0701 22.7502 19.0401 22.7502 19.0001 22.7502ZM19.0001 14.7502C18.9801 14.7502 18.9501 14.7502 18.9301 14.7502C18.1901 14.7702 17.4901 15.0302 16.9101 15.5102C16.1501 16.1402 15.7301 17.0702 15.7501 18.0702C15.7601 18.6602 15.9401 19.2401 16.2501 19.7301C16.8601 20.7101 17.9201 21.3102 19.0601 21.2502C19.8501 21.2302 20.6001 20.9302 21.1701 20.4002C21.4301 20.1702 21.6401 19.9102 21.8001 19.6302C22.1001 19.1102 22.2501 18.5302 22.2401 17.9402C22.2201 17.0702 21.8701 16.2601 21.2401 15.6601C20.6401 15.0701 19.8401 14.7502 19.0001 14.7502Z" fill="#242424"/>
<path d="M18.4499 19.7497C18.2599 19.7497 18.0799 19.6797 17.9299 19.5397L16.9199 18.5797C16.6199 18.2897 16.6099 17.8197 16.8999 17.5197C17.1899 17.2197 17.6599 17.2097 17.9599 17.4997L18.4499 17.9697L20.0199 16.4497C20.3199 16.1597 20.7899 16.1697 21.0799 16.4697C21.3699 16.7697 21.3599 17.2397 21.0599 17.5297L18.9699 19.5497C18.8199 19.6797 18.6299 19.7497 18.4499 19.7497Z" fill="#242424"/>
<path d="M11.9998 13.2999C11.8698 13.2999 11.7398 13.2699 11.6198 13.1999L2.78985 8.0899C2.42985 7.8799 2.30983 7.41987 2.51983 7.05987C2.72983 6.69987 3.18985 6.57985 3.53985 6.78985L11.9898 11.6799L20.3899 6.81988C20.7499 6.60988 21.2098 6.7399 21.4098 7.0899C21.6198 7.4499 21.4899 7.90987 21.1399 8.11987L12.3698 13.1999C12.2598 13.2599 12.1298 13.2999 11.9998 13.2999Z" fill="#242424"/>
<path d="M12 22.36C11.59 22.36 11.25 22.02 11.25 21.61V12.54C11.25 12.13 11.59 11.79 12 11.79C12.41 11.79 12.75 12.13 12.75 12.54V21.61C12.75 22.02 12.41 22.36 12 22.36Z" fill="#242424"/>
<path d="M11.9999 22.7499C11.1199 22.7499 10.2399 22.5599 9.55988 22.1699L4.21988 19.2099C2.76988 18.4099 1.62988 16.4799 1.62988 14.8199V9.1599C1.62988 7.4999 2.76988 5.57994 4.21988 4.76994L9.55988 1.80992C10.9199 1.03992 13.0599 1.03992 14.4299 1.80992L19.7699 4.76994C21.2199 5.56994 22.3599 7.4999 22.3599 9.1599V14.8199C22.3599 14.9199 22.3599 14.9999 22.3399 15.0999C22.2899 15.3599 22.0999 15.5799 21.8499 15.6599C21.5999 15.7499 21.3199 15.6899 21.1099 15.5199C19.9599 14.5199 18.1799 14.4799 16.9699 15.4499C16.1999 16.0599 15.7499 16.9899 15.7499 17.9799C15.7499 18.5699 15.9099 19.1499 16.2199 19.6499C16.2999 19.7899 16.3799 19.8999 16.4699 20.0099C16.6199 20.1799 16.6799 20.4099 16.6399 20.6299C16.5999 20.8499 16.4599 21.0399 16.2599 21.1499L14.4299 22.1599C13.7499 22.5599 12.8799 22.7499 11.9999 22.7499ZM11.9999 2.74992C11.3799 2.74992 10.7499 2.87993 10.2999 3.12993L4.95987 6.08995C3.98987 6.61995 3.14987 8.0599 3.14987 9.1599V14.8199C3.14987 15.9199 3.99987 17.3599 4.95987 17.8899L10.2999 20.8499C11.2099 21.3599 12.7999 21.3599 13.7099 20.8499L14.8299 20.2299C14.4599 19.5599 14.2599 18.7799 14.2599 17.9799C14.2599 16.5199 14.9099 15.1699 16.0399 14.2699C17.3999 13.1799 19.3399 12.9499 20.8699 13.5999V9.13994C20.8699 8.03994 20.0199 6.59993 19.0599 6.06993L13.7199 3.10991C13.2499 2.87991 12.6199 2.74992 11.9999 2.74992Z" fill="#242424"/>
</svg>
