<svg width="24" height="24" viewBox="0 0 24 24" fill="none" xmlns="http://www.w3.org/2000/svg">
<path d="M19 8.75C16.93 8.75 15.25 7.07 15.25 5C15.25 2.93 16.93 1.25 19 1.25C21.07 1.25 22.75 2.93 22.75 5C22.75 7.07 21.07 8.75 19 8.75ZM19 2.75C17.76 2.75 16.75 3.76 16.75 5C16.75 6.24 17.76 7.25 19 7.25C20.24 7.25 21.25 6.24 21.25 5C21.25 3.76 20.24 2.75 19 2.75Z" fill="#242424"/>
<path d="M15 22.75H9C3.57 22.75 1.25 20.43 1.25 15V9C1.25 3.57 3.57 1.25 9 1.25H14C14.41 1.25 14.75 1.59 14.75 2C14.75 2.41 14.41 2.75 14 2.75H9C4.39 2.75 2.75 4.39 2.75 9V15C2.75 19.61 4.39 21.25 9 21.25H15C19.61 21.25 21.25 19.61 21.25 15V10C21.25 9.59 21.59 9.25 22 9.25C22.41 9.25 22.75 9.59 22.75 10V15C22.75 20.43 20.43 22.75 15 22.75Z" fill="#242424"/>
<path d="M9.80993 18.3302C8.88993 18.3302 6.74993 17.2102 6.08993 15.1502C5.63993 13.7402 6.15993 11.8902 7.78993 11.3602C8.48993 11.1302 9.21993 11.2402 9.79993 11.6102C10.3699 11.2402 11.1199 11.1302 11.8199 11.3602C13.4499 11.8902 13.9799 13.7402 13.5199 15.1502C12.8699 17.2502 10.6299 18.3302 9.80993 18.3302ZM7.51993 14.7002C7.97993 16.1502 9.53993 16.8102 9.81993 16.8402C10.1399 16.8102 11.6699 16.0702 12.0899 14.7102C12.3199 13.9802 12.0899 13.0402 11.3599 12.8002C11.0499 12.7002 10.6299 12.7602 10.4299 13.0502C10.2899 13.2602 10.0699 13.3802 9.81993 13.3902C9.57993 13.3902 9.33993 13.2802 9.19993 13.0802C8.95993 12.7502 8.53993 12.7002 8.24993 12.8002C7.52993 13.0302 7.28993 13.9702 7.51993 14.7002Z" fill="#242424"/>
</svg>
