<svg width="24" height="24" viewBox="0 0 24 24" fill="none" xmlns="http://www.w3.org/2000/svg">
<path d="M14 6.75H10C9.04 6.75 7.25 6.75 7.25 4C7.25 1.25 9.04 1.25 10 1.25H14C14.96 1.25 16.75 1.25 16.75 4C16.75 4.96 16.75 6.75 14 6.75ZM10 2.75C9.01 2.75 8.75 2.75 8.75 4C8.75 5.25 9.01 5.25 10 5.25H14C15.25 5.25 15.25 4.99 15.25 4C15.25 2.75 14.99 2.75 14 2.75H10Z" fill="#242424"/>
<path d="M14 22.7502H9C3.38 22.7502 2.25 20.1702 2.25 16.0002V10.0002C2.25 5.44021 3.9 3.49021 7.96 3.28021C8.35 3.26021 8.73 3.57021 8.75 3.99021C8.77 4.41021 8.45 4.75021 8.04 4.77021C5.2 4.93021 3.75 5.78021 3.75 10.0002V16.0002C3.75 19.7002 4.48 21.2502 9 21.2502H14C14.41 21.2502 14.75 21.5902 14.75 22.0002C14.75 22.4102 14.41 22.7502 14 22.7502Z" fill="#242424"/>
<path d="M20.9999 15.7499C20.5899 15.7499 20.2499 15.4099 20.2499 14.9999V9.99993C20.2499 5.77993 18.7999 4.92993 15.9599 4.76993C15.5499 4.74993 15.2299 4.38993 15.2499 3.97993C15.2699 3.56993 15.6299 3.24993 16.0399 3.26993C20.0999 3.48993 21.7499 5.43993 21.7499 9.98993V14.9899C21.7499 15.4099 21.4099 15.7499 20.9999 15.7499Z" fill="#242424"/>
<path d="M15 19.75C14.59 19.75 14.25 19.41 14.25 19V16C14.25 15.59 14.59 15.25 15 15.25H18C18.41 15.25 18.75 15.59 18.75 16C18.75 16.41 18.41 16.75 18 16.75H15.75V19C15.75 19.41 15.41 19.75 15 19.75Z" fill="#242424"/>
<path d="M21 22.75C20.81 22.75 20.62 22.68 20.47 22.53L14.51 16.57C14.22 16.28 14.22 15.8 14.51 15.51C14.8 15.22 15.28 15.22 15.57 15.51L21.53 21.47C21.82 21.76 21.82 22.24 21.53 22.53C21.38 22.68 21.19 22.75 21 22.75Z" fill="#242424"/>
</svg>
