<svg width="24" height="24" viewBox="0 0 24 24" fill="none" xmlns="http://www.w3.org/2000/svg">
<path d="M14 6.75H10C9.04 6.75 7.25 6.75 7.25 4C7.25 1.25 9.04 1.25 10 1.25H14C14.96 1.25 16.75 1.25 16.75 4C16.75 4.96 16.75 6.75 14 6.75ZM10 2.75C9.01 2.75 8.75 2.75 8.75 4C8.75 5.25 9.01 5.25 10 5.25H14C15.25 5.25 15.25 4.99 15.25 4C15.25 2.75 14.99 2.75 14 2.75H10Z" fill="#242424"/>
<path d="M14 22.7502H9C3.38 22.7502 2.25 20.1702 2.25 16.0002V10.0002C2.25 5.44021 3.9 3.49021 7.96 3.28021C8.36 3.26021 8.73 3.57021 8.75 3.99021C8.77 4.41021 8.45 4.75021 8.04 4.77021C5.2 4.93021 3.75 5.78021 3.75 10.0002V16.0002C3.75 19.7002 4.48 21.2502 9 21.2502H14C14.41 21.2502 14.75 21.5902 14.75 22.0002C14.75 22.4102 14.41 22.7502 14 22.7502Z" fill="#242424"/>
<path d="M20.9999 15.7499C20.5899 15.7499 20.2499 15.4099 20.2499 14.9999V9.99993C20.2499 5.77993 18.7999 4.92993 15.9599 4.76993C15.5499 4.74993 15.2299 4.38993 15.2499 3.97993C15.2699 3.56993 15.6399 3.24993 16.0399 3.26993C20.0999 3.48993 21.7499 5.43993 21.7499 9.98993V14.9899C21.7499 15.4099 21.4099 15.7499 20.9999 15.7499Z" fill="#242424"/>
<path d="M21 22.75H18C17.59 22.75 17.25 22.41 17.25 22C17.25 21.59 17.59 21.25 18 21.25H20.25V19C20.25 18.59 20.59 18.25 21 18.25C21.41 18.25 21.75 18.59 21.75 19V22C21.75 22.41 21.41 22.75 21 22.75Z" fill="#242424"/>
<path d="M20.9599 22.7099C20.7699 22.7099 20.5799 22.6399 20.4299 22.4899L14.4699 16.5299C14.1799 16.2399 14.1799 15.7599 14.4699 15.4699C14.7599 15.1799 15.2399 15.1799 15.5299 15.4699L21.4899 21.4299C21.7799 21.7199 21.7799 22.1999 21.4899 22.4899C21.3399 22.6299 21.1499 22.7099 20.9599 22.7099Z" fill="#242424"/>
</svg>
