<svg width="24" height="24" viewBox="0 0 24 24" fill="none" xmlns="http://www.w3.org/2000/svg">
<path d="M15 22.75H9C3.57 22.75 1.25 20.43 1.25 15V9C1.25 3.57 3.57 1.25 9 1.25H14C14.41 1.25 14.75 1.59 14.75 2C14.75 2.41 14.41 2.75 14 2.75H9C4.39 2.75 2.75 4.39 2.75 9V15C2.75 19.61 4.39 21.25 9 21.25H15C19.61 21.25 21.25 19.61 21.25 15V10C21.25 9.59 21.59 9.25 22 9.25C22.41 9.25 22.75 9.59 22.75 10V15C22.75 20.43 20.43 22.75 15 22.75Z" fill="#242424"/>
<path d="M22 10.75H18C14.58 10.75 13.25 9.41999 13.25 5.99999V1.99999C13.25 1.69999 13.43 1.41999 13.71 1.30999C13.99 1.18999 14.31 1.25999 14.53 1.46999L22.53 9.46999C22.74 9.67999 22.81 10.01 22.69 10.29C22.58 10.57 22.3 10.75 22 10.75ZM14.75 3.80999V5.99999C14.75 8.57999 15.42 9.24999 18 9.24999H20.19L14.75 3.80999Z" fill="#242424"/>
<path d="M9.6499 18.7102C9.2099 18.7102 8.7899 18.5402 8.4799 18.2302L6.0199 15.7702C5.4799 15.2302 5.3899 14.3202 5.8099 13.6802L6.9399 11.9802C7.2199 11.5502 7.7999 11.2402 8.3199 11.2402H10.9699C11.4799 11.2402 12.0599 11.5502 12.3499 11.9802L13.4799 13.6702C13.8999 14.3002 13.8099 15.2202 13.2699 15.7602L10.8099 18.2202C10.5099 18.5402 10.0899 18.7102 9.6499 18.7102ZM8.3299 12.7502C8.2899 12.7602 8.2099 12.8002 8.1899 12.8302L7.0699 14.5202C7.0399 14.5602 7.0499 14.6802 7.0899 14.7202L9.5499 17.1802C9.5999 17.2302 9.7199 17.2302 9.7699 17.1802L12.2299 14.7202C12.2699 14.6802 12.2799 14.5702 12.2499 14.5202L11.1199 12.8302C11.0999 12.8102 11.0199 12.7702 10.9799 12.7602L8.3299 12.7502Z" fill="#242424"/>
</svg>
