<svg width="24" height="24" viewBox="0 0 24 24" fill="none" xmlns="http://www.w3.org/2000/svg">
<path d="M16.3799 22.7502H3.23993C2.28993 22.7502 1.40993 22.3103 0.839932 21.5403C0.259932 20.7603 0.0899403 19.7802 0.37994 18.8502L4.58993 5.32019C4.96993 4.06019 6.12995 3.2002 7.44995 3.2002H19.7499C20.9599 3.2002 22.0499 3.92028 22.5099 5.04028C22.7599 5.62028 22.8099 6.2803 22.6599 6.9303L19.2899 20.4602C18.9699 21.8102 17.7699 22.7502 16.3799 22.7502ZM7.45993 4.71021C6.80993 4.71021 6.21993 5.14026 6.02993 5.77026L1.81994 19.3003C1.67994 19.7703 1.75993 20.2603 2.05993 20.6603C2.33993 21.0403 2.77994 21.2603 3.24994 21.2603H16.3899C17.08 21.2603 17.6799 20.7902 17.8399 20.1202L21.2099 6.5802C21.2899 6.2502 21.2699 5.92025 21.1399 5.63025C20.9 5.06025 20.3699 4.7002 19.7599 4.7002H7.45993V4.71021Z" fill="#242424"/>
<path d="M20.78 22.75H16C15.59 22.75 15.25 22.41 15.25 22C15.25 21.59 15.59 21.25 16 21.25H20.78C21.19 21.25 21.57 21.08 21.85 20.78C22.13 20.48 22.27 20.08 22.24 19.67L21.25 6.05002C21.22 5.64002 21.53 5.27997 21.94 5.24997C22.35 5.22997 22.71 5.52991 22.74 5.93991L23.73 19.56C23.79 20.38 23.5 21.2 22.94 21.8C22.39 22.41 21.6 22.75 20.78 22.75Z" fill="#242424"/>
<path d="M9.67977 7.12971C9.61977 7.12971 9.55977 7.11969 9.49977 7.10969C9.09977 7.00969 8.84979 6.60966 8.94979 6.19966L9.98976 1.87971C10.0898 1.47971 10.4898 1.22966 10.8998 1.32966C11.2998 1.42966 11.5498 1.8297 11.4498 2.2397L10.4098 6.55977C10.3298 6.89977 10.0198 7.12971 9.67977 7.12971Z" fill="#242424"/>
<path d="M16.3799 7.13974C16.3299 7.13974 16.2699 7.13972 16.2199 7.11972C15.8199 7.02972 15.56 6.62971 15.64 6.22971L16.5799 1.88974C16.6699 1.47974 17.0699 1.22979 17.4699 1.30979C17.8699 1.38979 18.1299 1.79968 18.0499 2.19968L17.1099 6.53977C17.0399 6.89977 16.7299 7.13974 16.3799 7.13974Z" fill="#242424"/>
<path d="M15.7002 12.75H7.7002C7.2902 12.75 6.9502 12.41 6.9502 12C6.9502 11.59 7.2902 11.25 7.7002 11.25H15.7002C16.1102 11.25 16.4502 11.59 16.4502 12C16.4502 12.41 16.1102 12.75 15.7002 12.75Z" fill="#242424"/>
<path d="M14.7002 16.75H6.7002C6.2902 16.75 5.9502 16.41 5.9502 16C5.9502 15.59 6.2902 15.25 6.7002 15.25H14.7002C15.1102 15.25 15.4502 15.59 15.4502 16C15.4502 16.41 15.1102 16.75 14.7002 16.75Z" fill="#242424"/>
</svg>
