<svg width="24" height="24" viewBox="0 0 24 24" fill="none" xmlns="http://www.w3.org/2000/svg">
<path d="M8 16.75H5.43C2.74 16.75 1.25 15.27 1.25 12.57V5.43C1.25 2.74 2.73 1.25 5.43 1.25H10C12.69 1.25 14.18 2.73 14.18 5.43C14.18 5.84 13.84 6.18 13.43 6.18C13.02 6.18 12.68 5.84 12.68 5.43C12.68 3.55 11.88 2.75 10 2.75H5.43C3.55 2.75 2.75 3.55 2.75 5.43V12.57C2.75 14.45 3.55 15.25 5.43 15.25H8C8.41 15.25 8.75 15.59 8.75 16C8.75 16.41 8.41 16.75 8 16.75Z" fill="#242424"/>
<path d="M18.5701 22.75H14.0001C11.3101 22.75 9.82007 21.27 9.82007 18.57V11.43C9.82007 8.74 11.3001 7.25 14.0001 7.25H18.5701C21.2601 7.25 22.7501 8.73 22.7501 11.43V18.57C22.7501 21.27 21.2701 22.75 18.5701 22.75ZM14.0001 8.75C12.1201 8.75 11.3201 9.55 11.3201 11.43V18.57C11.3201 20.45 12.1201 21.25 14.0001 21.25H18.5701C20.4501 21.25 21.2501 20.45 21.2501 18.57V11.43C21.2501 9.55 20.4501 8.75 18.5701 8.75H14.0001Z" fill="#242424"/>
<path d="M18.1299 15.75H14.8799C14.4699 15.75 14.1299 15.41 14.1299 15C14.1299 14.59 14.4699 14.25 14.8799 14.25H18.1299C18.5399 14.25 18.8799 14.59 18.8799 15C18.8799 15.41 18.5399 15.75 18.1299 15.75Z" fill="#242424"/>
<path d="M16.5 17.3799C16.09 17.3799 15.75 17.0399 15.75 16.6299V13.3799C15.75 12.9699 16.09 12.6299 16.5 12.6299C16.91 12.6299 17.25 12.9699 17.25 13.3799V16.6299C17.25 17.0399 16.91 17.3799 16.5 17.3799Z" fill="#242424"/>
</svg>
