<svg width="24" height="24" viewBox="0 0 24 24" fill="none" xmlns="http://www.w3.org/2000/svg">
<path d="M8.96997 16.75C8.57997 16.75 8.23997 16.72 7.91997 16.67C4.11997 16.17 1.21997 12.87 1.21997 9C1.21997 4.73 4.69997 1.25 8.96997 1.25C12.84 1.25 16.14 4.14 16.64 7.97C16.69 8.27 16.72 8.61 16.72 9C16.72 13.27 13.25 16.75 8.96997 16.75ZM8.96997 2.75C5.51997 2.75 2.71997 5.55 2.71997 9C2.71997 12.12 5.04997 14.78 8.13997 15.19C8.39997 15.23 8.66997 15.25 8.96997 15.25C12.42 15.25 15.22 12.45 15.22 9C15.22 8.7 15.2 8.43 15.16 8.19C14.75 5.08 12.1 2.75 8.96997 2.75Z" fill="#242424"/>
<path d="M14.9699 22.7502C11.0999 22.7502 7.79989 19.8602 7.29989 16.0302C7.26989 15.7902 7.34989 15.5602 7.51989 15.3902C7.68989 15.2202 7.93989 15.1502 8.16989 15.1902C8.40989 15.2302 8.66989 15.2502 8.96989 15.2502C12.4199 15.2502 15.2199 12.4502 15.2199 9.00022C15.2199 8.70022 15.1999 8.43022 15.1599 8.19022C15.1199 7.96022 15.1999 7.72022 15.3599 7.55022C15.5199 7.38022 15.7499 7.29022 15.9999 7.33022C19.8299 7.83022 22.7199 11.1302 22.7199 15.0002C22.7199 19.2702 19.2499 22.7502 14.9699 22.7502ZM8.97989 16.7502C9.73989 19.3702 12.1699 21.2502 14.9699 21.2502C18.4199 21.2502 21.2199 18.4502 21.2199 15.0002C21.2199 12.2002 19.3399 9.76022 16.7199 9.01022C16.7199 13.2702 13.2499 16.7502 8.97989 16.7502Z" fill="#242424"/>
<path d="M15.43 16.1598C15.24 16.1598 15.05 16.0898 14.9 15.9498L13.6 14.6698C13.31 14.3798 13.3 13.8998 13.59 13.6098C13.88 13.3198 14.35 13.3098 14.65 13.5998L15.95 14.8798C16.24 15.1698 16.25 15.6498 15.96 15.9398C15.82 16.0798 15.62 16.1598 15.43 16.1598Z" fill="#242424"/>
<path d="M16.9699 12.7499C16.7799 12.7499 16.5899 12.6799 16.4399 12.5299L15.4399 11.5299C15.1499 11.2399 15.1499 10.7599 15.4399 10.4699C15.7299 10.1799 16.2099 10.1799 16.4999 10.4699L17.4999 11.4699C17.7899 11.7599 17.7899 12.2399 17.4999 12.5299C17.3599 12.6799 17.1699 12.7499 16.9699 12.7499Z" fill="#242424"/>
<path d="M11.9699 17.7499C11.7799 17.7499 11.5899 17.6799 11.4399 17.5299L10.4399 16.5299C10.1499 16.2399 10.1499 15.7599 10.4399 15.4699C10.7299 15.1799 11.2099 15.1799 11.4999 15.4699L12.4999 16.4699C12.7899 16.7599 12.7899 17.2399 12.4999 17.5299C12.3599 17.6799 12.1699 17.7499 11.9699 17.7499Z" fill="#242424"/>
</svg>
