<svg width="24" height="24" viewBox="0 0 24 24" fill="none" xmlns="http://www.w3.org/2000/svg">
<path d="M10.3501 18.3902C9.67014 18.3902 9.02012 18.0802 8.40012 17.4602L5.57014 14.6302C4.33014 13.3902 4.33014 11.9702 5.57014 10.7402L10.2901 6.02023C10.5801 5.73023 11.0601 5.73023 11.3501 6.02023L16.5401 11.2102C16.8101 11.4802 16.9501 11.8302 16.9501 12.2102C16.9501 12.5902 16.8001 12.9502 16.5401 13.2102L12.2901 17.4602C11.6901 18.0802 11.0301 18.3902 10.3501 18.3902ZM10.8301 7.60019L6.64014 11.7902C6.32014 12.1102 6.15012 12.4103 6.15012 12.6803C6.15012 12.9403 6.31014 13.2402 6.64014 13.5702L9.47013 16.4002C10.1201 17.0502 10.5901 17.0502 11.2401 16.4002L15.4301 12.2102L10.8301 7.60019Z" fill="#242424"/>
<path d="M10.8301 7.29001C10.6401 7.29001 10.4501 7.22004 10.3001 7.07004L9.36008 6.13004C9.07008 5.84004 9.07008 5.36004 9.36008 5.07004C9.65008 4.78004 10.1301 4.78004 10.4201 5.07004L11.3601 6.01004C11.6501 6.30004 11.6501 6.78004 11.3601 7.07004C11.2101 7.22004 11.0201 7.29001 10.8301 7.29001Z" fill="#242424"/>
<path d="M5.43985 13.3902C5.03985 13.3902 4.70985 13.0803 4.68985 12.6703C4.66985 12.2603 4.98985 11.9102 5.40985 11.8902L16.0898 11.4202C16.4998 11.3802 16.8498 11.7202 16.8698 12.1402C16.8898 12.5502 16.5698 12.9003 16.1498 12.9203L5.46985 13.3902C5.45985 13.3902 5.44985 13.3902 5.43985 13.3902Z" fill="#242424"/>
<path d="M17.3002 19.1499C16.1702 19.1499 15.2402 18.2298 15.2402 17.0898C15.2402 16.0098 16.3902 14.6799 16.7402 14.2999C17.0202 13.9899 17.5602 13.9899 17.8402 14.2999C18.1902 14.6799 19.3402 16.0198 19.3402 17.0898C19.3502 18.2298 18.4302 19.1499 17.3002 19.1499ZM17.3002 15.9998C16.9902 16.4398 16.7402 16.8798 16.7402 17.0898C16.7402 17.3898 16.9902 17.6499 17.3002 17.6499C17.6102 17.6499 17.8602 17.3998 17.8602 17.0898C17.8502 16.8798 17.6102 16.4398 17.3002 15.9998Z" fill="#242424"/>
<path d="M15 22.75H9C3.57 22.75 1.25 20.43 1.25 15V9C1.25 3.57 3.57 1.25 9 1.25H15C20.43 1.25 22.75 3.57 22.75 9V15C22.75 20.43 20.43 22.75 15 22.75ZM9 2.75C4.39 2.75 2.75 4.39 2.75 9V15C2.75 19.61 4.39 21.25 9 21.25H15C19.61 21.25 21.25 19.61 21.25 15V9C21.25 4.39 19.61 2.75 15 2.75H9Z" fill="#242424"/>
</svg>
