<svg width="24" height="24" viewBox="0 0 24 24" fill="none" xmlns="http://www.w3.org/2000/svg">
<path d="M10.4299 18.3699C10.2799 18.3699 10.1399 18.3299 10.0099 18.2399C9.79991 18.0999 9.67991 17.8699 9.67991 17.6199C9.67991 17.4699 9.66991 17.3099 9.64991 17.1499C9.55991 16.4399 9.23991 15.8199 8.69991 15.2799C8.15991 14.7399 7.48991 14.3999 6.76991 14.3099C6.64991 14.2999 6.47991 14.2899 6.31991 14.2999C6.05991 14.3199 5.81991 14.2099 5.66991 13.9999C5.51991 13.7999 5.47991 13.5299 5.55991 13.2899C5.70991 12.8799 5.92991 12.5099 6.18991 12.2099L7.72991 10.2699C10.3799 6.95992 15.7499 2.97992 19.6799 1.39992C20.5199 1.07992 21.3999 1.26992 22.0099 1.86992C22.6399 2.49992 22.8299 3.39992 22.4999 4.21992C20.9199 8.15992 16.9499 13.5199 13.6399 16.1699L11.6699 17.7499C11.2999 18.0199 10.9999 18.1899 10.6999 18.3099C10.6199 18.3499 10.5199 18.3699 10.4299 18.3699ZM7.53991 12.9399C8.37991 13.1599 9.12991 13.5999 9.75991 14.2299C10.3899 14.8499 10.8099 15.5699 11.0199 16.3699L12.7099 15.0099C15.8499 12.4999 19.6199 7.40992 21.1099 3.66992C21.2599 3.29992 21.0499 3.03992 20.9499 2.94992C20.8799 2.87992 20.6199 2.65992 20.2199 2.80992C16.4999 4.30992 11.4099 8.07992 8.88991 11.2199L7.53991 12.9399Z" fill="#242424"/>
<path d="M4.08011 22.7501C3.33011 22.7501 2.61011 22.4501 2.07011 21.9101C1.45011 21.2901 1.15011 20.4301 1.25011 19.5501L1.52011 17.0901C1.78011 14.6501 3.78011 12.8401 6.26011 12.7901C6.45011 12.7801 6.70011 12.7901 6.93011 12.8101C8.02011 12.9501 8.99011 13.4401 9.77011 14.2201C10.5401 14.9901 11.0001 15.9101 11.1401 16.9401C11.1701 17.1601 11.1901 17.4001 11.1901 17.6101C11.1901 18.9301 10.6801 20.1601 9.76011 21.0901C8.99011 21.8501 8.00011 22.3201 6.88011 22.4601L4.41011 22.7301C4.30011 22.7401 4.19011 22.7501 4.08011 22.7501ZM6.45011 14.3001C6.41011 14.3001 6.36011 14.3001 6.32011 14.3001C4.81011 14.3301 3.21011 15.3601 3.01011 17.2601L2.74011 19.7201C2.69011 20.1401 2.84011 20.5501 3.13011 20.8501C3.42011 21.1401 3.83011 21.2901 4.24011 21.2401L6.70011 20.9701C7.47011 20.8701 8.16011 20.5501 8.68011 20.0301C9.32011 19.3901 9.68011 18.5301 9.68011 17.6101C9.68011 17.4601 9.67011 17.3001 9.65011 17.1401C9.56011 16.4301 9.24011 15.8101 8.70011 15.2701C8.16011 14.7301 7.49011 14.3901 6.77011 14.3001C6.69011 14.3001 6.57011 14.3001 6.45011 14.3001Z" fill="#242424"/>
<path d="M14.24 15.2202C13.83 15.2202 13.49 14.8802 13.49 14.4702C13.49 12.2702 11.7 10.4902 9.51001 10.4902C9.10001 10.4902 8.76001 10.1502 8.76001 9.74023C8.76001 9.33023 9.09001 8.99023 9.50001 8.99023C12.52 8.99023 14.98 11.4502 14.98 14.4702C14.99 14.8902 14.65 15.2202 14.24 15.2202Z" fill="#242424"/>
<path d="M15.6799 22.7302C14.7499 22.7302 13.8199 22.2902 12.9299 21.4002C12.6399 21.1102 12.6399 20.6302 12.9299 20.3402C13.2199 20.0502 13.6999 20.0502 13.9899 20.3402C15.1699 21.5202 16.1799 21.5202 17.3599 20.3402L20.3199 17.3802C21.5099 16.1902 21.5099 15.1802 20.3199 14.0002L19.5799 13.2702C19.2899 12.9802 19.2799 12.5002 19.5699 12.2102C19.8599 11.9102 20.3399 11.9102 20.6299 12.2002L21.3699 12.9302C23.1499 14.7102 23.1499 16.6602 21.3699 18.4402L18.4099 21.4002C17.5399 22.2802 16.6099 22.7302 15.6799 22.7302Z" fill="#242424"/>
<path d="M3.11001 11.2598C2.92001 11.2598 2.72001 11.1898 2.58001 11.0398C0.82001 9.26977 0.82001 7.30977 2.58001 5.53977L5.54001 2.57977C7.30001 0.819766 9.28001 0.819766 11.04 2.57977L11.78 3.31977C12.07 3.60977 12.07 4.08977 11.78 4.37977C11.49 4.66977 11.01 4.66977 10.72 4.37977L9.97001 3.63977C8.79001 2.45977 7.77001 2.45977 6.60001 3.63977L3.64001 6.59977C2.46001 7.78977 2.46001 8.79977 3.64001 9.98977C3.93001 10.2798 3.93001 10.7598 3.64001 11.0498C3.49001 11.1898 3.30001 11.2598 3.11001 11.2598Z" fill="#242424"/>
<path d="M7.54999 8.30004C7.35999 8.30004 7.16999 8.23004 7.01999 8.08004C6.72999 7.79004 6.72999 7.31004 7.01999 7.02004L10.72 3.32004C11.01 3.03004 11.49 3.03004 11.78 3.32004C12.07 3.61004 12.07 4.09004 11.78 4.38004L8.07999 8.08004C7.92999 8.23004 7.73999 8.30004 7.54999 8.30004Z" fill="#242424"/>
<path d="M17.1601 16.4302C16.9701 16.4302 16.7801 16.3602 16.6301 16.2102C16.3401 15.9202 16.3401 15.4402 16.6301 15.1502L19.5901 12.1902C19.8801 11.9002 20.3601 11.9002 20.6501 12.1902C20.9401 12.4802 20.9401 12.9602 20.6501 13.2502L17.6901 16.2102C17.5501 16.3602 17.3601 16.4302 17.1601 16.4302Z" fill="#242424"/>
</svg>
