<svg width="24" height="24" viewBox="0 0 24 24" fill="none" xmlns="http://www.w3.org/2000/svg">
<path d="M21 22.75H9C8.59 22.75 8.25 22.41 8.25 22C8.25 21.59 8.59 21.25 9 21.25H21C21.41 21.25 21.75 21.59 21.75 22C21.75 22.41 21.41 22.75 21 22.75Z" fill="#242424"/>
<path d="M8.54013 22.71C7.54013 22.71 6.59017 22.32 5.89017 21.61L2.38016 18.1C0.920156 16.64 0.920156 14.26 2.38016 12.8L12.8101 2.37C14.2201 0.96 16.7001 0.96 18.1101 2.37L21.6201 5.87999C23.0801 7.33999 23.0801 9.72 21.6201 11.18L11.1902 21.61C10.4902 22.33 9.55013 22.71 8.54013 22.71ZM3.44015 17.05L6.95016 20.56C7.80016 21.41 9.29016 21.41 10.1302 20.56L20.5601 10.13C21.4401 9.24999 21.4401 7.82999 20.5601 6.94999L17.0501 3.44C16.2101 2.6 14.7201 2.59 13.8701 3.44L3.44015 13.87C2.56015 14.74 2.56015 16.17 3.44015 17.05Z" fill="#242424"/>
<path d="M14.87 17.6298C14.68 17.6298 14.4901 17.5598 14.3401 17.4098L6.59006 9.65983C6.30006 9.36983 6.30006 8.88982 6.59006 8.59982C6.88006 8.30982 7.36006 8.30982 7.65006 8.59982L15.4001 16.3498C15.6901 16.6398 15.6901 17.1198 15.4001 17.4098C15.2501 17.5598 15.06 17.6298 14.87 17.6298Z" fill="#242424"/>
<path d="M3.51999 18.4099C3.32999 18.4099 3.13996 18.3399 2.98996 18.1899C2.69996 17.8999 2.69996 17.4199 2.98996 17.1299L8.65 11.4699C8.94 11.1799 9.41999 11.1799 9.70999 11.4699C9.99999 11.7599 9.99999 12.2399 9.70999 12.5299L4.04996 18.1899C3.89996 18.3399 3.70999 18.4099 3.51999 18.4099Z" fill="#242424"/>
<path d="M6.33981 21.24C6.14981 21.24 5.95979 21.17 5.80979 21.02C5.51979 20.73 5.51979 20.25 5.80979 19.96L11.4698 14.3C11.7598 14.01 12.2398 14.01 12.5298 14.3C12.8198 14.59 12.8198 15.07 12.5298 15.36L6.86978 21.02C6.72978 21.16 6.53981 21.24 6.33981 21.24Z" fill="#242424"/>
</svg>
