<svg width="24" height="24" viewBox="0 0 24 24" fill="none" xmlns="http://www.w3.org/2000/svg">
<path d="M13.6201 18.1299H10.3901C7.26012 18.1299 5.87012 16.7399 5.87012 13.6099V10.3799C5.87012 7.24988 7.26012 5.85986 10.3901 5.85986H13.6201C16.7501 5.85986 18.1401 7.24988 18.1401 10.3799V13.6099C18.1301 16.7399 16.7401 18.1299 13.6201 18.1299ZM10.3801 7.36987C8.09012 7.36987 7.36012 8.09989 7.36012 10.3899V13.6199C7.36012 15.9099 8.09012 16.6399 10.3801 16.6399H13.6101C15.9001 16.6399 16.6301 15.9099 16.6301 13.6199V10.3899C16.6301 8.09989 15.9001 7.36987 13.6101 7.36987H10.3801Z" fill="#242424"/>
<path d="M18.23 13.52H17.38C16.97 13.52 16.63 13.18 16.63 12.77V10.39C16.63 8.10001 15.9 7.37 13.61 7.37H11.23C10.82 7.37 10.48 7.02999 10.48 6.62V5.76999C10.48 2.63999 11.87 1.25 15 1.25H18.23C21.36 1.25 22.75 2.63999 22.75 5.76999V9C22.75 12.13 21.36 13.52 18.23 13.52ZM18.13 12.02H18.23C20.52 12.02 21.25 11.29 21.25 9V5.76999C21.25 3.47999 20.52 2.75 18.23 2.75H15C12.71 2.75 11.98 3.47999 11.98 5.76999V5.87H13.61C16.74 5.87 18.13 7.26001 18.13 10.39V12.02Z" fill="#242424"/>
<path d="M9 22.75H5.77C2.64 22.75 1.25 21.36 1.25 18.23V15C1.25 11.87 2.64 10.48 5.77 10.48H6.62C7.03 10.48 7.37 10.82 7.37 11.23V13.61C7.37 15.9 8.1 16.63 10.39 16.63H12.77C13.18 16.63 13.52 16.97 13.52 17.38V18.23C13.52 21.36 12.13 22.75 9 22.75ZM5.77 11.98C3.48 11.98 2.75 12.71 2.75 15V18.23C2.75 20.52 3.48 21.25 5.77 21.25H9C11.29 21.25 12.02 20.52 12.02 18.23V18.13H10.39C7.26 18.13 5.87 16.74 5.87 13.61V11.98H5.77Z" fill="#242424"/>
</svg>
