<svg width="24" height="24" viewBox="0 0 24 24" fill="none" xmlns="http://www.w3.org/2000/svg">
<path d="M11.97 22.75C6.04997 22.75 1.21997 17.93 1.21997 12C1.21997 6.07 6.04997 1.25 11.97 1.25C17.89 1.25 22.72 6.07 22.72 12C22.72 17.93 17.9 22.75 11.97 22.75ZM11.97 2.75C6.86997 2.75 2.71997 6.9 2.71997 12C2.71997 17.1 6.86997 21.25 11.97 21.25C17.07 21.25 21.22 17.1 21.22 12C21.22 6.9 17.07 2.75 11.97 2.75Z" fill="#242424"/>
<path d="M12 17.25C9.1 17.25 6.75 14.89 6.75 12C6.75 9.11 9.1 6.75 12 6.75C14.9 6.75 17.25 9.11 17.25 12C17.25 14.89 14.9 17.25 12 17.25ZM12 8.25C9.93 8.25 8.25 9.93 8.25 12C8.25 14.07 9.93 15.75 12 15.75C14.07 15.75 15.75 14.07 15.75 12C15.75 9.93 14.07 8.25 12 8.25Z" fill="#242424"/>
<path d="M8.43997 9.21012C8.24997 9.21012 8.04997 9.14012 7.90997 9.00012L4.36997 5.46012C4.07997 5.17012 4.07997 4.69012 4.36997 4.40012C4.65997 4.11012 5.13997 4.11012 5.42997 4.40012L8.96997 7.94012C9.25997 8.23012 9.25997 8.70012 8.96997 9.00012C8.81997 9.14012 8.62997 9.21012 8.43997 9.21012Z" fill="#242424"/>
<path d="M4.89997 19.8202C4.70997 19.8202 4.51997 19.7502 4.36997 19.6002C4.07997 19.3102 4.07997 18.8302 4.36997 18.5402L7.90997 15.0002C8.19997 14.7102 8.67997 14.7102 8.96997 15.0002C9.25997 15.2902 9.25997 15.7702 8.96997 16.0602L5.42997 19.6002C5.28997 19.7502 5.08997 19.8202 4.89997 19.8202Z" fill="#242424"/>
<path d="M19.0399 19.8202C18.8499 19.8202 18.6599 19.7502 18.5099 19.6002L14.9699 16.0602C14.6799 15.7702 14.6799 15.2902 14.9699 15.0002C15.2599 14.7102 15.7399 14.7102 16.0299 15.0002L19.5699 18.5402C19.8599 18.8302 19.8599 19.3102 19.5699 19.6002C19.4299 19.7502 19.2399 19.8202 19.0399 19.8202Z" fill="#242424"/>
<path d="M15.51 9.20986C15.32 9.20986 15.13 9.13986 14.98 8.98986C14.69 8.69986 14.69 8.21986 14.98 7.92986L18.52 4.38986C18.81 4.09986 19.29 4.09986 19.58 4.38986C19.87 4.67986 19.87 5.15986 19.58 5.44986L16.04 8.99986C15.89 9.13986 15.7 9.20986 15.51 9.20986Z" fill="#242424"/>
</svg>
