<svg width="24" height="24" viewBox="0 0 24 24" fill="none" xmlns="http://www.w3.org/2000/svg">
<path d="M12 22.7198C6.09003 22.7198 1.28003 17.9098 1.28003 11.9998C1.28003 6.08979 6.09003 1.27979 12 1.27979C14.65 1.27979 17.19 2.25979 19.15 4.02979C21.42 6.03979 22.72 8.94979 22.72 11.9998C22.72 15.0498 21.42 17.9598 19.14 19.9798C17.19 21.7498 14.65 22.7198 12 22.7198ZM12 2.77979C6.91003 2.77979 2.78003 6.91979 2.78003 11.9998C2.78003 17.0798 6.92003 21.2198 12 21.2198C14.28 21.2198 16.46 20.3798 18.15 18.8498C20.11 17.1098 21.23 14.6198 21.23 11.9898C21.23 9.35979 20.11 6.86979 18.16 5.13979C16.46 3.61979 14.28 2.77979 12 2.77979Z" fill="#242424"/>
<path d="M10.44 18.9099C10.07 18.9099 9.68003 18.8299 9.30003 18.6799C6.56003 17.5799 4.78003 14.9499 4.78003 11.9999C4.78003 9.04989 6.55003 6.41989 9.30003 5.31989C10.17 4.96989 11.05 5.01989 11.71 5.45989C12.35 5.88989 12.71 6.64989 12.73 7.59989V16.3899V16.3999C12.72 17.3499 12.36 18.1199 11.71 18.5399C11.34 18.7899 10.9 18.9099 10.44 18.9099ZM10.44 6.58989C10.26 6.58989 10.06 6.62989 9.86003 6.70989C7.68003 7.57989 6.28003 9.65989 6.28003 11.9999C6.28003 14.3399 7.68003 16.4199 9.86003 17.2899C10.26 17.4499 10.64 17.4499 10.88 17.2999C11.16 17.1099 11.22 16.6999 11.23 16.3899V7.60989C11.23 7.30989 11.16 6.88989 10.88 6.69989C10.76 6.62989 10.61 6.58989 10.44 6.58989Z" fill="#242424"/>
</svg>
