<svg width="24" height="24" viewBox="0 0 24 24" fill="none" xmlns="http://www.w3.org/2000/svg">
<path d="M10.06 21.5802C9.06001 21.5802 8.05001 20.9002 6.70001 19.5602L3.24001 16.1002C0.300006 13.1602 0.600006 12.0302 3.24001 9.3802L8.81001 3.8002C10.78 1.8302 12.41 0.680196 15.53 3.8002L18.99 7.2602C21.8 10.0702 21.12 11.8502 18.99 13.9802L13.42 19.5502C12.07 20.9002 11.07 21.5802 10.06 21.5802ZM4.30001 15.0302L7.76001 18.4902C9.88001 20.6102 10.23 20.6202 12.36 18.4902L17.93 12.9202C19.6 11.2502 20.03 10.4202 17.93 8.3202L14.47 4.8602C12.28 2.6702 11.62 3.1202 9.87001 4.8602L4.30001 10.4302C2.18001 12.5602 2.00001 12.7302 4.30001 15.0302Z" fill="#242424"/>
<path d="M20.1399 21.4599C18.9999 21.4599 18.0999 21.0199 17.6599 20.2499C17.2199 19.4799 17.3099 18.4799 17.8999 17.4999L18.5599 16.4099C18.9499 15.7699 19.5199 15.3999 20.1399 15.3999C20.7599 15.3999 21.3399 15.7699 21.7199 16.4099L22.3799 17.4999C22.9699 18.4799 23.0499 19.4799 22.6199 20.2499C22.1899 21.0199 21.2699 21.4599 20.1399 21.4599ZM20.1399 16.8999C20.0899 16.8999 19.9699 16.9799 19.8399 17.1799L19.1799 18.2699C18.8799 18.7699 18.7999 19.2199 18.9599 19.5099C19.1199 19.7999 19.5499 19.9599 20.1299 19.9599C20.7099 19.9599 21.1399 19.7999 21.2999 19.5099C21.4599 19.2199 21.3799 18.7799 21.0799 18.2699L20.4199 17.1799C20.3099 16.9699 20.1899 16.8999 20.1399 16.8999Z" fill="#242424"/>
<path d="M1.99989 12.9901C1.66989 12.9901 1.36989 12.7701 1.27989 12.4401C1.16989 12.0401 1.40989 11.6301 1.80989 11.5201C7.47989 9.98011 13.4899 9.93011 19.1899 11.3901L19.6899 11.5201C20.0899 11.6201 20.3299 12.0301 20.2299 12.4301C20.1299 12.8301 19.7199 13.0701 19.3199 12.9701L18.8199 12.8401C13.3699 11.4401 7.62989 11.4901 2.20989 12.9701C2.12989 12.9901 2.05989 12.9901 1.99989 12.9901Z" fill="#242424"/>
</svg>
