<svg width="24" height="24" viewBox="0 0 24 24" fill="none" xmlns="http://www.w3.org/2000/svg">
<path d="M15.0399 13.0198C14.8499 13.0198 14.6499 12.9398 14.5099 12.7998L11.2199 9.50978C10.9699 9.25978 10.9299 8.87978 11.1199 8.57978L12.1499 6.94978C12.4799 6.41978 12.9999 6.08978 13.5899 6.02978C14.2399 5.95978 14.9199 6.21978 15.4399 6.73978L17.2899 8.58978C17.7899 9.08978 18.0399 9.76978 17.9699 10.4398C17.8999 11.0398 17.5799 11.5598 17.0799 11.8798L15.4499 12.9098C15.3099 12.9898 15.1699 13.0198 15.0399 13.0198ZM12.6999 8.86978L15.1499 11.3198L16.2699 10.6098C16.4099 10.5198 16.4599 10.3798 16.4699 10.2698C16.4899 10.0598 16.3999 9.81978 16.2199 9.63978L14.3699 7.79978C14.1699 7.59978 13.9399 7.49978 13.7499 7.51978C13.6099 7.53978 13.4999 7.60978 13.4099 7.74978L12.6999 8.86978Z" fill="#242424"/>
<path d="M8.28996 17.98C7.66996 17.98 7.08996 17.75 6.67996 17.34C6.19996 16.86 5.96996 16.16 6.05996 15.42L6.65996 10.35C6.85996 8.66003 7.67995 7.98003 9.39995 8.09003L11.79 8.23003C12.2 8.26003 12.52 8.61003 12.49 9.02003C12.46 9.43003 12.11 9.75003 11.7 9.72003L9.29996 9.59003C8.32996 9.53003 8.23996 9.68003 8.13996 10.53L7.53996 15.6C7.50996 15.88 7.57996 16.13 7.72996 16.28C7.88996 16.44 8.12996 16.51 8.40996 16.47L13.48 15.87C14.4 15.76 14.51 15.62 14.43 14.74L14.28 12.32C14.26 11.91 14.57 11.55 14.98 11.53C15.39 11.5 15.75 11.82 15.77 12.23L15.91 14.62C16.08 16.3 15.38 17.16 13.65 17.36L8.57996 17.96C8.48996 17.98 8.38996 17.98 8.28996 17.98Z" fill="#242424"/>
<path d="M7.48993 17.2699C7.29993 17.2699 7.10993 17.1999 6.95993 17.0499C6.66993 16.7599 6.66993 16.2799 6.95993 15.9899L8.80993 14.1399C9.09993 13.8499 9.57993 13.8499 9.86993 14.1399C10.1599 14.4299 10.1599 14.9099 9.86993 15.1999L8.01993 17.0499C7.87993 17.1999 7.68993 17.2699 7.48993 17.2699Z" fill="#242424"/>
<path d="M15 22.75H9C3.57 22.75 1.25 20.43 1.25 15V9C1.25 3.57 3.57 1.25 9 1.25H15C20.43 1.25 22.75 3.57 22.75 9V15C22.75 20.43 20.43 22.75 15 22.75ZM9 2.75C4.39 2.75 2.75 4.39 2.75 9V15C2.75 19.61 4.39 21.25 9 21.25H15C19.61 21.25 21.25 19.61 21.25 15V9C21.25 4.39 19.61 2.75 15 2.75H9Z" fill="#242424"/>
</svg>
