<svg width="24" height="24" viewBox="0 0 24 24" fill="none" xmlns="http://www.w3.org/2000/svg">
<path d="M14.15 22.7501H9.86997C8.84997 22.7501 7.90997 22.3201 7.30997 21.5601C6.77997 20.9001 6.58997 20.0601 6.76997 19.2601L7.45997 16.1801C7.53997 15.8401 7.83997 15.6001 8.18997 15.6001H15.83C16.18 15.6001 16.48 15.8401 16.56 16.1801L17.26 19.2601C17.45 20.1201 17.27 20.9501 16.75 21.6001C16.17 22.3301 15.22 22.7501 14.15 22.7501ZM8.78997 17.1001L8.22997 19.6001C8.14997 19.9601 8.23997 20.3201 8.47997 20.6301C8.78997 21.0201 9.30997 21.2501 9.86997 21.2501H14.16C14.77 21.2501 15.29 21.0401 15.58 20.6701C15.82 20.3801 15.89 20.0001 15.8 19.6001L15.24 17.1001H8.78997Z" fill="#242424"/>
<path d="M8.19006 17.1C8.01006 17.1 7.83006 17.04 7.69006 16.91L4.75006 14.3C2.82006 12.71 2.66006 11.17 4.25006 9.15L9.44006 2.57C10.1101 1.72 11.0301 1.25 12.0101 1.25C13.0001 1.25 13.9101 1.72 14.5801 2.57L19.7701 9.15C21.3401 11.14 21.2001 12.59 19.2701 14.3L16.3301 16.91C16.0201 17.18 15.5401 17.16 15.2701 16.85C15.0001 16.54 15.0201 16.07 15.3301 15.79L18.2701 13.18C19.5901 12.01 19.6501 11.43 18.5901 10.08L13.4101 3.5C12.6501 2.53 11.3801 2.53 10.6201 3.5L5.43006 10.08C4.34006 11.46 4.39006 12.07 5.72006 13.16L8.68006 15.79C8.99006 16.06 9.02006 16.54 8.74006 16.85C8.60006 17.01 8.40006 17.1 8.19006 17.1Z" fill="#242424"/>
<path d="M12.01 7.71992C11.6 7.71992 11.26 7.37992 11.26 6.96992V2.66992C11.26 2.25992 11.6 1.91992 12.01 1.91992C12.42 1.91992 12.76 2.25992 12.76 2.66992V6.96992C12.76 7.37992 12.42 7.71992 12.01 7.71992Z" fill="#242424"/>
<path d="M14.15 22.7501H9.86997C8.84997 22.7501 7.90997 22.3201 7.30997 21.5601C6.77997 20.9001 6.58997 20.0601 6.76997 19.2601L7.45997 16.1801C7.53997 15.8401 7.83997 15.6001 8.18997 15.6001H15.83C16.18 15.6001 16.48 15.8401 16.56 16.1801L17.26 19.2601C17.45 20.1201 17.27 20.9501 16.75 21.6001C16.17 22.3301 15.22 22.7501 14.15 22.7501ZM8.78997 17.1001L8.22997 19.6001C8.14997 19.9601 8.23997 20.3201 8.47997 20.6301C8.78997 21.0201 9.30997 21.2501 9.86997 21.2501H14.16C14.77 21.2501 15.29 21.0401 15.58 20.6701C15.82 20.3801 15.89 20.0001 15.8 19.6001L15.24 17.1001H8.78997Z" fill="#242424"/>
<path d="M8.19006 17.1C8.01006 17.1 7.83006 17.04 7.69006 16.91L4.75006 14.3C2.82006 12.71 2.66006 11.17 4.25006 9.15L9.44006 2.57C10.1101 1.72 11.0301 1.25 12.0101 1.25C13.0001 1.25 13.9101 1.72 14.5801 2.57L19.7701 9.15C21.3401 11.14 21.2001 12.59 19.2701 14.3L16.3301 16.91C16.0201 17.18 15.5401 17.16 15.2701 16.85C15.0001 16.54 15.0201 16.07 15.3301 15.79L18.2701 13.18C19.5901 12.01 19.6501 11.43 18.5901 10.08L13.4101 3.5C12.6501 2.53 11.3801 2.53 10.6201 3.5L5.43006 10.08C4.34006 11.46 4.39006 12.07 5.72006 13.16L8.68006 15.79C8.99006 16.06 9.02006 16.54 8.74006 16.85C8.60006 17.01 8.40006 17.1 8.19006 17.1Z" fill="#242424"/>
<path d="M12.01 7.71992C11.6 7.71992 11.26 7.37992 11.26 6.96992V2.66992C11.26 2.25992 11.6 1.91992 12.01 1.91992C12.42 1.91992 12.76 2.25992 12.76 2.66992V6.96992C12.76 7.37992 12.42 7.71992 12.01 7.71992Z" fill="#242424"/>
</svg>
