<svg width="24" height="24" viewBox="0 0 24 24" fill="none" xmlns="http://www.w3.org/2000/svg">
<path d="M18.2502 14.22C18.0602 14.22 17.8602 14.14 17.7202 14L12.0502 8.33001C11.8002 8.08001 11.7602 7.70001 11.9502 7.40001L13.7202 4.59996C14.2002 3.82996 14.9502 3.36 15.8102 3.26C16.7602 3.15 17.7702 3.54 18.5502 4.32L21.7302 7.49999C22.4802 8.24999 22.8502 9.24999 22.7402 10.25C22.6402 11.12 22.1802 11.8699 21.4602 12.3299L18.6602 14.1C18.5302 14.18 18.3902 14.22 18.2502 14.22ZM13.5402 7.7L18.3602 12.52L20.6502 11.07C20.9902 10.86 21.2002 10.51 21.2402 10.09C21.3002 9.56002 21.0802 8.99 20.6602 8.57L17.4802 5.39C17.0202 4.93 16.4702 4.7 15.9702 4.76C15.5702 4.8 15.2302 5.02996 14.9902 5.40996L13.5402 7.7Z" fill="#242424"/>
<path d="M6.6301 22.75C5.69009 22.75 4.86008 22.4201 4.24008 21.8001C3.52008 21.0801 3.20008 20.07 3.33008 18.95L4.31009 10.67C4.36009 10.26 4.7301 9.97003 5.1401 10.01C5.5501 10.06 5.85008 10.43 5.80008 10.84L4.8201 19.12C4.7401 19.77 4.91008 20.34 5.30008 20.73C5.69008 21.12 6.27008 21.3 6.93008 21.22L15.6501 20.19C17.5101 19.97 17.9201 19.47 17.7401 17.65L17.5001 13.5C17.4801 13.09 17.7901 12.73 18.2101 12.71C18.6201 12.69 18.9801 13.0001 19.0001 13.4201L19.2401 17.5401C19.5001 20.1201 18.4801 21.37 15.8301 21.69L7.11008 22.72C6.95008 22.74 6.7901 22.75 6.6301 22.75Z" fill="#242424"/>
<path d="M12.5801 8.56023C12.5601 8.56023 12.5501 8.56023 12.5301 8.56023L10.7801 8.45025C10.3701 8.42025 10.0501 8.07026 10.0801 7.65026C10.1101 7.23026 10.4601 6.92025 10.8801 6.95025L12.6301 7.06023C13.0401 7.09023 13.3601 7.44022 13.3301 7.86022C13.3001 8.25022 12.9701 8.56023 12.5801 8.56023Z" fill="#242424"/>
<path d="M5.28021 21.5301C5.09021 21.5301 4.90021 21.4602 4.75021 21.3102C4.46021 21.0202 4.46021 20.5401 4.75021 20.2501L7.93021 17.07C8.22021 16.78 8.70021 16.78 8.99021 17.07C9.28021 17.36 9.28021 17.8401 8.99021 18.1301L5.81021 21.3102C5.66021 21.4602 5.47021 21.5301 5.28021 21.5301Z" fill="#242424"/>
<path d="M6.5 11.75C5.91 11.75 5.34 11.65 4.81 11.47C3.65 11.08 2.65001 10.28 2.01001 9.21002C1.51001 8.39002 1.25 7.45 1.25 6.5C1.25 4.88 1.97001 3.39002 3.23001 2.40002C4.15001 1.66002 5.31 1.25 6.5 1.25C9.4 1.25 11.75 3.61 11.75 6.5C11.75 6.97 11.68 7.45997 11.55 7.90997C11.42 8.36997 11.24 8.79002 10.99 9.21002C10.7 9.69002 10.35 10.1 9.94 10.45C9 11.29 7.78 11.75 6.5 11.75ZM6.5 2.75C5.65 2.75 4.82 3.04001 4.16 3.57001C3.26 4.28001 2.75 5.34 2.75 6.5C2.75 7.17 2.94001 7.83999 3.29001 8.42999C3.75001 9.18999 4.46001 9.76998 5.29001 10.04C6.51001 10.47 7.94999 10.2 8.95999 9.31C9.24999 9.06 9.49999 8.75999 9.70999 8.42999C9.88999 8.12999 10.02 7.83 10.11 7.5C10.2 7.17 10.25 6.83 10.25 6.5C10.25 4.43 8.57 2.75 6.5 2.75Z" fill="#242424"/>
<path d="M8.15982 7.25H4.7998C4.3898 7.25 4.0498 6.91 4.0498 6.5C4.0498 6.09 4.3898 5.75 4.7998 5.75H8.15982C8.56982 5.75 8.90982 6.09 8.90982 6.5C8.90982 6.91 8.57982 7.25 8.15982 7.25Z" fill="#242424"/>
</svg>
