<svg width="24" height="24" viewBox="0 0 24 24" fill="none" xmlns="http://www.w3.org/2000/svg">
<path d="M11.42 19.2499H8.69C6 19.2499 4.75 17.9999 4.75 15.3099V12.5799C4.75 9.8999 6 8.6499 8.69 8.6499H11.42C14.1 8.6499 15.36 9.8999 15.36 12.5899V15.3199C15.35 17.9999 14.1 19.2499 11.42 19.2499ZM8.69 10.1499C6.82 10.1499 6.25 10.7199 6.25 12.5899V15.3199C6.25 17.1899 6.82 17.7599 8.69 17.7599H11.42C13.29 17.7599 13.86 17.1899 13.86 15.3199V12.5899C13.86 10.7199 13.29 10.1499 11.42 10.1499H8.69Z" fill="#242424"/>
<path d="M15.31 15.35H14.6C14.19 15.35 13.85 15.01 13.85 14.6V12.58C13.85 10.71 13.28 10.14 11.41 10.14H9.40002C8.99002 10.14 8.65002 9.8 8.65002 9.39V8.69C8.65002 6.01 9.90002 4.75 12.59 4.75H15.32C18 4.75 19.26 6 19.26 8.69V11.42C19.25 14.1 18 15.35 15.31 15.35ZM10.15 8.65H11.42C14.1 8.65 15.36 9.9 15.36 12.59V13.86C17.2 13.85 17.76 13.28 17.76 11.42V8.69C17.76 6.82 17.19 6.25 15.32 6.25H12.59C10.73 6.25 10.16 6.81 10.15 8.65Z" fill="#242424"/>
<path d="M14.9999 22.7502C14.7299 22.7502 14.4799 22.6002 14.3499 22.3702C14.2199 22.1302 14.2199 21.8502 14.3599 21.6102L15.4099 19.8602C15.6199 19.5002 16.0799 19.3902 16.4399 19.6002C16.7999 19.8102 16.9099 20.2702 16.6999 20.6302L16.4299 21.0802C19.1899 20.4302 21.2599 17.9502 21.2599 14.9902C21.2599 14.5802 21.5999 14.2402 22.0099 14.2402C22.4199 14.2402 22.7599 14.5802 22.7599 14.9902C22.7499 19.2702 19.2699 22.7502 14.9999 22.7502Z" fill="#242424"/>
<path d="M2 9.75C1.59 9.75 1.25 9.41 1.25 9C1.25 4.73 4.73 1.25 9 1.25C9.27 1.25 9.52 1.4 9.65 1.63C9.78 1.87 9.78 2.15 9.64 2.39L8.59 4.14C8.38 4.49 7.92 4.61 7.56 4.39C7.21 4.18 7.09 3.72 7.31 3.36L7.58 2.91C4.81 3.56 2.75 6.04 2.75 9C2.75 9.41 2.41 9.75 2 9.75Z" fill="#242424"/>
</svg>
