<svg width="24" height="24" viewBox="0 0 24 24" fill="none" xmlns="http://www.w3.org/2000/svg">
<path d="M18.47 22.75H14.47C12.05 22.75 10.72 21.42 10.72 19V5C10.72 2.58 12.05 1.25 14.47 1.25H18.47C20.89 1.25 22.22 2.58 22.22 5V19C22.22 21.42 20.88 22.75 18.47 22.75ZM14.47 2.75C12.89 2.75 12.22 3.42 12.22 5V19C12.22 20.58 12.89 21.25 14.47 21.25H18.47C20.05 21.25 20.72 20.58 20.72 19V5C20.72 3.42 20.05 2.75 18.47 2.75H14.47Z" fill="#242424"/>
<path d="M16.47 6.75H11.47C11.06 6.75 10.72 6.41 10.72 6C10.72 5.59 11.06 5.25 11.47 5.25H16.47C16.88 5.25 17.22 5.59 17.22 6C17.22 6.41 16.88 6.75 16.47 6.75Z" fill="#242424"/>
<path d="M15.47 18.75H11.47C11.06 18.75 10.72 18.41 10.72 18C10.72 17.59 11.06 17.25 11.47 17.25H15.47C15.88 17.25 16.22 17.59 16.22 18C16.22 18.41 15.88 18.75 15.47 18.75Z" fill="#242424"/>
<path d="M16.4699 14.7502C16.4599 14.7502 16.4599 14.7502 16.4699 14.7502L11.4599 14.7002C11.0499 14.7002 10.7099 14.3602 10.7199 13.9402C10.7199 13.5302 11.0599 13.2002 11.4699 13.2002C11.4699 13.2002 11.4699 13.2002 11.4799 13.2002L16.4799 13.2502C16.8899 13.2502 17.2299 13.5902 17.2199 14.0102C17.2099 14.4202 16.8799 14.7502 16.4699 14.7502Z" fill="#242424"/>
<path d="M14.47 10.75H11.47C11.06 10.75 10.72 10.41 10.72 10C10.72 9.59 11.06 9.25 11.47 9.25H14.47C14.88 9.25 15.22 9.59 15.22 10C15.22 10.41 14.88 10.75 14.47 10.75Z" fill="#242424"/>
<path d="M5.49003 22.72C4.58003 22.72 3.72003 22.16 3.13003 21.18L2.31003 19.82C2.01003 19.32 1.78003 18.5 1.78003 17.92V4.95C1.78003 2.91 3.44003 1.25 5.48003 1.25C7.52003 1.25 9.18003 2.91 9.18003 4.95V17.91C9.18003 18.49 8.95003 19.31 8.65003 19.81L7.83003 21.17C7.26003 22.16 6.40003 22.72 5.49003 22.72ZM5.49003 2.75C4.28003 2.75 3.29003 3.74 3.29003 4.95V17.91C3.29003 18.22 3.44003 18.77 3.60003 19.04L4.42003 20.4C4.73003 20.92 5.12003 21.21 5.49003 21.21C5.86003 21.21 6.25003 20.91 6.56003 20.4L7.38003 19.04C7.54003 18.77 7.69003 18.22 7.69003 17.91V4.95C7.69003 3.74 6.70003 2.75 5.49003 2.75Z" fill="#242424"/>
<path d="M8.44003 7.75H2.53003C2.12003 7.75 1.78003 7.41 1.78003 7C1.78003 6.59 2.12003 6.25 2.53003 6.25H8.44003C8.85003 6.25 9.19003 6.59 9.19003 7C9.19003 7.41 8.85003 7.75 8.44003 7.75Z" fill="#242424"/>
</svg>
