<svg width="24" height="24" viewBox="0 0 24 24" fill="none" xmlns="http://www.w3.org/2000/svg">
<path d="M13.4302 15.7502H4.4002C3.2802 15.7502 2.2602 15.1703 1.6902 14.2003C1.1202 13.2303 1.1002 12.0702 1.6402 11.0802L6.1502 2.87024C6.7102 1.85024 7.7402 1.24023 8.9102 1.24023C10.0802 1.24023 11.1102 1.85024 11.6702 2.87024L16.1902 11.0802C16.7302 12.0602 16.7102 13.2303 16.1402 14.2003C15.5702 15.1703 14.5502 15.7502 13.4302 15.7502ZM8.9102 2.75024C8.3002 2.75024 7.7602 3.07025 7.4702 3.60025L2.9602 11.8102C2.6802 12.3302 2.6902 12.9302 2.9802 13.4402C3.2802 13.9502 3.8102 14.2502 4.4002 14.2502H13.4302C14.0202 14.2502 14.5502 13.9502 14.8502 13.4402C15.1502 12.9302 15.1602 12.3302 14.8702 11.8102L10.3502 3.60025C10.0602 3.07025 9.5202 2.75024 8.9102 2.75024Z" fill="#242424"/>
<path d="M15.5 22.75C11.5 22.75 8.25 19.5 8.25 15.5C8.25 15.32 8.26 15.14 8.27 14.96C8.29 14.56 8.62 14.25 9.02 14.25H13.43C14.02 14.25 14.55 13.95 14.85 13.44C15.15 12.93 15.16 12.33 14.87 11.81L13.59 9.48001C13.47 9.27001 13.47 9.01999 13.57 8.79999C13.67 8.57999 13.87 8.43 14.1 8.38C14.55 8.29 15.02 8.25 15.5 8.25C19.5 8.25 22.75 11.5 22.75 15.5C22.75 19.5 19.5 22.75 15.5 22.75ZM9.76 15.75C9.89 18.81 12.42 21.25 15.5 21.25C18.67 21.25 21.25 18.67 21.25 15.5C21.25 12.33 18.67 9.75 15.5 9.75C15.48 9.75 15.47 9.75 15.45 9.75L16.19 11.09C16.73 12.07 16.71 13.24 16.14 14.21C15.57 15.18 14.56 15.76 13.43 15.76H9.76V15.75Z" fill="#242424"/>
</svg>
