<svg width="24" height="24" viewBox="0 0 24 24" fill="none" xmlns="http://www.w3.org/2000/svg">
<path d="M11.72 22.75H7.21997C3.06997 22.75 1.21997 20.9 1.21997 16.75V12.25C1.21997 8.1 3.06997 6.25 7.21997 6.25H11.72C15.87 6.25 17.72 8.1 17.72 12.25V16.75C17.72 20.9 15.87 22.75 11.72 22.75ZM7.21997 7.75C3.89997 7.75 2.71997 8.93 2.71997 12.25V16.75C2.71997 20.07 3.89997 21.25 7.21997 21.25H11.72C15.04 21.25 16.22 20.07 16.22 16.75V12.25C16.22 8.93 15.04 7.75 11.72 7.75H7.21997Z" fill="#242424"/>
<path d="M16.97 13.7198C16.78 13.7198 16.6 13.6498 16.46 13.5198C16.3 13.3798 16.22 13.1798 16.22 12.9698V12.2498C16.22 8.92977 15.04 7.74977 11.72 7.74977H11C10.79 7.74977 10.59 7.65977 10.45 7.50977C10.31 7.34977 10.24 7.14977 10.26 6.93977C10.55 3.69977 13.22 1.25977 16.48 1.25977C19.6 1.25977 22.26 3.58977 22.66 6.67977C22.7 6.91977 22.73 7.20977 22.73 7.50977C22.73 10.7698 20.29 13.4398 17.05 13.7298C17.02 13.7198 17 13.7198 16.97 13.7198ZM11.89 6.24977C15.86 6.29977 17.67 8.09977 17.72 12.0798C19.76 11.5398 21.22 9.68977 21.22 7.49977C21.22 7.28977 21.2 7.08977 21.17 6.89977C20.86 4.51977 18.84 2.74977 16.47 2.74977C14.28 2.74977 12.44 4.20977 11.89 6.24977Z" fill="#242424"/>
</svg>
