<svg width="24" height="24" viewBox="0 0 24 24" fill="none" xmlns="http://www.w3.org/2000/svg">
<path d="M11.5 9.25H2C1.59 9.25 1.25 8.91 1.25 8.5C1.25 8.09 1.59 7.75 2 7.75H11.5C11.91 7.75 12.25 8.09 12.25 8.5C12.25 8.91 11.91 9.25 11.5 9.25Z" fill="#242424"/>
<path d="M8 17.25H6C5.59 17.25 5.25 16.91 5.25 16.5C5.25 16.09 5.59 15.75 6 15.75H8C8.41 15.75 8.75 16.09 8.75 16.5C8.75 16.91 8.41 17.25 8 17.25Z" fill="#242424"/>
<path d="M14.5 17.25H10.5C10.09 17.25 9.75 16.91 9.75 16.5C9.75 16.09 10.09 15.75 10.5 15.75H14.5C14.91 15.75 15.25 16.09 15.25 16.5C15.25 16.91 14.91 17.25 14.5 17.25Z" fill="#242424"/>
<path d="M17.56 21.25H6.44C2.46 21.25 1.25 20.05 1.25 16.11V7.89C1.25 3.95 2.46 2.75 6.44 2.75H14.5C14.91 2.75 15.25 3.09 15.25 3.5C15.25 3.91 14.91 4.25 14.5 4.25H6.44C3.3 4.25 2.75 4.79 2.75 7.89V16.1C2.75 19.2 3.3 19.74 6.44 19.74H17.55C20.69 19.74 21.24 19.2 21.24 16.1V12.02C21.24 11.61 21.58 11.27 21.99 11.27C22.4 11.27 22.74 11.61 22.74 12.02V16.1C22.75 20.05 21.54 21.25 17.56 21.25Z" fill="#242424"/>
<path d="M15.52 11.4401C15.13 11.4401 14.76 11.3001 14.5 11.0301C14.18 10.7101 14.04 10.2501 14.11 9.77005L14.31 8.35005C14.36 7.99005 14.58 7.56005 14.83 7.31005L18.54 3.60005C20.01 2.13005 21.29 2.97005 21.93 3.60005C22.56 4.23005 23.4 5.51005 21.93 6.99005L18.22 10.7001C17.96 10.9601 17.53 11.1701 17.18 11.2201L15.76 11.4201C15.68 11.4301 15.6 11.4401 15.52 11.4401ZM20.23 4.28005C20.03 4.28005 19.85 4.42005 19.6 4.66005L15.9 8.37005C15.87 8.41005 15.81 8.52005 15.8 8.57005L15.6 9.92005L16.96 9.73005C17.01 9.72005 17.12 9.66005 17.16 9.63005L20.87 5.92005C21.34 5.45005 21.41 5.19005 20.87 4.66005C20.61 4.40005 20.42 4.28005 20.23 4.28005Z" fill="#242424"/>
<path d="M20.87 7.74006C20.8 7.74006 20.73 7.73006 20.67 7.71006C19.3 7.32006 18.21 6.24006 17.83 4.87006C17.72 4.47006 17.95 4.06006 18.35 3.94006C18.75 3.83006 19.16 4.06006 19.28 4.46006C19.53 5.33006 20.22 6.02006 21.09 6.27006C21.49 6.38006 21.72 6.80006 21.61 7.19006C21.5 7.52006 21.2 7.74006 20.87 7.74006Z" fill="#242424"/>
</svg>
