<svg width="24" height="24" viewBox="0 0 24 24" fill="none" xmlns="http://www.w3.org/2000/svg">
<path d="M21.8999 10.7803H1.8999C1.4899 10.7803 1.1499 10.4403 1.1499 10.0303C1.1499 9.62027 1.4899 9.28027 1.8999 9.28027H21.8999C22.3099 9.28027 22.6499 9.62027 22.6499 10.0303C22.6499 10.4403 22.3199 10.7803 21.8999 10.7803Z" fill="#242424"/>
<path d="M11.4599 21.28H6.34985C2.36985 21.28 1.1499 20.08 1.1499 16.14V7.92004C1.1499 4.77004 1.81989 3.02004 5.38989 2.81004C5.69989 2.80004 6.00985 2.79004 6.34985 2.79004H17.4599C21.4399 2.79004 22.6599 3.99004 22.6599 7.93004V12.34C22.6599 12.75 22.3199 13.09 21.9099 13.09C21.4999 13.09 21.1599 12.75 21.1599 12.34V7.93004C21.1599 4.84004 20.6099 4.29004 17.4599 4.29004H6.34985C6.02985 4.29004 5.7399 4.30004 5.4599 4.31004C3.2899 4.44004 2.6499 4.93004 2.6499 7.93004V16.15C2.6499 19.24 3.19985 19.79 6.34985 19.79H11.4599C11.8699 19.79 12.2099 20.13 12.2099 20.54C12.2099 20.95 11.8699 21.28 11.4599 21.28Z" fill="#242424"/>
<path d="M17.8999 22.7803C15.2799 22.7803 13.1499 20.6503 13.1499 18.0303C13.1499 15.4103 15.2799 13.2803 17.8999 13.2803C20.5199 13.2803 22.6499 15.4103 22.6499 18.0303C22.6499 20.6503 20.5199 22.7803 17.8999 22.7803ZM17.8999 14.7803C16.1099 14.7803 14.6499 16.2403 14.6499 18.0303C14.6499 19.8203 16.1099 21.2803 17.8999 21.2803C19.6899 21.2803 21.1499 19.8203 21.1499 18.0303C21.1499 16.2403 19.6899 14.7803 17.8999 14.7803Z" fill="#242424"/>
<path d="M18.9698 19.9C18.7798 19.9 18.5898 19.83 18.4398 19.68L16.3298 17.57C16.0398 17.28 16.0398 16.8 16.3298 16.51C16.6198 16.22 17.0998 16.22 17.3898 16.51L19.4998 18.62C19.7898 18.91 19.7898 19.39 19.4998 19.68C19.3598 19.82 19.1598 19.9 18.9698 19.9Z" fill="#242424"/>
<path d="M16.83 19.92C16.64 19.92 16.45 19.85 16.3 19.7C16.01 19.41 16.01 18.93 16.3 18.64L18.41 16.53C18.7 16.24 19.18 16.24 19.47 16.53C19.76 16.82 19.76 17.3 19.47 17.59L17.36 19.7C17.22 19.85 17.03 19.92 16.83 19.92Z" fill="#242424"/>
<path d="M9.8999 16.7803H5.8999C5.4899 16.7803 5.1499 16.4403 5.1499 16.0303C5.1499 15.6203 5.4899 15.2803 5.8999 15.2803H9.8999C10.3099 15.2803 10.6499 15.6203 10.6499 16.0303C10.6499 16.4403 10.3199 16.7803 9.8999 16.7803Z" fill="#242424"/>
</svg>
