<svg width="24" height="24" viewBox="0 0 24 24" fill="none" xmlns="http://www.w3.org/2000/svg">
<path d="M3.93 16.6301C3.74 16.6301 3.55 16.5601 3.4 16.4101C3.11 16.1201 3.11 15.6401 3.4 15.3501L15.35 3.40012C15.64 3.11012 16.12 3.11012 16.41 3.40012C16.7 3.69012 16.7 4.17012 16.41 4.46012L4.46 16.4201C4.32 16.5601 4.12 16.6301 3.93 16.6301Z" fill="#242424"/>
<path d="M11.1 19.03C10.91 19.03 10.72 18.96 10.57 18.81C10.28 18.52 10.28 18.04 10.57 17.75L11.77 16.55C12.06 16.26 12.54 16.26 12.83 16.55C13.12 16.84 13.12 17.32 12.83 17.61L11.63 18.81C11.49 18.95 11.3 19.03 11.1 19.03Z" fill="#242424"/>
<path d="M13.79 16.3401C13.6 16.3401 13.41 16.2701 13.26 16.1201C12.97 15.8301 12.97 15.3501 13.26 15.0601L15.65 12.6701C15.94 12.3801 16.42 12.3801 16.71 12.6701C17 12.9601 17 13.4401 16.71 13.7301L14.32 16.1201C14.18 16.2601 13.98 16.3401 13.79 16.3401Z" fill="#242424"/>
<path d="M11.1 22.7499C10.12 22.7499 9.13998 22.1499 7.94998 20.9599L3.03998 16.0499C0.649975 13.6599 0.659975 12.1199 3.06998 9.70991L9.70998 3.06991C12.12 0.659914 13.66 0.649914 16.05 3.03991L20.96 7.94991C23.35 10.3399 23.34 11.8799 20.93 14.2899L14.29 20.9299C13.08 22.1399 12.09 22.7499 11.1 22.7499ZM12.9 2.74991C12.38 2.74991 11.72 3.17991 10.77 4.12991L4.12998 10.7699C3.17998 11.7199 2.74998 12.3799 2.74998 12.8899C2.74998 13.4099 3.14998 14.0399 4.09998 14.9899L9.00998 19.8999C9.95998 20.8499 10.58 21.2499 11.1 21.2499C11.1 21.2499 11.1 21.2499 11.11 21.2499C11.63 21.2499 12.28 20.8199 13.23 19.8699L19.87 13.2299C20.82 12.2799 21.25 11.6199 21.25 11.1099C21.25 10.5899 20.85 9.95991 19.9 9.00991L14.99 4.09991C14.05 3.14991 13.42 2.74991 12.9 2.74991Z" fill="#242424"/>
<path d="M22 22.75H2C1.59 22.75 1.25 22.41 1.25 22C1.25 21.59 1.59 21.25 2 21.25H22C22.41 21.25 22.75 21.59 22.75 22C22.75 22.41 22.41 22.75 22 22.75Z" fill="#242424"/>
</svg>
