<svg width="24" height="24" viewBox="0 0 24 24" fill="none" xmlns="http://www.w3.org/2000/svg">
<path d="M13.4 17.4201H10.89C9.24997 17.4201 7.91997 16.0401 7.91997 14.3401C7.91997 13.9301 8.25997 13.5901 8.66997 13.5901C9.07997 13.5901 9.41997 13.9301 9.41997 14.3401C9.41997 15.2101 10.08 15.9201 10.89 15.9201H13.4C14.05 15.9201 14.59 15.3401 14.59 14.6401C14.59 13.7701 14.28 13.6001 13.77 13.4201L9.73997 12.0001C8.95997 11.7301 7.90997 11.1501 7.90997 9.36008C7.90997 7.82008 9.11997 6.58008 10.6 6.58008H13.11C14.75 6.58008 16.08 7.96008 16.08 9.66008C16.08 10.0701 15.74 10.4101 15.33 10.4101C14.92 10.4101 14.58 10.0701 14.58 9.66008C14.58 8.79008 13.92 8.08008 13.11 8.08008H10.6C9.94997 8.08008 9.40997 8.66008 9.40997 9.36008C9.40997 10.2301 9.71997 10.4001 10.23 10.5801L14.26 12.0001C15.04 12.2701 16.09 12.8501 16.09 14.6401C16.08 16.1701 14.88 17.4201 13.4 17.4201Z" fill="#242424"/>
<path d="M12 18.75C11.59 18.75 11.25 18.41 11.25 18V6C11.25 5.59 11.59 5.25 12 5.25C12.41 5.25 12.75 5.59 12.75 6V18C12.75 18.41 12.41 18.75 12 18.75Z" fill="#242424"/>
<path d="M12 22.75C6.07 22.75 1.25 17.93 1.25 12C1.25 6.07 6.07 1.25 12 1.25C17.93 1.25 22.75 6.07 22.75 12C22.75 17.93 17.93 22.75 12 22.75ZM12 2.75C6.9 2.75 2.75 6.9 2.75 12C2.75 17.1 6.9 21.25 12 21.25C17.1 21.25 21.25 17.1 21.25 12C21.25 6.9 17.1 2.75 12 2.75Z" fill="#242424"/>
</svg>
