<svg width="24" height="24" viewBox="0 0 24 24" fill="none" xmlns="http://www.w3.org/2000/svg">
<path d="M21.7 6.39014H14.43C14.02 6.39014 13.68 6.05014 13.68 5.64014C13.68 5.23014 14.02 4.89014 14.43 4.89014H21.7C22.11 4.89014 22.45 5.23014 22.45 5.64014C22.45 6.05014 22.11 6.39014 21.7 6.39014Z" fill="#242424"/>
<path d="M9.57999 6.39014H2.29999C1.88999 6.39014 1.54999 6.05014 1.54999 5.64014C1.54999 5.23014 1.88999 4.89014 2.29999 4.89014H9.56999C9.97999 4.89014 10.32 5.23014 10.32 5.64014C10.32 6.05014 9.98999 6.39014 9.57999 6.39014Z" fill="#242424"/>
<path d="M21.7 16.0801H14.43C14.02 16.0801 13.68 15.7401 13.68 15.3301C13.68 14.9201 14.02 14.5801 14.43 14.5801H21.7C22.11 14.5801 22.45 14.9201 22.45 15.3301C22.45 15.7401 22.11 16.0801 21.7 16.0801Z" fill="#242424"/>
<path d="M21.7 22.1401H14.43C14.02 22.1401 13.68 21.8001 13.68 21.3901C13.68 20.9801 14.02 20.6401 14.43 20.6401H21.7C22.11 20.6401 22.45 20.9801 22.45 21.3901C22.45 21.8001 22.11 22.1401 21.7 22.1401Z" fill="#242424"/>
<path d="M18.09 10.02C17.68 10.02 17.34 9.68 17.34 9.27V2C17.34 1.59 17.68 1.25 18.09 1.25C18.5 1.25 18.84 1.59 18.84 2V9.27C18.84 9.69 18.51 10.02 18.09 10.02Z" fill="#242424"/>
<path d="M2.29999 22.7499C2.10999 22.7499 1.91999 22.6799 1.76999 22.5299C1.47999 22.2399 1.47999 21.7599 1.76999 21.4699L9.03999 14.1999C9.32999 13.9099 9.80999 13.9099 10.1 14.1999C10.39 14.4899 10.39 14.9699 10.1 15.2599L2.82999 22.5299C2.68999 22.6799 2.49999 22.7499 2.29999 22.7499Z" fill="#242424"/>
<path d="M9.58 22.7499C9.39 22.7499 9.2 22.6799 9.05 22.5299L1.78 15.2599C1.49 14.9699 1.49 14.4899 1.78 14.1999C2.07 13.9099 2.55 13.9099 2.84 14.1999L10.11 21.4699C10.4 21.7599 10.4 22.2399 10.11 22.5299C9.96 22.6799 9.77 22.7499 9.58 22.7499Z" fill="#242424"/>
</svg>
