<svg width="24" height="24" viewBox="0 0 24 24" fill="none" xmlns="http://www.w3.org/2000/svg">
<path d="M15 22.75H9C3.57 22.75 1.25 20.43 1.25 15V9C1.25 3.57 3.57 1.25 9 1.25H15C20.43 1.25 22.75 3.57 22.75 9V15C22.75 20.43 20.43 22.75 15 22.75ZM9 2.75C4.39 2.75 2.75 4.39 2.75 9V15C2.75 19.61 4.39 21.25 9 21.25H15C19.61 21.25 21.25 19.61 21.25 15V9C21.25 4.39 19.61 2.75 15 2.75H9Z" fill="#242424"/>
<path d="M12.0001 16.5601C10.9001 16.5601 10.0001 15.6601 10.0001 14.5601V12.9601C9.41012 12.4701 9.01013 11.7801 8.91013 11.0101C8.89013 10.8901 8.87012 10.7201 8.87012 10.5601C8.87012 9.5901 9.31012 8.6901 10.0901 8.0901C10.8701 7.4901 11.8701 7.3001 12.8301 7.5501C13.8801 7.8301 14.7501 8.69011 15.0201 9.74011C15.1301 10.1501 15.1601 10.5801 15.0901 11.0101C14.9801 11.7701 14.5901 12.4601 14.0001 12.9501V14.5501C14.0001 15.6601 13.1001 16.5601 12.0001 16.5601ZM11.9901 8.9401C11.6301 8.9401 11.2901 9.0501 11.0001 9.2801C10.6001 9.5901 10.3701 10.0601 10.3701 10.5601C10.3701 10.6301 10.3701 10.7101 10.3901 10.7701C10.4601 11.2701 10.7301 11.6801 11.1501 11.9401L11.5001 12.1601V14.5601C11.5001 14.8401 11.7201 15.0601 12.0001 15.0601C12.2801 15.0601 12.5001 14.8401 12.5001 14.5601V12.1601L12.8501 11.9401C13.2601 11.6801 13.5401 11.2701 13.6001 10.8001V10.7801C13.6401 10.5601 13.6301 10.3401 13.5701 10.1301C13.4301 9.58011 12.9801 9.1401 12.4401 9.0001C12.2901 8.9601 12.1401 8.9401 11.9901 8.9401Z" fill="#242424"/>
<path d="M22.0001 10.1602H14.3501V11.6602H22.0001V10.1602Z" fill="#242424"/>
<path d="M9.64999 10.1602H2V11.6602H9.64999V10.1602Z" fill="#242424"/>
</svg>
