<svg width="24" height="24" viewBox="0 0 24 24" fill="none" xmlns="http://www.w3.org/2000/svg">
<path d="M12.07 21.9798C10.66 21.9798 9.24 21.4398 8.17 20.3698L3.64 15.8398C2.54 14.7398 1.96 13.2198 2.03 11.6698L2.27 6.65983C2.38 4.26983 4.27 2.37983 6.67 2.25983L11.67 2.01983C13.23 1.94983 14.74 2.52983 15.84 3.62983L20.37 8.15983C22.52 10.3098 22.52 13.8198 20.37 15.9698L15.98 20.3598C14.9 21.4398 13.49 21.9798 12.07 21.9798ZM4.7 14.7698L9.23 19.2998C10.8 20.8698 13.35 20.8698 14.92 19.2998L19.31 14.9098C20.88 13.3398 20.88 10.7898 19.31 9.21983L14.77 4.69983C13.97 3.89983 12.88 3.47983 11.73 3.52983L6.73 3.76983C5.11 3.83983 3.84 5.10983 3.76 6.72983L3.52 11.7398C3.47 12.8598 3.9 13.9698 4.7 14.7698Z" fill="#242424"/>
<path d="M9.5 12.75C7.71 12.75 6.25 11.29 6.25 9.5C6.25 7.71 7.71 6.25 9.5 6.25C11.29 6.25 12.75 7.71 12.75 9.5C12.75 11.29 11.29 12.75 9.5 12.75ZM9.5 7.75C8.54 7.75 7.75 8.54 7.75 9.5C7.75 10.46 8.54 11.25 9.5 11.25C10.46 11.25 11.25 10.46 11.25 9.5C11.25 8.54 10.46 7.75 9.5 7.75Z" fill="#242424"/>
<path d="M13 17.7499C12.81 17.7499 12.62 17.6799 12.47 17.5299C12.18 17.2399 12.18 16.7599 12.47 16.4699L16.47 12.4699C16.76 12.1799 17.24 12.1799 17.53 12.4699C17.82 12.7599 17.82 13.2399 17.53 13.5299L13.53 17.5299C13.38 17.6799 13.19 17.7499 13 17.7499Z" fill="#242424"/>
</svg>
