<svg width="24" height="24" viewBox="0 0 24 24" fill="none" xmlns="http://www.w3.org/2000/svg">
<path d="M12.07 21.9802C10.66 21.9802 9.24 21.4402 8.17 20.3702L3.64 15.8402C2.54 14.7402 1.96 13.2202 2.03 11.6702L2.27 6.67018C2.38 4.28018 4.27 2.39018 6.67 2.27018L11.67 2.03018C13.22 1.97018 14.74 2.54018 15.84 3.64018L20.37 8.17018C22.52 10.3202 22.52 13.8302 20.37 15.9802L15.98 20.3702C14.9 21.4402 13.49 21.9802 12.07 21.9802ZM4.7 14.7702L9.23 19.3002C9.99 20.0602 11 20.4802 12.07 20.4802C13.14 20.4802 14.15 20.0602 14.91 19.3002L19.3 14.9102C20.06 14.1502 20.48 13.1402 20.48 12.0702C20.48 11.0002 20.06 9.99018 19.3 9.23018L14.77 4.70018C13.97 3.90018 12.86 3.47018 11.74 3.53018L6.74 3.77018C5.11 3.84018 3.84 5.11018 3.76 6.73018L3.52 11.7302C3.47 12.8602 3.9 13.9702 4.7 14.7702Z" fill="#242424"/>
<path d="M9.5 12.75C7.71 12.75 6.25 11.29 6.25 9.5C6.25 7.71 7.71 6.25 9.5 6.25C11.29 6.25 12.75 7.71 12.75 9.5C12.75 11.29 11.29 12.75 9.5 12.75ZM9.5 7.75C8.54 7.75 7.75 8.54 7.75 9.5C7.75 10.46 8.54 11.25 9.5 11.25C10.46 11.25 11.25 10.46 11.25 9.5C11.25 8.54 10.46 7.75 9.5 7.75Z" fill="#242424"/>
</svg>
