<svg width="24" height="24" viewBox="0 0 24 24" fill="none" xmlns="http://www.w3.org/2000/svg">
<path d="M17 20.75H7C2.75 20.75 1.36 19.48 1.26 15.52C1.26 15.32 1.33 15.12 1.47 14.98C1.61 14.84 1.8 14.75 2.01 14.75C3.52 14.75 4.75 13.51 4.75 12C4.75 10.49 3.52 9.25 2.01 9.25C1.81 9.25 1.62 9.17 1.47 9.02C1.32 8.87 1.25 8.68 1.26 8.48C1.36 4.52 2.75 3.25 7 3.25H17C21.41 3.25 22.75 4.59 22.75 9V15C22.75 19.41 21.41 20.75 17 20.75ZM2.79 16.18C2.96 18.72 3.82 19.25 7 19.25H17C20.58 19.25 21.25 18.57 21.25 15V9C21.25 5.43 20.58 4.75 17 4.75H7C3.82 4.75 2.96 5.29 2.79 7.82C4.76 8.2 6.25 9.93 6.25 12C6.25 14.07 4.76 15.8 2.79 16.18Z" fill="#242424"/>
<path d="M9 8.25C8.59 8.25 8.25 7.91 8.25 7.5V4C8.25 3.59 8.59 3.25 9 3.25C9.41 3.25 9.75 3.59 9.75 4V7.5C9.75 7.91 9.41 8.25 9 8.25Z" fill="#242424"/>
<path d="M9 20.75C8.59 20.75 8.25 20.41 8.25 20V16.5C8.25 16.09 8.59 15.75 9 15.75C9.41 15.75 9.75 16.09 9.75 16.5V20C9.75 20.41 9.41 20.75 9 20.75Z" fill="#242424"/>
<path d="M13.04 15.6501C12.8 15.6501 12.56 15.5701 12.36 15.4301C12 15.1701 11.82 14.7301 11.9 14.2901L12.11 13.1001L11.24 12.2501C10.92 11.9401 10.81 11.4801 10.94 11.0601C11.08 10.6401 11.44 10.3301 11.88 10.2701L13.08 10.0901L13.62 9.0001C13.82 8.6001 14.22 8.3501 14.66 8.3501C15.11 8.3501 15.51 8.6001 15.7 9.0001L16.24 10.0901L17.44 10.2701C17.88 10.3301 18.24 10.6401 18.38 11.0601C18.52 11.4801 18.4 11.9401 18.08 12.2501L17.21 13.1001L17.42 14.2901C17.5 14.7301 17.32 15.1701 16.96 15.4301C16.6 15.6901 16.13 15.7201 15.74 15.5201L14.67 14.9601L13.59 15.5201C13.42 15.6101 13.23 15.6501 13.04 15.6501ZM12.77 11.6501L13.28 12.1501C13.56 12.4201 13.68 12.8001 13.62 13.1801L13.5 13.8801L14.13 13.5501C14.47 13.3701 14.87 13.3701 15.21 13.5501L15.84 13.8801L15.72 13.1801C15.66 12.7901 15.78 12.4101 16.06 12.1501L16.57 11.6501L15.87 11.5501C15.49 11.4901 15.16 11.2501 14.99 10.9101L14.68 10.2701L14.37 10.9101C14.2 11.2501 13.87 11.4901 13.49 11.5501L12.77 11.6501Z" fill="#242424"/>
</svg>
