<svg width="24" height="24" viewBox="0 0 24 24" fill="none" xmlns="http://www.w3.org/2000/svg">
<path d="M16.69 22.75H7.31C3.14 22.75 1.87 21.48 1.87 17.31V16.85C1.87 16.44 2.21 16.1 2.61999 16.1C3.49999 16.1 4.22 15.38 4.22 14.5C4.22 13.62 3.49999 12.9 2.61999 12.9C2.21 12.9 1.87 12.56 1.87 12.15V11.69C1.87 7.52 3.14 6.25 7.31 6.25H16.69C20.86 6.25 22.13 7.52 22.13 11.69V12.63C22.13 13.04 21.79 13.38 21.38 13.38C20.5 13.38 19.78 14.1 19.78 14.98C19.78 15.86 20.5 16.57 21.38 16.57C21.79 16.57 22.13 16.91 22.13 17.32C22.12 21.48 20.85 22.75 16.69 22.75ZM3.38 17.51C3.4 20.69 4.03 21.25 7.32 21.25H16.7C19.82 21.25 20.54 20.74 20.63 17.97C19.29 17.63 18.29 16.42 18.29 14.97C18.29 13.52 19.29 12.3 20.64 11.96V11.68C20.64 8.33 20.05 7.74 16.7 7.74H7.31C4.03 7.74 3.39999 8.31 3.36999 11.48C4.72 11.82 5.72 13.04 5.72 14.49C5.72 15.94 4.72 17.17 3.38 17.51Z" fill="#242424"/>
<path d="M10 10.25C9.59 10.25 9.25 9.91 9.25 9.5V7C9.25 6.59 9.59 6.25 10 6.25C10.41 6.25 10.75 6.59 10.75 7V9.5C10.75 9.91 10.41 10.25 10 10.25Z" fill="#242424"/>
<path d="M10 16.9198C9.59 16.9198 9.25 16.5798 9.25 16.1698V12.8398C9.25 12.4298 9.59 12.0898 10 12.0898C10.41 12.0898 10.75 12.4298 10.75 12.8398V16.1698C10.75 16.5798 10.41 16.9198 10 16.9198Z" fill="#242424"/>
<path d="M10 22.75C9.59 22.75 9.25 22.41 9.25 22V19.5C9.25 19.09 9.59 18.75 10 18.75C10.41 18.75 10.75 19.09 10.75 19.5V22C10.75 22.41 10.41 22.75 10 22.75Z" fill="#242424"/>
<path d="M16.33 7.75014H7.23999C6.93999 7.75014 6.65999 7.57014 6.54999 7.29014C6.43999 7.01014 6.49999 6.68014 6.70999 6.47014L9.63999 3.54014C12.34 0.840137 13.99 0.840137 16.68 3.54014L17.28 4.14014C17.42 4.28014 17.5 4.47014 17.5 4.67014C17.5 4.87014 17.42 5.06014 17.28 5.20014C16.88 5.60014 16.77 6.19014 17 6.70014C17.11 6.93014 17.09 7.20014 16.95 7.42014C16.82 7.62014 16.58 7.75014 16.33 7.75014ZM9.04999 6.25014H15.38C15.36 5.72014 15.49 5.19014 15.76 4.73014L15.63 4.60014C13.54 2.51014 12.8 2.51014 10.71 4.60014L9.04999 6.25014Z" fill="#242424"/>
</svg>
