<svg width="24" height="24" viewBox="0 0 24 24" fill="none" xmlns="http://www.w3.org/2000/svg">
<path d="M17.38 20.75H10.91C10.5 20.75 10.16 20.41 10.16 20C10.16 19.59 10.5 19.25 10.91 19.25H17.38C20.44 19.25 21.16 18.75 21.24 16.03C19.92 15.69 18.94 14.49 18.94 13.07C18.94 11.64 19.92 10.43 21.25 10.09V9.82996C21.25 6.53996 20.67 5.95996 17.38 5.95996H11.75V12C11.75 12.41 11.41 12.75 11 12.75C10.59 12.75 10.25 12.41 10.25 12V5.20996C10.25 4.79996 10.59 4.45996 11 4.45996H17.38C21.5 4.45996 22.75 5.70996 22.75 9.82996V10.75C22.75 11.16 22.41 11.5 22 11.5C21.14 11.5 20.44 12.2 20.44 13.07C20.44 13.93 21.14 14.63 22 14.63C22.41 14.63 22.75 14.97 22.75 15.38C22.75 19.5 21.5 20.75 17.38 20.75Z" fill="#242424"/>
<path d="M11 20.7502H8.23001C6.21001 20.7502 5.17001 19.2302 4.22001 16.9502L4.03001 16.4902C3.96001 16.3102 3.96001 16.1002 4.04001 15.9202C4.12001 15.7402 4.27001 15.5902 4.45001 15.5202C4.85001 15.3602 5.16001 15.0502 5.33001 14.6602C5.50001 14.2602 5.50001 13.8202 5.33001 13.4202C5.00001 12.5802 4.05001 12.1902 3.21001 12.5202C3.02001 12.6002 2.82001 12.5902 2.63001 12.5102C2.45001 12.4302 2.30001 12.2802 2.23001 12.1002L2.06001 11.6702C0.460009 7.78022 1.16001 6.11022 5.05001 4.50022L7.69001 3.42022C8.07001 3.26022 8.51001 3.45022 8.67001 3.83022L11.7 11.1702C11.74 11.2602 11.76 11.3602 11.76 11.4602V14.0002C11.76 14.4102 11.42 14.7502 11.01 14.7502C10.6 14.7502 10.26 14.4102 10.26 14.0002V11.6002L7.56001 5.09022L5.62001 5.89022C2.54001 7.16022 2.17001 7.94022 3.38001 10.9402C4.77001 10.7402 6.17001 11.4902 6.72001 12.8402C7.04001 13.6102 7.04001 14.4602 6.71001 15.2302C6.49001 15.7602 6.13001 16.2102 5.67001 16.5402C6.63001 18.8002 7.33001 19.2502 8.22001 19.2502H10.24V17.0002C10.24 16.5902 10.58 16.2502 10.99 16.2502C11.4 16.2502 11.74 16.5902 11.74 17.0002V20.0002C11.75 20.4102 11.41 20.7502 11 20.7502Z" fill="#242424"/>
<path d="M8.17 20.75H8C7.59 20.75 7.25 20.41 7.25 20C7.25 19.59 7.59 19.25 8 19.25H8.17C8.58 19.25 8.92 19.59 8.92 20C8.92 20.41 8.58 20.75 8.17 20.75Z" fill="#242424"/>
</svg>
